<?xml version="1.0" encoding="UTF-8"?><svg id="Layer_1" xmlns="http://www.w3.org/2000/svg" viewBox="0 0 1000 1000"><defs><style>.cls-1{fill:#4eb25d;}.cls-2{fill:#487c57;}.cls-3{fill:#3bb54a;}.cls-4{fill:#f5f7f7;}.cls-5{fill:#46a359;}.cls-6{fill:#e5f4f5;}.cls-7{fill:#b2cdce;}.cls-8{fill:#edf2f1;}.cls-9{fill:#aed687;}.cls-10{fill:#add587;}.cls-11{fill:#318241;}.cls-12{fill:#3db54a;}.cls-13{fill:#f7f9f9;}.cls-14{fill:#acd587;}.cls-15{fill:#2f7f40;}.cls-16{fill:#b3cfcf;}.cls-17{fill:#308140;}.cls-18{fill:#b2cdcc;}.cls-19{fill:#060606;}</style></defs><path class="cls-19" d="M817.03,467.1c21.03-2.43,41.73-6.06,62.55-6.91,26.22-1.07,52.54-.04,78.81,.44,7.13,.13,11.88,7.09,11.64,15.65-1.38,50.25-9.16,99.49-26.09,146.77-52.93,147.79-151.11,251.85-298.3,303.6-136.09,47.84-267.2,29.65-388.46-47.85-115.51-73.83-186.91-180.71-215.5-315.87-6.08-28.73-6.78-58.64-9.62-88.04-.71-7.4,5.37-13.76,12.29-14.25,42.7-2.99,85.27-2.45,127.58,4.92,3.94,.69,7.86,1.43,13.61,2.47-2.32-3.22-3.71-5.22-5.17-7.16-38.69-51.27-53-108.02-31.57-169.86,23.76-68.56,74.29-106.01,144.51-116.95,7.26-1.13,11.49-3.23,14.97-10.31,39.03-79.55,127.11-127.7,214.93-117.37,78.69,9.26,136.11,50.23,172.63,121.11,2.95,5.73,7.12,5.53,11.74,6.22,59.68,8.93,107.09,37.91,135.22,92.4,34.35,66.54,24.18,130.53-18.24,190.46-2.33,3.3-5.03,6.33-7.53,9.51-.13,.17-.02,.53-.02,1.03Zm-202.59,283.3l.05,.02c-1.19-3.26-2.38-6.53-3.57-9.79,.09-.5-.01-.95-.31-1.35-.99-3.29-1.98-6.58-2.97-9.86-.52-14.14-2.28-28.38-1.16-42.39,.83-10.44,5.38-20.57,8.27-30.84,17.74-32.3,44.06-54.89,77.17-69.8l15.59-4.05c17.62-1.05,35.24-2.11,52.86-3.16,8.86,1.92,17.89,3.24,26.54,5.88,27.51,8.39,50.45,24.25,69.97,45.37,9.42,13.85,18.85,27.7,28.2,41.44,14.32-27.11,25.99-56.56,33.16-87.48,5.97-25.75,9.7-52.03,14.41-78.08l.21-4.76c.28-2.2,.56-4.41,.88-6.99-45.05-2.78-88.29,2.15-130.78,13.58-97.84,26.32-177.15,79.17-231.82,166.93-26.53,42.59-43.17,88.8-49.19,138.84-.89,9.95-1.78,19.9-2.67,29.84-.18,22.36-.41,44.72-.46,67.08,0,1.56,1.3,3.13,1.99,4.69,1.34,.02,2.68,.14,4.01,.05,61.54-3.99,119.59-20.63,173.52-50.78,18.89-10.56,36.4-23.62,54.54-35.53,.29-.33,.57-.67,.86-1-.55,.06-1.11,.13-1.66,.19-12.81-.74-25.79-.4-38.39-2.45-26.35-4.29-48.61-17.77-69.12-34.46-7.98-9.87-15.95-19.75-23.93-29.62l.08,.03c-1.07-1.87-2.15-3.74-3.22-5.61,.17-.31,.11-.57-.18-.77-.96-1.72-1.92-3.44-2.89-5.16ZM216.04,248.59l-6.29,6.75-1.56,1.77c-1.67,2.11-3.35,4.22-5.02,6.33-15.48,19.01-24.92,40.6-27.23,65.23-.47,1.8-1.22,3.57-1.37,5.39-2.08,25.7,1.8,50.62,13.46,73.43,28.43,55.61,73.87,86.98,135.73,91.64,35.33,2.66,67.66-7.85,96.39-29.24-.46-.69-.55-1.03-.76-1.13-3.34-1.65-6.67-3.32-10.05-4.9-45.66-21.42-79.74-54.92-102.63-100.24-11.82-23.4-18.23-48.42-22.29-74.18-.23-14.08-.46-28.17-.69-42.25l1.1-9.76,.32-3.27c1.64-7.59,3.28-15.18,5.13-23.75-22.67,3.97-42.61,12.34-60.34,26.08l-.19,.16-13.8,12.01,.07-.08Zm441.53,409.11c-.61,.03-1.22,.06-1.82,.09-17.35,23.84-20.77,49.67-8.78,76.6,22.68,50.9,86.39,73.19,138.29,49.9,33.47-15.02,55.84-41.28,74.89-71.39,.96-1.51,1.29-4.29,.58-5.87-4.97-11.05-10.29-21.95-15.5-32.89-.83-.6-1.66-1.19-2.49-1.79l.16,.12c-.43-1.37-.61-2.91-1.34-4.09-11.04-17.96-26.59-30.86-44.82-40.78-46.03-25.06-103.66-15.09-136.08,23.72-1.52,1.81-2.21,4.34-3.28,6.53l.2-.14Zm58.02-425.17c.59,17.91,1.19,35.81,1.78,53.72-.92,5.88-1.64,11.8-2.78,17.63-14.67,75.43-57.22,128.69-125.55,161.42-2.54,1.22-5.08,2.44-8.6,4.14,5.53,3.63,9.83,6.9,14.52,9.43,7.3,3.95,14.58,8.26,22.37,10.93,64.45,22.15,120.65,6.82,167.95-41.05,29.88-30.24,44.58-67.72,42.46-111.13l-.67-4.05c.01-1.08,.12-2.17,.02-3.23-4.8-52.38-44-98.97-97.56-115.78-5.96-1.87-12.11-3.1-19.02-4.84,1.91,8.58,3.5,15.7,5.09,22.81Zm-40.48,86.31c.11-1.36,.23-2.71,.34-4.07l-.07,.23c1.08-4.16,2.15-8.32,3.23-12.49,.04-1.53,.08-3.07,.12-4.6,1.38-10.3,3.78-20.58,3.97-30.91,1.66-88.8-59.47-165.31-145.89-182.95-46.08-9.41-89.43-2.48-129.59,22.82-45.08,27.32-71.93,67.8-83.88,119.02-7.97,35.04-5.67,69.58,6.7,103.09,41.51,112.46,177.35,155.36,274.81,86.79,34.23-24.08,58.56-55.93,70.25-96.94Zm-196.57,494.98c-.62-6.69-.63-13.52-1.96-20.06-19.47-95.91-69.21-171.77-148.91-227.1-62.39-43.31-131.92-66.63-207.29-71.76-17.23-1.17-34.61-.17-52.85-.17,.74,2.66,1.35,4.85,1.97,7.04,.04,1.5,.07,3,.11,4.5,1.17,10.75,1.84,21.59,3.57,32.25,14.98,92.43,55.32,172.24,118.56,240.18,48.08,51.65,105.49,89.37,171.56,113.26,35.98,13.01,72.97,21.47,111.27,23.75,7.34,.44,9.16-1.9,8.94-9-.82-26.27-1.06-52.56-1.63-78.84-.05-2.36-.95-4.7-1.45-7.05-.63-2.34-1.26-4.67-1.89-7.01Zm-134.94-279.1c61.77,41.5,107.32,94.72,139.17,162.41v-213.07c-5.29-.74-10.04-1.42-14.8-2.08-1.33-.18-2.73-.66-3.98-.42-2.42,.47-5.4,.65-7.04,2.17-31.62,29.31-68.74,46.21-113.35,50.99Zm175.37,159.42c32.68-64.68,77.8-117.57,138.3-159.02-44.7-5.26-81.82-22.32-113.48-51.55-1.51-1.39-4.18-2.26-6.24-2.14-6.11,.37-12.17,1.35-18.58,2.14v210.57Z"/><path class="cls-6" d="M323.35,225.9c11.95-51.22,38.8-91.7,83.88-119.02,5.07-.12,10.86,1.35,15.07-.64,14.92-7.03,30.95-7.71,46.62-8.63,29.7-1.75,58.35,5.28,85.79,16.15,13.82,5.48,27.84,12.15,39.4,21.34,15.47,12.3,28.71,27.47,42.72,41.61,3.49,3.52,6.79,7.48,9.22,11.79,3.98,7.05,6.29,15.2,10.9,21.73,8.52,12.08,13.01,25.38,15.11,39.78-1.53,2.83-3.32,5.55-4.55,8.51-7.46,17.86-17.84,33.91-30.93,47.91-25.78,27.58-56.95,46.21-93.41,55.66-22.13,5.73-44.72,5.92-66.96,3.13-35.26-4.42-66.53-19.06-93.64-42.65-25.8-22.45-44.77-49.23-53.83-82.77-1.29-4.77-3.57-9.28-5.39-13.9Z"/><path class="cls-3" d="M69.61,506.26c-.04-1.5-.07-3-.11-4.5,3.19-.08,6.44-.56,9.58-.17,42.39,5.35,83.66,15.58,123.68,30.58,55.21,20.7,105.88,49.41,150.57,88.6,47.77,41.9,84.42,92,109.44,150.71,5.89,13.83,10.55,28.2,15.78,42.33,.63,2.34,1.26,4.67,1.89,7.01-21.82-3.46-43.84-5.98-65.42-10.6-37.1-7.94-71.94-22.85-105.46-40.34-40.3-21.03-76.64-48.21-109.93-79.33-24.99-23.36-47.45-49.1-67.37-77.07-21.79-30.61-41.35-62.52-56.22-97.23-1.54-3.6-4.25-6.68-6.42-9.99Z"/><path class="cls-17" d="M69.61,506.26c2.17,3.32,4.88,6.4,6.42,9.99,14.87,34.72,34.43,66.62,56.22,97.23,19.92,27.97,42.38,53.71,67.37,77.07,33.3,31.12,69.64,58.29,109.93,79.33,33.51,17.49,68.35,32.39,105.46,40.34,21.58,4.62,43.6,7.14,65.42,10.6,.5,2.35,1.4,4.69,1.45,7.05,.57,26.28,.81,52.57,1.63,78.84,.22,7.1-1.6,9.44-8.94,9-38.3-2.28-75.29-10.74-111.27-23.75-66.07-23.9-123.49-61.61-171.56-113.26-63.24-67.94-103.57-147.75-118.56-240.18-1.73-10.66-2.41-21.5-3.57-32.25Z"/><path class="cls-16" d="M323.35,225.9c1.82,4.63,4.1,9.13,5.39,13.9,9.06,33.54,28.03,60.33,53.83,82.77,27.12,23.59,58.39,38.23,93.64,42.65,22.24,2.79,44.83,2.6,66.96-3.13,36.46-9.45,67.63-28.08,93.41-55.66,13.09-14.01,23.47-30.05,30.93-47.91,1.24-2.96,3.02-5.68,4.55-8.5,1.61,12.69,3.18,25.38,4.85,38.06,.44,3.3,1.2,6.56,1.82,9.84-.04,1.53-.08,3.07-.12,4.6-1.08,4.16-2.15,8.32-3.23,12.49l.07-.23c-.11,1.36-.23,2.71-.34,4.07-11.69,41.01-36.03,72.85-70.25,96.94-97.46,68.57-233.3,25.67-274.81-86.79-12.37-33.52-14.67-68.05-6.7-103.09Z"/><path class="cls-17" d="M845.22,674.14c5.21,10.94,10.53,21.84,15.5,32.89,.71,1.58,.37,4.36-.58,5.87-19.05,30.11-41.41,56.37-74.89,71.39-51.9,23.28-115.61,.99-138.29-49.9-12-26.93-8.57-52.76,8.78-76.6,.61-.03,1.22-.06,1.82-.09l-.2,.14c5.93-2.84,11.85-5.68,17.78-8.53,5.18,7.26,9.54,15.36,15.7,21.64,23.96,24.42,66.33,28.8,95.75,16.31,14.23-6.04,25.4-15.57,35.63-26.72l20.66,11.92-.16-.12c.83,.6,1.66,1.19,2.49,1.79Z"/><path class="cls-6" d="M208.2,257.12l1.56-1.77c4.75,.28,6.88-1.94,6.29-6.75l-.07,.08c9.11-1.1,13.94-5.3,13.8-12.01l.19-.16c7.36-.78,14.88-.87,22.05-2.51,8.22-1.87,16.07-5.38,24.26-7.51,1.54-.4,4.02,2.19,5.82,3.7,1.25,1.06,2.07,2.63,3.08,3.98-.11,1.09-.22,2.18-.32,3.27-.37,3.25-.73,6.51-1.1,9.76,.23,14.08,.46,28.17,.69,42.25-.73,2.18-2.12,4.37-2.08,6.54,.33,16.13-.16,32.38,1.71,48.34,3.36,28.62,13.59,54.98,29.46,79.03,2.29,3.47,4.07,7.28,7.48,13.44-13.67-.9-25.07-.81-36.21-2.52-51.14-7.85-94.13-48.89-105.62-100.04-.45-2-2.12-3.71-3.22-5.56,2.31-24.64,11.75-46.22,27.23-65.23,5.01,.6,5.15-2.76,5.02-6.33Z"/><path class="cls-15" d="M519.28,843.76c.89-9.95,1.78-19.9,2.67-29.84,.14,2.24,.27,4.48,.41,6.71,.86,.5,1.81,1.53,2.58,1.41,11.01-1.72,22.21-2.81,32.96-5.6,24.22-6.3,48.23-13.47,72.32-20.28,4.79-1.54,9.58-3.07,14.37-4.61,20.51,16.69,42.78,30.17,69.12,34.46,12.6,2.05,25.58,1.71,38.39,2.45,.26,.28,.53,.55,.8,.81-18.14,11.92-35.66,24.97-54.55,35.53-53.94,30.15-111.98,46.8-173.52,50.78-1.33,.09-2.67-.03-4.01-.05-.07-21.07-.09-42.14-.27-63.22-.02-2.85-.83-5.7-1.27-8.55Z"/><path class="cls-6" d="M717.37,286.25c-.59-17.91-1.19-35.81-1.78-53.72,6.8-.78,14.55-6.2,19.11,4.11,.26,.58,1.99,.41,2.97,.77,7,2.61,15.28,3.68,20.71,8.22,12.44,10.41,26.72,18.92,36.16,32.81,2.08,3.06,5.62,5.22,7.24,8.44,5.46,10.87,10.07,22.17,15.59,33,2.52,4.94,6.42,9.16,9.69,13.7,.22,1.35,.45,2.7,.67,4.05-1.81,1.72-4.56,3.11-5.31,5.22-17.54,49.64-52.57,79.02-102.6,91.04-12.47,3-25.11,3.23-39.11,1.49,2.73-4.88,4.56-8.71,6.88-12.2,26.79-40.23,36.23-84.81,32.5-132.67-.12-1.48-1.79-2.84-2.73-4.25Z"/><path class="cls-18" d="M175.95,328.68c1.1,1.85,2.77,3.56,3.22,5.56,11.5,51.14,54.48,92.19,105.62,100.04,11.13,1.71,22.54,1.62,36.21,2.52-3.4-6.16-5.19-9.97-7.48-13.44-15.86-24.05-26.1-50.41-29.46-79.03-1.87-15.96-1.38-32.22-1.71-48.34-.04-2.16,1.35-4.36,2.08-6.54,4.06,25.76,10.47,50.78,22.29,74.18,22.88,45.31,56.97,78.82,102.63,100.24,3.37,1.58,6.71,3.25,10.05,4.9,.21,.1,.31,.44,.76,1.13-28.72,21.39-61.06,31.9-96.39,29.24-61.86-4.66-107.3-36.02-135.73-91.64-11.66-22.81-15.54-47.73-13.46-73.43,.15-1.82,.9-3.59,1.37-5.39Z"/><path class="cls-7" d="M717.37,286.25c.95,1.41,2.62,2.77,2.73,4.25,3.73,47.86-5.71,92.43-32.5,132.67-2.32,3.49-4.15,7.32-6.88,12.2,13.99,1.74,26.64,1.51,39.11-1.49,50.03-12.02,85.07-41.4,102.6-91.04,.75-2.11,3.49-3.5,5.31-5.22,2.12,43.41-12.58,80.89-42.46,111.13-47.3,47.88-103.5,63.2-167.95,41.05-7.79-2.68-15.06-6.98-22.37-10.93-4.69-2.53-8.98-5.8-14.52-9.43,3.53-1.7,6.06-2.92,8.6-4.14,68.33-32.73,110.88-85.99,125.55-161.42,1.14-5.84,1.86-11.75,2.78-17.63Z"/><path class="cls-3" d="M932.86,501.55c-.07,1.59-.14,3.17-.21,4.76-1.44,2.57-3.14,5.03-4.29,7.73-12.92,30.38-29.07,58.93-48.11,85.77-7.43,10.47-15.56,20.42-23.37,30.61-19.53-21.12-42.46-36.98-69.97-45.37-8.64-2.64-17.68-3.96-26.53-5.88-1.77-.94-3.53-2.66-5.32-2.7-10.91-.24-21.87-.7-32.71,.19-5.06,.41-9.89,3.69-14.82,5.67-5.2,1.35-10.39,2.7-15.59,4.05,10.19-6.59,20.06-13.79,30.65-19.68,40.54-22.55,83.3-39.88,128.26-50.69,26.96-6.48,54.67-9.76,82.04-14.48Z"/><path class="cls-9" d="M478.54,813.82c-5.23-14.12-9.88-28.5-15.78-42.33-25.02-58.71-61.66-108.81-109.44-150.71-44.69-39.19-95.36-67.9-150.57-88.6-40.01-15-81.29-25.23-123.68-30.58-3.14-.4-6.38,.09-9.58,.17-.61-2.19-1.22-4.38-1.97-7.04,18.25,0,35.62-1,52.85,.17,75.37,5.13,144.9,28.44,207.29,71.76,79.7,55.33,129.44,131.19,148.91,227.1,1.33,6.55,1.33,13.37,1.96,20.06Z"/><path class="cls-10" d="M932.86,501.55c-27.37,4.72-55.08,8-82.04,14.48-44.95,10.81-87.72,28.14-128.26,50.69-10.58,5.89-20.45,13.08-30.65,19.68-33.1,14.91-59.43,37.49-77.16,69.79-1.4,1.1-3.01,2.01-4.18,3.33-41.57,46.88-73.15,99.37-88.23,161.11-.14-2.24-.27-4.47-.41-6.71,6.02-50.04,22.66-96.25,49.19-138.84,54.67-87.75,133.99-140.61,231.82-166.93,42.49-11.43,85.73-16.36,130.78-13.58-.32,2.58-.6,4.78-.88,6.99Z"/><path class="cls-3" d="M522.35,820.63c15.08-61.73,46.66-114.23,88.23-161.11,1.17-1.32,2.78-2.23,4.18-3.33-2.9,10.27-7.44,20.41-8.28,30.85-1.12,14.01,.64,28.25,1.16,42.39,.99,3.29,1.98,6.58,2.97,9.86,.3,.41,.4,.86,.31,1.36,1.19,3.26,2.38,6.53,3.57,9.79l-.05-.02c.96,1.72,1.93,3.44,2.89,5.16,.29,.2,.35,.46,.18,.78,1.07,1.87,2.15,3.74,3.22,5.6l-.08-.03c3.62,6.51,6.91,13.24,10.98,19.45,2.72,4.17,9.48,7.65-.44,11.14-.66,.23-.67,2.38-.97,3.64-24.09,6.81-48.1,13.98-72.32,20.28-10.75,2.8-21.95,3.88-32.96,5.6-.77,.12-1.71-.91-2.58-1.41Z"/><path class="cls-13" d="M678.73,297.91c-.61-3.28-1.38-6.53-1.82-9.84-1.67-12.68-3.24-25.37-4.85-38.06-2.1-14.4-6.59-27.7-15.11-39.78-4.61-6.53-6.92-14.68-10.9-21.73-2.43-4.31-5.73-8.27-9.22-11.79-14.01-14.13-27.25-29.31-42.72-41.61-11.56-9.19-25.58-15.87-39.4-21.34-27.44-10.87-56.1-17.9-85.79-16.15-15.67,.92-31.7,1.6-46.62,8.63-4.21,1.98-10,.52-15.07,.64,40.15-25.3,83.5-32.23,129.59-22.82,86.42,17.64,147.55,94.14,145.89,182.95-.19,10.32-2.59,20.61-3.97,30.91Z"/><path class="cls-11" d="M856.87,630.43c7.81-10.19,15.95-20.14,23.37-30.61,19.04-26.84,35.19-55.39,48.11-85.77,1.15-2.7,2.85-5.16,4.29-7.73-4.72,26.05-8.44,52.33-14.42,78.08-7.17,30.93-18.84,60.37-33.16,87.48-9.35-13.74-18.78-27.59-28.2-41.44Z"/><path class="cls-14" d="M675.15,649.32c-5.93,2.84-11.85,5.68-17.78,8.53,1.07-2.19,1.76-4.71,3.28-6.53,32.42-38.81,90.05-48.77,136.08-23.72,18.23,9.92,33.77,22.82,44.82,40.78,.73,1.19,.91,2.72,1.34,4.09-6.89-3.97-13.77-7.95-20.66-11.92-31.81-18.68-65.81-28.91-102.7-23.62-15.07,2.16-29.6,8.14-44.38,12.39Z"/><path class="cls-4" d="M827.06,333.58c-3.27-4.54-7.18-8.76-9.69-13.7-5.52-10.83-10.13-22.13-15.59-33-1.62-3.22-5.16-5.38-7.24-8.44-9.44-13.89-23.72-22.4-36.16-32.81-5.43-4.54-13.71-5.62-20.71-8.22-.98-.36-2.71-.19-2.97-.77-4.55-10.31-12.31-4.89-19.11-4.11-1.59-7.11-3.17-14.23-5.09-22.81,6.91,1.74,13.06,2.97,19.02,4.84,53.56,16.81,92.77,63.4,97.56,115.78,.1,1.07,0,2.16-.02,3.23Z"/><path class="cls-8" d="M285.17,234.15c-1.01-1.34-1.83-2.92-3.08-3.98-1.79-1.51-4.27-4.1-5.82-3.7-8.18,2.13-16.03,5.64-24.26,7.51-7.17,1.63-14.69,1.73-22.05,2.51,17.73-13.74,37.67-22.11,60.34-26.08-1.85,8.57-3.49,16.16-5.13,23.75Z"/><path class="cls-5" d="M630.21,796.15c.31-1.26,.31-3.41,.97-3.64,9.93-3.49,3.17-6.97,.44-11.14-4.06-6.21-7.36-12.94-10.98-19.45,7.98,9.87,15.95,19.74,23.93,29.62-4.79,1.54-9.58,3.07-14.37,4.61Z"/><path class="cls-1" d="M707.51,582.34c4.93-1.98,9.76-5.25,14.82-5.67,10.84-.89,21.81-.43,32.71-.19,1.79,.04,3.55,1.76,5.32,2.7-17.62,1.05-35.24,2.11-52.86,3.16Z"/><path class="cls-2" d="M519.28,843.76c.44,2.85,1.24,5.7,1.27,8.55,.18,21.07,.2,42.14,.27,63.22-.69-1.56-1.99-3.13-1.99-4.69,.05-22.36,.27-44.72,.46-67.08Z"/><path class="cls-8" d="M229.77,236.66c.14,6.71-4.69,10.91-13.8,12.01,4.6-4,9.2-8.01,13.8-12.01Z"/><path class="cls-5" d="M610.61,739.28c-.99-3.29-1.98-6.58-2.97-9.86,.99,3.29,1.98,6.58,2.97,9.86Z"/><path class="cls-8" d="M283.74,247.19c.37-3.25,.73-6.51,1.1-9.76-.37,3.25-.73,6.51-1.1,9.76Z"/><path class="cls-13" d="M675.38,315c1.08-4.16,2.15-8.32,3.23-12.49-1.08,4.16-2.15,8.32-3.23,12.49Z"/><path class="cls-8" d="M208.2,257.12c.12,3.57-.01,6.93-5.02,6.33,1.67-2.11,3.35-4.22,5.02-6.33Z"/><path class="cls-8" d="M216.04,248.59c.6,4.81-1.54,7.03-6.29,6.75l6.29-6.75Z"/><path class="cls-5" d="M614.49,750.43c-1.19-3.26-2.38-6.52-3.57-9.79,1.19,3.26,2.38,6.53,3.57,9.79Z"/><path class="cls-5" d="M617.33,755.56c-.96-1.72-1.93-3.44-2.89-5.16,.97,1.72,1.93,3.44,2.89,5.16Z"/><path class="cls-5" d="M620.73,761.94c-1.07-1.87-2.15-3.73-3.22-5.6,1.07,1.87,2.15,3.74,3.22,5.6Z"/><path class="cls-13" d="M675.11,318.84c.11-1.36,.23-2.71,.34-4.07-.11,1.36-.23,2.71-.34,4.07Z"/><path class="cls-14" d="M657.57,657.7c-.61,.03-1.21,.06-1.82,.09,.61-.03,1.22-.06,1.82-.09Z"/><path class="cls-14" d="M845.22,674.14c-.83-.6-1.66-1.19-2.49-1.79,.83,.6,1.66,1.19,2.49,1.79Z"/><path class="cls-15" d="M752.09,828.45c.55-.06,1.11-.13,1.66-.19-.29,.33-.57,.67-.86,1-.27-.26-.54-.54-.8-.81Z"/><path class="cls-12" d="M675.15,649.32c14.78-4.24,29.31-10.23,44.38-12.39,36.89-5.29,70.89,4.94,102.7,23.62-10.23,11.14-21.4,20.68-35.63,26.72-29.42,12.49-71.79,8.1-95.75-16.31-6.16-6.28-10.52-14.38-15.7-21.64Z"/></svg>