<?xml version="1.0" encoding="utf-8"?>
<!-- Generator: Adobe Illustrator 25.2.1, SVG Export Plug-In . SVG Version: 6.00 Build 0)  -->
<svg version="1.1" id="Layer_1" xmlns="http://www.w3.org/2000/svg" xmlns:xlink="http://www.w3.org/1999/xlink" x="0px" y="0px"
	 viewBox="0 0 2500 1000" style="enable-background:new 0 0 2500 1000;" xml:space="preserve">
<style type="text/css">
	.st0{fill:#CED4DA;}
</style>
<path class="st0" d="M0,0v68.4h486.6V0H0z M555.6,0v68.4H1249c0,0-70.8-68.4-164.6-68.4H555.6z M1385.1,0v68.4h419.5L1779.7,0
	H1385.1z M2105.4,0l-24.9,68.4h415.7V0H2105.4z M0,133.1v68.4h486.6v-68.4H0z M555.6,133.2v68.3h773.9c0,0-9-52.7-24.8-68.3
	L555.6,133.2L555.6,133.2z M1385.1,133.2v68.3h465.5l-23-68.3L1385.1,133.2L1385.1,133.2z M2055.6,133.2l-23,68.3h463.7v-68.3
	H2055.6z M139.8,266.1v68.5h210.7v-68.5L139.8,266.1L139.8,266.1z M695.4,266.1v68.5h210.7v-68.5L695.4,266.1L695.4,266.1z
	 M1111.1,266.1v68.5h210.7c0,0,13.4-36.2,13.4-68.5L1111.1,266.1L1111.1,266.1z M1524.9,266.1v68.5h373.6l-24.9-68.5L1524.9,266.1
	L1524.9,266.1z M2009.7,266.1l-25,68.5h375.5v-68.5L2009.7,266.1L2009.7,266.1z M139.8,399.3v68.4h210.7v-68.4H139.8L139.8,399.3z
	 M695.4,399.3v68.4h538.3c0,0,45-35.1,59.4-68.4H695.4z M1524.9,399.3v68.4h210.7v-38.1l13.4,38.1h386l14.4-38.1v38.1h210.7v-68.4
	h-395.6l-21,57.9l-21.1-57.9H1524.9z M139.8,532.3v68.4h210.7v-68.4H139.8z M695.4,532.3v68.4h597.7c-14.3-33.2-59.4-68.4-59.4-68.4
	H695.4z M1524.9,532.3v68.4h210.7v-68.4H1524.9z M1773.9,532.3l25.5,68.4h289.5l24.2-68.4H1773.9z M2149.4,532.3v68.4h210.7v-68.4
	H2149.4z M139.8,665.4v68.4h210.7v-68.4H139.8z M695.4,665.4v68.4h210.7v-68.4H695.4z M1111.1,665.4v68.4h224.1
	c0-32.3-13.4-68.4-13.4-68.4H1111.1L1111.1,665.4z M1524.9,665.4v68.4h210.7v-68.4H1524.9z M1821.8,665.4l24.7,68.4h194l24.9-68.4
	H1821.8z M2149.4,665.4v68.4h210.7v-68.4H2149.4z M3.8,798.4v68.5h486.6v-68.5H3.8z M555.6,798.4v68.5h749.1
	c15.8-15.7,24.8-68.5,24.8-68.5H555.6L555.6,798.4z M1388.9,798.4v68.5h346.8v-68.5H1388.9z M1869.7,798.4l25.4,68.5h98.7l23.8-68.5
	H1869.7z M2149.4,798.4v68.5H2500v-68.5H2149.4z M3.8,931.6v68.4h486.6v-68.4H3.8z M555.6,931.6v68.3h528.8
	c93.8,0,164.6-68.3,164.6-68.3H555.6z M1388.9,931.6v68.4h346.8v-68.4H1388.9z M1917.9,931.6l24.4,68.2l4.2,0.1l24.8-68.3H1917.9z
	 M2149.4,931.6v68.4H2500v-68.4H2149.4z"/>
</svg>
