<?xml version="1.0" encoding="iso-8859-1"?>
<!-- Generator: Adobe Illustrator 19.0.0, SVG Export Plug-In . SVG Version: 6.00 Build 0)  -->
<svg version="1.1" id="Capa_1" xmlns="http://www.w3.org/2000/svg" xmlns:xlink="http://www.w3.org/1999/xlink" x="0px" y="0px"
	 viewBox="0 0 33 33" style="enable-background:new 0 0 33 33;" xml:space="preserve">
<g>
	<path d="M16.5,33c-5.226,0-10.809-2.066-10.809-7.864c0-3.112,1.608-4.757,3.026-6.208c1.048-1.071,1.953-1.997,1.953-3.329
		c0-4.181,2.289-6.882,5.83-6.882c0.276,0,0.5,0.224,0.5,0.5s-0.224,0.5-0.5,0.5c-3.565,0-4.83,3.169-4.83,5.882
		c0,1.74-1.087,2.852-2.238,4.028c-1.348,1.379-2.741,2.804-2.741,5.509C6.691,31.505,14.199,32,16.5,32c0.276,0,0.5,0.224,0.5,0.5
		S16.776,33,16.5,33z"/>
	<path d="M16.5,33c-0.276,0-0.5-0.224-0.5-0.5s0.224-0.5,0.5-0.5c2.301,0,9.809-0.495,9.809-6.864c0-2.705-1.394-4.13-2.741-5.509
		c-1.151-1.177-2.238-2.288-2.238-4.028c0-2.713-1.265-5.882-4.83-5.882c-0.276,0-0.5-0.224-0.5-0.5s0.224-0.5,0.5-0.5
		c3.542,0,5.83,2.701,5.83,6.882c0,1.332,0.905,2.258,1.953,3.329c1.418,1.451,3.026,3.096,3.026,6.208
		C27.309,30.934,21.726,33,16.5,33z"/>
	<path d="M13.858,16.075c-0.256,0-0.474-0.195-0.498-0.455c-0.207-2.279,1.403-3.767,1.471-3.828
		c0.205-0.185,0.52-0.168,0.705,0.033c0.186,0.204,0.171,0.52-0.032,0.706c-0.013,0.013-1.309,1.226-1.148,2.999
		c0.025,0.274-0.178,0.518-0.453,0.543C13.888,16.074,13.873,16.075,13.858,16.075z"/>
	<path d="M16.73,7.478c-0.146,0-0.237-0.005-0.257-0.006C16.218,7.458,16.015,7.255,16.001,7c-0.008-0.134-0.159-3.311,1.763-5.232
		c1.921-1.922,5.099-1.769,5.231-1.763c0.254,0.014,0.458,0.217,0.472,0.472c0.008,0.134,0.16,3.311-1.762,5.232
		C20.075,7.339,17.544,7.478,16.73,7.478z M22.466,1.007c-0.881,0.036-2.789,0.261-3.995,1.468C17.26,3.686,17.037,5.59,17.002,6.47
		c0.881-0.036,2.789-0.261,3.996-1.468C22.209,3.791,22.431,1.887,22.466,1.007z"/>
	<path d="M16.5,7.473c-0.236,0-0.446-0.168-0.491-0.408c-0.528-2.815-3.467-4.667-3.497-4.686c-0.234-0.146-0.307-0.454-0.161-0.688
		c0.146-0.234,0.454-0.308,0.688-0.161c0.136,0.084,3.344,2.107,3.952,5.352c0.051,0.271-0.127,0.532-0.399,0.583
		C16.561,7.47,16.53,7.473,16.5,7.473z"/>
</g>
<g>
</g>
<g>
</g>
<g>
</g>
<g>
</g>
<g>
</g>
<g>
</g>
<g>
</g>
<g>
</g>
<g>
</g>
<g>
</g>
<g>
</g>
<g>
</g>
<g>
</g>
<g>
</g>
<g>
</g>
</svg>
