<?xml version="1.0" encoding="iso-8859-1"?>
<!-- Generator: Adobe Illustrator 19.0.0, SVG Export Plug-In . SVG Version: 6.00 Build 0)  -->
<svg version="1.1" id="Capa_1" xmlns="http://www.w3.org/2000/svg" xmlns:xlink="http://www.w3.org/1999/xlink" x="0px" y="0px"
	 viewBox="0 0 32.984 32.984" style="enable-background:new 0 0 32.984 32.984;" xml:space="preserve">
<g>
	<g>
		<path d="M16.492,18.672c-1.202,0-2.18-0.979-2.18-2.181s0.978-2.18,2.18-2.18s2.18,0.978,2.18,2.18S17.693,18.672,16.492,18.672z
			 M16.492,15.312c-0.65,0-1.18,0.529-1.18,1.18c0,0.651,0.529,1.181,1.18,1.181s1.18-0.529,1.18-1.181
			C17.672,15.841,17.142,15.312,16.492,15.312z"/>
		<path d="M11.821,21.662c-0.128,0-0.256-0.049-0.354-0.146c-1.342-1.342-2.081-3.126-2.081-5.023c0-1.898,0.739-3.683,2.081-5.024
			c0.195-0.195,0.512-0.195,0.707,0s0.195,0.512,0,0.707c-1.153,1.153-1.788,2.687-1.788,4.317c0,1.63,0.635,3.163,1.788,4.316
			c0.195,0.195,0.195,0.512,0,0.707C12.077,21.613,11.949,21.662,11.821,21.662z"/>
		<path d="M8.5,24.984c-0.128,0-0.256-0.049-0.354-0.146c-2.229-2.229-3.457-5.192-3.457-8.346c0-3.152,1.228-6.116,3.457-8.346
			c0.195-0.195,0.512-0.195,0.707,0s0.195,0.512,0,0.707c-2.041,2.04-3.164,4.753-3.164,7.639s1.124,5.599,3.164,7.639
			c0.195,0.195,0.195,0.512,0,0.707C8.755,24.935,8.628,24.984,8.5,24.984z"/>
		<path d="M5.178,28.306c-0.128,0-0.256-0.049-0.354-0.146c-6.433-6.434-6.433-16.901,0-23.335c0.195-0.195,0.512-0.195,0.707,0
			s0.195,0.512,0,0.707c-6.043,6.044-6.043,15.877,0,21.921c0.195,0.195,0.195,0.512,0,0.707
			C5.434,28.257,5.306,28.306,5.178,28.306z"/>
	</g>
	<g>
		<path d="M21.163,21.662c-0.128,0-0.256-0.049-0.354-0.146c-0.195-0.195-0.195-0.512,0-0.707c1.153-1.153,1.788-2.687,1.788-4.316
			c0-1.631-0.635-3.164-1.788-4.317c-0.195-0.195-0.195-0.512,0-0.707s0.512-0.195,0.707,0c1.342,1.342,2.081,3.126,2.081,5.024
			c0,1.897-0.739,3.682-2.081,5.023C21.419,21.613,21.291,21.662,21.163,21.662z"/>
		<path d="M24.484,24.984c-0.128,0-0.256-0.049-0.354-0.146c-0.195-0.195-0.195-0.512,0-0.707c2.041-2.04,3.164-4.753,3.164-7.639
			s-1.124-5.599-3.164-7.639c-0.195-0.195-0.195-0.512,0-0.707s0.512-0.195,0.707,0c2.229,2.229,3.457,5.193,3.457,8.346
			c0,3.153-1.228,6.117-3.457,8.346C24.74,24.935,24.612,24.984,24.484,24.984z"/>
		<path d="M27.806,28.306c-0.128,0-0.256-0.049-0.354-0.146c-0.195-0.195-0.195-0.512,0-0.707c6.042-6.044,6.042-15.877,0-21.921
			c-0.195-0.195-0.195-0.512,0-0.707s0.512-0.195,0.707,0c6.433,6.434,6.433,16.901,0,23.335
			C28.062,28.257,27.934,28.306,27.806,28.306z"/>
	</g>
</g>
<g>
</g>
<g>
</g>
<g>
</g>
<g>
</g>
<g>
</g>
<g>
</g>
<g>
</g>
<g>
</g>
<g>
</g>
<g>
</g>
<g>
</g>
<g>
</g>
<g>
</g>
<g>
</g>
<g>
</g>
</svg>
