<?xml version="1.0" encoding="utf-8"?>
<!-- Generator: Adobe Illustrator 18.0.0, SVG Export Plug-In . SVG Version: 6.00 Build 0)  -->
<!DOCTYPE svg PUBLIC "-//W3C//DTD SVG 1.1//EN" "http://www.w3.org/Graphics/SVG/1.1/DTD/svg11.dtd">
<svg version="1.1" id="Calque_1" xmlns="http://www.w3.org/2000/svg" xmlns:xlink="http://www.w3.org/1999/xlink" x="0px" y="0px"
	 viewBox="0 0 72 72" enable-background="new 0 0 72 72" xml:space="preserve">
<path d="M21.3,31.9c-0.2,0-0.4,0-0.6,0c0.8-1.2,1.9-2.2,3.4-3.2c2.1-1.4,5-2.7,9.2-3.3l-1.4-8.9c-4.7,0.7-8.5,2.1-11.7,4
	c-2.4,1.4-4.3,3.1-5.8,4.9c-2.3,2.7-3.7,5.7-4.5,8.5c-0.8,2.8-1,5.4-1,7.5c0,2.3,0.3,4,0.4,4.8c0,0.1,0.1,0.3,0.1,0.4c0,0,0,0,0,0
	l0,0c1.2,5.4,6.1,9.5,11.9,9.5c6.7,0,12.2-5.4,12.2-12.2S28,31.9,21.3,31.9z"/>
<path d="M49.5,31.9c-0.2,0-0.4,0-0.6,0c0.8-1.2,1.9-2.2,3.4-3.2c2.1-1.4,5-2.7,9.2-3.3l-1.4-8.9c-4.7,0.7-8.5,2.1-11.7,4
	c-2.4,1.4-4.3,3.1-5.8,4.9c-2.3,2.7-3.7,5.7-4.5,8.5c-0.8,2.8-1,5.4-1,7.5c0,2.3,0.3,4,0.4,4.8c0,0.1,0.1,0.3,0.1,0.4c0,0,0,0,0,0
	l0,0c1.2,5.4,6.1,9.5,11.9,9.5c6.7,0,12.2-5.4,12.2-12.2S56.2,31.9,49.5,31.9z"/>
</svg>
