<svg xmlns="http://www.w3.org/2000/svg" viewBox="0 0 72 72">
    <path d="M21.3 31.9h-.6c.8-1.2 1.9-2.2 3.4-3.2 2.1-1.4 5-2.7 9.2-3.3l-1.4-8.9c-4.7.7-8.5 2.1-11.7 4-2.4 1.4-4.3 3.1-5.8 4.9-2.3 2.7-3.7 5.7-4.5 8.5-.8 2.8-1 5.4-1 7.5 0 2.3.3 4 .4 4.8 0 .1.1.3.1.4 1.2 5.4 6.1 9.5 11.9 9.5 6.7 0 12.2-5.4 12.2-12.2s-5.5-12-12.2-12zM49.5 31.9h-.6c.8-1.2 1.9-2.2 3.4-3.2 2.1-1.4 5-2.7 9.2-3.3l-1.4-8.9c-4.7.7-8.5 2.1-11.7 4-2.4 1.4-4.3 3.1-5.8 4.9-2.3 2.7-3.7 5.7-4.5 8.5-.8 2.8-1 5.4-1 7.5 0 2.3.3 4 .4 4.8 0 .1.1.3.1.4 1.2 5.4 6.1 9.5 11.9 9.5 6.7 0 12.2-5.4 12.2-12.2s-5.5-12-12.2-12z"/>
</svg>
