<svg xmlns="http://www.w3.org/2000/svg" viewBox="0 0 72 72">
    <path d="M51.1 37.8c-1.1-1.4-2.5-2.5-4.2-3.3 1.2-.8 2.1-1.8 2.8-3 1-1.6 1.5-3.5 1.5-5.3 0-2-.6-4-1.7-5.8-1.1-1.8-2.8-3.2-4.8-4.1-2-.9-4.6-1.3-7.8-1.3h-16v42h16.3c2.6 0 4.8-.2 6.7-.7 1.9-.5 3.4-1.2 4.7-2.1 1.3-1 2.4-2.4 3.2-4.1.9-1.7 1.3-3.6 1.3-5.7.2-2.5-.5-4.7-2-6.6zM40.8 50.2c-.6.1-1.8.2-3.4.2h-9V38.5h8.3c2.5 0 4.4.2 5.6.6 1.2.4 2 1 2.7 2 .6.9 1 2 1 3.3 0 1.1-.2 2.1-.7 2.9-.5.9-1 1.5-1.7 1.9-.8.4-1.7.8-2.8 1zm2.6-20.4c-.5.7-1.3 1.3-2.5 1.6-.8.3-2.5.4-4.8.4h-7.7V21.6h7.1c1.4 0 2.6 0 3.6.1s1.7.2 2.2.4c1 .3 1.7.8 2.2 1.7.5.9.8 1.8.8 3-.1 1.3-.4 2.2-.9 3z"/>
</svg>
