<?xml version="1.0" encoding="utf-8"?>
<!-- Generator: Adobe Illustrator 18.0.0, SVG Export Plug-In . SVG Version: 6.00 Build 0)  -->
<!DOCTYPE svg PUBLIC "-//W3C//DTD SVG 1.1//EN" "http://www.w3.org/Graphics/SVG/1.1/DTD/svg11.dtd">
<svg version="1.1" id="Calque_1" xmlns="http://www.w3.org/2000/svg" xmlns:xlink="http://www.w3.org/1999/xlink" x="0px" y="0px"
	 viewBox="0 0 72 72" enable-background="new 0 0 72 72" xml:space="preserve">
<path d="M31.1,48.9l-6.7,6.7c-0.8,0.8-1.6,0.9-2.1,0.9c-0.5,0-1.4-0.1-2.1-0.9l-5.2-5.2c-1.1-1.1-1.1-3.1,0-4.2l6.1-6.1
	c0.1-0.1,0.1-0.1,0.2-0.2l6.5-6.5c-1.2-0.6-2.5-0.9-3.8-0.9c-2.3,0-4.6,0.9-6.3,2.6l-6.7,6.7c-3.5,3.5-3.5,9.2,0,12.7l5.2,5.2
	c1.7,1.7,4,2.6,6.3,2.6c2.3,0,4.6-0.9,6.3-2.6l6.7-6.7C38,50.4,38.6,46.3,37,43L31.1,48.9C31.1,48.9,31.1,48.9,31.1,48.9z"/>
<path d="M38.7,22.5l6.7-6.7c0.8-0.8,1.6-0.9,2.1-0.9c0.5,0,1.4,0.1,2.1,0.9l5.2,5.2c1.1,1.1,1.1,3.1,0,4.2l-6.1,6.1
	c-0.1,0.1-0.1,0.1-0.2,0.2l-6.5,6.5c1.2,0.6,2.5,0.9,3.8,0.9c2.3,0,4.6-0.9,6.3-2.6l6.7-6.7c3.5-3.5,3.5-9.2,0-12.7l-5.2-5.2
	c-1.7-1.7-4-2.6-6.3-2.6c-2.3,0-4.6,0.9-6.3,2.6l-6.7,6.7c-2.7,2.7-3.3,6.9-1.7,10.2L38.7,22.5C38.7,22.6,38.7,22.6,38.7,22.5z"/>
<path d="M44.2,30.5c0.2-0.2,0.4-0.6,0.4-0.9c0-0.3-0.1-0.6-0.4-0.9l-2.3-2.3C41.6,26.2,41.3,26,41,26c-0.3,0-0.6,0.1-0.9,0.4
	L25.9,40.6c-0.2,0.2-0.4,0.6-0.4,0.9c0,0.3,0.1,0.6,0.4,0.9l2.3,2.3c0.2,0.2,0.6,0.4,0.9,0.4c0.3,0,0.6-0.1,0.9-0.4L44.2,30.5z"/>
<g>
	<path d="M49.9,55.4h-8.5v-5h8.5v-8.9h5.2v8.9h8.5v5h-8.5v8.9h-5.2V55.4z"/>
</g>
</svg>
