<svg xmlns="http://www.w3.org/2000/svg" viewBox="0 0 72 72">
    <path d="M31.1 48.9l-6.7 6.7c-.8.8-1.6.9-2.1.9s-1.4-.1-2.1-.9L15 50.4c-1.1-1.1-1.1-3.1 0-4.2l6.1-6.1.2-.2 6.5-6.5c-1.2-.6-2.5-.9-3.8-.9-2.3 0-4.6.9-6.3 2.6L11 41.8c-3.5 3.5-3.5 9.2 0 12.7l5.2 5.2c1.7 1.7 4 2.6 6.3 2.6s4.6-.9 6.3-2.6l6.7-6.7c2.5-2.6 3.1-6.7 1.5-10l-5.9 5.9zM38.7 22.5l6.7-6.7c.8-.8 1.6-.9 2.1-.9s1.4.1 2.1.9l5.2 5.2c1.1 1.1 1.1 3.1 0 4.2l-6.1 6.1-.2.2L42 38c1.2.6 2.5.9 3.8.9 2.3 0 4.6-.9 6.3-2.6l6.7-6.7c3.5-3.5 3.5-9.2 0-12.7l-5.2-5.2c-1.7-1.7-4-2.6-6.3-2.6s-4.6.9-6.3 2.6l-6.7 6.7c-2.7 2.7-3.3 6.9-1.7 10.2l6.1-6.1c0 .1 0 .1 0 0z"/>
    <path d="M44.2 30.5c.2-.2.4-.6.4-.9 0-.3-.1-.6-.4-.9l-2.3-2.3c-.3-.2-.6-.4-.9-.4-.3 0-.6.1-.9.4L25.9 40.6c-.2.2-.4.6-.4.9 0 .3.1.6.4.9l2.3 2.3c.2.2.6.4.9.4.3 0 .6-.1.9-.4l14.2-14.2zM49.9 55.4h-8.5v-5h8.5v-8.9h5.2v8.9h8.5v5h-8.5v8.9h-5.2v-8.9z"/>
</svg>
