<svg xmlns="http://www.w3.org/2000/svg" viewBox="0 0 72 72">
    <path d="M45.8 45c0 1-.3 1.9-.9 2.8-.6.9-1.6 1.6-3 2.1s-3.1.8-5 .8c-2.1 0-4-.4-5.7-1.1-1.7-.7-2.9-1.7-3.6-2.7-.8-1.1-1.3-2.6-1.5-4.5l-.1-.8-6.7.6v.9c.1 2.8.9 5.4 2.3 7.6 1.5 2.3 3.5 4 6.1 5.1 2.6 1.1 5.7 1.6 9.4 1.6 2.9 0 5.6-.5 8-1.6 2.4-1.1 4.3-2.7 5.6-4.7 1.3-2 2-4.2 2-6.5 0-1.6-.3-3.1-.9-4.5l-.2-.6H44c0 .1 1.8 2.3 1.8 5.5zM29 28.9c-.8-.8-1.2-1.7-1.2-2.9 0-.7.1-1.3.4-1.9.3-.6.7-1.1 1.4-1.6.6-.5 1.4-.9 2.5-1.1 1.1-.3 2.4-.4 3.9-.4 2.9 0 5 .6 6.3 1.7 1.3 1.1 2.1 2.7 2.4 5.1l.1.9 6.8-.5v-.9c-.1-2.5-.8-4.7-2.1-6.7s-3.2-3.5-5.6-4.5c-2.4-1-5.1-1.5-8.1-1.5-2.8 0-5.3.5-7.6 1.4-2.3 1-4.2 2.4-5.4 4.3-1.2 1.9-1.9 3.9-1.9 6.1 0 1.7.4 3.4 1.2 4.9l.3.5h11.8c-2.3-.9-3.9-1.7-5.2-2.9zm13.3-6.2zM22.7 20.3zM13 34.1h46.1v3.4H13z"/>
</svg>
