<svg xmlns="http://www.w3.org/2000/svg" viewBox="0 0 72 72">
	<path d="M25.2 7.1H7.1v17.7l6.7-6.5 10.5 10.5 4.5-4.5-10.4-10.5zM47.2 7.1l6.5 6.7-10.5 10.5 4.5 4.5 10.5-10.4 6.7 6.8V7.1zM47.7 43.2l-4.5 4.5 10.4 10.5-6.8 6.7h18.1V47.2l-6.7 6.5zM24.3 43.2L13.8 53.6l-6.7-6.8v18.1h17.7l-6.5-6.7 10.5-10.5z"/>
	<path fill="currentColor" d="M10.7 28.8h18.1V11.2l-6.6 6.4L11.6 7.1l-4.5 4.5 10.5 10.5zM60.8 28.8l-6.4-6.6 10.5-10.6-4.5-4.5-10.5 10.5-6.7-6.9v18.1zM60.4 64.9l4.5-4.5-10.5-10.5 6.9-6.7H43.2v17.6l6.6-6.4zM11.6 64.9l10.5-10.5 6.7 6.9V43.2H11.1l6.5 6.6L7.1 60.4z"/>
</svg>
