<?xml version="1.0" encoding="utf-8"?>
<!-- Generator: Adobe Illustrator 18.0.0, SVG Export Plug-In . SVG Version: 6.00 Build 0)  -->
<!DOCTYPE svg PUBLIC "-//W3C//DTD SVG 1.1//EN" "http://www.w3.org/Graphics/SVG/1.1/DTD/svg11.dtd">
<svg version="1.1" id="Calque_1" xmlns="http://www.w3.org/2000/svg" xmlns:xlink="http://www.w3.org/1999/xlink" x="0px" y="0px"
	 viewBox="0 0 72 72" enable-background="new 0 0 72 72" xml:space="preserve">
<g>
	<path d="M1.5,14.9h7.4v16.7H28V14.9h7.4v42.1H28V38H8.8v19H1.5V14.9z"/>
	<path d="M70.2,56.9H42c0-3.4,0.9-6.4,2.5-9s3.8-4.8,6.6-6.7c1.3-1,2.7-1.9,4.2-2.9c1.5-0.9,2.8-1.9,4-3c1.2-1.1,2.2-2.2,3-3.4
		c0.8-1.2,1.2-2.7,1.2-4.3c0-0.7-0.1-1.5-0.3-2.4s-0.5-1.6-1-2.4c-0.5-0.7-1.2-1.3-2.1-1.8c-0.9-0.5-2.1-0.7-3.5-0.7
		c-1.3,0-2.4,0.3-3.3,0.8s-1.6,1.3-2.1,2.2s-0.9,2-1.2,3.3c-0.3,1.3-0.4,2.6-0.4,4.1h-6.7c0-2.3,0.3-4.4,0.9-6.3
		c0.6-1.9,1.5-3.6,2.7-5c1.2-1.4,2.7-2.5,4.4-3.3c1.7-0.8,3.8-1.2,6.1-1.2c2.5,0,4.6,0.4,6.3,1.2c1.7,0.8,3.1,1.9,4.1,3.1
		c1,1.3,1.8,2.6,2.2,4.1c0.4,1.5,0.6,2.9,0.6,4.2c0,1.6-0.3,3.1-0.8,4.5c-0.5,1.3-1.2,2.6-2.1,3.7c-0.9,1.1-1.8,2.2-2.9,3.1
		c-1.1,0.9-2.2,1.8-3.4,2.7c-1.2,0.8-2.4,1.6-3.5,2.4c-1.2,0.7-2.3,1.5-3.3,2.2c-1,0.7-1.9,1.5-2.6,2.3c-0.7,0.8-1.3,1.7-1.5,2.6
		h20.1V56.9z"/>
</g>
</svg>
