<svg xmlns="http://www.w3.org/2000/svg" viewBox="0 0 72 72">
    <path d="M1.5 14.9h7.4v16.7H28V14.9h7.4V57H28V38H8.8v19H1.5V14.9zM70.2 56.9H42c0-3.4.9-6.4 2.5-9s3.8-4.8 6.6-6.7c1.3-1 2.7-1.9 4.2-2.9 1.5-.9 2.8-1.9 4-3 1.2-1.1 2.2-2.2 3-3.4.8-1.2 1.2-2.7 1.2-4.3 0-.7-.1-1.5-.3-2.4s-.5-1.6-1-2.4c-.5-.7-1.2-1.3-2.1-1.8-.9-.5-2.1-.7-3.5-.7-1.3 0-2.4.3-3.3.8s-1.6 1.3-2.1 2.2-.9 2-1.2 3.3c-.3 1.3-.4 2.6-.4 4.1h-6.7c0-2.3.3-4.4.9-6.3.6-1.9 1.5-3.6 2.7-5 1.2-1.4 2.7-2.5 4.4-3.3 1.7-.8 3.8-1.2 6.1-1.2 2.5 0 4.6.4 6.3 1.2 1.7.8 3.1 1.9 4.1 3.1 1 1.3 1.8 2.6 2.2 4.1.4 1.5.6 2.9.6 4.2 0 1.6-.3 3.1-.8 4.5-.5 1.3-1.2 2.6-2.1 3.7-.9 1.1-1.8 2.2-2.9 3.1-1.1.9-2.2 1.8-3.4 2.7-1.2.8-2.4 1.6-3.5 2.4-1.2.7-2.3 1.5-3.3 2.2-1 .7-1.9 1.5-2.6 2.3-.7.8-1.3 1.7-1.5 2.6h20.1v5.9z"/>
</svg>
