<svg xmlns="http://www.w3.org/2000/svg" viewBox="0 0 72 72">
    <path d="M1.4 14.5h7.4v16.7h19.1V14.5h7.4v42.1h-7.4v-19H8.8v19H1.4V14.5zM53.1 32.4c1.1 0 2.2 0 3.3-.2 1.1-.2 2.1-.5 2.9-1 .9-.5 1.6-1.2 2.1-2 .5-.9.8-1.9.8-3.2 0-1.8-.6-3.2-1.8-4.2-1.2-1.1-2.7-1.6-4.6-1.6-1.2 0-2.2.2-3.1.7-.9.5-1.6 1.1-2.2 1.9-.6.8-1 1.7-1.3 2.7-.3 1-.4 2-.4 3.1h-6.7c.1-2 .5-3.9 1.1-5.6.7-1.7 1.6-3.2 2.7-4.4s2.6-2.2 4.2-2.9c1.6-.7 3.5-1.1 5.6-1.1 1.6 0 3.2.2 4.7.7 1.6.5 2.9 1.2 4.2 2.1 1.2.9 2.2 2.1 3 3.4.7 1.4 1.1 3 1.1 4.8 0 2.1-.5 3.9-1.4 5.4-.9 1.6-2.4 2.7-4.4 3.4v.1c2.4.5 4.2 1.6 5.5 3.5 1.3 1.9 2 4.1 2 6.8 0 2-.4 3.7-1.2 5.3-.8 1.6-1.8 2.9-3.2 3.9-1.3 1.1-2.9 1.9-4.7 2.5-1.8.6-3.6.9-5.6.9-2.4 0-4.5-.3-6.3-1s-3.3-1.7-4.5-2.9c-1.2-1.3-2.1-2.8-2.7-4.5-.6-1.8-1-3.7-1-5.9h6.7c-.1 2.5.5 4.6 1.9 6.3 1.3 1.7 3.3 2.5 5.9 2.5 2.2 0 4.1-.6 5.6-1.9 1.5-1.3 2.3-3.1 2.3-5.4 0-1.6-.3-2.9-.9-3.8-.6-.9-1.5-1.7-2.5-2.2-1-.5-2.2-.8-3.4-.9-1.3-.1-2.6-.2-3.9-.1v-5.2z"/>
</svg>
