<?xml version="1.0" encoding="utf-8"?>
<!-- Generator: Adobe Illustrator 18.0.0, SVG Export Plug-In . SVG Version: 6.00 Build 0)  -->
<!DOCTYPE svg PUBLIC "-//W3C//DTD SVG 1.1//EN" "http://www.w3.org/Graphics/SVG/1.1/DTD/svg11.dtd">
<svg version="1.1" id="Calque_1" xmlns="http://www.w3.org/2000/svg" xmlns:xlink="http://www.w3.org/1999/xlink" x="0px" y="0px"
	 viewBox="0 0 72 72" enable-background="new 0 0 72 72" xml:space="preserve">
<g>
	<path d="M1.4,14.5h7.4v16.7h19.1V14.5h7.4v42.1h-7.4v-19H8.8v19H1.4V14.5z"/>
	<path d="M53.1,32.4c1.1,0,2.2,0,3.3-0.2c1.1-0.2,2.1-0.5,2.9-1c0.9-0.5,1.6-1.2,2.1-2c0.5-0.9,0.8-1.9,0.8-3.2
		c0-1.8-0.6-3.2-1.8-4.2c-1.2-1.1-2.7-1.6-4.6-1.6c-1.2,0-2.2,0.2-3.1,0.7c-0.9,0.5-1.6,1.1-2.2,1.9c-0.6,0.8-1,1.7-1.3,2.7
		c-0.3,1-0.4,2-0.4,3.1h-6.7c0.1-2,0.5-3.9,1.1-5.6c0.7-1.7,1.6-3.2,2.7-4.4s2.6-2.2,4.2-2.9c1.6-0.7,3.5-1.1,5.6-1.1
		c1.6,0,3.2,0.2,4.7,0.7c1.6,0.5,2.9,1.2,4.2,2.1c1.2,0.9,2.2,2.1,3,3.4c0.7,1.4,1.1,3,1.1,4.8c0,2.1-0.5,3.9-1.4,5.4
		c-0.9,1.6-2.4,2.7-4.4,3.4v0.1c2.4,0.5,4.2,1.6,5.5,3.5c1.3,1.9,2,4.1,2,6.8c0,2-0.4,3.7-1.2,5.3c-0.8,1.6-1.8,2.9-3.2,3.9
		c-1.3,1.1-2.9,1.9-4.7,2.5c-1.8,0.6-3.6,0.9-5.6,0.9c-2.4,0-4.5-0.3-6.3-1s-3.3-1.7-4.5-2.9c-1.2-1.3-2.1-2.8-2.7-4.5
		c-0.6-1.8-1-3.7-1-5.9h6.7c-0.1,2.5,0.5,4.6,1.9,6.3c1.3,1.7,3.3,2.5,5.9,2.5c2.2,0,4.1-0.6,5.6-1.9c1.5-1.3,2.3-3.1,2.3-5.4
		c0-1.6-0.3-2.9-0.9-3.8c-0.6-0.9-1.5-1.7-2.5-2.2c-1-0.5-2.2-0.8-3.4-0.9c-1.3-0.1-2.6-0.2-3.9-0.1V32.4z"/>
</g>
</svg>
