<?xml version="1.0" encoding="UTF-8"?>
<!DOCTYPE svg PUBLIC "-//W3C//DTD SVG 1.1//EN" "http://www.w3.org/Graphics/SVG/1.1/DTD/svg11.dtd">
<svg enable-background="new 0 0 72 72" version="1.1" viewBox="0 0 72 72" xml:space="preserve" xmlns="http://www.w3.org/2000/svg" x="0px" y="0px">
<g>
	<path d="M1.5,14.9h7.4v16.7H28V14.9h7.4V57H28V38H8.9v19H1.5V14.9z"/>
	<path d="m69.043 42.368q0 5.6553-3.9202 10.154-3.8559 4.4343-9.3827 4.4343-6.1052 0-9.7683-2.8919-3.5988-2.8919-3.7274-8.0331h6.6193q0 2.8919 1.7352 4.37 1.7352 1.4781 4.6914 1.4781 3.0847 0 5.1412-2.5706 2.0565-2.5706 2.0565-6.7478 0-8.8686-6.4265-8.8686-4.6914 0-7.3262 5.4625h-5.8481l0.89971-24.292h22.75v5.3983h-16.516l-0.64265 12.21q3.0205-3.5988 8.3545-3.5988 5.2055 0 8.2259 3.9844 3.0847 3.9202 3.0847 9.5112z" stroke-width="1.6452"/>
</g>
</svg>
