<svg viewBox="0 0 72 72" xmlns="http://www.w3.org/2000/svg">
    <path d="M1.5 14.9h7.4v16.7H28V14.9h7.4V57H28V38H8.9v19H1.5z"/>
    <path d="M69.188 43.56q0 2.269-.63 4.475-.63 2.206-2.017 4.286t-4.097 3.403q-2.71 1.261-6.366 1.261-4.349 0-7.185-1.324-2.773-1.386-4.16-4.16-1.386-2.836-1.89-6.113t-.505-8.194q0-22.312 14.181-22.312 10.4 0 11.66 10.526h-6.177q-.378-5.61-5.483-5.61-2.521 0-4.223 1.766-1.702 1.701-2.458 4.538-.693 2.836-1.008 5.168-.252 2.269-.252 4.664 1.575-2.458 3.53-3.719 2.016-1.323 5.42-1.323 3.34 0 5.735 1.26 2.458 1.198 3.656 3.215 1.197 2.017 1.701 4.033.568 2.017.568 4.16zm-6.492.252q0-8.193-6.555-8.193-6.68 0-6.68 8.193 0 8.257 6.68 8.257 6.555 0 6.555-8.257z"
          aria-label="6"/>
</svg>
