<?xml version="1.0" encoding="UTF-8"?>
<svg enable-background="new 0 0 72 72" version="1.1" viewBox="0 0 72 72" xml:space="preserve" xmlns="http://www.w3.org/2000/svg">
<path d="m1.5 14.9h7.4v16.7h19.1v-16.7h7.4v42.1h-7.4v-19h-19.1v19h-7.4z"/><g aria-label="6"><path d="m69.188 43.56q0 2.269-0.63028 4.475-0.63028 2.206-2.0169 4.2859t-4.0968 3.4035q-2.7102 1.2606-6.3658 1.2606-4.3489 0-7.1852-1.3236-2.7732-1.3866-4.1598-4.1598-1.3866-2.8362-1.8908-6.1137t-0.50422-8.1936q0-22.312 14.181-22.312 10.4 0 11.66 10.526h-6.1767q-0.37817-5.6095-5.4834-5.6095-2.5211 0-4.2229 1.7648-1.7017 1.7017-2.4581 4.538-0.6933 2.8362-1.0084 5.1683-0.25211 2.269-0.25211 4.664 1.5757-2.4581 3.5295-3.7186 2.0169-1.3236 5.4204-1.3236 3.3405 0 5.7355 1.2606 2.4581 1.1975 3.6556 3.2144 1.1975 2.0169 1.7017 4.0338 0.56725 2.0169 0.56725 4.1598zm-6.4918 0.25211q0-8.1936-6.5549-8.1936-6.6809 0-6.6809 8.1936 0 8.2566 6.6809 8.2566 6.5549 0 6.5549-8.2566z" stroke-width="1.6135"/></g></svg>
