<?xml version="1.0" encoding="utf-8"?>
<!-- Generator: Adobe Illustrator 18.0.0, SVG Export Plug-In . SVG Version: 6.00 Build 0)  -->
<!DOCTYPE svg PUBLIC "-//W3C//DTD SVG 1.1//EN" "http://www.w3.org/Graphics/SVG/1.1/DTD/svg11.dtd">
<svg version="1.1" id="Calque_1" xmlns="http://www.w3.org/2000/svg" xmlns:xlink="http://www.w3.org/1999/xlink" x="0px" y="0px"
	 viewBox="0 0 72 72" enable-background="new 0 0 72 72" xml:space="preserve">
<g>
	<path d="M64,17v38H8V17H64 M72,9H0v54h72V9L72,9z"/>
</g>
<g>
	<path d="M17.5,22C15,22,13,24,13,26.5s2,4.5,4.5,4.5c2.5,0,4.5-2,4.5-4.5S20,22,17.5,22L17.5,22z"/>
</g>
<polygon points="16,50 43,50 29.5,32 "/>
<path d="M36,36.2l8.9-8.5L60.2,50l-14.3,0C45.9,50,35.6,35.9,36,36.2z"/>
</svg>
