<svg xmlns="http://www.w3.org/2000/svg" viewBox="0 0 72 72">
    <path d="M30.9 49.1l-6.7 6.7c-.8.8-1.6.9-2.1.9s-1.4-.1-2.1-.9l-5.2-5.2c-1.1-1.1-1.1-3.1 0-4.2l6.1-6.1.2-.2 6.5-6.5c-1.2-.6-2.5-.9-3.8-.9-2.3 0-4.6.9-6.3 2.6L10.8 42c-3.5 3.5-3.5 9.2 0 12.7l5.2 5.2c1.7 1.7 4 2.6 6.3 2.6s4.6-.9 6.3-2.6l6.7-6.7C38 50.5 38.6 46.3 37 43l-6.1 6.1zM38.5 22.7l6.7-6.7c.8-.8 1.6-.9 2.1-.9s1.4.1 2.1.9l5.2 5.2c1.1 1.1 1.1 3.1 0 4.2l-6.1 6.1-.2.2-6.5 6.5c1.2.6 2.5.9 3.8.9 2.3 0 4.6-.9 6.3-2.6l6.7-6.7c3.5-3.5 3.5-9.2 0-12.7l-5.2-5.2c-1.7-1.7-4-2.6-6.3-2.6s-4.6.9-6.3 2.6l-6.7 6.7c-2.7 2.7-3.3 6.9-1.7 10.2l6.1-6.1z"/>
    <path d="M44.1 30.7c.2-.2.4-.6.4-.9 0-.3-.1-.6-.4-.9l-2.3-2.3c-.2-.2-.6-.4-.9-.4-.3 0-.6.1-.9.4L25.8 40.8c-.2.2-.4.6-.4.9 0 .3.1.6.4.9l2.3 2.3c.2.2.6.4.9.4.3 0 .6-.1.9-.4l14.2-14.2z"/>
</svg>
