<?xml version="1.0" encoding="utf-8"?>
<!-- Generator: Adobe Illustrator 18.0.0, SVG Export Plug-In . SVG Version: 6.00 Build 0)  -->
<!DOCTYPE svg PUBLIC "-//W3C//DTD SVG 1.1//EN" "http://www.w3.org/Graphics/SVG/1.1/DTD/svg11.dtd">
<svg version="1.1" id="Calque_1" xmlns="http://www.w3.org/2000/svg" xmlns:xlink="http://www.w3.org/1999/xlink" x="0px" y="0px"
	 viewBox="0 0 72 72" enable-background="new 0 0 72 72" xml:space="preserve">
<g>
	<rect x="27" y="14" width="36" height="8"/>
	<rect x="27" y="50" width="36" height="8"/>
	<rect x="27" y="32" width="36" height="8"/>
	<polygon points="11.8,15.8 11.8,15.8 11.8,22 13.6,22 13.6,14.2 12.1,14.2 10,15.2 10.3,16.5 	"/>
	<path d="M12.1,38.5l0.7-0.6c1.1-1,2.1-2.1,2.1-3.4c0-1.4-1-2.4-2.7-2.4c-1.1,0-2,0.4-2.6,0.8l0.5,1.3c0.4-0.3,1-0.6,1.7-0.6
		c0.9,0,1.3,0.5,1.3,1.1c0,0.9-0.9,1.8-2.6,3.3l-1,0.9V40H15v-1.5L12.1,38.5L12.1,38.5z"/>
	<path d="M13.3,53.9L13.3,53.9c1-0.4,1.4-1,1.4-1.8c0-1.1-0.9-1.9-2.6-1.9c-1,0-1.9,0.3-2.4,0.6l0.4,1.3c0.3-0.2,1-0.5,1.6-0.5
		c0.8,0,1.2,0.3,1.2,0.8c0,0.7-0.8,0.9-1.4,0.9h-0.7v1.3h0.7c0.8,0,1.6,0.3,1.6,1.1c0,0.6-0.5,1-1.4,1c-0.7,0-1.5-0.3-1.8-0.5
		l-0.4,1.4c0.5,0.3,1.3,0.6,2.3,0.6c2,0,3.2-1,3.2-2.4C15,54.7,14.2,54,13.3,53.9z"/>
</g>
</svg>
