<svg xmlns="http://www.w3.org/2000/svg" viewBox="0 0 72 72">
    <path d="M27 14h36v8H27zM27 50h36v8H27zM27 32h36v8H27zM11.8 15.8V22h1.8v-7.8h-1.5l-2.1 1 .3 1.3zM12.1 38.5l.7-.6c1.1-1 2.1-2.1 2.1-3.4 0-1.4-1-2.4-2.7-2.4-1.1 0-2 .4-2.6.8l.5 1.3c.4-.3 1-.6 1.7-.6.9 0 1.3.5 1.3 1.1 0 .9-.9 1.8-2.6 3.3l-1 .9V40H15v-1.5h-2.9zM13.3 53.9c1-.4 1.4-1 1.4-1.8 0-1.1-.9-1.9-2.6-1.9-1 0-1.9.3-2.4.6l.4 1.3c.3-.2 1-.5 1.6-.5.8 0 1.2.3 1.2.8 0 .7-.8.9-1.4.9h-.7v1.3h.7c.8 0 1.6.3 1.6 1.1 0 .6-.5 1-1.4 1-.7 0-1.5-.3-1.8-.5l-.4 1.4c.5.3 1.3.6 2.3.6 2 0 3.2-1 3.2-2.4 0-1.1-.8-1.8-1.7-1.9z"/>
</svg>
