<?xml version="1.0" encoding="utf-8"?>
<!-- Generator: Adobe Illustrator 18.0.0, SVG Export Plug-In . SVG Version: 6.00 Build 0)  -->
<!DOCTYPE svg PUBLIC "-//W3C//DTD SVG 1.1//EN" "http://www.w3.org/Graphics/SVG/1.1/DTD/svg11.dtd">
<svg version="1.1" id="Calque_1" xmlns="http://www.w3.org/2000/svg" xmlns:xlink="http://www.w3.org/1999/xlink" x="0px" y="0px"
	 viewBox="0 0 72 72" enable-background="new 0 0 72 72" xml:space="preserve">
<path d="M45.8,45c0,1-0.3,1.9-0.9,2.8l0,0c-0.6,0.9-1.6,1.6-3,2.1c-1.4,0.5-3.1,0.8-5,0.8c-2.1,0-4-0.4-5.7-1.1
	c-1.7-0.7-2.9-1.7-3.6-2.7l0,0c-0.8-1.1-1.3-2.6-1.5-4.5L26,41.6l-6.7,0.6l0,0.9c0.1,2.8,0.9,5.4,2.3,7.6l0,0c1.5,2.3,3.5,4,6.1,5.1
	l0,0c2.6,1.1,5.7,1.6,9.4,1.6c2.9,0,5.6-0.5,8-1.6c2.4-1.1,4.3-2.7,5.6-4.7l0,0c1.3-2,2-4.2,2-6.5c0-1.6-0.3-3.1-0.9-4.5l-0.2-0.6
	c0,0-6.1,0-7.6,0C44,39.6,45.8,41.8,45.8,45z"/>
<path d="M29,28.9L29,28.9L29,28.9c-0.8-0.8-1.2-1.7-1.2-2.9c0-0.7,0.1-1.3,0.4-1.9c0.3-0.6,0.7-1.1,1.4-1.6l0,0
	c0.6-0.5,1.4-0.9,2.5-1.1c1.1-0.3,2.4-0.4,3.9-0.4c2.9,0,5,0.6,6.3,1.7c1.3,1.1,2.1,2.7,2.4,5.1l0.1,0.9l6.8-0.5l0-0.9
	c-0.1-2.5-0.8-4.7-2.1-6.7l0,0c-1.3-2-3.2-3.5-5.6-4.5c-2.4-1-5.1-1.5-8.1-1.5c-2.8,0-5.3,0.5-7.6,1.4c-2.3,1-4.2,2.4-5.4,4.3
	c-1.2,1.9-1.9,3.9-1.9,6.1c0,1.7,0.4,3.4,1.2,4.9l0.3,0.5h11.8C31.9,30.9,30.3,30.1,29,28.9z M42.3,22.7
	C42.3,22.7,42.3,22.7,42.3,22.7L42.3,22.7L42.3,22.7z"/>
<polygon points="22.7,20.3 22.7,20.3 22.7,20.3 "/>
<rect x="13" y="34.1" width="46.1" height="3.4"/>
</svg>
