<?xml version="1.0" encoding="utf-8"?>
<!-- Generator: Adobe Illustrator 18.0.0, SVG Export Plug-In . SVG Version: 6.00 Build 0)  -->
<!DOCTYPE svg PUBLIC "-//W3C//DTD SVG 1.1//EN" "http://www.w3.org/Graphics/SVG/1.1/DTD/svg11.dtd">
<svg version="1.1" id="Calque_1" xmlns="http://www.w3.org/2000/svg" xmlns:xlink="http://www.w3.org/1999/xlink" x="0px" y="0px"
	 viewBox="0 0 72 72" enable-background="new 0 0 72 72" xml:space="preserve">
<path d="M51.1,37.8c-1.1-1.4-2.5-2.5-4.2-3.3c1.2-0.8,2.1-1.8,2.8-3c1-1.6,1.5-3.5,1.5-5.3c0-2-0.6-4-1.7-5.8
	c-1.1-1.8-2.8-3.2-4.8-4.1c-2-0.9-4.6-1.3-7.8-1.3h-16v42h1h15.3c2.6,0,4.8-0.2,6.7-0.7c1.9-0.5,3.4-1.2,4.7-2.1
	c1.3-1,2.4-2.4,3.2-4.1c0.9-1.7,1.3-3.6,1.3-5.7C53.3,41.9,52.6,39.7,51.1,37.8z M40.8,50.2L40.8,50.2c-0.6,0.1-1.8,0.2-3.4,0.2h-9
	V38.5h8.3c2.5,0,4.4,0.2,5.6,0.6c1.2,0.4,2,1,2.7,2c0.6,0.9,1,2,1,3.3c0,1.1-0.2,2.1-0.7,2.9c-0.5,0.9-1,1.5-1.7,1.9
	C42.8,49.6,41.9,50,40.8,50.2L40.8,50.2z M43.4,29.8c-0.5,0.7-1.3,1.3-2.5,1.6l0,0l0,0c-0.8,0.3-2.5,0.4-4.8,0.4h-7.7V21.6h7.1
	c1.4,0,2.6,0,3.6,0.1c1,0.1,1.7,0.2,2.2,0.4c1,0.3,1.7,0.8,2.2,1.7c0.5,0.9,0.8,1.8,0.8,3C44.2,28.1,43.9,29,43.4,29.8z"/>
</svg>
