<svg xmlns="http://www.w3.org/2000/svg" viewBox="0 0 72 72">
    <path d="M32 15h7.8L56 57.1h-7.9L44.3 46H27.4l-4 11.1h-7.6L32 15zm-2.5 25.4h12.9L36 22.3h-.2l-6.3 18.1zM58.7 59.9c.6-1.4 2-2.8 4.1-4.4 1.9-1.3 3.1-2.3 3.7-2.9.8-.9 1.3-1.9 1.3-3 0-.9-.2-1.6-.7-2.2-.5-.6-1.2-.9-2.1-.9-1.2 0-2.1.5-2.5 1.4-.3.5-.4 1.4-.5 2.5h-4c.1-1.8.4-3.2 1-4.3 1.1-2.1 3-3.1 5.8-3.1 2.2 0 3.9.6 5.2 1.8 1.3 1.2 1.9 2.8 1.9 4.8 0 1.5-.5 2.9-1.4 4.1-.6.8-1.6 1.7-3 2.6L66 57.7c-1 .7-1.7 1.2-2.1 1.6-.4.3-.7.7-1 1.1H72V64H57.8c0-1.5.3-2.8.9-4.1z"/>
</svg>
