<?xml version="1.0" encoding="utf-8"?>
<!-- Generator: Adobe Illustrator 18.0.0, SVG Export Plug-In . SVG Version: 6.00 Build 0)  -->
<!DOCTYPE svg PUBLIC "-//W3C//DTD SVG 1.1//EN" "http://www.w3.org/Graphics/SVG/1.1/DTD/svg11.dtd">
<svg version="1.1" id="Calque_1" xmlns="http://www.w3.org/2000/svg" xmlns:xlink="http://www.w3.org/1999/xlink" x="0px" y="0px"
	 viewBox="0 0 72 72" enable-background="new 0 0 72 72" xml:space="preserve">
<g>
	<path d="M32,15h7.8l16.2,42.1h-7.9L44.3,46H27.4l-4,11.1h-7.6L32,15z M29.5,40.4h12.9L36,22.3h-0.2L29.5,40.4z"/>
</g>
<g>
	<path d="M58.7,59.9c0.6-1.4,2-2.8,4.1-4.4c1.9-1.3,3.1-2.3,3.7-2.9c0.8-0.9,1.3-1.9,1.3-3c0-0.9-0.2-1.6-0.7-2.2
		c-0.5-0.6-1.2-0.9-2.1-0.9c-1.2,0-2.1,0.5-2.5,1.4c-0.3,0.5-0.4,1.4-0.5,2.5h-4c0.1-1.8,0.4-3.2,1-4.3c1.1-2.1,3-3.1,5.8-3.1
		c2.2,0,3.9,0.6,5.2,1.8c1.3,1.2,1.9,2.8,1.9,4.8c0,1.5-0.5,2.9-1.4,4.1c-0.6,0.8-1.6,1.7-3,2.6L66,57.7c-1,0.7-1.7,1.2-2.1,1.6
		c-0.4,0.3-0.7,0.7-1,1.1H72V64H57.8C57.8,62.5,58.1,61.2,58.7,59.9z"/>
</g>
</svg>
