<svg xmlns="http://www.w3.org/2000/svg" viewBox="0 0 72 72">
    <path d="M32 15h7.8L56 57.1h-7.9l-4-11.1H27.4l-4 11.1h-7.6L32 15zm-2.5 25.4h12.9L36 22.3h-.2l-6.3 18.1zM49.6 28.8c.5-1.1 1.6-2.3 3.4-3.6 1.5-1.1 2.5-1.9 3-2.4.7-.7 1-1.6 1-2.4 0-.7-.2-1.3-.6-1.8-.4-.5-1-.7-1.7-.7-1 0-1.7.4-2.1 1.1-.2.4-.3 1.1-.4 2.1H49c.1-1.5.3-2.6.8-3.5.9-1.7 2.5-2.6 4.8-2.6 1.8 0 3.2.5 4.3 1.5 1.1 1 1.6 2.3 1.6 4 0 1.3-.4 2.4-1.1 3.4-.5.7-1.3 1.4-2.4 2.2l-1.3 1c-.8.6-1.4 1-1.7 1.3-.3.3-.6.6-.8.9h7.4v3H48.8c0-1.3.3-2.4.8-3.5z"/>
</svg>
