<?xml version="1.0" encoding="utf-8"?>
<!-- Generator: Adobe Illustrator 18.0.0, SVG Export Plug-In . SVG Version: 6.00 Build 0)  -->
<!DOCTYPE svg PUBLIC "-//W3C//DTD SVG 1.1//EN" "http://www.w3.org/Graphics/SVG/1.1/DTD/svg11.dtd">
<svg version="1.1" id="Calque_1" xmlns="http://www.w3.org/2000/svg" xmlns:xlink="http://www.w3.org/1999/xlink" x="0px" y="0px"
	 viewBox="0 0 72 72" enable-background="new 0 0 72 72" xml:space="preserve">
<g>
	<path d="M32,15h7.8l16.2,42.1h-7.9l-4-11.1H27.4l-4,11.1h-7.6L32,15z M29.5,40.4h12.9L36,22.3h-0.2L29.5,40.4z"/>
</g>
<g>
	<path d="M49.6,28.8c0.5-1.1,1.6-2.3,3.4-3.6c1.5-1.1,2.5-1.9,3-2.4c0.7-0.7,1-1.6,1-2.4c0-0.7-0.2-1.3-0.6-1.8
		c-0.4-0.5-1-0.7-1.7-0.7c-1,0-1.7,0.4-2.1,1.1c-0.2,0.4-0.3,1.1-0.4,2.1H49c0.1-1.5,0.3-2.6,0.8-3.5c0.9-1.7,2.5-2.6,4.8-2.6
		c1.8,0,3.2,0.5,4.3,1.5c1.1,1,1.6,2.3,1.6,4c0,1.3-0.4,2.4-1.1,3.4c-0.5,0.7-1.3,1.4-2.4,2.2l-1.3,1c-0.8,0.6-1.4,1-1.7,1.3
		c-0.3,0.3-0.6,0.6-0.8,0.9h7.4v3H48.8C48.8,31,49.1,29.9,49.6,28.8z"/>
</g>
</svg>
