<?xml version="1.0" encoding="utf-8"?>
<!-- Generator: Adobe Illustrator 18.0.0, SVG Export Plug-In . SVG Version: 6.00 Build 0)  -->
<!DOCTYPE svg PUBLIC "-//W3C//DTD SVG 1.1//EN" "http://www.w3.org/Graphics/SVG/1.1/DTD/svg11.dtd">
<svg version="1.1" id="Calque_1" xmlns="http://www.w3.org/2000/svg" xmlns:xlink="http://www.w3.org/1999/xlink" x="0px" y="0px"
	 viewBox="0 0 72 72" enable-background="new 0 0 72 72" xml:space="preserve">
<polygon points="36,35 36,35 36,35 "/>
<rect x="15.2" y="55.9" width="41.6" height="3.1"/>
<g>
	<path d="M21.1,13.9h6.4v21.2c0,1.2,0.1,2.5,0.2,3.7c0.1,1.3,0.5,2.4,1,3.4c0.6,1,1.4,1.8,2.6,2.5c1.1,0.6,2.7,1,4.8,1
		c2.1,0,3.7-0.3,4.8-1c1.1-0.6,2-1.5,2.6-2.5c0.6-1,0.9-2.1,1-3.4c0.1-1.3,0.2-2.5,0.2-3.7V13.9H51v23.3c0,2.3-0.4,4.4-1.1,6.1
		c-0.7,1.7-1.7,3.2-3,4.4c-1.3,1.2-2.9,2-4.7,2.6c-1.8,0.6-3.9,0.9-6.1,0.9c-2.2,0-4.3-0.3-6.1-0.9c-1.8-0.6-3.4-1.5-4.7-2.6
		c-1.3-1.2-2.3-2.6-3-4.4c-0.7-1.7-1.1-3.8-1.1-6.1V13.9z"/>
</g>
</svg>
