<?xml version="1.0" encoding="UTF-8" standalone="no"?><!DOCTYPE svg PUBLIC "-//W3C//DTD SVG 1.1//EN" "http://www.w3.org/Graphics/SVG/1.1/DTD/svg11.dtd"><svg width="100%" height="100%" viewBox="0 0 72 72" version="1.1" xmlns="http://www.w3.org/2000/svg" xmlns:xlink="http://www.w3.org/1999/xlink" xml:space="preserve" xmlns:serif="http://www.serif.com/" style="fill-rule:evenodd;clip-rule:evenodd;stroke-linejoin:round;stroke-miterlimit:2;"><g><path d="M15.676,40.149l0,-5.282l13.645,0l0,12.489c-1.326,1.283 -3.248,2.413 -5.764,3.39c-2.516,0.977 -5.065,1.465 -7.646,1.465c-3.279,0 -6.137,-0.688 -8.575,-2.064c-2.439,-1.376 -4.271,-3.343 -5.497,-5.903c-1.226,-2.559 -1.839,-5.343 -1.839,-8.351c0,-3.265 0.684,-6.166 2.053,-8.704c1.369,-2.538 3.372,-4.484 6.01,-5.839c2.01,-1.04 4.512,-1.561 7.506,-1.561c3.893,0 6.933,0.816 9.122,2.449c2.188,1.632 3.596,3.889 4.223,6.769l-6.287,1.176c-0.442,-1.54 -1.273,-2.755 -2.492,-3.646c-1.219,-0.892 -2.741,-1.337 -4.566,-1.337c-2.766,0 -4.965,0.877 -6.597,2.63c-1.633,1.754 -2.449,4.356 -2.449,7.806c0,3.722 0.827,6.513 2.481,8.373c1.654,1.861 3.821,2.791 6.501,2.791c1.326,0 2.656,-0.26 3.989,-0.781c1.333,-0.52 2.477,-1.151 3.432,-1.892l0,-3.978l-7.25,0Z" style="fill-rule:nonzero;"/><rect x="36.568" y="20.324" width="6.33" height="31.352" style="fill-rule:nonzero;"/><path d="M50.507,51.676l0,-31.352l21.493,0l0,5.304l-15.163,0l0,7.421l13.089,0l0,5.303l-13.089,0l0,13.324l-6.33,0Z" style="fill-rule:nonzero;"/></g></svg>