<svg xmlns="http://www.w3.org/2000/svg" viewBox="0 0 72 72">
    <path d="M64 17v38H8V17h56m8-8H0v54h72V9z"/>
    <path d="M29.9 28.9c-.5-.5-1.1-.8-1.8-.8s-1.4.2-1.9.7c-.5.4-.9 1-1.2 1.6-.3.6-.5 1.3-.6 2.1-.1.7-.2 1.4-.2 1.9l.1.1c.6-.8 1.2-1.4 2-1.8.8-.4 1.7-.5 2.7-.5.9 0 1.8.2 2.6.6.8.4 1.6.9 2.2 1.5.6.6 1 1.3 1.2 2.2.3.8.4 1.6.4 2.5 0 1.1-.2 2.1-.5 3-.3.9-.8 1.7-1.5 2.4-.6.7-1.4 1.2-2.3 1.6-.9.4-1.9.6-3 .6-1.6 0-2.8-.3-3.9-.9-1-.6-1.8-1.4-2.5-2.4-.6-1-1-2.1-1.3-3.4-.2-1.3-.4-2.6-.4-3.9 0-1.3.1-2.6.4-3.8.3-1.3.8-2.4 1.4-3.5.7-1 1.5-1.9 2.5-2.5 1-.6 2.3-1 3.8-1 .9 0 1.7.1 2.5.4.8.3 1.4.6 2 1.1.6.5 1.1 1.1 1.4 1.8.4.7.6 1.5.7 2.5h-4c0-1-.3-1.6-.8-2.1zm-3.5 6.8c-.4.2-.8.5-1 .8-.3.4-.5.8-.6 1.2-.1.5-.2 1-.2 1.5s.1.9.2 1.4c.1.5.4.9.6 1.2.3.4.6.7 1 .9.4.2.9.3 1.4.3.5 0 1-.1 1.3-.3.4-.2.7-.5 1-.9.3-.4.5-.8.6-1.2.1-.5.2-.9.2-1.4 0-.5-.1-1-.2-1.4-.1-.5-.3-.9-.6-1.2-.3-.4-.6-.7-1-.9-.4-.2-.9-.3-1.4-.3-.4 0-.9.1-1.3.3zM36.3 41.3v-3.8l9-12.1H49v12.4h2.7v3.5H49v4.8h-4v-4.8h-8.7zM45 30.7l-5.3 7.2h5.4l-.1-7.2z"/>
</svg>
