<?xml version="1.0" encoding="utf-8"?>
<!-- Generator: Adobe Illustrator 18.0.0, SVG Export Plug-In . SVG Version: 6.00 Build 0)  -->
<!DOCTYPE svg PUBLIC "-//W3C//DTD SVG 1.1//EN" "http://www.w3.org/Graphics/SVG/1.1/DTD/svg11.dtd">
<svg version="1.1" id="Calque_1" xmlns="http://www.w3.org/2000/svg" xmlns:xlink="http://www.w3.org/1999/xlink" x="0px" y="0px"
	 viewBox="0 0 72 72" enable-background="new 0 0 72 72" xml:space="preserve">
<g>
	<path d="M64,17v38H8V17H64 M72,9H0v54h72V9L72,9z"/>
</g>
<g>
	<path d="M29.9,28.9c-0.5-0.5-1.1-0.8-1.8-0.8c-0.7,0-1.4,0.2-1.9,0.7c-0.5,0.4-0.9,1-1.2,1.6c-0.3,0.6-0.5,1.3-0.6,2.1
		c-0.1,0.7-0.2,1.4-0.2,1.9l0.1,0.1c0.6-0.8,1.2-1.4,2-1.8c0.8-0.4,1.7-0.5,2.7-0.5c0.9,0,1.8,0.2,2.6,0.6c0.8,0.4,1.6,0.9,2.2,1.5
		c0.6,0.6,1,1.3,1.2,2.2c0.3,0.8,0.4,1.6,0.4,2.5c0,1.1-0.2,2.1-0.5,3c-0.3,0.9-0.8,1.7-1.5,2.4c-0.6,0.7-1.4,1.2-2.3,1.6
		c-0.9,0.4-1.9,0.6-3,0.6c-1.6,0-2.8-0.3-3.9-0.9c-1-0.6-1.8-1.4-2.5-2.4c-0.6-1-1-2.1-1.3-3.4c-0.2-1.3-0.4-2.6-0.4-3.9
		c0-1.3,0.1-2.6,0.4-3.8c0.3-1.3,0.8-2.4,1.4-3.5c0.7-1,1.5-1.9,2.5-2.5c1-0.6,2.3-1,3.8-1c0.9,0,1.7,0.1,2.5,0.4
		c0.8,0.3,1.4,0.6,2,1.1c0.6,0.5,1.1,1.1,1.4,1.8c0.4,0.7,0.6,1.5,0.7,2.5h-4C30.7,30,30.4,29.4,29.9,28.9z M26.4,35.7
		c-0.4,0.2-0.8,0.5-1,0.8c-0.3,0.4-0.5,0.8-0.6,1.2c-0.1,0.5-0.2,1-0.2,1.5c0,0.5,0.1,0.9,0.2,1.4c0.1,0.5,0.4,0.9,0.6,1.2
		c0.3,0.4,0.6,0.7,1,0.9c0.4,0.2,0.9,0.3,1.4,0.3c0.5,0,1-0.1,1.3-0.3c0.4-0.2,0.7-0.5,1-0.9c0.3-0.4,0.5-0.8,0.6-1.2
		c0.1-0.5,0.2-0.9,0.2-1.4c0-0.5-0.1-1-0.2-1.4c-0.1-0.5-0.3-0.9-0.6-1.2c-0.3-0.4-0.6-0.7-1-0.9c-0.4-0.2-0.9-0.3-1.4-0.3
		C27.3,35.4,26.8,35.5,26.4,35.7z"/>
	<path d="M36.3,41.3v-3.8l9-12.1H49v12.4h2.7v3.5H49v4.8h-4v-4.8H36.3z M45,30.7l-5.3,7.2h5.4L45,30.7L45,30.7z"/>
</g>
</svg>
