<?xml version="1.0" encoding="utf-8"?>
<!-- Generator: Adobe Illustrator 16.0.0, SVG Export Plug-In . SVG Version: 6.00 Build 0)  -->
<!DOCTYPE svg PUBLIC "-//W3C//DTD SVG 1.1//EN" "http://www.w3.org/Graphics/SVG/1.1/DTD/svg11.dtd">
<svg version="1.1" id="Calque_1" xmlns="http://www.w3.org/2000/svg" xmlns:xlink="http://www.w3.org/1999/xlink" x="0px" y="0px"
	 width="72px" height="72px" viewBox="0 0 72 72" enable-background="new 0 0 72 72" xml:space="preserve">
<path d="M16.499,24.477h8.018L41.08,67.5H33L28.96,56.139H11.804L7.764,67.5H0L16.499,24.477z M13.849,50.384h13.127l-6.438-18.497
	h-0.177L13.849,50.384z"/>
<path d="M65.053,16.685c-6.316,1.178-12.025,1.98-17.126,2.408c-0.396,2.285-0.714,4.229-0.965,5.833
	c-0.25,1.57-0.679,3.907-1.286,7.013c3.033-1.963,5.852-3.266,8.458-3.907c2.639-0.642,4.905-0.891,6.797-0.75
	c1.891,0.108,3.746,0.661,5.566,1.661c1.82,0.964,3.264,2.408,4.334,4.334c1.104,1.893,1.427,4.088,0.965,6.584
	c-0.466,2.461-1.554,4.494-3.265,6.101c-1.679,1.605-3.658,2.783-5.941,3.532c-2.283,0.785-4.853,1.251-7.707,1.391
	c-2.819,0.144-5.906,0.161-9.259,0.056c0-1.642-0.287-3.212-0.857-4.71l0.108-0.59c2.711,0.5,5.246,0.768,7.601,0.802
	c2.39,0,4.529-0.195,6.421-0.589c1.927-0.393,3.605-1.069,5.031-2.031c1.427-0.965,2.319-2.319,2.676-4.067
	c0.394-1.75,0.269-3.229-0.373-4.443c-0.644-1.249-1.446-2.213-2.408-2.891c-0.929-0.68-2.161-1.034-3.693-1.071
	c-1.536-0.072-3.265,0.089-5.192,0.482c-1.927,0.391-3.82,1.14-5.672,2.248c-1.857,1.107-3.516,2.409-4.978,3.907l-4.872-1.981
	c1.463-5.031,2.355-8.597,2.677-10.703c0.321-2.105,0.642-4.067,0.963-5.887c-3.961,0.25-7.154,0.411-9.58,0.481
	c-0.215-1.927-0.52-3.534-0.91-4.817l0.32-0.32c3.604,0.32,7.225,0.446,10.865,0.375c0.214-1.355,0.481-3.103,0.804-5.245
	c0.354-2.175,0.407-3.621,0.16-4.336c0.034-0.784,0.374-1.017,1.017-0.695l5.085,0.749c0.428,0.251,0.444,0.573,0.055,0.964
	l-0.857,0.91c-0.537,2.89-0.981,5.352-1.338,7.385c4.279-0.427,9.312-1.393,15.092-2.89L65.053,16.685"/>
</svg>
