<?xml version="1.0" encoding="iso-8859-1"?>
<!-- Generator: Adobe Illustrator 19.0.0, SVG Export Plug-In . SVG Version: 6.00 Build 0)  -->
<svg version="1.1" id="Capa_1" xmlns="http://www.w3.org/2000/svg" xmlns:xlink="http://www.w3.org/1999/xlink" x="0px" y="0px"
	 viewBox="0 0 512 512" style="enable-background:new 0 0 512 512;" xml:space="preserve">
<g>
	<g>
		<path d="M502.201,301.94l-86.308-76.105V167.91c0-4.182-3.391-7.573-7.573-7.573h-43.49c-4.182,0-7.573,3.391-7.573,7.573v6.222
			l-52.853-46.604V83.509c0-23.637-5.554-45.08-16.509-63.734c-6.708-11.421-18.623-18.238-31.881-18.238c-0.006,0-0.014,0-0.019,0
			c-13.262,0.006-25.178,6.834-31.875,18.264c-10.926,18.648-16.467,40.082-16.467,63.708v43.969l-52.908,46.653v-6.221
			c0-4.182-3.391-7.573-7.573-7.573h-43.492c-4.182,0-7.573,3.39-7.573,7.573v57.925L9.8,301.94
			c-12.409,10.942-11.641,26.073-5.378,36.214c4.683,7.581,13.232,13.663,23.658,13.662c3.522,0,7.258-0.695,11.132-2.259
			l37.04-14.965c3.877-1.567,5.751-5.98,4.184-9.857c-1.567-3.878-5.98-5.751-9.857-4.184l-37.04,14.965
			c-7.648,3.09-13.521-0.935-16.23-5.32s-3.677-11.442,2.508-16.895l187.837-165.63v117.497l-106.69,43.105
			c-3.877,1.567-5.751,5.98-4.184,9.857c1.567,3.877,5.98,5.751,9.857,4.184L207.652,281.5v84.184
			c0,10.189,1.075,20.321,3.144,30.225l-51.069,51.069c-5.238,5.238-6.401,12.877-2.963,19.461
			c2.949,5.648,8.474,8.961,14.614,8.961c1.017,0,2.051-0.091,3.093-0.278l66.376-12.14c2.046,2.504,4.662,4.45,7.608,5.678v33.912
			c0,4.147,3.196,7.762,7.34,7.887c4.288,0.128,7.805-3.31,7.805-7.569v-34.275c2.907-1.234,5.49-3.166,7.51-5.64l66.448,12.154
			c1.034,0.185,2.062,0.276,3.073,0.276c6.124,0,11.654-3.314,14.604-8.964c3.437-6.584,2.274-14.223-2.964-19.461l-51.043-51.043
			c2.088-9.926,3.174-20.066,3.174-30.25v-39.241c0-4.182-3.39-7.573-7.573-7.573c-4.182,0-7.573,3.39-7.573,7.573v39.241
			c0,22.586-5.854,44.954-16.936,64.702l-8.722,15.612V402.16c0-4.147-3.196-7.762-7.34-7.887c-4.288-0.128-7.805,3.31-7.805,7.57
			v44.325l-8.8-15.792c-11.029-19.651-16.857-42.02-16.857-64.688V83.509c0-20.898,4.841-39.757,14.388-56.051
			c3.952-6.744,10.986-10.771,18.816-10.775c0.004,0,0.007,0,0.011,0c7.829,0,14.865,4.023,18.823,10.762
			c9.571,16.297,14.423,35.16,14.423,56.064v207.595c0,4.182,3.39,7.573,7.573,7.573c4.182,0,7.573-3.39,7.573-7.573v-9.582
			l168.385,68.033c3.874,1.565,7.609,2.26,11.132,2.26c10.424,0,18.975-6.082,23.658-13.662
			C513.842,328.013,514.61,312.882,502.201,301.94z M139.599,187.486l-28.346,24.995v-36.997h28.346V187.486z M285.536,437.786
			c4.486-7.994,8.191-16.378,11.107-25.018l44.918,44.919c0.208,0.208,0.761,0.761,0.248,1.744
			c-0.513,0.982-1.292,0.841-1.556,0.795l-61.018-11.161L285.536,437.786z M226.437,437.766l6.298,11.303l-60.96,11.15
			c-0.293,0.05-1.073,0.194-1.585-0.79c-0.514-0.982,0.039-1.536,0.247-1.743l44.923-44.922
			C218.266,421.413,221.963,429.792,226.437,437.766z M372.401,175.484h28.345v36.997l-28.345-24.994V175.484z M494.693,330.195
			c-2.709,4.385-8.585,8.409-16.23,5.32l-174.06-70.326v-117.47L492.185,313.3C498.37,318.754,497.402,325.81,494.693,330.195z"/>
	</g>
</g>
<g>
	<g>
		<path d="M278.507,56.765c-12.396-12.395-32.563-12.395-44.96,0c-2.957,2.957-2.957,7.752,0,10.708
			c2.958,2.957,7.752,2.957,10.71,0c6.49-6.49,17.05-6.49,23.539,0c1.479,1.478,3.418,2.218,5.355,2.218
			c1.938,0,3.876-0.739,5.355-2.218C281.464,64.516,281.464,59.721,278.507,56.765z"/>
	</g>
</g>
<g>
</g>
<g>
</g>
<g>
</g>
<g>
</g>
<g>
</g>
<g>
</g>
<g>
</g>
<g>
</g>
<g>
</g>
<g>
</g>
<g>
</g>
<g>
</g>
<g>
</g>
<g>
</g>
<g>
</g>
</svg>
