<?xml version="1.0" encoding="iso-8859-1"?>
<!-- Generator: Adobe Illustrator 19.0.0, SVG Export Plug-In . SVG Version: 6.00 Build 0)  -->
<svg version="1.1" id="Capa_1" xmlns="http://www.w3.org/2000/svg" xmlns:xlink="http://www.w3.org/1999/xlink" x="0px" y="0px"
	 viewBox="0 0 33 33" style="enable-background:new 0 0 33 33;" xml:space="preserve">
<g>
	<g>
		<path d="M31.239,26.632h-3.552c-0.276,0-0.5-0.224-0.5-0.5s0.224-0.5,0.5-0.5h3.552c0.42,0,0.761-0.342,0.761-0.762v-5.499
			c0-0.631-0.513-1.144-1.144-1.144H18.23c-0.276,0-0.5-0.224-0.5-0.5V7.229H1.762C1.342,7.229,1,7.571,1,7.99v16.88
			c0,0.42,0.342,0.762,0.762,0.762h3.264c0.276,0,0.5,0.224,0.5,0.5s-0.224,0.5-0.5,0.5H1.762C0.791,26.632,0,25.842,0,24.87V7.99
			c0-0.971,0.791-1.761,1.762-1.761H18.23c0.276,0,0.5,0.224,0.5,0.5v10.499h12.126c1.182,0,2.144,0.962,2.144,2.144v5.499
			C33,25.842,32.21,26.632,31.239,26.632z"/>
		<path d="M22.161,26.632H10.552c-0.276,0-0.5-0.224-0.5-0.5s0.224-0.5,0.5-0.5h11.609c0.276,0,0.5,0.224,0.5,0.5
			S22.437,26.632,22.161,26.632z"/>
		<path d="M29.906,18.228c-0.157,0-0.311-0.073-0.409-0.211l-5.472-7.728H18.23c-0.276,0-0.5-0.224-0.5-0.5s0.224-0.5,0.5-0.5h6.054
			c0.162,0,0.314,0.079,0.408,0.211l5.622,7.938c0.16,0.226,0.106,0.538-0.119,0.697C30.106,18.198,30.005,18.228,29.906,18.228z"/>
		<path d="M7.789,29.395c-1.799,0-3.263-1.464-3.263-3.263c0-1.799,1.464-3.263,3.263-3.263s3.263,1.464,3.263,3.263
			C11.052,27.931,9.588,29.395,7.789,29.395z M7.789,23.869c-1.248,0-2.263,1.015-2.263,2.263c0,1.248,1.015,2.263,2.263,2.263
			s2.263-1.015,2.263-2.263C10.052,24.884,9.037,23.869,7.789,23.869z"/>
		<path d="M24.924,29.395c-1.799,0-3.263-1.464-3.263-3.263c0-1.799,1.464-3.263,3.263-3.263c1.799,0,3.263,1.464,3.263,3.263
			C28.187,27.931,26.723,29.395,24.924,29.395z M24.924,23.869c-1.248,0-2.263,1.015-2.263,2.263c0,1.248,1.015,2.263,2.263,2.263
			c1.248,0,2.263-1.015,2.263-2.263C27.187,24.884,26.171,23.869,24.924,23.869z"/>
	</g>
	<g>
		<path d="M13.532,14.404H5.716c-0.276,0-0.5-0.224-0.5-0.5s0.224-0.5,0.5-0.5h7.816c0.276,0,0.5,0.224,0.5,0.5
			S13.809,14.404,13.532,14.404z"/>
		<path d="M9.624,18.312c-0.276,0-0.5-0.224-0.5-0.5V9.996c0-0.276,0.224-0.5,0.5-0.5s0.5,0.224,0.5,0.5v7.816
			C10.124,18.088,9.9,18.312,9.624,18.312z"/>
	</g>
	<path d="M11.506,7.18H7.455c-0.276,0-0.5-0.224-0.5-0.5V6.131c0-1.393,1.133-2.526,2.526-2.526s2.526,1.133,2.526,2.526V6.68
		C12.006,6.956,11.783,7.18,11.506,7.18z M7.955,6.18l3.052-0.049c0-0.841-0.685-1.526-1.526-1.526S7.955,5.29,7.955,6.131V6.18z"/>
</g>
<g>
</g>
<g>
</g>
<g>
</g>
<g>
</g>
<g>
</g>
<g>
</g>
<g>
</g>
<g>
</g>
<g>
</g>
<g>
</g>
<g>
</g>
<g>
</g>
<g>
</g>
<g>
</g>
<g>
</g>
</svg>
