<?xml version="1.0" encoding="iso-8859-1"?>
<!-- Generator: Adobe Illustrator 19.0.0, SVG Export Plug-In . SVG Version: 6.00 Build 0)  -->
<svg version="1.1" id="Capa_1" xmlns="http://www.w3.org/2000/svg" xmlns:xlink="http://www.w3.org/1999/xlink" x="0px" y="0px"
	 viewBox="0 0 31.224 31.224" style="enable-background:new 0 0 31.224 31.224;" xml:space="preserve">
<g>
	<g>
		<g>
			<path d="M21.427,24.268H10.047c-0.276,0-0.5-0.224-0.5-0.5s0.224-0.5,0.5-0.5h11.379c0.276,0,0.5,0.224,0.5,0.5
				S21.703,24.268,21.427,24.268z"/>
			<path d="M7.339,26.977c-1.769,0-3.208-1.439-3.208-3.209c0-1.769,1.439-3.208,3.208-3.208s3.208,1.439,3.208,3.208
				C10.547,25.537,9.108,26.977,7.339,26.977z M7.339,21.56c-1.218,0-2.208,0.99-2.208,2.208s0.991,2.209,2.208,2.209
				s2.208-0.991,2.208-2.209S8.557,21.56,7.339,21.56z"/>
			<path d="M24.135,26.977c-1.769,0-3.208-1.439-3.208-3.209c0-1.769,1.439-3.208,3.208-3.208s3.208,1.439,3.208,3.208
				C27.344,25.537,25.904,26.977,24.135,26.977z M24.135,21.56c-1.218,0-2.208,0.99-2.208,2.208s0.991,2.209,2.208,2.209
				s2.208-0.991,2.208-2.209S25.353,21.56,24.135,21.56z"/>
		</g>
		<path d="M21.431,24.268H10.048c-0.276,0-0.5-0.224-0.5-0.5s0.224-0.5,0.5-0.5h11.382c0.276,0,0.5,0.224,0.5,0.5
			S21.707,24.268,21.431,24.268z"/>
		<path d="M28.833,24.268h-1.992c-0.276,0-0.5-0.224-0.5-0.5s0.224-0.5,0.5-0.5h1.992c0.767,0,1.39-0.623,1.39-1.39v-1.931
			c0-0.712-0.29-1.409-0.795-1.911l-2.244-2.23c-0.042-0.042-0.077-0.091-0.102-0.145l-1.839-3.98
			c-0.371-0.802-1.181-1.32-2.065-1.32H2.584C1.711,10.36,1,11.071,1,11.944v9.934c0,0.767,0.624,1.39,1.39,1.39h2.236
			c0.276,0,0.5,0.224,0.5,0.5s-0.224,0.5-0.5,0.5H2.39c-1.318,0-2.39-1.072-2.39-2.39v-9.934C0,10.52,1.159,9.36,2.584,9.36h20.595
			c1.272,0,2.439,0.746,2.973,1.9l1.801,3.899l2.18,2.167c0.693,0.688,1.09,1.644,1.09,2.62v1.931
			C31.224,23.195,30.151,24.268,28.833,24.268z"/>
		<path d="M23.623,17.394H13.22c-0.276,0-0.5-0.224-0.5-0.5s0.224-0.5,0.5-0.5h10.403c0.276,0,0.5,0.224,0.5,0.5
			S23.899,17.394,23.623,17.394z"/>
		<path d="M7.16,17.313c-0.276,0-0.5-0.224-0.5-0.5V13.06c0-0.276,0.224-0.5,0.5-0.5s0.5,0.224,0.5,0.5v3.754
			C7.66,17.09,7.437,17.313,7.16,17.313z"/>
		<path d="M9.037,15.437H5.283c-0.276,0-0.5-0.224-0.5-0.5s0.224-0.5,0.5-0.5h3.754c0.276,0,0.5,0.224,0.5,0.5
			S9.313,15.437,9.037,15.437z"/>
	</g>
	<path d="M21.537,10.36h-3.25c-0.276,0-0.5-0.224-0.5-0.5V9.185c0-1.172,0.953-2.125,2.125-2.125s2.125,0.953,2.125,2.125V9.86
		C22.037,10.137,21.813,10.36,21.537,10.36z M18.787,9.36h2.25V9.185c0-0.62-0.505-1.125-1.125-1.125s-1.125,0.505-1.125,1.125V9.36
		z"/>
	<path d="M19.912,6.372c-0.276,0-0.5-0.224-0.5-0.5V4.747c0-0.276,0.224-0.5,0.5-0.5s0.5,0.224,0.5,0.5v1.125
		C20.412,6.148,20.188,6.372,19.912,6.372z"/>
	<g>
		<path d="M21.896,7.143c-0.128,0-0.256-0.049-0.354-0.146c-0.195-0.195-0.195-0.512,0-0.707l0.781-0.781
			c0.195-0.195,0.512-0.195,0.707,0s0.195,0.512,0,0.707L22.25,6.996C22.152,7.094,22.024,7.143,21.896,7.143z"/>
		<path d="M17.928,7.143c-0.128,0-0.256-0.049-0.354-0.146l-0.781-0.781c-0.195-0.195-0.195-0.512,0-0.707s0.512-0.195,0.707,0
			l0.781,0.781c0.195,0.195,0.195,0.512,0,0.707C18.184,7.094,18.056,7.143,17.928,7.143z"/>
	</g>
</g>
<g>
</g>
<g>
</g>
<g>
</g>
<g>
</g>
<g>
</g>
<g>
</g>
<g>
</g>
<g>
</g>
<g>
</g>
<g>
</g>
<g>
</g>
<g>
</g>
<g>
</g>
<g>
</g>
<g>
</g>
</svg>
