<?xml version="1.0" encoding="iso-8859-1"?>
<!-- Generator: Adobe Illustrator 19.0.0, SVG Export Plug-In . SVG Version: 6.00 Build 0)  -->
<svg version="1.1" id="Capa_1" xmlns="http://www.w3.org/2000/svg" xmlns:xlink="http://www.w3.org/1999/xlink" x="0px" y="0px"
	 viewBox="0 0 33 33" style="enable-background:new 0 0 33 33;" xml:space="preserve">
<g>
	<g>
		<path d="M24.192,24.505H8.809c-0.276,0-0.5-0.224-0.5-0.5v-8.122c0-2.27-1.847-4.115-4.116-4.115C2.432,11.768,1,13.199,1,14.96
			c0,1.354,1.101,2.454,2.454,2.454c1.027,0,1.863-0.836,1.863-1.863c0-0.767-0.624-1.391-1.391-1.391c-0.276,0-0.5-0.224-0.5-0.5
			s0.224-0.5,0.5-0.5c1.318,0,2.391,1.072,2.391,2.391c0,1.579-1.284,2.863-2.863,2.863C1.55,18.414,0,16.864,0,14.96
			c0-2.312,1.881-4.192,4.192-4.192c2.821,0,5.116,2.295,5.116,5.115v7.622h14.384v-7.622c0-2.82,2.295-5.115,5.115-5.115
			c2.312,0,4.192,1.881,4.192,4.192c0,1.904-1.55,3.454-3.454,3.454c-1.578,0-2.862-1.284-2.862-2.863
			c0-1.318,1.072-2.391,2.39-2.391c0.276,0,0.5,0.224,0.5,0.5s-0.224,0.5-0.5,0.5c-0.767,0-1.39,0.624-1.39,1.391
			c0,1.027,0.835,1.863,1.862,1.863c1.354,0,2.454-1.101,2.454-2.454c0-1.761-1.432-3.192-3.192-3.192
			c-2.27,0-4.115,1.846-4.115,4.115v8.122C24.692,24.281,24.469,24.505,24.192,24.505z"/>
	</g>
	<path d="M28.091,29.304H5.018c-1.138,0-2.063-0.926-2.063-2.063v-9.326c0-0.276,0.224-0.5,0.5-0.5s0.5,0.224,0.5,0.5v9.326
		c0,0.586,0.478,1.063,1.063,1.063h23.073c0.586,0,1.063-0.478,1.063-1.063v-9.326c0-0.276,0.224-0.5,0.5-0.5s0.5,0.224,0.5,0.5
		v9.326C30.154,28.378,29.229,29.304,28.091,29.304z"/>
	<path d="M24.192,20.271H8.809c-0.276,0-0.5-0.224-0.5-0.5s0.224-0.5,0.5-0.5h15.384c0.276,0,0.5,0.224,0.5,0.5
		S24.469,20.271,24.192,20.271z"/>
	<path d="M8.809,30.927c-0.276,0-0.5-0.224-0.5-0.5V29.2c0-0.276,0.224-0.5,0.5-0.5s0.5,0.224,0.5,0.5v1.227
		C9.309,30.703,9.085,30.927,8.809,30.927z"/>
	<path d="M24.192,30.927c-0.276,0-0.5-0.224-0.5-0.5V29.2c0-0.276,0.224-0.5,0.5-0.5s0.5,0.224,0.5,0.5v1.227
		C24.692,30.703,24.469,30.927,24.192,30.927z"/>
	<path d="M27.563,11.768c-0.276,0-0.5-0.224-0.5-0.5V8.009c0-2.722-2.214-4.936-4.936-4.936H10.98c-2.722,0-4.936,2.214-4.936,4.936
		v3.259c0,0.276-0.224,0.5-0.5,0.5s-0.5-0.224-0.5-0.5V8.009c0-3.272,2.663-5.936,5.936-5.936h11.147
		c3.272,0,5.936,2.663,5.936,5.936v3.259C28.063,11.544,27.84,11.768,27.563,11.768z"/>
</g>
<g>
</g>
<g>
</g>
<g>
</g>
<g>
</g>
<g>
</g>
<g>
</g>
<g>
</g>
<g>
</g>
<g>
</g>
<g>
</g>
<g>
</g>
<g>
</g>
<g>
</g>
<g>
</g>
<g>
</g>
</svg>
