<?xml version="1.0" encoding="iso-8859-1"?>
<!-- Generator: Adobe Illustrator 19.0.0, SVG Export Plug-In . SVG Version: 6.00 Build 0)  -->
<svg version="1.1" id="Capa_1" xmlns="http://www.w3.org/2000/svg" xmlns:xlink="http://www.w3.org/1999/xlink" x="0px" y="0px"
	 viewBox="0 0 32.885 32.885" style="enable-background:new 0 0 32.885 32.885;" xml:space="preserve">
<g>
	<path d="M6.875,32.885H1.414c-0.276,0-0.5-0.224-0.5-0.5V14.784c0-0.276,0.224-0.5,0.5-0.5h5.461c0.276,0,0.5,0.224,0.5,0.5v17.601
		C7.375,32.661,7.151,32.885,6.875,32.885z M1.914,31.885h4.461V15.284H1.914V31.885z"/>
	<path d="M19.176,32.885h-5.465c-0.276,0-0.5-0.224-0.5-0.5V6.85c0-0.276,0.224-0.5,0.5-0.5h5.465c0.276,0,0.5,0.224,0.5,0.5v25.535
		C19.676,32.661,19.452,32.885,19.176,32.885z M14.211,31.885h4.465V7.35h-4.465V31.885z"/>
	<path d="M31.471,32.885h-5.465c-0.276,0-0.5-0.224-0.5-0.5V0.5c0-0.276,0.224-0.5,0.5-0.5h5.465c0.276,0,0.5,0.224,0.5,0.5v31.885
		C31.971,32.661,31.747,32.885,31.471,32.885z M26.506,31.885h4.465V1h-4.465V31.885z"/>
</g>
<g>
</g>
<g>
</g>
<g>
</g>
<g>
</g>
<g>
</g>
<g>
</g>
<g>
</g>
<g>
</g>
<g>
</g>
<g>
</g>
<g>
</g>
<g>
</g>
<g>
</g>
<g>
</g>
<g>
</g>
</svg>
