<?xml version="1.0" encoding="iso-8859-1"?>
<!-- Generator: Adobe Illustrator 19.0.0, SVG Export Plug-In . SVG Version: 6.00 Build 0)  -->
<svg version="1.1" id="Capa_1" xmlns="http://www.w3.org/2000/svg" xmlns:xlink="http://www.w3.org/1999/xlink" x="0px" y="0px"
	 viewBox="0 0 33 33" style="enable-background:new 0 0 33 33;" xml:space="preserve">
<g>
	<g>
		<path d="M24.033,5.244c-0.146,0-0.293-0.064-0.392-0.189l-3.064-3.853l-3.853,3.064c-0.214,0.171-0.53,0.138-0.703-0.08
			c-0.172-0.216-0.136-0.53,0.08-0.702l4.244-3.376c0.216-0.17,0.531-0.138,0.703,0.08l3.376,4.244
			c0.172,0.216,0.136,0.53-0.08,0.702C24.253,5.208,24.143,5.244,24.033,5.244z"/>
		<path d="M4.498,17.159c-0.276,0-0.5-0.224-0.5-0.5s0.224-0.5,0.5-0.5c8.635,0,15.659-7.024,15.659-15.659
			c0-0.276,0.224-0.5,0.5-0.5s0.5,0.224,0.5,0.5C21.157,9.686,13.684,17.159,4.498,17.159z"/>
	</g>
	<path d="M4.498,33c-0.276,0-0.5-0.224-0.5-0.5v-7.692c0-0.276,0.224-0.5,0.5-0.5s0.5,0.224,0.5,0.5V32.5
		C4.998,32.776,4.774,33,4.498,33z"/>
	<path d="M12.5,33c-0.276,0-0.5-0.224-0.5-0.5V19.955c0-0.276,0.224-0.5,0.5-0.5s0.5,0.224,0.5,0.5V32.5
		C13,32.776,12.776,33,12.5,33z"/>
	<path d="M20.501,33c-0.276,0-0.5-0.224-0.5-0.5V16.468c0-0.276,0.224-0.5,0.5-0.5s0.5,0.224,0.5,0.5V32.5
		C21.001,32.776,20.777,33,20.501,33z"/>
	<path d="M28.502,33c-0.276,0-0.5-0.224-0.5-0.5V11.337c0-0.276,0.224-0.5,0.5-0.5s0.5,0.224,0.5,0.5V32.5
		C29.002,32.776,28.778,33,28.502,33z"/>
</g>
<g>
</g>
<g>
</g>
<g>
</g>
<g>
</g>
<g>
</g>
<g>
</g>
<g>
</g>
<g>
</g>
<g>
</g>
<g>
</g>
<g>
</g>
<g>
</g>
<g>
</g>
<g>
</g>
<g>
</g>
</svg>
