<?xml version="1.0" encoding="iso-8859-1"?>
<!-- Generator: Adobe Illustrator 19.0.0, SVG Export Plug-In . SVG Version: 6.00 Build 0)  -->
<svg version="1.1" id="Capa_1" xmlns="http://www.w3.org/2000/svg" xmlns:xlink="http://www.w3.org/1999/xlink" x="0px" y="0px"
	 viewBox="0 0 33 33" style="enable-background:new 0 0 33 33;" xml:space="preserve">
<g>
	<path d="M28.194,22.282H4.806c-0.276,0-0.5-0.224-0.5-0.5V15.03c0-1.139,0.926-2.064,2.063-2.064h20.26
		c1.139,0,2.064,0.926,2.064,2.064v6.752C28.694,22.059,28.47,22.282,28.194,22.282z M5.306,21.282h22.388V15.03
		c0-0.587-0.478-1.064-1.064-1.064H6.37c-0.586,0-1.063,0.478-1.063,1.064V21.282z"/>
	<path d="M26.629,30.488H6.37c-1.138,0-2.063-0.926-2.063-2.064v-6.752c0-0.276,0.224-0.5,0.5-0.5h23.388c0.276,0,0.5,0.224,0.5,0.5
		v6.752C28.694,29.563,27.768,30.488,26.629,30.488z M5.306,22.172v6.252c0,0.587,0.478,1.064,1.063,1.064h20.26
		c0.587,0,1.064-0.478,1.064-1.064v-6.252H5.306z"/>
	<g>
		<path d="M8.03,33c-0.063,0-0.129-0.012-0.191-0.038c-0.255-0.105-0.376-0.398-0.271-0.653l1.04-2.512
			c0.106-0.255,0.398-0.379,0.653-0.271c0.255,0.105,0.376,0.398,0.271,0.653l-1.04,2.512C8.412,32.884,8.226,33,8.03,33z"/>
		<path d="M24.969,33c-0.196,0-0.382-0.116-0.462-0.309l-1.039-2.512c-0.105-0.256,0.016-0.548,0.271-0.653
			c0.256-0.107,0.548,0.017,0.653,0.271l1.039,2.512c0.105,0.256-0.016,0.548-0.271,0.653C25.098,32.988,25.033,33,24.969,33z"/>
	</g>
	<path d="M17.669,17.085h-2.339c-0.276,0-0.5-0.224-0.5-0.5s0.224-0.5,0.5-0.5h2.339c0.276,0,0.5,0.224,0.5,0.5
		S17.946,17.085,17.669,17.085z"/>
	<path d="M17.669,25.291h-2.339c-0.276,0-0.5-0.224-0.5-0.5s0.224-0.5,0.5-0.5h2.339c0.276,0,0.5,0.224,0.5,0.5
		S17.946,25.291,17.669,25.291z"/>
	<path d="M17.25,13.966h-6.65c-0.276,0-0.5-0.224-0.5-0.5V11.44c0-0.276,0.224-0.5,0.5-0.5h6.65c0.276,0,0.5,0.224,0.5,0.5v2.025
		C17.75,13.742,17.526,13.966,17.25,13.966z M11.099,12.966h5.65V11.94h-5.65V12.966z"/>
	<path d="M18.317,6.363H9.531c-0.159,0-0.31-0.076-0.404-0.205c-0.094-0.129-0.12-0.295-0.072-0.447l1.716-5.363
		C10.836,0.141,11.029,0,11.247,0h5.354c0.218,0,0.41,0.141,0.477,0.348l1.716,5.363c0.048,0.152,0.021,0.318-0.072,0.447
		C18.626,6.287,18.476,6.363,18.317,6.363z M10.215,5.363h7.417L16.236,1h-4.624L10.215,5.363z"/>
	<path d="M13.924,11.94c-0.276,0-0.5-0.224-0.5-0.5V5.863c0-0.276,0.224-0.5,0.5-0.5s0.5,0.224,0.5,0.5v5.577
		C14.424,11.717,14.201,11.94,13.924,11.94z"/>
	<path d="M16.5,8.079c-0.276,0-0.5-0.224-0.5-0.5V5.863c0-0.276,0.224-0.5,0.5-0.5s0.5,0.224,0.5,0.5v1.716
		C17,7.855,16.776,8.079,16.5,8.079z"/>
</g>
<g>
</g>
<g>
</g>
<g>
</g>
<g>
</g>
<g>
</g>
<g>
</g>
<g>
</g>
<g>
</g>
<g>
</g>
<g>
</g>
<g>
</g>
<g>
</g>
<g>
</g>
<g>
</g>
<g>
</g>
</svg>
