<?xml version="1.0" encoding="iso-8859-1"?>
<!-- Generator: Adobe Illustrator 19.0.0, SVG Export Plug-In . SVG Version: 6.00 Build 0)  -->
<svg version="1.1" id="Capa_1" xmlns="http://www.w3.org/2000/svg" xmlns:xlink="http://www.w3.org/1999/xlink" x="0px" y="0px"
	 viewBox="0 0 30.982 30.982" style="enable-background:new 0 0 30.982 30.982;" xml:space="preserve">
<g>
	<g>
		<g>
			<path d="M14.458,30.982c-4.853,0-9.706-1.847-13.4-5.541c-0.195-0.195-0.195-0.512,0-0.707s0.512-0.195,0.707,0
				c6.999,6.998,18.388,6.998,25.387,0c0.195-0.195,0.512-0.195,0.707,0s0.195,0.512,0,0.707
				C24.164,29.135,19.311,30.982,14.458,30.982z"/>
		</g>
		<path d="M23.048,27.361c-1.798,0-3.597-0.685-4.966-2.054c-2.738-2.738-2.738-7.194,0-9.933c1.327-1.327,3.09-2.058,4.966-2.058
			s3.64,0.73,4.966,2.058c2.738,2.738,2.738,7.194,0,9.933C26.645,26.676,24.846,27.361,23.048,27.361z M23.048,14.317
			c-1.609,0-3.122,0.627-4.259,1.765c-2.348,2.349-2.348,6.17,0,8.519c2.35,2.349,6.171,2.348,8.519,0
			c2.348-2.349,2.348-6.17,0-8.519C26.169,14.944,24.656,14.317,23.048,14.317z"/>
	</g>
	<g>
		<g>
			<path d="M29.571,6.395c-0.128,0-0.256-0.049-0.354-0.146c-6.998-6.997-18.386-6.998-25.386,0c-0.195,0.195-0.512,0.195-0.707,0
				s-0.195-0.512,0-0.707c7.388-7.388,19.411-7.39,26.8,0c0.195,0.195,0.195,0.512,0,0.707C29.827,6.346,29.699,6.395,29.571,6.395z
				"/>
		</g>
		<path d="M7.934,17.662c-1.798,0-3.597-0.685-4.966-2.054l0,0c-2.738-2.738-2.738-7.194,0-9.933
			c1.327-1.327,3.09-2.058,4.966-2.058s3.64,0.73,4.966,2.058c2.738,2.738,2.738,7.194,0,9.933
			C11.531,16.977,9.733,17.662,7.934,17.662z M3.675,14.901c2.349,2.348,6.17,2.348,8.519,0c2.348-2.349,2.348-6.17,0-8.519
			c-1.138-1.138-2.65-1.765-4.259-1.765S4.813,5.245,3.675,6.382C1.327,8.731,1.327,12.552,3.675,14.901L3.675,14.901z"/>
	</g>
</g>
<g>
</g>
<g>
</g>
<g>
</g>
<g>
</g>
<g>
</g>
<g>
</g>
<g>
</g>
<g>
</g>
<g>
</g>
<g>
</g>
<g>
</g>
<g>
</g>
<g>
</g>
<g>
</g>
<g>
</g>
</svg>
