<?xml version="1.0" encoding="iso-8859-1"?>
<!-- Generator: Adobe Illustrator 19.0.0, SVG Export Plug-In . SVG Version: 6.00 Build 0)  -->
<svg version="1.1" id="Capa_1" xmlns="http://www.w3.org/2000/svg" xmlns:xlink="http://www.w3.org/1999/xlink" x="0px" y="0px"
	 viewBox="0 0 33 33" style="enable-background:new 0 0 33 33;" xml:space="preserve">
<g>
	<g>
		<path d="M8.822,29.588C3.958,29.588,0,25.631,0,20.766s3.958-8.821,8.822-8.821c4.86,0,14.571,3.813,14.571,8.821
			S13.682,29.588,8.822,29.588z M8.822,12.945C4.509,12.945,1,16.454,1,20.766s3.509,7.821,7.822,7.821
			c4.469,0,13.571-3.62,13.571-7.821S13.291,12.945,8.822,12.945z"/>
		<path d="M29.701,26.297c-1.778,0-3.232-1.414-3.297-3.177h-4.003c-0.276,0-0.5-0.224-0.5-0.5s0.224-0.5,0.5-0.5h4.539
			c0.145,0,0.282,0.063,0.377,0.171c0.095,0.109,0.138,0.254,0.119,0.396c-0.021,0.145-0.034,0.226-0.034,0.311
			c0,1.268,1.031,2.299,2.299,2.299c1.268,0,2.299-1.031,2.299-2.299c0-0.723-0.337-1.39-0.925-1.832
			c-0.126-0.094-0.2-0.242-0.2-0.399s0.074-0.306,0.2-0.399C31.663,19.924,32,19.257,32,18.536c0-1.269-1.031-2.3-2.299-2.3
			c-1.268,0-2.299,1.031-2.299,2.3c0,0.085,0.013,0.168,0.025,0.25c0.021,0.143-0.018,0.316-0.113,0.426
			c-0.095,0.11-0.229,0.201-0.374,0.201h-4.539c-0.276,0-0.5-0.224-0.5-0.5s0.224-0.5,0.5-0.5h4.003
			c0.065-1.763,1.519-3.177,3.297-3.177c1.819,0,3.299,1.48,3.299,3.3c0,0.839-0.315,1.626-0.879,2.23
			C32.685,21.371,33,22.158,33,22.998C33,24.817,31.52,26.297,29.701,26.297z"/>
		<path d="M3.526,19.4c-0.046,0-0.092-0.006-0.139-0.02c-0.266-0.077-0.418-0.354-0.342-0.619c0.724-2.505,2.629-3.091,2.71-3.114
			c0.27-0.075,0.543,0.074,0.621,0.339c0.078,0.264-0.072,0.54-0.335,0.619c-0.067,0.021-1.471,0.483-2.034,2.434
			C3.943,19.257,3.743,19.4,3.526,19.4z"/>
	</g>
	<g>
		<path d="M14.589,9.915c-0.139,0-0.278-0.058-0.377-0.172c-0.846-0.971-0.846-2.436,0-3.407c0.52-0.597,0.52-1.497,0-2.094
			c-0.182-0.208-0.16-0.523,0.048-0.705c0.207-0.183,0.524-0.162,0.706,0.049c0.846,0.971,0.846,2.436,0,3.406
			c-0.52,0.598-0.52,1.498,0,2.095c0.182,0.208,0.16,0.523-0.048,0.705C14.823,9.875,14.706,9.915,14.589,9.915z"/>
		<path d="M10.069,9.915c-0.139,0-0.278-0.058-0.377-0.172c-0.846-0.971-0.846-2.436,0-3.407c0.52-0.597,0.52-1.497,0-2.094
			c-0.182-0.208-0.16-0.523,0.048-0.705c0.207-0.183,0.524-0.162,0.706,0.049c0.846,0.971,0.846,2.436,0,3.406
			c-0.52,0.598-0.52,1.498,0,2.095c0.182,0.208,0.16,0.523-0.048,0.705C10.303,9.875,10.186,9.915,10.069,9.915z"/>
		<path d="M5.549,9.915c-0.139,0-0.278-0.058-0.377-0.172c-0.846-0.971-0.846-2.436,0-3.407c0.52-0.597,0.52-1.497,0-2.094
			c-0.182-0.208-0.16-0.523,0.048-0.705c0.207-0.183,0.523-0.162,0.706,0.049c0.846,0.971,0.846,2.436,0,3.406
			c-0.52,0.598-0.52,1.498,0,2.095c0.182,0.208,0.16,0.523-0.048,0.705C5.783,9.875,5.666,9.915,5.549,9.915z"/>
	</g>
</g>
<g>
</g>
<g>
</g>
<g>
</g>
<g>
</g>
<g>
</g>
<g>
</g>
<g>
</g>
<g>
</g>
<g>
</g>
<g>
</g>
<g>
</g>
<g>
</g>
<g>
</g>
<g>
</g>
<g>
</g>
</svg>
