<?xml version="1.0" encoding="iso-8859-1"?>
<!-- Generator: Adobe Illustrator 19.0.0, SVG Export Plug-In . SVG Version: 6.00 Build 0)  -->
<svg version="1.1" id="Capa_1" xmlns="http://www.w3.org/2000/svg" xmlns:xlink="http://www.w3.org/1999/xlink" x="0px" y="0px"
	 viewBox="0 0 37 37" style="enable-background:new 0 0 37 37;" xml:space="preserve">
<g>
	<path d="M20.348,26.209c-0.215,0-0.413-0.14-0.479-0.355c-0.08-0.265,0.07-0.544,0.334-0.623c4.638-1.397,7.833-5.479,9.743-7.917
		c0.728-0.93,1.209-1.544,1.595-1.775c0.774-0.465,1.577-0.771,2.426-1.094c0.481-0.184,0.979-0.372,1.492-0.601
		c0.516-0.229,0.558-0.665,0.537-0.905c-0.04-0.458-0.395-1.029-1.08-1.2c-0.516-0.128-0.789,0.149-1.446,0.983
		c-0.484,0.616-1.088,1.382-2.055,1.891c-0.875,0.461-2.497,0.389-4.548,0.295c-3.126-0.14-7.012-0.315-9.585,1.323
		c-0.23,0.147-0.54,0.081-0.69-0.153c-0.148-0.233-0.079-0.542,0.153-0.69c2.841-1.809,6.903-1.625,10.167-1.479
		c1.747,0.078,3.403,0.153,4.038-0.181c0.777-0.409,1.286-1.055,1.734-1.624c0.632-0.803,1.283-1.633,2.474-1.336
		c1.011,0.253,1.748,1.091,1.834,2.085c0.072,0.834-0.359,1.564-1.127,1.905c-0.531,0.235-1.045,0.432-1.542,0.621
		c-0.808,0.308-1.569,0.598-2.269,1.017c-0.227,0.137-0.759,0.815-1.321,1.534c-1.853,2.366-5.301,6.77-10.241,8.258
		C20.443,26.202,20.396,26.209,20.348,26.209z"/>
	<path d="M24.956,14.766c-0.099,0-0.198-0.029-0.286-0.09c-0.227-0.157-0.282-0.47-0.124-0.696c0.567-0.814,1.312-1.331,1.704-1.566
		c0.705-0.424,1.453-0.572,2.177-0.717c0.583-0.117,1.186-0.237,1.784-0.503c0.516-0.229,0.558-0.665,0.537-0.904
		c-0.04-0.458-0.395-1.029-1.08-1.2c-0.516-0.129-0.791,0.149-1.447,0.984c-0.484,0.615-1.089,1.381-2.055,1.89
		c-0.875,0.459-2.497,0.388-4.548,0.295c-1.067-0.049-2.275-0.104-3.476-0.08c-0.004,0-0.007,0-0.01,0
		c-0.271,0-0.495-0.218-0.5-0.49c-0.005-0.276,0.215-0.505,0.49-0.51c1.237-0.024,2.458,0.032,3.54,0.081
		c1.75,0.079,3.403,0.151,4.038-0.181c0.777-0.409,1.285-1.055,1.734-1.624c0.631-0.803,1.283-1.632,2.475-1.336
		c1.011,0.253,1.748,1.091,1.834,2.084c0.072,0.834-0.359,1.564-1.127,1.905c-0.7,0.311-1.358,0.442-1.995,0.569
		c-0.698,0.14-1.301,0.26-1.858,0.594c-0.324,0.194-0.937,0.619-1.397,1.281C25.27,14.69,25.113,14.766,24.956,14.766z"/>
	<path d="M24.793,28.943H7.283C3.268,28.943,0,25.676,0,21.66v-0.784c0-5.777,4.7-10.478,10.478-10.478h2.725
		c3.498,0,6.907,1.226,9.598,3.451c0.213,0.177,0.243,0.491,0.067,0.704c-0.178,0.214-0.492,0.243-0.704,0.067
		c-2.513-2.078-5.694-3.223-8.961-3.223h-2.725C5.252,11.398,1,15.65,1,20.876v0.784c0,3.465,2.818,6.283,6.283,6.283h17.51
		c1.366,0,2.478-1.111,2.478-2.477c0-1.344-0.189-2.673-0.562-3.95c-0.078-0.265,0.074-0.542,0.34-0.619
		c0.262-0.078,0.542,0.075,0.619,0.34c0.4,1.368,0.603,2.791,0.603,4.229C28.271,27.384,26.711,28.943,24.793,28.943z"/>
</g>
<g>
</g>
<g>
</g>
<g>
</g>
<g>
</g>
<g>
</g>
<g>
</g>
<g>
</g>
<g>
</g>
<g>
</g>
<g>
</g>
<g>
</g>
<g>
</g>
<g>
</g>
<g>
</g>
<g>
</g>
</svg>
