<?xml version="1.0" encoding="iso-8859-1"?>
<!-- Generator: Adobe Illustrator 19.0.0, SVG Export Plug-In . SVG Version: 6.00 Build 0)  -->
<svg version="1.1" id="Capa_1" xmlns="http://www.w3.org/2000/svg" xmlns:xlink="http://www.w3.org/1999/xlink" x="0px" y="0px"
	 viewBox="0 0 35.261 35.261" style="enable-background:new 0 0 35.261 35.261;" xml:space="preserve">
<g>
	<g>
		<g>
			<path d="M4.099,18.131c-0.031,0-0.063-0.003-0.094-0.009c-0.13-0.025-0.245-0.101-0.32-0.21l-3.599-5.3
				c-0.154-0.229-0.096-0.54,0.133-0.695c0.228-0.153,0.54-0.095,0.695,0.133l3.317,4.887l4.886-3.319
				c0.228-0.153,0.538-0.095,0.695,0.133c0.154,0.229,0.096,0.54-0.133,0.695l-5.3,3.6C4.296,18.102,4.198,18.131,4.099,18.131z"/>
			<path d="M19.43,33.461c-5.268,0-10.175-2.609-13.127-6.979c-0.155-0.229-0.095-0.54,0.134-0.694
				c0.228-0.155,0.539-0.095,0.694,0.134c2.766,4.095,7.363,6.539,12.299,6.539c8.178,0,14.831-6.653,14.831-14.831
				S27.608,2.799,19.43,2.799S4.599,9.453,4.599,17.63c0,0.276-0.224,0.5-0.5,0.5s-0.5-0.224-0.5-0.5
				c0-8.729,7.102-15.831,15.831-15.831S35.261,8.901,35.261,17.63S28.159,33.461,19.43,33.461z"/>
		</g>
	</g>
	<path d="M24.207,23.9c-0.144,0-0.286-0.062-0.385-0.181l-4.777-5.77c-0.074-0.09-0.115-0.203-0.115-0.319V8.043
		c0-0.276,0.224-0.5,0.5-0.5s0.5,0.224,0.5,0.5v9.408l4.662,5.63c0.177,0.213,0.146,0.528-0.065,0.704
		C24.433,23.862,24.319,23.9,24.207,23.9z"/>
</g>
<g>
</g>
<g>
</g>
<g>
</g>
<g>
</g>
<g>
</g>
<g>
</g>
<g>
</g>
<g>
</g>
<g>
</g>
<g>
</g>
<g>
</g>
<g>
</g>
<g>
</g>
<g>
</g>
<g>
</g>
</svg>
