<?xml version="1.0" encoding="iso-8859-1"?>
<!-- Generator: Adobe Illustrator 19.0.0, SVG Export Plug-In . SVG Version: 6.00 Build 0)  -->
<svg version="1.1" id="Capa_1" xmlns="http://www.w3.org/2000/svg" xmlns:xlink="http://www.w3.org/1999/xlink" x="0px" y="0px"
	 viewBox="0 0 32.857 32.857" style="enable-background:new 0 0 32.857 32.857;" xml:space="preserve">
<g>
	<g>
		<path d="M16.43,32.857C7.37,32.857,0,25.489,0,16.432C0,7.371,7.37,0,16.43,0c9.059,0,16.428,7.371,16.428,16.432
			C32.857,25.489,25.488,32.857,16.43,32.857z M16.43,1C7.922,1,1,7.923,1,16.432c0,8.506,6.922,15.426,15.43,15.426
			c8.507,0,15.428-6.92,15.428-15.426C31.857,7.923,24.937,1,16.43,1z"/>
	</g>
	<path d="M21.205,22.701c-0.144,0-0.286-0.062-0.385-0.182l-4.775-5.77c-0.074-0.089-0.115-0.202-0.115-0.318V6.844
		c0-0.276,0.224-0.5,0.5-0.5s0.5,0.224,0.5,0.5v9.408l4.66,5.631c0.177,0.212,0.146,0.527-0.066,0.703
		C21.431,22.663,21.317,22.701,21.205,22.701z"/>
</g>
<g>
</g>
<g>
</g>
<g>
</g>
<g>
</g>
<g>
</g>
<g>
</g>
<g>
</g>
<g>
</g>
<g>
</g>
<g>
</g>
<g>
</g>
<g>
</g>
<g>
</g>
<g>
</g>
<g>
</g>
</svg>
