<?xml version="1.0" encoding="iso-8859-1"?>
<!-- Generator: Adobe Illustrator 19.0.0, SVG Export Plug-In . SVG Version: 6.00 Build 0)  -->
<svg version="1.1" id="Capa_1" xmlns="http://www.w3.org/2000/svg" xmlns:xlink="http://www.w3.org/1999/xlink" x="0px" y="0px"
	 viewBox="0 0 33.062 33.062" style="enable-background:new 0 0 33.062 33.062;" xml:space="preserve">
<g>
	<path d="M25.615,26.608H6.442C2.89,26.608,0,23.719,0,20.168c0-3.502,2.811-6.361,6.295-6.439c1.24-4.304,5.16-7.275,9.67-7.275
		c3.735,0,7.1,2.023,8.866,5.306c0.26-0.026,0.522-0.04,0.784-0.04c4.105,0,7.446,3.339,7.446,7.443
		C33.062,23.268,29.721,26.608,25.615,26.608z M6.527,14.732C3.437,14.732,1,17.17,1,20.168c0,2.999,2.441,5.439,5.442,5.439h19.173
		c3.555,0,6.446-2.892,6.446-6.445c0-3.553-2.892-6.443-6.446-6.443c-0.314,0-0.63,0.022-0.939,0.066
		c-0.226,0.063-0.468-0.044-0.574-0.259c-1.545-3.13-4.663-5.073-8.137-5.073c-4.184,0-7.804,2.839-8.804,6.904
		c-0.055,0.225-0.256,0.381-0.485,0.381c-0.004,0-0.008,0-0.013,0l-0.127-0.007C6.533,14.732,6.53,14.732,6.527,14.732z"/>
	<g>
		<g>
			<path d="M19.014,21.636h-5.077c-0.507,0-0.92-0.412-0.92-0.919v-4.238c0-0.507,0.413-0.92,0.92-0.92h5.077
				c0.508,0,0.921,0.413,0.921,0.92v4.238C19.935,21.224,19.521,21.636,19.014,21.636z M14.017,20.636h4.918v-4.077h-4.918V20.636z"
				/>
		</g>
		<path d="M18.441,16.559c-0.276,0-0.5-0.224-0.5-0.5v-0.957c0-0.809-0.657-1.466-1.466-1.466s-1.466,0.657-1.466,1.466v0.957
			c0,0.276-0.224,0.5-0.5,0.5s-0.5-0.224-0.5-0.5v-0.957c0-1.359,1.106-2.466,2.466-2.466s2.466,1.106,2.466,2.466v0.957
			C18.941,16.335,18.718,16.559,18.441,16.559z"/>
	</g>
</g>
<g>
</g>
<g>
</g>
<g>
</g>
<g>
</g>
<g>
</g>
<g>
</g>
<g>
</g>
<g>
</g>
<g>
</g>
<g>
</g>
<g>
</g>
<g>
</g>
<g>
</g>
<g>
</g>
<g>
</g>
</svg>
