<?xml version="1.0" encoding="iso-8859-1"?>
<!-- Generator: Adobe Illustrator 19.0.0, SVG Export Plug-In . SVG Version: 6.00 Build 0)  -->
<svg version="1.1" id="Capa_1" xmlns="http://www.w3.org/2000/svg" xmlns:xlink="http://www.w3.org/1999/xlink" x="0px" y="0px"
	 viewBox="0 0 31.225 31.225" style="enable-background:new 0 0 31.225 31.225;" xml:space="preserve">
<g>
	<path d="M15.5,29.175h-15c-0.276,0-0.5-0.224-0.5-0.5v-6.532c0-0.276,0.224-0.5,0.5-0.5h15c0.276,0,0.5,0.224,0.5,0.5v6.532
		C16,28.951,15.776,29.175,15.5,29.175z M1,28.175h14v-5.532H1V28.175z"/>
	<path d="M26.106,29.175c-0.133,0-0.26-0.053-0.354-0.146L15.146,18.421C15.053,18.328,15,18.201,15,18.068s0.053-0.26,0.146-0.354
		l4.618-4.618c0.195-0.195,0.512-0.195,0.707,0l10.606,10.606c0.195,0.195,0.195,0.512,0,0.707l-4.618,4.619
		C26.366,29.122,26.239,29.175,26.106,29.175z M16.207,18.068l9.899,9.9l3.911-3.912l-9.899-9.899L16.207,18.068z"/>
	<path d="M15.5,22.643h-15c-0.276,0-0.5-0.224-0.5-0.5v-6.531c0-0.276,0.224-0.5,0.5-0.5h15c0.276,0,0.5,0.224,0.5,0.5v6.531
		C16,22.419,15.776,22.643,15.5,22.643z M1,21.643h14v-5.531H1V21.643z"/>
	<path d="M15.5,16.112h-15c-0.276,0-0.5-0.224-0.5-0.5V9.081c0-0.276,0.224-0.5,0.5-0.5h15c0.276,0,0.5,0.224,0.5,0.5v6.532
		C16,15.889,15.776,16.112,15.5,16.112z M1,15.112h14V9.581H1V15.112z"/>
	<path d="M15.5,9.581h-15c-0.276,0-0.5-0.224-0.5-0.5V2.55c0-0.276,0.224-0.5,0.5-0.5h15c0.276,0,0.5,0.224,0.5,0.5v6.531
		C16,9.357,15.776,9.581,15.5,9.581z M1,8.581h14V3.05H1V8.581z"/>
</g>
<g>
</g>
<g>
</g>
<g>
</g>
<g>
</g>
<g>
</g>
<g>
</g>
<g>
</g>
<g>
</g>
<g>
</g>
<g>
</g>
<g>
</g>
<g>
</g>
<g>
</g>
<g>
</g>
<g>
</g>
</svg>
