<?xml version="1.0" encoding="iso-8859-1"?>
<!-- Generator: Adobe Illustrator 19.0.0, SVG Export Plug-In . SVG Version: 6.00 Build 0)  -->
<svg version="1.1" id="Capa_1" xmlns="http://www.w3.org/2000/svg" xmlns:xlink="http://www.w3.org/1999/xlink" x="0px" y="0px"
	 viewBox="0 0 33.293 33.293" style="enable-background:new 0 0 33.293 33.293;" xml:space="preserve">
<g>
	<path d="M16.578,33.293c-0.187,0-0.362-0.104-0.448-0.277L0.052,0.722C-0.043,0.53-0.005,0.298,0.147,0.146
		s0.386-0.188,0.576-0.094l32.293,16.076c0.207,0.103,0.316,0.335,0.265,0.56c-0.052,0.225-0.252,0.386-0.483,0.388l-15.585,0.136
		l-0.134,15.585c-0.002,0.231-0.162,0.431-0.388,0.483C16.653,33.289,16.615,33.293,16.578,33.293z M1.612,1.612l14.484,29.091
		l0.121-13.991c0.002-0.272,0.223-0.493,0.496-0.496l13.991-0.123L1.612,1.612z"/>
</g>
<g>
</g>
<g>
</g>
<g>
</g>
<g>
</g>
<g>
</g>
<g>
</g>
<g>
</g>
<g>
</g>
<g>
</g>
<g>
</g>
<g>
</g>
<g>
</g>
<g>
</g>
<g>
</g>
<g>
</g>
</svg>
