<?xml version="1.0" encoding="utf-8"?>
<!-- Generator: Adobe Illustrator 19.0.0, SVG Export Plug-In . SVG Version: 6.00 Build 0)  -->
<svg version="1.1" id="Capa_1" xmlns="http://www.w3.org/2000/svg" xmlns:xlink="http://www.w3.org/1999/xlink" x="0px" y="0px"
	 viewBox="-289 380 33 33" style="enable-background:new -289 380 33 33;" xml:space="preserve">
<path d="M-262.1,386.7L-262.1,386.7c0.1-0.2,0.1-0.5,0.1-0.7c0-0.2,0-0.5-0.1-0.7l-0.5,0.2l0.5-0.2l-0.7-1.7l0,0
	c-0.9-2-4.8-3.5-9.7-3.5c-4.8,0-8.8,1.5-9.7,3.5l0,0l-0.7,1.7l0.5,0.2l-0.5-0.2c-0.1,0.2-0.1,0.5-0.1,0.7c0,0.3,0.1,0.5,0.2,0.7l0,0
	c0,0.1-0.8,5.4-0.2,11.4c0.4,4.1,2,8.8,4.5,13.1l0.1,0.2c0.6,1,4.5,1.7,6.1,1.7s5.5-0.6,6.1-1.7l0.1-0.2c2.5-4.3,4.1-8.9,4.5-13.1
	C-261.3,392.1-262.1,386.8-262.1,386.7z M-266.7,395.4c0,0.2-0.1,0.3-0.3,0.3c-0.2,0-0.3-0.1-0.3-0.3c0-0.2,0.1-0.3,0.3-0.3
	C-266.8,395-266.7,395.2-266.7,395.4z M-272.5,389.3c-5.6,0-9.5-1.8-9.5-3.4c0-0.1,0-0.2,0.1-0.3l0,0c1.2,1.8,4.9,3.2,9.5,3.2
	c4.6,0,8.3-1.3,9.5-3.2l0,0c0,0.1,0.1,0.2,0.1,0.3C-263,387.6-266.9,389.3-272.5,389.3z M-277.7,395.4c0,0.2-0.1,0.3-0.3,0.3
	c-0.2,0-0.3-0.1-0.3-0.3c0-0.2,0.1-0.3,0.3-0.3C-277.8,395-277.7,395.2-277.7,395.4z M-272.5,381c5.2,0,8.8,1.8,8.8,3.4
	c0,1.6-3.6,3.4-8.8,3.4s-8.8-1.8-8.8-3.4C-281.3,382.8-277.7,381-272.5,381z M-262.9,398c-0.4,4-1.9,8.5-4.3,12.7l-0.1,0.2
	c-0.3,0.4-3.3,1.2-5.2,1.2s-4.9-0.7-5.2-1.2l-0.1-0.2c-2.4-4.2-3.9-8.7-4.3-12.7c-0.4-4.4-0.1-8.4,0.1-10.1c0.8,0.7,2,1.3,3.5,1.7
	v4.5c-0.5,0.2-0.8,0.7-0.8,1.2c0,0.7,0.6,1.3,1.3,1.3c0.7,0,1.3-0.6,1.3-1.3c0-0.6-0.3-1-0.8-1.2v-4.3c1.5,0.3,3.2,0.5,5,0.5
	c1.8,0,3.5-0.2,5-0.5v4.3c-0.5,0.2-0.8,0.7-0.8,1.2c0,0.7,0.6,1.3,1.3,1.3c0.7,0,1.3-0.6,1.3-1.3c0-0.6-0.3-1-0.8-1.2v-4.5
	c1.5-0.4,2.7-1,3.5-1.7C-262.8,389.7-262.4,393.6-262.9,398z"/>
</svg>
