<?xml version="1.0" encoding="iso-8859-1"?>
<!-- Generator: Adobe Illustrator 19.0.0, SVG Export Plug-In . SVG Version: 6.00 Build 0)  -->
<svg version="1.1" id="Capa_1" xmlns="http://www.w3.org/2000/svg" xmlns:xlink="http://www.w3.org/1999/xlink" x="0px" y="0px"
	 viewBox="0 0 23.369 23.369" style="enable-background:new 0 0 23.369 23.369;" xml:space="preserve">
<g>
	<path d="M22.869,23.369c-0.128,0-0.256-0.049-0.354-0.146L0.146,0.854c-0.195-0.195-0.195-0.512,0-0.707s0.512-0.195,0.707,0
		l22.369,22.368c0.195,0.195,0.195,0.512,0,0.707C23.125,23.32,22.997,23.369,22.869,23.369z"/>
	<path d="M0.502,18.729c-0.276,0-0.5-0.224-0.5-0.5V0.5c0-0.133,0.053-0.26,0.146-0.354S0.369,0,0.502,0l0,0l17.727,0.002
		c0.276,0,0.5,0.224,0.5,0.5s-0.224,0.5-0.5,0.5l0,0L1.002,1v17.229C1.002,18.505,0.778,18.729,0.502,18.729z"/>
</g>
<g>
</g>
<g>
</g>
<g>
</g>
<g>
</g>
<g>
</g>
<g>
</g>
<g>
</g>
<g>
</g>
<g>
</g>
<g>
</g>
<g>
</g>
<g>
</g>
<g>
</g>
<g>
</g>
<g>
</g>
</svg>
