<?xml version="1.0" encoding="iso-8859-1"?>
<!-- Generator: Adobe Illustrator 19.0.0, SVG Export Plug-In . SVG Version: 6.00 Build 0)  -->
<svg version="1.1" id="Capa_1" xmlns="http://www.w3.org/2000/svg" xmlns:xlink="http://www.w3.org/1999/xlink" x="0px" y="0px"
	 viewBox="0 0 33 33" style="enable-background:new 0 0 33 33;" xml:space="preserve">
<g>
	<path d="M18.093,29.981h-3.185c-7.291,0-13.471-5.209-14.695-12.385c-0.046-0.272,0.137-0.53,0.409-0.577
		c0.269-0.045,0.53,0.136,0.577,0.409c1.142,6.694,6.907,11.553,13.709,11.553h3.185c6.836,0,12.75-5.09,13.756-11.84
		c0.04-0.273,0.301-0.463,0.567-0.421c0.273,0.04,0.462,0.295,0.421,0.567C31.759,24.524,25.421,29.981,18.093,29.981z"/>
	<path d="M20.563,29.98c-0.276,0-0.5-0.224-0.5-0.5c0-8.221,5.047-14.908,11.25-14.908H32V4.019H1v10.553h0.688
		c6.203,0,11.249,6.688,11.249,14.908c0,0.276-0.224,0.5-0.5,0.5s-0.5-0.224-0.5-0.5c0-7.669-4.598-13.908-10.249-13.908H0.5
		c-0.276,0-0.5-0.224-0.5-0.5V3.519c0-0.276,0.224-0.5,0.5-0.5h32c0.276,0,0.5,0.224,0.5,0.5v11.553c0,0.276-0.224,0.5-0.5,0.5
		h-1.188c-5.652,0-10.25,6.239-10.25,13.908C21.063,29.756,20.839,29.98,20.563,29.98z"/>
	<path d="M6.469,12.33H0.5c-0.276,0-0.5-0.224-0.5-0.5V6.762c0-0.276,0.224-0.5,0.5-0.5h5.969c0.276,0,0.5,0.224,0.5,0.5v5.067
		C6.969,12.106,6.745,12.33,6.469,12.33z M1,11.33h4.969V7.262H1V11.33z"/>
	<path d="M32.5,12.33h-5.969c-0.276,0-0.5-0.224-0.5-0.5V6.762c0-0.276,0.224-0.5,0.5-0.5H32.5c0.276,0,0.5,0.224,0.5,0.5v5.067
		C33,12.106,32.776,12.33,32.5,12.33z M27.031,11.33H32V7.262h-4.969V11.33z"/>
</g>
<g>
</g>
<g>
</g>
<g>
</g>
<g>
</g>
<g>
</g>
<g>
</g>
<g>
</g>
<g>
</g>
<g>
</g>
<g>
</g>
<g>
</g>
<g>
</g>
<g>
</g>
<g>
</g>
<g>
</g>
</svg>
