<?xml version="1.0" encoding="iso-8859-1"?>
<!-- Generator: Adobe Illustrator 19.0.0, SVG Export Plug-In . SVG Version: 6.00 Build 0)  -->
<svg version="1.1" id="Capa_1" xmlns="http://www.w3.org/2000/svg" xmlns:xlink="http://www.w3.org/1999/xlink" x="0px" y="0px"
	 viewBox="0 0 32.998 32.998" style="enable-background:new 0 0 32.998 32.998;" xml:space="preserve">
<g>
	<path d="M12.165,26.384c-0.132,0-0.263-0.052-0.36-0.153l-7.298-7.565c-0.09-0.093-0.14-0.218-0.14-0.347V15.76
		c0-0.6,0.36-1.127,0.918-1.343c6.138-2.375,20.57-7.9,22.009-7.9c1.712,0,3.328,0.782,4.433,2.146
		c1.085,1.338,1.503,3.073,1.146,4.757c-0.473,2.236-2.294,4.011-4.531,4.415c-1.284,0.233-2.589,0.028-3.721-0.574l-6.427,8.317
		c-0.399,0.516-1.104,0.692-1.712,0.428c-0.842-0.367-2.483-0.818-4.027,0.285C12.368,26.354,12.266,26.384,12.165,26.384z
		 M5.367,18.118l6.871,7.123c1.832-1.085,3.674-0.574,4.645-0.15c0.189,0.081,0.402,0.032,0.521-0.123l6.696-8.665
		c0.157-0.205,0.446-0.256,0.665-0.115c1.02,0.652,2.193,0.883,3.401,0.664c1.841-0.333,3.341-1.794,3.73-3.638
		c0.298-1.409-0.038-2.801-0.945-3.92c-0.901-1.112-2.268-1.775-3.656-1.775c-0.861,0.007-9.561,3.155-21.648,7.833
		c-0.17,0.065-0.279,0.227-0.279,0.41V18.118z"/>
	<g>
		<path d="M7.034,12.183c-0.261,0-0.521-0.057-0.766-0.169c-0.445-0.205-0.784-0.57-0.954-1.03C4.963,10.035,5.45,8.978,6.398,8.626
			L7.2,8.33c0.947-0.354,2.006,0.135,2.357,1.083c0.351,0.949-0.135,2.006-1.083,2.358h0l-0.801,0.296
			C7.464,12.145,7.249,12.183,7.034,12.183z M7.835,9.215c-0.096,0-0.194,0.017-0.289,0.052L6.745,9.564
			c-0.431,0.16-0.653,0.642-0.493,1.073c0.16,0.432,0.642,0.652,1.073,0.493l0.801-0.296c0.432-0.16,0.653-0.642,0.494-1.073
			C8.495,9.424,8.175,9.215,7.835,9.215z"/>
	</g>
	<g>
		<path d="M12.042,10.329c-0.261,0-0.521-0.057-0.766-0.169c-0.445-0.205-0.784-0.57-0.954-1.03
			c-0.17-0.459-0.152-0.958,0.053-1.403c0.205-0.445,0.57-0.784,1.03-0.954l0.801-0.297c0.461-0.17,0.959-0.151,1.404,0.054
			c0.445,0.205,0.784,0.57,0.954,1.03c0.352,0.949-0.135,2.006-1.083,2.357l-0.801,0.297C12.473,10.291,12.257,10.329,12.042,10.329
			z M12.843,7.361c-0.096,0-0.194,0.017-0.289,0.052L11.753,7.71c-0.209,0.078-0.376,0.232-0.469,0.435
			c-0.093,0.202-0.102,0.429-0.024,0.638c0.16,0.433,0.644,0.654,1.073,0.494l0.801-0.297c0,0,0,0,0,0
			c0.209-0.078,0.375-0.232,0.468-0.434c0.093-0.203,0.102-0.43,0.024-0.639C13.502,7.57,13.183,7.361,12.843,7.361z"/>
	</g>
	<g>
		<path d="M17.049,8.475c-0.261,0-0.521-0.057-0.766-0.169c-0.445-0.205-0.784-0.57-0.954-1.03c-0.17-0.459-0.151-0.958,0.054-1.403
			c0.205-0.445,0.57-0.784,1.03-0.954l0.801-0.296c0.459-0.171,0.958-0.152,1.403,0.053c0.445,0.205,0.784,0.57,0.954,1.03
			c0.17,0.459,0.151,0.958-0.054,1.403c-0.205,0.445-0.57,0.784-1.03,0.954L17.688,8.36C17.48,8.437,17.264,8.475,17.049,8.475z
			 M17.853,5.507c-0.098,0-0.196,0.017-0.291,0.052L16.76,5.856c-0.209,0.078-0.375,0.232-0.469,0.435
			c-0.093,0.203-0.102,0.429-0.024,0.639c0.078,0.209,0.232,0.375,0.435,0.469c0.202,0.093,0.429,0.102,0.639,0.024l0.801-0.297
			c0,0,0,0,0,0c0.209-0.078,0.375-0.232,0.469-0.435c0.093-0.203,0.102-0.429,0.024-0.639c-0.078-0.209-0.232-0.375-0.435-0.468
			C18.089,5.533,17.971,5.507,17.853,5.507z"/>
	</g>
	<g>
		<path d="M22.057,6.621c-0.261,0-0.521-0.056-0.765-0.168c-0.446-0.205-0.785-0.57-0.955-1.03
			c-0.351-0.948,0.135-2.006,1.083-2.358l0.801-0.296c0.946-0.352,2.006,0.135,2.357,1.084c0.17,0.459,0.152,0.958-0.053,1.403
			c-0.205,0.445-0.57,0.784-1.03,0.954l0,0l-0.801,0.296C22.487,6.583,22.272,6.621,22.057,6.621z M22.859,3.653
			c-0.098,0-0.196,0.018-0.291,0.052l-0.801,0.296c-0.432,0.16-0.653,0.642-0.493,1.074c0.078,0.209,0.232,0.375,0.434,0.468
			c0.203,0.093,0.429,0.103,0.639,0.024l0.801-0.296c0.209-0.078,0.375-0.232,0.468-0.435c0.093-0.202,0.102-0.429,0.024-0.638
			C23.564,3.99,23.41,3.823,23.208,3.73C23.097,3.679,22.978,3.653,22.859,3.653z"/>
	</g>
	<g>
		<path d="M0.5,22.921c-0.136,0-0.272-0.056-0.371-0.165c-0.185-0.205-0.169-0.521,0.036-0.707l4.429-4.003
			c0.205-0.185,0.521-0.169,0.707,0.036c0.185,0.205,0.169,0.521-0.036,0.707l-4.429,4.003C0.74,22.879,0.62,22.921,0.5,22.921z"/>
		<path d="M2.905,25.396c-0.136,0-0.272-0.056-0.371-0.165c-0.185-0.205-0.169-0.521,0.036-0.707l4.429-4.004
			c0.204-0.185,0.521-0.169,0.707,0.036c0.185,0.205,0.169,0.521-0.036,0.707L3.24,25.267C3.145,25.353,3.024,25.396,2.905,25.396z"
			/>
		<path d="M5.31,27.87c-0.136,0-0.272-0.056-0.371-0.165c-0.185-0.205-0.169-0.521,0.036-0.707l4.428-4.004
			c0.205-0.185,0.521-0.169,0.707,0.036c0.185,0.205,0.169,0.521-0.036,0.707l-4.428,4.004C5.55,27.828,5.43,27.87,5.31,27.87z"/>
		<path d="M7.715,30.344c-0.136,0-0.272-0.056-0.371-0.165c-0.185-0.205-0.169-0.521,0.036-0.707l4.428-4.003
			c0.205-0.185,0.521-0.169,0.707,0.036c0.185,0.205,0.169,0.521-0.036,0.707L8.05,30.215C7.955,30.302,7.835,30.344,7.715,30.344z"
			/>
	</g>
</g>
<g>
</g>
<g>
</g>
<g>
</g>
<g>
</g>
<g>
</g>
<g>
</g>
<g>
</g>
<g>
</g>
<g>
</g>
<g>
</g>
<g>
</g>
<g>
</g>
<g>
</g>
<g>
</g>
<g>
</g>
</svg>
