<?xml version="1.0" encoding="iso-8859-1"?>
<!-- Generator: Adobe Illustrator 19.0.0, SVG Export Plug-In . SVG Version: 6.00 Build 0)  -->
<svg version="1.1" id="Capa_1" xmlns="http://www.w3.org/2000/svg" xmlns:xlink="http://www.w3.org/1999/xlink" x="0px" y="0px"
	 viewBox="0 0 39.619 39.619" style="enable-background:new 0 0 39.619 39.619;" xml:space="preserve">
<g>
	<path d="M19.809,33.271c-13.103,0-19.692-13.042-19.757-13.173C0.018,20.029,0,19.954,0,19.877v-0.133
		c0-0.077,0.018-0.152,0.052-0.221C0.117,19.391,6.706,6.348,19.809,6.348c13.104,0,19.694,13.043,19.759,13.175
		c0.034,0.069,0.052,0.145,0.052,0.221v0.133c0,0.077-0.018,0.152-0.052,0.221C39.502,20.23,32.913,33.271,19.809,33.271z
		 M1.029,19.811c0.774,1.446,7.066,12.461,18.779,12.461c11.729,0,18.008-11.015,18.781-12.461
		c-0.774-1.445-7.065-12.463-18.781-12.463C8.081,7.348,1.802,18.364,1.029,19.811z"/>
	<path d="M19.809,26.312c-3.547,0-6.434-2.887-6.434-6.437c0-3.548,2.886-6.435,6.434-6.435c3.548,0,6.436,2.887,6.436,6.435
		C26.244,23.424,23.357,26.312,19.809,26.312z M19.809,14.44c-2.996,0-5.434,2.438-5.434,5.435c0,2.998,2.438,5.437,5.434,5.437
		c2.997,0,5.436-2.439,5.436-5.437C25.244,16.878,22.806,14.44,19.809,14.44z"/>
	<circle cx="19.81" cy="19.875" r="2.146"/>
</g>
<g>
</g>
<g>
</g>
<g>
</g>
<g>
</g>
<g>
</g>
<g>
</g>
<g>
</g>
<g>
</g>
<g>
</g>
<g>
</g>
<g>
</g>
<g>
</g>
<g>
</g>
<g>
</g>
<g>
</g>
</svg>
