<?xml version="1.0" encoding="iso-8859-1"?>
<!-- Generator: Adobe Illustrator 19.0.0, SVG Export Plug-In . SVG Version: 6.00 Build 0)  -->
<svg version="1.1" id="Capa_1" xmlns="http://www.w3.org/2000/svg" xmlns:xlink="http://www.w3.org/1999/xlink" x="0px" y="0px"
	 viewBox="0 0 33 33" style="enable-background:new 0 0 33 33;" xml:space="preserve">
<g>
	<path d="M24.771,33H8.229c-2.021,0-3.665-1.645-3.665-3.665V12.38c0-0.276,0.224-0.5,0.5-0.5s0.5,0.224,0.5,0.5v16.955
		C5.564,30.805,6.76,32,8.229,32h16.541c1.47,0,2.665-1.195,2.665-2.665V12.38c0-0.276,0.224-0.5,0.5-0.5s0.5,0.224,0.5,0.5v16.955
		C28.436,31.355,26.792,33,24.771,33z"/>
	<path d="M29.125,24.709h-1.189c-0.276,0-0.5-0.224-0.5-0.5v-9.573c0-0.276,0.224-0.5,0.5-0.5h1.189c2.02,0,3.663,1.643,3.663,3.662
		v3.248C32.788,23.065,31.145,24.709,29.125,24.709z M28.436,23.709h0.689c1.468,0,2.663-1.194,2.663-2.663v-3.248
		c0-1.468-1.195-2.662-2.663-2.662h-0.689V23.709z"/>
	<path d="M5.064,24.709H3.875c-2.02,0-3.663-1.644-3.663-3.663v-3.248c0-2.02,1.643-3.662,3.663-3.662h1.189
		c0.276,0,0.5,0.224,0.5,0.5v9.573C5.564,24.485,5.341,24.709,5.064,24.709z M3.875,15.136c-1.468,0-2.663,1.194-2.663,2.662v3.248
		c0,1.469,1.195,2.663,2.663,2.663h0.689v-8.573H3.875z"/>
	<path d="M27.936,11.084H5.064c-0.276,0-0.5-0.224-0.5-0.5V8.121c0-2.021,1.645-3.666,3.666-3.666h1.407
		c2.086,0,3.783-1.696,3.783-3.782V0.5c0-0.276,0.224-0.5,0.5-0.5h5.16c0.276,0,0.5,0.224,0.5,0.5v0.173
		c0,2.086,1.697,3.782,3.783,3.782h1.407c2.021,0,3.666,1.645,3.666,3.666v2.463C28.436,10.86,28.212,11.084,27.936,11.084z
		 M5.564,10.084h21.871V8.121c0-1.47-1.196-2.666-2.666-2.666h-1.407c-2.527,0-4.603-1.97-4.771-4.455h-4.183
		c-0.168,2.485-2.244,4.455-4.771,4.455H8.23c-1.47,0-2.666,1.196-2.666,2.666V10.084z"/>
</g>
<g>
</g>
<g>
</g>
<g>
</g>
<g>
</g>
<g>
</g>
<g>
</g>
<g>
</g>
<g>
</g>
<g>
</g>
<g>
</g>
<g>
</g>
<g>
</g>
<g>
</g>
<g>
</g>
<g>
</g>
</svg>
