<?xml version="1.0" encoding="iso-8859-1"?>
<!-- Generator: Adobe Illustrator 19.0.0, SVG Export Plug-In . SVG Version: 6.00 Build 0)  -->
<svg version="1.1" id="Capa_1" xmlns="http://www.w3.org/2000/svg" xmlns:xlink="http://www.w3.org/1999/xlink" x="0px" y="0px"
	 viewBox="0 0 33.293 33.293" style="enable-background:new 0 0 33.293 33.293;" xml:space="preserve">
<g>
	<g>
		<g>
			<g>
				<path d="M27.577,33.293H5.716c-1.378,0-2.5-1.121-2.5-2.5V2.5c0-1.379,1.122-2.5,2.5-2.5h15.875c0.276,0,0.5,0.224,0.5,0.5
					S21.867,1,21.591,1H5.716c-0.827,0-1.5,0.673-1.5,1.5v28.293c0,0.827,0.673,1.5,1.5,1.5h21.861c0.827,0,1.5-0.673,1.5-1.5V8.704
					c0-0.276,0.224-0.5,0.5-0.5s0.5,0.224,0.5,0.5v22.09C30.077,32.172,28.956,33.293,27.577,33.293z"/>
				<path d="M29.577,9.204h-7.986c-0.276,0-0.5-0.224-0.5-0.5V0.717c0-0.276,0.224-0.5,0.5-0.5s0.5,0.224,0.5,0.5v7.486h7.486
					c0.276,0,0.5,0.224,0.5,0.5S29.854,9.204,29.577,9.204z"/>
				<path d="M29.577,9.204c-0.13,0-0.26-0.051-0.358-0.151l-7.986-8.203c-0.192-0.197-0.188-0.515,0.01-0.707
					c0.197-0.193,0.514-0.188,0.707,0.01l7.986,8.203c0.192,0.197,0.188,0.515-0.01,0.707C29.829,9.157,29.703,9.204,29.577,9.204z"
					/>
			</g>
		</g>
	</g>
	<path d="M20.548,26.533c-0.103,0-0.206-0.032-0.294-0.096l-3.723-2.704l-3.723,2.704c-0.176,0.127-0.412,0.127-0.588,0
		c-0.175-0.127-0.249-0.353-0.182-0.559l1.422-4.376l-3.724-2.706c-0.175-0.127-0.249-0.353-0.182-0.559s0.259-0.346,0.476-0.346
		h4.602l1.422-4.376c0.067-0.206,0.259-0.346,0.476-0.346l0,0c0.217,0,0.409,0.14,0.476,0.346l1.422,4.376h4.603
		c0.217,0,0.409,0.14,0.476,0.346s-0.006,0.432-0.182,0.559l-3.725,2.706l1.422,4.376c0.067,0.206-0.006,0.432-0.182,0.559
		C20.754,26.5,20.651,26.533,20.548,26.533z M11.57,18.892l2.772,2.015c0.175,0.127,0.249,0.353,0.182,0.559l-1.059,3.259
		l2.771-2.014c0.176-0.127,0.412-0.127,0.588,0l2.771,2.014l-1.059-3.259c-0.067-0.206,0.006-0.432,0.182-0.559l2.773-2.015h-3.427
		c-0.217,0-0.409-0.14-0.476-0.346l-1.059-3.258l-1.059,3.258c-0.067,0.206-0.259,0.346-0.476,0.346H11.57z"/>
</g>
<g>
</g>
<g>
</g>
<g>
</g>
<g>
</g>
<g>
</g>
<g>
</g>
<g>
</g>
<g>
</g>
<g>
</g>
<g>
</g>
<g>
</g>
<g>
</g>
<g>
</g>
<g>
</g>
<g>
</g>
</svg>
