<?xml version="1.0" encoding="iso-8859-1"?>
<!-- Generator: Adobe Illustrator 19.0.0, SVG Export Plug-In . SVG Version: 6.00 Build 0)  -->
<svg version="1.1" id="Capa_1" xmlns="http://www.w3.org/2000/svg" xmlns:xlink="http://www.w3.org/1999/xlink" x="0px" y="0px"
	 viewBox="0 0 33.293 33.293" style="enable-background:new 0 0 33.293 33.293;" xml:space="preserve">
<g>
	<g>
		<g>
			<g>
				<path d="M27.577,33.293H5.716c-1.378,0-2.5-1.121-2.5-2.5V2.5c0-1.379,1.122-2.5,2.5-2.5h15.875c0.276,0,0.5,0.224,0.5,0.5
					S21.867,1,21.591,1H5.716c-0.827,0-1.5,0.673-1.5,1.5v28.293c0,0.827,0.673,1.5,1.5,1.5h21.861c0.827,0,1.5-0.673,1.5-1.5V8.704
					c0-0.276,0.224-0.5,0.5-0.5s0.5,0.224,0.5,0.5v22.09C30.077,32.172,28.956,33.293,27.577,33.293z"/>
				<path d="M29.577,9.204h-7.986c-0.276,0-0.5-0.224-0.5-0.5V0.717c0-0.276,0.224-0.5,0.5-0.5s0.5,0.224,0.5,0.5v7.486h7.486
					c0.276,0,0.5,0.224,0.5,0.5S29.854,9.204,29.577,9.204z"/>
				<path d="M29.577,9.204c-0.13,0-0.26-0.051-0.358-0.151l-7.986-8.203c-0.192-0.197-0.188-0.515,0.01-0.707
					c0.197-0.193,0.513-0.188,0.707,0.01l7.986,8.203c0.192,0.197,0.188,0.515-0.01,0.707C29.829,9.157,29.703,9.204,29.577,9.204z"
					/>
			</g>
		</g>
	</g>
	<g>
		<path d="M12.3,26.896c-0.7,0-1.358-0.272-1.853-0.768c-1.021-1.021-1.021-2.684,0-3.705l2.305-2.304
			c0.494-0.495,1.15-0.768,1.85-0.768c0.001,0,0.003,0,0.005,0c0.276,0.001,0.5,0.225,0.499,0.501c0,0.275-0.224,0.499-0.5,0.499
			c-0.001,0-0.003,0-0.004,0c-0.432,0-0.837,0.168-1.142,0.475l-2.305,2.304c-0.631,0.632-0.631,1.659,0,2.291
			c0.612,0.61,1.677,0.611,2.291,0l2.305-2.305c0.306-0.306,0.474-0.713,0.474-1.146c0-0.276,0.224-0.5,0.5-0.5s0.5,0.224,0.5,0.5
			c0,0.7-0.272,1.358-0.767,1.853l-2.305,2.305C13.657,26.623,12.999,26.896,12.3,26.896z"/>
		<path d="M18.688,20.505c-0.276,0-0.5-0.224-0.5-0.5s0.224-0.5,0.5-0.5c0.434,0,0.841-0.168,1.146-0.475l2.305-2.305
			c0.306-0.306,0.474-0.712,0.474-1.145s-0.168-0.84-0.474-1.146c-0.613-0.611-1.679-0.611-2.291,0l-2.305,2.305
			c-0.306,0.306-0.474,0.713-0.474,1.146c0,0.276-0.224,0.5-0.5,0.5s-0.5-0.224-0.5-0.5c0-0.699,0.272-1.357,0.767-1.853
			l2.305-2.305c0.99-0.99,2.716-0.99,3.705,0c0.495,0.495,0.767,1.153,0.767,1.853s-0.272,1.357-0.767,1.852l-2.305,2.305
			C20.048,20.233,19.39,20.505,18.688,20.505z"/>
		<path d="M13.45,23.625c-0.128,0-0.256-0.049-0.354-0.146c-0.195-0.195-0.195-0.512,0-0.707l6.393-6.394
			c0.195-0.195,0.512-0.195,0.707,0s0.195,0.512,0,0.707l-6.393,6.394C13.706,23.577,13.578,23.625,13.45,23.625z"/>
	</g>
</g>
<g>
</g>
<g>
</g>
<g>
</g>
<g>
</g>
<g>
</g>
<g>
</g>
<g>
</g>
<g>
</g>
<g>
</g>
<g>
</g>
<g>
</g>
<g>
</g>
<g>
</g>
<g>
</g>
<g>
</g>
</svg>
