<?xml version="1.0" encoding="iso-8859-1"?>
<!-- Generator: Adobe Illustrator 19.0.0, SVG Export Plug-In . SVG Version: 6.00 Build 0)  -->
<svg version="1.1" id="Capa_1" xmlns="http://www.w3.org/2000/svg" xmlns:xlink="http://www.w3.org/1999/xlink" x="0px" y="0px"
	 viewBox="0 0 33.293 33.293" style="enable-background:new 0 0 33.293 33.293;" xml:space="preserve">
<g>
	<g>
		<path d="M27.578,33.293H5.715c-1.378,0-2.5-1.121-2.5-2.5V2.5c0-1.379,1.122-2.5,2.5-2.5h15.877c0.276,0,0.5,0.224,0.5,0.5
			S21.868,1,21.592,1H5.715c-0.827,0-1.5,0.673-1.5,1.5v28.293c0,0.827,0.673,1.5,1.5,1.5h21.863c0.827,0,1.5-0.673,1.5-1.5V8.704
			c0-0.276,0.224-0.5,0.5-0.5s0.5,0.224,0.5,0.5v22.09C30.078,32.172,28.957,33.293,27.578,33.293z"/>
		<path d="M29.578,9.204h-7.986c-0.276,0-0.5-0.224-0.5-0.5V0.717c0-0.276,0.224-0.5,0.5-0.5s0.5,0.224,0.5,0.5v7.486h7.486
			c0.276,0,0.5,0.224,0.5,0.5S29.855,9.204,29.578,9.204z"/>
		<path d="M29.578,9.204c-0.13,0-0.26-0.051-0.358-0.151l-7.986-8.203c-0.192-0.197-0.188-0.515,0.01-0.707
			c0.197-0.193,0.514-0.188,0.707,0.01l7.986,8.203c0.192,0.197,0.188,0.515-0.01,0.707C29.83,9.157,29.704,9.204,29.578,9.204z"/>
	</g>
	<g>
		<path d="M16.647,25.656c-3.86,0-7-3.141-7-7s3.14-7,7-7s7,3.141,7,7S20.507,25.656,16.647,25.656z M16.647,12.656
			c-3.309,0-6,2.691-6,6s2.691,6,6,6s6-2.691,6-6S19.955,12.656,16.647,12.656z"/>
		<path d="M23.147,19.156h-6.5c-0.276,0-0.5-0.224-0.5-0.5v-6.185c0-0.276,0.224-0.5,0.5-0.5s0.5,0.224,0.5,0.5v5.685h6
			c0.276,0,0.5,0.224,0.5,0.5S23.423,19.156,23.147,19.156z"/>
	</g>
</g>
<g>
</g>
<g>
</g>
<g>
</g>
<g>
</g>
<g>
</g>
<g>
</g>
<g>
</g>
<g>
</g>
<g>
</g>
<g>
</g>
<g>
</g>
<g>
</g>
<g>
</g>
<g>
</g>
<g>
</g>
</svg>
