<?xml version="1.0" encoding="iso-8859-1"?>
<!-- Generator: Adobe Illustrator 19.0.0, SVG Export Plug-In . SVG Version: 6.00 Build 0)  -->
<svg version="1.1" id="Capa_1" xmlns="http://www.w3.org/2000/svg" xmlns:xlink="http://www.w3.org/1999/xlink" x="0px" y="0px"
	 viewBox="0 0 28.484 28.484" style="enable-background:new 0 0 28.484 28.484;" xml:space="preserve">
<g>
	<path d="M2.79,28.484c-0.276,0-0.5-0.224-0.5-0.5V0.5c0-0.276,0.224-0.5,0.5-0.5s0.5,0.224,0.5,0.5v27.484
		C3.29,28.261,3.067,28.484,2.79,28.484z"/>
	<path d="M25.694,14.742H2.79c-0.276,0-0.5-0.224-0.5-0.5V0.5c0-0.276,0.224-0.5,0.5-0.5h22.903c0.192,0,0.367,0.11,0.45,0.282
		c0.083,0.173,0.061,0.378-0.058,0.528l-5.194,6.561l5.194,6.561c0.119,0.15,0.142,0.355,0.058,0.528
		C26.06,14.632,25.886,14.742,25.694,14.742z M3.29,13.742h21.37l-4.798-6.061c-0.144-0.182-0.144-0.439,0-0.621L24.66,1H3.29
		V13.742z"/>
</g>
<g>
</g>
<g>
</g>
<g>
</g>
<g>
</g>
<g>
</g>
<g>
</g>
<g>
</g>
<g>
</g>
<g>
</g>
<g>
</g>
<g>
</g>
<g>
</g>
<g>
</g>
<g>
</g>
<g>
</g>
</svg>
