<?xml version="1.0" encoding="iso-8859-1"?>
<!-- Generator: Adobe Illustrator 19.0.0, SVG Export Plug-In . SVG Version: 6.00 Build 0)  -->
<svg version="1.1" id="Capa_1" xmlns="http://www.w3.org/2000/svg" xmlns:xlink="http://www.w3.org/1999/xlink" x="0px" y="0px"
	 viewBox="0 0 31.461 31.461" style="enable-background:new 0 0 31.461 31.461;" xml:space="preserve">
<path d="M15.73,31.461c-1.428,0-2.589-1.162-2.589-2.59l0.747-15.703c-2.056-0.744-3.46-2.707-3.46-4.906V0.5
	c0-0.276,0.224-0.5,0.5-0.5h2.239c0.276,0,0.5,0.224,0.5,0.5v6.711h0.555V0.5c0-0.276,0.224-0.5,0.5-0.5h2.016
	c0.276,0,0.5,0.224,0.5,0.5v6.711h0.555V0.5c0-0.276,0.224-0.5,0.5-0.5h2.239c0.276,0,0.5,0.224,0.5,0.5v7.762
	c0,2.199-1.404,4.162-3.46,4.906l0.747,15.68C18.319,30.299,17.158,31.461,15.73,31.461z M11.429,1v7.262
	c0,1.886,1.279,3.558,3.111,4.065c0.225,0.063,0.377,0.271,0.366,0.505l-0.765,16.063c0,0.854,0.713,1.566,1.589,1.566
	s1.589-0.713,1.589-1.59l-0.764-16.039c-0.011-0.233,0.141-0.442,0.366-0.505c1.832-0.508,3.111-2.18,3.111-4.065V1h-1.239v6.711
	c0,0.276-0.224,0.5-0.5,0.5h-1.555c-0.276,0-0.5-0.224-0.5-0.5V1h-1.016v6.711c0,0.276-0.224,0.5-0.5,0.5h-1.555
	c-0.276,0-0.5-0.224-0.5-0.5V1H11.429z"/>
<g>
</g>
<g>
</g>
<g>
</g>
<g>
</g>
<g>
</g>
<g>
</g>
<g>
</g>
<g>
</g>
<g>
</g>
<g>
</g>
<g>
</g>
<g>
</g>
<g>
</g>
<g>
</g>
<g>
</g>
</svg>
