<?xml version="1.0" encoding="iso-8859-1"?>
<!-- Generator: Adobe Illustrator 19.0.0, SVG Export Plug-In . SVG Version: 6.00 Build 0)  -->
<svg version="1.1" id="Capa_1" xmlns="http://www.w3.org/2000/svg" xmlns:xlink="http://www.w3.org/1999/xlink" x="0px" y="0px"
	 viewBox="0 0 33 33" style="enable-background:new 0 0 33 33;" xml:space="preserve">
<g>
	<g>
		<path d="M16.5,33c-0.276,0-0.5-0.224-0.5-0.5C16,21.454,4.679,10.733,4.564,10.627c-0.122-0.114-0.179-0.282-0.151-0.447
			s0.136-0.306,0.289-0.374c7.357-3.298,5.446-8.9,5.361-9.137c-0.093-0.26,0.042-0.546,0.302-0.64
			c0.257-0.092,0.546,0.042,0.64,0.302c0.023,0.065,2.173,6.35-5.234,10.074C8.075,12.708,17,22.289,17,32.5
			C17,32.776,16.776,33,16.5,33z"/>
		<path d="M16.5,33c-0.276,0-0.5-0.224-0.5-0.5c0-10.211,8.925-19.792,11.23-22.095c-7.407-3.725-5.257-10.009-5.234-10.074
			c0.093-0.26,0.378-0.393,0.638-0.302c0.259,0.093,0.395,0.378,0.304,0.639c-0.084,0.237-1.966,5.854,5.36,9.138
			c0.153,0.068,0.261,0.209,0.289,0.374c0.027,0.165-0.029,0.333-0.151,0.447C28.321,10.733,17,21.462,17,32.5
			C17,32.776,16.776,33,16.5,33z"/>
	</g>
	<path d="M16.5,33c-0.276,0-0.5-0.224-0.5-0.5V14.059c0-0.276,0.224-0.5,0.5-0.5s0.5,0.224,0.5,0.5V32.5
		C17,32.776,16.776,33,16.5,33z"/>
	<path d="M16.5,14.559c-1.248,0-2.263-1.015-2.263-2.262c0-1.248,1.015-2.264,2.263-2.264s2.263,1.016,2.263,2.264
		C18.763,13.544,17.748,14.559,16.5,14.559z M16.5,11.033c-0.696,0-1.263,0.566-1.263,1.264c0,0.695,0.566,1.262,1.263,1.262
		s1.263-0.566,1.263-1.262C17.763,11.6,17.196,11.033,16.5,11.033z"/>
	<path d="M26.975,1H6.025c-0.276,0-0.5-0.224-0.5-0.5S5.749,0,6.025,0h20.949c0.276,0,0.5,0.224,0.5,0.5S27.251,1,26.975,1z"/>
</g>
<g>
</g>
<g>
</g>
<g>
</g>
<g>
</g>
<g>
</g>
<g>
</g>
<g>
</g>
<g>
</g>
<g>
</g>
<g>
</g>
<g>
</g>
<g>
</g>
<g>
</g>
<g>
</g>
<g>
</g>
</svg>
