<?xml version="1.0" encoding="iso-8859-1"?>
<!-- Generator: Adobe Illustrator 19.0.0, SVG Export Plug-In . SVG Version: 6.00 Build 0)  -->
<svg version="1.1" id="Capa_1" xmlns="http://www.w3.org/2000/svg" xmlns:xlink="http://www.w3.org/1999/xlink" x="0px" y="0px"
	 viewBox="0 0 36.525 36.525" style="enable-background:new 0 0 36.525 36.525;" xml:space="preserve">
<g>
	<g>
		<path d="M20.264,36.525c-0.205,0-0.397-0.127-0.471-0.331c-0.023-0.065-2.173-6.351,5.234-10.075
			c-2.305-2.303-11.23-11.883-11.23-22.094c0-0.276,0.224-0.5,0.5-0.5s0.5,0.224,0.5,0.5c0,11.037,11.321,21.766,11.436,21.872
			c0.122,0.114,0.179,0.282,0.151,0.447c-0.028,0.165-0.136,0.306-0.289,0.374c-7.357,3.298-5.446,8.901-5.361,9.138
			c0.093,0.26-0.042,0.546-0.302,0.64C20.377,36.516,20.32,36.525,20.264,36.525z"/>
		<path d="M8.331,36.525c-0.056,0-0.112-0.01-0.168-0.029c-0.259-0.093-0.395-0.378-0.304-0.639c0.084-0.237,1.966-5.854-5.36-9.139
			C2.346,26.65,2.238,26.51,2.21,26.345c-0.027-0.165,0.029-0.333,0.151-0.447c0.114-0.106,11.436-10.835,11.436-21.872
			c0-0.276,0.224-0.5,0.5-0.5s0.5,0.224,0.5,0.5c0,10.211-8.925,19.791-11.23,22.094c7.407,3.725,5.257,10.01,5.234,10.075
			C8.728,36.398,8.536,36.525,8.331,36.525z"/>
	</g>
	<path d="M14.297,22.966c-0.276,0-0.5-0.224-0.5-0.5V4.025c0-0.276,0.224-0.5,0.5-0.5s0.5,0.224,0.5,0.5v18.44
		C14.797,22.742,14.573,22.966,14.297,22.966z"/>
	<path d="M14.297,26.491c-1.248,0-2.263-1.015-2.263-2.263s1.015-2.263,2.263-2.263s2.263,1.015,2.263,2.263
		S15.544,26.491,14.297,26.491z M14.297,22.966c-0.696,0-1.263,0.566-1.263,1.263s0.566,1.263,1.263,1.263s1.263-0.566,1.263-1.263
		S14.993,22.966,14.297,22.966z"/>
	<path d="M32.06,4.525c-1.248,0-2.263-1.015-2.263-2.263S30.812,0,32.06,0s2.263,1.015,2.263,2.263S33.307,4.525,32.06,4.525z
		 M32.06,1c-0.696,0-1.263,0.566-1.263,1.263s0.566,1.263,1.263,1.263s1.263-0.566,1.263-1.263S32.756,1,32.06,1z"/>
	<path d="M24.771,36.525H3.822c-0.276,0-0.5-0.224-0.5-0.5s0.224-0.5,0.5-0.5h20.949c0.276,0,0.5,0.224,0.5,0.5
		S25.048,36.525,24.771,36.525z"/>
	<path d="M32.06,18.763c-0.276,0-0.5-0.224-0.5-0.5c0-8.547-6.953-15.5-15.5-15.5c-0.276,0-0.5-0.224-0.5-0.5s0.224-0.5,0.5-0.5
		c9.098,0,16.5,7.402,16.5,16.5C32.56,18.539,32.336,18.763,32.06,18.763z"/>
	<path d="M16.06,4.525h-3.525c-0.276,0-0.5-0.224-0.5-0.5V0.5c0-0.276,0.224-0.5,0.5-0.5h3.525c0.276,0,0.5,0.224,0.5,0.5v3.525
		C16.56,4.302,16.336,4.525,16.06,4.525z M13.034,3.525h2.525V1h-2.525V3.525z"/>
	<path d="M33.822,22.288h-3.525c-0.276,0-0.5-0.224-0.5-0.5v-3.525c0-0.276,0.224-0.5,0.5-0.5h3.525c0.276,0,0.5,0.224,0.5,0.5
		v3.525C34.322,22.064,34.099,22.288,33.822,22.288z M30.797,21.288h2.525v-2.525h-2.525V21.288z"/>
	<path d="M32.06,18.763c-0.276,0-0.5-0.224-0.5-0.5V4.025c0-0.276,0.224-0.5,0.5-0.5s0.5,0.224,0.5,0.5v14.237
		C32.56,18.539,32.336,18.763,32.06,18.763z"/>
</g>
<g>
</g>
<g>
</g>
<g>
</g>
<g>
</g>
<g>
</g>
<g>
</g>
<g>
</g>
<g>
</g>
<g>
</g>
<g>
</g>
<g>
</g>
<g>
</g>
<g>
</g>
<g>
</g>
<g>
</g>
</svg>
