<?xml version="1.0" encoding="iso-8859-1"?>
<!-- Generator: Adobe Illustrator 19.0.0, SVG Export Plug-In . SVG Version: 6.00 Build 0)  -->
<svg version="1.1" id="Capa_1" xmlns="http://www.w3.org/2000/svg" xmlns:xlink="http://www.w3.org/1999/xlink" x="0px" y="0px"
	 viewBox="0 0 512 512" style="enable-background:new 0 0 512 512;" xml:space="preserve">
<g>
	<g>
		<path d="M472.808,88.045c-0.079-0.016-0.158-0.03-0.237-0.043c-18.937-3.104-33.938,8.371-39.14,29.94l-31.12,93.536
			c-7.828-4.658-18.891-6.921-31.408,0.335c-11.285-8.012-24.853-12.377-38.774-12.377c-1.442,0-2.907,0.05-4.386,0.149
			c-15.841-22.172-40.365-36.037-67.36-38.215V78.883h24.128c18.899,0,34.275-15.376,34.275-34.274V7.5c0-4.143-3.357-7.5-7.5-7.5
			h-31.629c-18.898,0-34.274,15.376-34.274,34.274v16.079c-7.432-6.333-17.055-10.169-27.563-10.169h-41.419
			c-4.142,0-7.5,3.357-7.5,7.5v31.594c0,23.469,19.094,42.564,42.564,42.564h33.92v39.528
			c-26.997,2.178-51.521,16.043-67.361,38.215c-1.479-0.1-2.944-0.149-4.386-0.149c-12.947,0-25.325,3.638-36.091,10.55
			c-11.052-4.971-20.776-2.72-27.856,1.492l-31.121-93.536c-5.204-21.57-20.203-33.049-39.139-29.94
			c-0.079,0.013-0.158,0.027-0.237,0.043c-24.656,4.854-28.206,28.47-26.416,41.657c0.019,0.143,0.042,0.284,0.07,0.425
			l28.527,146.445c3.578,25.809,21.044,41.057,28.401,46.422c0.097,0.07,0.196,0.139,0.296,0.205
			c52.071,34.273,52.648,32.795,63.008,48.992H118.15c-0.005,0-0.009,0-0.014,0c-8.694,0-15.774,7.033-15.785,15.694v107.287
			c0,9.279,7.548,16.827,16.827,16.827h126.919c3.679,0,7.089-1.155,9.904-3.111c2.814,1.956,6.224,3.111,9.904,3.111h50.652
			c4.143,0,7.5-3.357,7.5-7.5c0-4.143-3.357-7.5-7.5-7.5h-50.652c-1.324,0-2.402-1.078-2.402-2.402V433.78H394.65v61.393
			c0,1.007-0.819,1.826-1.826,1.826h-41.265c-4.143,0-7.5,3.357-7.5,7.5c0,4.143,3.357,7.5,7.5,7.5h41.265
			c9.279,0,16.827-7.548,16.827-16.827V387.875c-0.011-8.652-7.09-15.685-15.779-15.685c-0.004,0-0.01,0-0.014,0h-14.933
			c10.432-16.309,11.494-15.086,63.008-48.992c0.101-0.065,0.199-0.134,0.296-0.205c7.355-5.363,24.818-20.608,28.4-46.413
			l5.77-29.626c0.792-4.065-1.861-8.004-5.928-8.796c-4.067-0.795-8.003,1.861-8.796,5.928l-5.813,29.843
			c-0.033,0.171-0.061,0.343-0.082,0.516c-2.65,19.305-15.009,31.01-22.249,36.324c-55.226,36.351-55.039,33.761-70.273,58.148
			c-0.659,1.055-1.34,2.145-2.051,3.273h-93.178c9.052-52.99,6.998-48.882,39.958-96.493c8.049-11.152,15.144-14.569,69.053-50.052
			c12.861-8.472,21.28,1.299,22.802,3.293c0.015,0.021,0.034,0.038,0.05,0.059c0.032,0.042,0.059,0.087,0.093,0.128
			c1.664,2.165,6.479,9.772-1.426,16.73c-13.91,12.242-46.902,41.511-47.234,41.805c-3.099,2.749-3.382,7.49-0.633,10.589
			c2.75,3.1,7.491,3.38,10.589,0.633c0.331-0.294,33.302-29.543,47.19-41.766c12.39-10.906,10.62-24.896,5.681-33.704
			l33.611-101.022c0.056-0.168,0.105-0.337,0.149-0.508l0.101-0.41c2.351-9.755,8.087-20.897,22.016-18.686
			c16.125,3.261,14.869,20.698,14.359,24.698l-15.896,81.6c-0.792,4.065,1.861,8.004,5.928,8.796
			c4.068,0.795,8.003-1.861,8.796-5.928l15.939-81.825c0.027-0.141,0.051-0.282,0.07-0.424
			C501.014,116.516,497.467,92.902,472.808,88.045z M211.46,106.841c-15.198,0-27.563-12.364-27.563-27.563V55.186h33.919
			c15.198,0,27.562,12.364,27.562,27.563v24.092H211.46z M260.381,56.139V34.274c0-10.628,8.647-19.273,19.273-19.273h24.128v29.607
			c0,10.628-8.647,19.273-19.274,19.273h-24.128V56.139z M78.468,310.77c-7.237-5.312-19.584-17.007-22.244-36.291
			c-0.022-0.185-0.051-0.367-0.086-0.549L27.611,127.486c-0.51-4.002-1.763-21.438,14.358-24.698
			c13.937-2.21,19.665,8.932,22.016,18.686l0.101,0.411c0.043,0.171,0.093,0.34,0.149,0.507l33.611,101.022
			c-4.939,8.808-6.709,22.798,5.681,33.703c13.888,12.223,46.859,41.471,47.191,41.766c3.098,2.748,7.838,2.466,10.588-0.633
			c2.749-3.099,2.465-7.839-0.633-10.589c-0.332-0.294-33.324-29.563-47.234-41.805c-7.896-6.949-3.101-14.546-1.432-16.722
			c0.022-0.028,0.04-0.058,0.062-0.087c0.016-0.021,0.034-0.038,0.05-0.059c5.111-6.707,13.379-9.096,22.035-3.835
			c0.488,0.295,23.788,15.554,24.266,15.866c32.989,21.558,38.933,25.442,45.612,34.706c0.006,0.008,0.012,0.016,0.017,0.023
			c33.735,48.735,31.144,45.034,39.92,96.442h-93.177c-0.713-1.129-1.394-2.219-2.053-3.274
			C133.51,344.539,133.74,347.151,78.468,310.77z M246.095,496.998h-126.92c-1.007,0-1.826-0.819-1.826-1.826v-61.393h131.147
			v60.817h0.001C248.497,495.92,247.419,496.998,246.095,496.998z M248.497,388.055v30.725H117.349v-30.885
			c0-0.457,0.404-0.703,0.791-0.703c3.451,0,126.262,0,129.598,0c0.101,0,0.199,0.025,0.289,0.069
			c0.011,0.005,0.018,0.016,0.029,0.022c0.254,0.141,0.441,0.432,0.441,0.762V388.055z M393.861,387.191
			c0.381,0,0.784,0.246,0.785,0.693v30.895H263.498v-30.727v-0.018c0-0.045,0.018-0.086,0.025-0.13
			c0.061-0.39,0.37-0.713,0.733-0.714C267.599,387.191,390.403,387.191,393.861,387.191z M297.518,264.646
			c-0.025,0.032-0.05,0.063-0.075,0.095c-34.643,44.878-38.558,71.715-41.445,88.59c-2.716-15.881-4.825-26.408-8.975-36.475
			c-6.84-16.658-30.856-50.253-34.031-54.062c-8.43-10.117-19.27-16.544-60.517-43.591c-0.087-0.057-0.178-0.117-0.266-0.174
			c6.669-3.024,13.923-4.592,21.422-4.592c2.289,0.001,4.669,0.167,7.073,0.493c2.888,0.391,5.745-0.926,7.321-3.38
			c14.268-22.222,38.512-35.488,64.854-35.488c26.341,0,50.585,13.267,64.853,35.488c1.576,2.455,4.441,3.771,7.321,3.38
			c2.403-0.326,4.783-0.492,7.072-0.492c8.757,0,17.335,2.224,24.935,6.376C315.697,247.906,306.092,253.577,297.518,264.646z"/>
	</g>
</g>
<g>
</g>
<g>
</g>
<g>
</g>
<g>
</g>
<g>
</g>
<g>
</g>
<g>
</g>
<g>
</g>
<g>
</g>
<g>
</g>
<g>
</g>
<g>
</g>
<g>
</g>
<g>
</g>
<g>
</g>
</svg>
