<?xml version="1.0" encoding="iso-8859-1"?>
<!-- Generator: Adobe Illustrator 19.0.0, SVG Export Plug-In . SVG Version: 6.00 Build 0)  -->
<svg version="1.1" id="Capa_1" xmlns="http://www.w3.org/2000/svg" xmlns:xlink="http://www.w3.org/1999/xlink" x="0px" y="0px"
	 viewBox="0 0 33.003 33.003" style="enable-background:new 0 0 33.003 33.003;" xml:space="preserve">
<g>
	<g>
		<path d="M9.468,32.999c-2.251,0-4.674-0.985-6.579-2.889c-3.382-3.382-3.866-8.401-1.078-11.188
			c0.985-0.986,2.284-1.598,3.755-1.769c1.729-0.201,2.802-1.552,3.288-2.339c0.193-0.312,0.422-0.602,0.683-0.863
			c1.697-1.697,4.512-1.906,6.958-0.557L24.088,5.8c0.195-0.195,0.512-0.195,0.707,0s0.195,0.512,0,0.707l-7.867,7.867
			c-0.163,0.166-0.42,0.193-0.618,0.071c-2.126-1.322-4.621-1.234-6.066,0.212c-0.206,0.206-0.387,0.436-0.539,0.682
			c-1.002,1.625-2.431,2.622-4.023,2.807c-1.245,0.145-2.339,0.658-3.164,1.482c-2.397,2.397-1.914,6.782,1.078,9.774
			c2.992,2.992,7.376,3.474,9.774,1.078c0.825-0.825,1.337-1.918,1.482-3.163c0.185-1.592,1.182-3.021,2.808-4.024
			c0.247-0.152,0.477-0.334,0.682-0.539c1.446-1.446,1.533-3.941,0.211-6.066c-0.123-0.198-0.093-0.454,0.071-0.618l7.867-7.866
			c0.195-0.195,0.512-0.195,0.707,0s0.195,0.512,0,0.707l-7.594,7.593c1.35,2.447,1.141,5.261-0.556,6.957
			c-0.26,0.26-0.55,0.49-0.863,0.683c-0.788,0.486-2.139,1.559-2.34,3.288c-0.171,1.471-0.783,2.77-1.768,3.755
			C12.86,32.405,11.216,32.999,9.468,32.999z"/>
		<path d="M28.588,8.186c-0.128,0-0.256-0.049-0.354-0.146c-0.195-0.195-0.195-0.512,0-0.707l3.562-3.562l-2.559-2.559l-3.562,3.562
			c-0.195,0.195-0.512,0.195-0.707,0s-0.195-0.512,0-0.707l3.916-3.915c0.195-0.195,0.512-0.195,0.707,0l3.266,3.266
			c0.195,0.195,0.195,0.512,0,0.707l-3.915,3.915C28.844,8.137,28.716,8.186,28.588,8.186z"/>
		<path d="M24.442,6.653c-0.128,0-0.256-0.049-0.354-0.146c-0.195-0.195-0.195-0.512,0-0.707c0.671-0.671,0.733-1.383,0.735-1.414
			c0.021-0.274,0.254-0.48,0.533-0.463c0.273,0.019,0.481,0.252,0.465,0.526c-0.002,0.044-0.075,1.106-1.026,2.058
			C24.698,6.604,24.57,6.653,24.442,6.653z"/>
		<path d="M26.854,9.066c-0.128,0-0.256-0.049-0.354-0.146c-0.195-0.195-0.195-0.512,0-0.707c0.952-0.952,2.014-1.024,2.058-1.026
			c0.283-0.012,0.513,0.194,0.528,0.47c0.016,0.275-0.192,0.51-0.466,0.528c-0.04,0.003-0.747,0.069-1.413,0.735
			C27.11,9.018,26.982,9.066,26.854,9.066z"/>
	</g>
	<path d="M32.19,5.89c-0.128,0-0.256-0.049-0.354-0.146L31.184,5.09c-0.195-0.195-0.195-0.512,0-0.707s0.512-0.195,0.707,0
		l0.653,0.653c0.195,0.195,0.195,0.512,0,0.707C32.446,5.841,32.318,5.89,32.19,5.89z"/>
	<path d="M30.514,7.567c-0.128,0-0.256-0.049-0.354-0.146l-0.653-0.653c-0.195-0.195-0.195-0.512,0-0.707s0.512-0.195,0.707,0
		l0.653,0.653c0.195,0.195,0.195,0.512,0,0.707C30.769,7.518,30.642,7.567,30.514,7.567z"/>
	<path d="M28.271,1.971c-0.128,0-0.256-0.049-0.354-0.146l-0.654-0.654c-0.195-0.195-0.195-0.512,0-0.707s0.512-0.195,0.707,0
		l0.654,0.654c0.195,0.195,0.195,0.512,0,0.707C28.527,1.922,28.399,1.971,28.271,1.971z"/>
	<path d="M26.595,3.648c-0.128,0-0.256-0.049-0.354-0.146l-0.653-0.654c-0.195-0.195-0.195-0.512,0-0.707
		c0.195-0.195,0.512-0.195,0.707,0l0.653,0.654c0.195,0.195,0.195,0.512,0,0.707C26.851,3.599,26.723,3.648,26.595,3.648z"/>
	<path d="M10.584,25.392c-0.763,0-1.526-0.291-2.106-0.871c-0.562-0.563-0.873-1.311-0.873-2.106c0-0.795,0.31-1.544,0.873-2.106
		c1.161-1.161,3.052-1.161,4.213,0c0.563,0.563,0.873,1.311,0.873,2.106c0,0.796-0.31,1.544-0.873,2.106l0,0l0,0
		C12.11,25.102,11.347,25.392,10.584,25.392z M10.584,20.437c-0.507,0-1.014,0.192-1.399,0.578c-0.374,0.374-0.58,0.871-0.58,1.399
		c0,0.529,0.206,1.026,0.58,1.399c0.771,0.771,2.027,0.771,2.799,0l0,0c0.374-0.374,0.58-0.871,0.58-1.399
		c0-0.528-0.206-1.025-0.58-1.399C11.598,20.629,11.091,20.437,10.584,20.437z"/>
</g>
<g>
</g>
<g>
</g>
<g>
</g>
<g>
</g>
<g>
</g>
<g>
</g>
<g>
</g>
<g>
</g>
<g>
</g>
<g>
</g>
<g>
</g>
<g>
</g>
<g>
</g>
<g>
</g>
<g>
</g>
</svg>
