<?xml version="1.0" encoding="iso-8859-1"?>
<!-- Generator: Adobe Illustrator 19.0.0, SVG Export Plug-In . SVG Version: 6.00 Build 0)  -->
<svg version="1.1" id="Capa_1" xmlns="http://www.w3.org/2000/svg" xmlns:xlink="http://www.w3.org/1999/xlink" x="0px" y="0px"
	 viewBox="0 0 33 33" style="enable-background:new 0 0 33 33;" xml:space="preserve">
<g>
	<path d="M16.5,33C7.402,33,0,25.598,0,16.5S7.402,0,16.5,0S33,7.402,33,16.5S25.598,33,16.5,33z M16.5,1C7.953,1,1,7.953,1,16.5
		S7.953,32,16.5,32S32,25.047,32,16.5S25.047,1,16.5,1z"/>
	<path d="M16.499,24.089c-2.378,0-4.755-0.652-6.876-1.958l-0.396-0.244c-0.235-0.146-0.308-0.453-0.164-0.688
		s0.452-0.308,0.688-0.163l0.396,0.244c3.919,2.413,8.786,2.414,12.704-0.001l0.396-0.245c0.235-0.144,0.544-0.072,0.688,0.163
		c0.145,0.235,0.072,0.543-0.163,0.688l-0.397,0.245C21.255,23.436,18.877,24.089,16.499,24.089z"/>
	<g>
		<path d="M14.132,13.35c-0.128,0-0.256-0.049-0.354-0.146l-1.968-1.968l-1.968,1.968c-0.195,0.195-0.512,0.195-0.707,0
			s-0.195-0.512,0-0.707l2.321-2.321c0.195-0.195,0.512-0.195,0.707,0l2.321,2.321c0.195,0.195,0.195,0.512,0,0.707
			C14.388,13.301,14.26,13.35,14.132,13.35z"/>
		<path d="M23.511,13.35c-0.128,0-0.256-0.049-0.354-0.146l-1.968-1.968l-1.968,1.968c-0.195,0.195-0.512,0.195-0.707,0
			s-0.195-0.512,0-0.707l2.321-2.321c0.195-0.195,0.512-0.195,0.707,0l2.321,2.321c0.195,0.195,0.195,0.512,0,0.707
			C23.767,13.301,23.639,13.35,23.511,13.35z"/>
	</g>
</g>
<g>
</g>
<g>
</g>
<g>
</g>
<g>
</g>
<g>
</g>
<g>
</g>
<g>
</g>
<g>
</g>
<g>
</g>
<g>
</g>
<g>
</g>
<g>
</g>
<g>
</g>
<g>
</g>
<g>
</g>
</svg>
