<?xml version="1.0" encoding="iso-8859-1"?>
<!-- Generator: Adobe Illustrator 19.0.0, SVG Export Plug-In . SVG Version: 6.00 Build 0)  -->
<svg version="1.1" id="Capa_1" xmlns="http://www.w3.org/2000/svg" xmlns:xlink="http://www.w3.org/1999/xlink" x="0px" y="0px"
	 viewBox="0 0 33 33" style="enable-background:new 0 0 33 33;" xml:space="preserve">
<g>
	<path d="M16.5,33C7.402,33,0,25.598,0,16.5S7.402,0,16.5,0S33,7.402,33,16.5S25.598,33,16.5,33z M16.5,1C7.953,1,1,7.953,1,16.5
		S7.953,32,16.5,32S32,25.047,32,16.5S25.047,1,16.5,1z"/>
	<path d="M18.626,25.877c-0.276,0-0.5-0.224-0.5-0.5s0.224-0.5,0.5-0.5c3.255,0,5.902-2.647,5.902-5.902c0-0.276,0.224-0.5,0.5-0.5
		s0.5,0.224,0.5,0.5C25.528,22.78,22.432,25.877,18.626,25.877z"/>
	<circle cx="11.702" cy="11.93" r="2.125"/>
	<circle cx="21.827" cy="11.93" r="2.125"/>
</g>
<g>
</g>
<g>
</g>
<g>
</g>
<g>
</g>
<g>
</g>
<g>
</g>
<g>
</g>
<g>
</g>
<g>
</g>
<g>
</g>
<g>
</g>
<g>
</g>
<g>
</g>
<g>
</g>
<g>
</g>
</svg>
