<?xml version="1.0" encoding="iso-8859-1"?>
<!-- Generator: Adobe Illustrator 19.0.0, SVG Export Plug-In . SVG Version: 6.00 Build 0)  -->
<svg version="1.1" id="Capa_1" xmlns="http://www.w3.org/2000/svg" xmlns:xlink="http://www.w3.org/1999/xlink" x="0px" y="0px"
	 viewBox="0 0 33 33" style="enable-background:new 0 0 33 33;" xml:space="preserve">
<g>
	<path d="M28.104,15.026c-0.052,0-0.104-0.008-0.157-0.025c-0.262-0.087-0.405-0.369-0.318-0.632
		c0.338-1.023,0.509-2.096,0.509-3.188C28.138,5.568,23.57,1,17.956,1S7.774,5.568,7.774,11.182c0,0.276-0.224,0.5-0.5,0.5
		s-0.5-0.224-0.5-0.5C6.774,5.016,11.79,0,17.956,0c6.166,0,11.182,5.016,11.182,11.182c0,1.198-0.188,2.376-0.559,3.501
		C28.51,14.893,28.314,15.026,28.104,15.026z"/>
	<path d="M15.481,33c-0.135,0-0.265-0.055-0.359-0.152c-0.102-0.105-0.153-0.25-0.139-0.396c0.12-1.262-0.974-4.377-1.539-5.819
		H8.514c-0.974,0-1.766-0.792-1.766-1.766v-5.194H4.362c-0.192,0-0.367-0.11-0.451-0.283c-0.083-0.173-0.06-0.379,0.06-0.529
		c0.568-0.71,2.802-6.224,2.802-7.68c0-0.276,0.224-0.5,0.5-0.5s0.5,0.224,0.5,0.5c0,1.353-1.576,5.583-2.542,7.492h2.017
		c0.276,0,0.5,0.224,0.5,0.5v5.694c0,0.422,0.343,0.766,0.766,0.766h5.27c0.203,0,0.386,0.123,0.463,0.312
		c0.177,0.435,1.597,3.971,1.734,6.012c4.806-0.47,10.69-3.102,12.078-4.26c-1.476-4.223-1.62-8.575-0.44-13.292
		c0.067-0.269,0.336-0.434,0.606-0.364c0.268,0.067,0.431,0.338,0.364,0.606c-1.157,4.631-0.987,8.888,0.52,13.013
		c0.062,0.169,0.027,0.359-0.09,0.497c-1.186,1.384-8.186,4.499-13.504,4.842C15.503,33,15.492,33,15.481,33z"/>
</g>
<g>
</g>
<g>
</g>
<g>
</g>
<g>
</g>
<g>
</g>
<g>
</g>
<g>
</g>
<g>
</g>
<g>
</g>
<g>
</g>
<g>
</g>
<g>
</g>
<g>
</g>
<g>
</g>
<g>
</g>
</svg>
