<?xml version="1.0" encoding="iso-8859-1"?>
<!-- Generator: Adobe Illustrator 19.0.0, SVG Export Plug-In . SVG Version: 6.00 Build 0)  -->
<svg version="1.1" id="Capa_1" xmlns="http://www.w3.org/2000/svg" xmlns:xlink="http://www.w3.org/1999/xlink" x="0px" y="0px"
	 viewBox="0 0 30.453 30.453" style="enable-background:new 0 0 30.453 30.453;" xml:space="preserve">
<g>
	<path d="M7.374,20.361c-0.276,0-0.5-0.224-0.5-0.5V3.5c0-1.93,1.481-3.5,3.303-3.5s3.303,1.57,3.303,3.5v10.637
		c0,0.276-0.224,0.5-0.5,0.5s-0.5-0.224-0.5-0.5V3.5c0-1.378-1.033-2.5-2.303-2.5S7.874,2.122,7.874,3.5v16.361
		C7.874,20.138,7.65,20.361,7.374,20.361z"/>
	<path d="M9.539,30.453c-0.128,0-0.256-0.049-0.354-0.146l-7.412-7.412c-0.824-0.824-1.377-1.835-1.555-2.846
		c-0.189-1.077,0.062-2.025,0.708-2.67c1.287-1.288,3.416-1.256,4.745,0.074l2.056,2.056c0.195,0.195,0.195,0.512,0,0.707
		s-0.512,0.195-0.707,0l-2.056-2.056c-0.94-0.939-2.435-0.972-3.331-0.074c-0.409,0.409-0.562,1.044-0.431,1.79
		c0.144,0.811,0.597,1.632,1.277,2.313L9.893,29.6c0.195,0.195,0.195,0.512,0,0.707C9.795,30.404,9.667,30.453,9.539,30.453z"/>
	<path d="M18.586,15.209c-0.276,0-0.5-0.224-0.5-0.5v-2.563c0-1.138-1.033-2.063-2.303-2.063c-1.271,0-2.304,0.925-2.304,2.063
		v2.563c0,0.276-0.224,0.5-0.5,0.5s-0.5-0.224-0.5-0.5v-2.563c0-1.689,1.482-3.063,3.304-3.063s3.303,1.374,3.303,3.063v2.563
		C19.086,14.985,18.862,15.209,18.586,15.209z"/>
	<path d="M24.19,15.209c-0.276,0-0.5-0.224-0.5-0.5v-2.27c0-0.959-1.054-1.77-2.302-1.77s-2.303,0.811-2.303,1.77v2.27
		c0,0.276-0.224,0.5-0.5,0.5s-0.5-0.224-0.5-0.5v-2.27c0-1.527,1.481-2.77,3.303-2.77c1.82,0,3.302,1.243,3.302,2.77v2.27
		C24.69,14.985,24.467,15.209,24.19,15.209z"/>
	<path d="M29.796,21.627c-0.276,0-0.5-0.224-0.5-0.5V6.25c0-1.378-1.033-2.5-2.303-2.5s-2.303,1.122-2.303,2.5v8.459
		c0,0.276-0.224,0.5-0.5,0.5s-0.5-0.224-0.5-0.5V6.25c0-1.93,1.481-3.5,3.303-3.5s3.303,1.57,3.303,3.5v14.877
		C30.296,21.403,30.072,21.627,29.796,21.627z"/>
	<path d="M25.796,30.449H9.578c-0.276,0-0.519-0.224-0.519-0.5s0.206-0.5,0.482-0.5h16.254c1.93,0,3.5-1.57,3.5-3.5v-5.396
		c0-0.276,0.224-0.5,0.5-0.5s0.5,0.224,0.5,0.5v5.396C30.296,28.431,28.277,30.449,25.796,30.449z"/>
</g>
<g>
</g>
<g>
</g>
<g>
</g>
<g>
</g>
<g>
</g>
<g>
</g>
<g>
</g>
<g>
</g>
<g>
</g>
<g>
</g>
<g>
</g>
<g>
</g>
<g>
</g>
<g>
</g>
<g>
</g>
</svg>
