<?xml version="1.0" encoding="iso-8859-1"?>
<!-- Generator: Adobe Illustrator 19.0.0, SVG Export Plug-In . SVG Version: 6.00 Build 0)  -->
<svg version="1.1" id="Capa_1" xmlns="http://www.w3.org/2000/svg" xmlns:xlink="http://www.w3.org/1999/xlink" x="0px" y="0px"
	 viewBox="0 0 33 33" style="enable-background:new 0 0 33 33;" xml:space="preserve">
<g>
	<path d="M27.813,31.617H5.186c-0.276,0-0.5-0.224-0.5-0.5V12.521c0-0.276,0.224-0.5,0.5-0.5s0.5,0.224,0.5,0.5v18.096h21.627
		V12.521c0-0.276,0.224-0.5,0.5-0.5s0.5,0.224,0.5,0.5v18.596C28.313,31.393,28.09,31.617,27.813,31.617z"/>
	<path d="M32.5,17.492c-0.123,0-0.247-0.045-0.344-0.136L16.499,2.57L0.844,17.355c-0.201,0.19-0.52,0.18-0.707-0.02
		c-0.189-0.201-0.181-0.517,0.02-0.707L16.155,1.519c0.193-0.183,0.494-0.182,0.688,0l16.001,15.109
		c0.2,0.19,0.209,0.506,0.02,0.707C32.765,17.439,32.633,17.492,32.5,17.492z"/>
	<path d="M20.491,31.617H12.51c-0.276,0-0.5-0.224-0.5-0.5V20.281c0-0.276,0.224-0.5,0.5-0.5h7.981c0.276,0,0.5,0.224,0.5,0.5
		v10.836C20.991,31.393,20.767,31.617,20.491,31.617z M13.01,30.617h6.981v-9.836H13.01V30.617z"/>
</g>
<g>
</g>
<g>
</g>
<g>
</g>
<g>
</g>
<g>
</g>
<g>
</g>
<g>
</g>
<g>
</g>
<g>
</g>
<g>
</g>
<g>
</g>
<g>
</g>
<g>
</g>
<g>
</g>
<g>
</g>
</svg>
