<?xml version="1.0" encoding="iso-8859-1"?>
<!-- Generator: Adobe Illustrator 19.0.0, SVG Export Plug-In . SVG Version: 6.00 Build 0)  -->
<svg version="1.1" id="Capa_1" xmlns="http://www.w3.org/2000/svg" xmlns:xlink="http://www.w3.org/1999/xlink" x="0px" y="0px"
	 viewBox="0 0 33 33" style="enable-background:new 0 0 33 33;" xml:space="preserve">
<g>
	<g>
		<path d="M27.812,32.548H5.187c-0.276,0-0.5-0.224-0.5-0.5V18.054c0-0.276,0.224-0.5,0.5-0.5s0.5,0.224,0.5,0.5v13.495h21.625
			V18.054c0-0.276,0.224-0.5,0.5-0.5s0.5,0.224,0.5,0.5v13.995C28.312,32.325,28.089,32.548,27.812,32.548z"/>
		<path d="M27.794,18.578c-0.123,0-0.247-0.045-0.343-0.136L16.5,8.103L5.554,18.442c-0.201,0.19-0.52,0.18-0.707-0.02
			c-0.189-0.201-0.181-0.517,0.02-0.707l11.29-10.663c0.193-0.183,0.495-0.182,0.687,0l11.294,10.663
			c0.201,0.19,0.21,0.506,0.021,0.707C28.059,18.526,27.927,18.578,27.794,18.578z"/>
	</g>
	<path d="M32.5,16.559c-0.123,0-0.247-0.045-0.344-0.136L16.5,1.639L0.844,16.423c-0.201,0.189-0.519,0.18-0.707-0.021
		c-0.189-0.201-0.181-0.517,0.02-0.707l16-15.108c0.193-0.182,0.494-0.182,0.688,0l16,15.108c0.2,0.19,0.209,0.506,0.02,0.707
		C32.765,16.507,32.633,16.559,32.5,16.559z"/>
	<path d="M20.491,32.548H12.51c-0.276,0-0.5-0.224-0.5-0.5V21.213c0-0.276,0.224-0.5,0.5-0.5h7.981c0.276,0,0.5,0.224,0.5,0.5
		v10.835C20.991,32.325,20.767,32.548,20.491,32.548z M13.01,31.548h6.981v-9.835H13.01V31.548z"/>
</g>
<g>
</g>
<g>
</g>
<g>
</g>
<g>
</g>
<g>
</g>
<g>
</g>
<g>
</g>
<g>
</g>
<g>
</g>
<g>
</g>
<g>
</g>
<g>
</g>
<g>
</g>
<g>
</g>
<g>
</g>
</svg>
