<?xml version="1.0" encoding="iso-8859-1"?>
<!-- Generator: Adobe Illustrator 19.0.0, SVG Export Plug-In . SVG Version: 6.00 Build 0)  -->
<svg version="1.1" id="Capa_1" xmlns="http://www.w3.org/2000/svg" xmlns:xlink="http://www.w3.org/1999/xlink" x="0px" y="0px"
	 viewBox="0 0 22.916 22.916" style="enable-background:new 0 0 22.916 22.916;" xml:space="preserve">
<g>
	<path d="M22.416,22.828H0.5c-0.276,0-0.5-0.224-0.5-0.5s0.224-0.5,0.5-0.5h21.916c0.276,0,0.5,0.224,0.5,0.5
		S22.692,22.828,22.416,22.828z"/>
	<path d="M22.416,15.582H0.5c-0.276,0-0.5-0.224-0.5-0.5s0.224-0.5,0.5-0.5h21.916c0.276,0,0.5,0.224,0.5,0.5
		S22.692,15.582,22.416,15.582z"/>
	<path d="M22.416,8.335H0.5c-0.276,0-0.5-0.224-0.5-0.5s0.224-0.5,0.5-0.5h21.916c0.276,0,0.5,0.224,0.5,0.5
		S22.692,8.335,22.416,8.335z"/>
	<path d="M22.416,1.088H0.5c-0.276,0-0.5-0.224-0.5-0.5s0.224-0.5,0.5-0.5h21.916c0.276,0,0.5,0.224,0.5,0.5
		S22.692,1.088,22.416,1.088z"/>
</g>
<g>
</g>
<g>
</g>
<g>
</g>
<g>
</g>
<g>
</g>
<g>
</g>
<g>
</g>
<g>
</g>
<g>
</g>
<g>
</g>
<g>
</g>
<g>
</g>
<g>
</g>
<g>
</g>
<g>
</g>
</svg>
