<?xml version="1.0" encoding="iso-8859-1"?>
<!-- Generator: Adobe Illustrator 19.0.0, SVG Export Plug-In . SVG Version: 6.00 Build 0)  -->
<svg version="1.1" id="Capa_1" xmlns="http://www.w3.org/2000/svg" xmlns:xlink="http://www.w3.org/1999/xlink" x="0px" y="0px"
	 viewBox="0 0 33 33" style="enable-background:new 0 0 33 33;" xml:space="preserve">
<g>
	<g>
		<g>
			<path d="M28.136,28.346H4.864c-0.24,0-0.446-0.17-0.491-0.405L0.009,5.25c-0.052-0.271,0.125-0.533,0.397-0.586
				C0.674,4.612,0.939,4.789,0.991,5.06l4.286,22.285h22.446L32.009,5.06c0.053-0.271,0.315-0.445,0.585-0.396
				c0.271,0.053,0.449,0.314,0.397,0.586l-4.364,22.69C28.582,28.176,28.376,28.346,28.136,28.346z"/>
			<path d="M24.057,11.219c-2.016,0-3.033-0.538-4.017-1.058c-0.917-0.484-1.783-0.942-3.551-0.942
				c-1.766,0-2.631,0.458-3.547,0.942c-0.455,0.24-0.926,0.489-1.508,0.686c-0.753,0.254-1.549,0.372-2.507,0.372
				c-2.016,0-3.033-0.538-4.017-1.058C3.994,9.677,3.129,9.219,1.362,9.219c-0.276,0-0.5-0.224-0.5-0.5s0.224-0.5,0.5-0.5
				c2.015,0,3.032,0.538,4.016,1.058c0.916,0.484,1.781,0.942,3.549,0.942c0.846,0,1.541-0.102,2.188-0.319
				c0.505-0.171,0.92-0.39,1.36-0.622c0.983-0.521,2-1.059,4.014-1.059c2.016,0,3.034,0.538,4.018,1.058
				c0.917,0.484,1.782,0.942,3.55,0.942c0.252,0,0.486-0.009,0.705-0.026c1.311-0.104,2.057-0.499,2.846-0.916
				c0.984-0.52,2.001-1.058,4.018-1.058c0.276,0,0.5,0.224,0.5,0.5s-0.224,0.5-0.5,0.5c-1.768,0-2.634,0.458-3.55,0.942
				c-0.844,0.445-1.717,0.907-3.233,1.027C24.597,11.208,24.337,11.219,24.057,11.219z"/>
		</g>
	</g>
	<g>
		<path d="M11.397,15.572c0.513-0.17,0.983-0.256,1.54-0.256c1.508,0,2.428,0.76,2.428,2.032c0,0.737-0.299,1.208-0.941,1.508
			c-0.106,0.054-0.106,0.118,0,0.161c0.792,0.32,1.177,0.983,1.177,1.828c0,1.348-1.016,2.172-2.663,2.172
			c-0.62,0-1.166-0.129-1.69-0.289l-0.631-0.203c-0.075-0.031-0.106-0.086-0.075-0.16l0.289-0.781
			c0.032-0.074,0.086-0.096,0.15-0.074l0.609,0.203c0.438,0.139,0.92,0.225,1.348,0.225c0.898,0,1.465-0.471,1.465-1.22
			s-0.523-1.208-1.422-1.208h-0.514c-0.075,0-0.117-0.043-0.117-0.118v-0.823c0-0.075,0.042-0.118,0.117-0.118h0.503
			c0.759,0,1.198-0.396,1.198-0.983c0-0.674-0.481-1.081-1.23-1.081c-0.449,0-0.823,0.085-1.209,0.203l-0.534,0.183
			c-0.064,0.021-0.118-0.012-0.15-0.076l-0.268-0.791c-0.031-0.074,0-0.129,0.075-0.149L11.397,15.572z"/>
		<path d="M22.485,19.167c0,2.374-1.08,3.851-2.866,3.851c-1.775,0-2.855-1.477-2.855-3.851s1.08-3.851,2.855-3.851
			C21.404,15.316,22.485,16.793,22.485,19.167z M17.971,19.167c0,1.743,0.61,2.771,1.647,2.771c1.048,0,1.658-1.027,1.658-2.771
			c0-1.733-0.61-2.781-1.658-2.781C18.581,16.386,17.971,17.433,17.971,19.167z"/>
	</g>
	<g>
		<path d="M26.061,16.959c0,0.971-0.548,1.581-1.432,1.581c-0.891,0-1.438-0.61-1.438-1.581c0-0.959,0.548-1.568,1.438-1.568
			C25.513,15.39,26.061,16,26.061,16.959z M23.876,16.959c0,0.598,0.28,0.953,0.754,0.953c0.46,0,0.747-0.355,0.747-0.953
			c0-0.592-0.287-0.946-0.747-0.946C24.156,16.013,23.876,16.367,23.876,16.959z"/>
	</g>
</g>
<g>
</g>
<g>
</g>
<g>
</g>
<g>
</g>
<g>
</g>
<g>
</g>
<g>
</g>
<g>
</g>
<g>
</g>
<g>
</g>
<g>
</g>
<g>
</g>
<g>
</g>
<g>
</g>
<g>
</g>
</svg>
