<?xml version="1.0" encoding="iso-8859-1"?>
<!-- Generator: Adobe Illustrator 19.0.0, SVG Export Plug-In . SVG Version: 6.00 Build 0)  -->
<svg version="1.1" id="Capa_1" xmlns="http://www.w3.org/2000/svg" xmlns:xlink="http://www.w3.org/1999/xlink" x="0px" y="0px"
	 viewBox="0 0 33 33" style="enable-background:new 0 0 33 33;" xml:space="preserve">
<g>
	<g>
		<path d="M28.137,28.346H4.864c-0.239,0-0.445-0.17-0.491-0.405L0.009,5.25c-0.052-0.271,0.126-0.533,0.396-0.586
			c0.268-0.049,0.533,0.124,0.586,0.396l4.286,22.285h22.446l4.285-22.285c0.052-0.271,0.312-0.446,0.586-0.396
			c0.271,0.053,0.448,0.314,0.396,0.586l-4.363,22.69C28.582,28.176,28.376,28.346,28.137,28.346z"/>
		<path d="M23.702,11.219c-1.957,0-2.943-0.54-3.898-1.062c-0.883-0.482-1.716-0.938-3.417-0.938c-1.7,0-2.534,0.456-3.416,0.938
			c-0.954,0.522-1.94,1.062-3.896,1.062c-1.956,0-2.942-0.539-3.896-1.062C4.297,9.675,3.463,9.219,1.763,9.219
			c-0.276,0-0.5-0.224-0.5-0.5s0.224-0.5,0.5-0.5c1.956,0,2.942,0.539,3.896,1.062c0.882,0.482,1.716,0.938,3.416,0.938
			c1.699,0,2.533-0.456,3.415-0.938c0.954-0.521,1.94-1.062,3.896-1.062s2.943,0.539,3.897,1.062
			c0.883,0.482,1.717,0.938,3.418,0.938s2.534-0.456,3.417-0.938c0.955-0.521,1.941-1.062,3.898-1.062c0.276,0,0.5,0.224,0.5,0.5
			s-0.224,0.5-0.5,0.5c-1.701,0-2.535,0.456-3.418,0.938C26.646,10.68,25.658,11.219,23.702,11.219z"/>
	</g>
	<path d="M27.75,31.375c-0.148,0-0.295-0.065-0.394-0.191l-22.5-28.75c-0.17-0.218-0.132-0.532,0.085-0.702
		c0.218-0.168,0.531-0.133,0.702,0.085l22.5,28.75c0.17,0.218,0.132,0.532-0.085,0.702C27.967,31.34,27.859,31.375,27.75,31.375z"/>
	<path d="M5.25,31.375c-0.108,0-0.217-0.035-0.309-0.106c-0.217-0.17-0.255-0.484-0.085-0.702l22.5-28.75
		c0.171-0.218,0.484-0.254,0.702-0.085c0.217,0.17,0.255,0.484,0.085,0.702l-22.5,28.75C5.545,31.31,5.399,31.375,5.25,31.375z"/>
</g>
<g>
</g>
<g>
</g>
<g>
</g>
<g>
</g>
<g>
</g>
<g>
</g>
<g>
</g>
<g>
</g>
<g>
</g>
<g>
</g>
<g>
</g>
<g>
</g>
<g>
</g>
<g>
</g>
<g>
</g>
</svg>
