<?xml version="1.0" encoding="iso-8859-1"?>
<!-- Generator: Adobe Illustrator 19.0.0, SVG Export Plug-In . SVG Version: 6.00 Build 0)  -->
<svg version="1.1" id="Capa_1" xmlns="http://www.w3.org/2000/svg" xmlns:xlink="http://www.w3.org/1999/xlink" x="0px" y="0px"
	 viewBox="0 0 25.203 25.203" style="enable-background:new 0 0 25.203 25.203;" xml:space="preserve">
<g>
	<path d="M11.318,25.203c-1.777,0-3.571-0.425-5.233-1.297c-0.362-0.19-0.829-0.109-1.134,0.197
		c-1.156,1.155-2.971,1.157-4.087,0.041c-1.116-1.115-1.116-2.931,0-4.046l0.12-0.12c0.302-0.302,0.385-0.748,0.208-1.109
		C-0.93,14.55-0.072,9.366,3.326,5.967L5.94,3.354c3.398-3.399,8.585-4.256,12.901-2.137c0.363,0.179,0.809,0.095,1.111-0.207
		l0.2-0.2c1.08-1.08,2.966-1.08,4.046,0c0.541,0.54,0.838,1.259,0.838,2.022c0,0.765-0.298,1.483-0.838,2.023l-0.122,0.122
		C23.771,5.284,23.69,5.75,23.88,6.112c2.297,4.379,1.489,9.672-2.01,13.172l-2.614,2.613
		C17.085,24.068,14.223,25.203,11.318,25.203z M5.678,22.808c0.301,0,0.6,0.07,0.871,0.213c3.989,2.092,8.811,1.357,12-1.831
		l2.614-2.613c3.188-3.188,3.924-8.011,1.831-12c-0.397-0.757-0.247-1.684,0.375-2.307l0.122-0.122
		c0.351-0.351,0.545-0.817,0.545-1.315c0-0.497-0.194-0.964-0.545-1.315c-0.703-0.703-1.929-0.703-2.632,0l-0.2,0.2
		c-0.605,0.604-1.512,0.765-2.259,0.398C14.467,0.184,9.743,0.964,6.647,4.061L4.033,6.674C0.938,9.77,0.156,14.494,2.089,18.427
		c0.367,0.746,0.207,1.654-0.398,2.259l-0.12,0.12c-0.725,0.725-0.725,1.905,0,2.631c0.726,0.725,1.906,0.725,2.632,0
		C4.618,23.022,5.153,22.808,5.678,22.808z"/>
	<path d="M12.944,21.404c-0.14,0-0.26-0.06-0.36-0.149c-0.09-0.09-0.14-0.221-0.14-0.351c0-0.14,0.05-0.26,0.14-0.359
		c0.2-0.19,0.51-0.181,0.7-0.011c0.11,0.12,0.16,0.24,0.16,0.37c0,0.12-0.06,0.25-0.15,0.351
		C13.194,21.354,13.064,21.404,12.944,21.404z"/>
	<path d="M15.254,19.084c-0.13,0-0.26-0.051-0.35-0.141c-0.1-0.1-0.15-0.229-0.15-0.359s0.05-0.261,0.14-0.351
		c0.2-0.2,0.51-0.189,0.71-0.01c0.1,0.1,0.15,0.23,0.15,0.36s-0.05,0.26-0.14,0.35C15.504,19.034,15.384,19.084,15.254,19.084z"/>
	<path d="M17.574,16.774c-0.14,0-0.26-0.06-0.36-0.149c-0.09-0.091-0.14-0.221-0.14-0.36c0-0.13,0.05-0.25,0.14-0.35
		c0.2-0.19,0.52-0.19,0.71,0c0.1,0.1,0.15,0.22,0.15,0.35c0,0.14-0.06,0.26-0.15,0.36C17.834,16.714,17.704,16.774,17.574,16.774z"
		/>
	<path d="M12.024,18.444c-0.13,0-0.26-0.06-0.35-0.149c-0.1-0.09-0.15-0.221-0.15-0.36c0-0.13,0.05-0.25,0.14-0.35
		c0.2-0.19,0.52-0.19,0.71,0c0.1,0.1,0.15,0.22,0.15,0.35c0,0.14-0.05,0.26-0.15,0.36C12.284,18.384,12.154,18.444,12.024,18.444z"
		/>
	<path d="M14.344,16.125c-0.13,0-0.26-0.051-0.36-0.15c-0.09-0.09-0.14-0.22-0.14-0.35c0-0.141,0.05-0.271,0.14-0.36
		c0.19-0.18,0.52-0.18,0.71,0c0.09,0.1,0.15,0.22,0.15,0.36c0,0.13-0.06,0.26-0.15,0.35C14.594,16.074,14.474,16.125,14.344,16.125z
		"/>
</g>
<g>
</g>
<g>
</g>
<g>
</g>
<g>
</g>
<g>
</g>
<g>
</g>
<g>
</g>
<g>
</g>
<g>
</g>
<g>
</g>
<g>
</g>
<g>
</g>
<g>
</g>
<g>
</g>
<g>
</g>
</svg>
