<?xml version="1.0" encoding="iso-8859-1"?>
<!-- Generator: Adobe Illustrator 19.0.0, SVG Export Plug-In . SVG Version: 6.00 Build 0)  -->
<svg version="1.1" id="Capa_1" xmlns="http://www.w3.org/2000/svg" xmlns:xlink="http://www.w3.org/1999/xlink" x="0px" y="0px"
	 viewBox="0 0 33 33" style="enable-background:new 0 0 33 33;" xml:space="preserve">
<g>
	<path d="M21.044,33H8.531c-0.254,0-0.468-0.19-0.497-0.443L5.445,9.902c-0.016-0.142,0.029-0.283,0.124-0.39
		s0.23-0.167,0.373-0.167h17.691c0.143,0,0.278,0.061,0.373,0.167s0.14,0.248,0.124,0.39l-2.589,22.654
		C21.512,32.81,21.298,33,21.044,33z M8.977,32h11.621l2.475-21.654H6.502L8.977,32z"/>
	<path d="M23.07,15.275H6.581c-0.276,0-0.5-0.224-0.5-0.5s0.224-0.5,0.5-0.5H23.07c0.276,0,0.5,0.224,0.5,0.5
		S23.346,15.275,23.07,15.275z"/>
	<path d="M14.121,22.354h-3.09c-0.276,0-0.5-0.224-0.5-0.5v-3.089c0-0.276,0.224-0.5,0.5-0.5h3.09c0.276,0,0.5,0.224,0.5,0.5v3.089
		C14.621,22.131,14.397,22.354,14.121,22.354z M11.531,21.354h2.09v-2.089h-2.09V21.354z"/>
	<path d="M17.726,28.635c-0.089,0-0.179-0.023-0.26-0.073l-2.639-1.606c-0.236-0.144-0.311-0.451-0.167-0.687l1.606-2.639
		c0.144-0.237,0.451-0.311,0.687-0.167l2.639,1.606c0.236,0.144,0.311,0.451,0.167,0.687l-1.606,2.639
		C18.059,28.55,17.894,28.635,17.726,28.635z M15.775,26.361l1.784,1.086l1.086-1.784l-1.784-1.086L15.775,26.361z"/>
	<path d="M23.66,15.899c-0.197,0-0.393-0.009-0.586-0.026c-0.274-0.026-0.477-0.27-0.451-0.545c0.026-0.274,0.26-0.464,0.545-0.451
		c0.162,0.016,0.326,0.022,0.492,0.022c2.877,0,5.218-2.34,5.218-5.217s-2.341-5.218-5.218-5.218s-5.217,2.341-5.217,5.218
		c0,0.276-0.224,0.5-0.5,0.5s-0.5-0.224-0.5-0.5c0-3.429,2.789-6.218,6.217-6.218c3.429,0,6.218,2.789,6.218,6.218
		C29.877,13.11,27.088,15.899,23.66,15.899z"/>
	<path d="M11.03,10.183c-0.238,0-0.45-0.172-0.492-0.415L9.027,1H3.623c-0.276,0-0.5-0.224-0.5-0.5S3.346,0,3.623,0h5.825
		c0.243,0,0.451,0.175,0.493,0.415l1.583,9.183c0.047,0.272-0.136,0.531-0.408,0.578C11.087,10.181,11.058,10.183,11.03,10.183z"/>
	<path d="M23.633,10.346c-0.276,0-0.5-0.224-0.5-0.5V3.965c0-0.276,0.224-0.5,0.5-0.5s0.5,0.224,0.5,0.5v5.881
		C24.133,10.122,23.91,10.346,23.633,10.346z"/>
	<path d="M27.687,14.21c-0.128,0-0.256-0.049-0.354-0.146L19.28,6.009c-0.195-0.195-0.195-0.512,0-0.707s0.512-0.195,0.707,0
		l8.054,8.055c0.195,0.195,0.195,0.512,0,0.707C27.943,14.161,27.815,14.21,27.687,14.21z"/>
	<path d="M23.633,10.346c-0.128,0-0.256-0.049-0.354-0.146c-0.195-0.195-0.195-0.512,0-0.707l4.078-4.078
		c0.195-0.195,0.512-0.195,0.707,0s0.195,0.512,0,0.707l-4.078,4.078C23.889,10.297,23.761,10.346,23.633,10.346z"/>
	<path d="M29.377,10.183h-5.744c-0.276,0-0.5-0.224-0.5-0.5s0.224-0.5,0.5-0.5h5.744c0.276,0,0.5,0.224,0.5,0.5
		S29.654,10.183,29.377,10.183z"/>
</g>
<g>
</g>
<g>
</g>
<g>
</g>
<g>
</g>
<g>
</g>
<g>
</g>
<g>
</g>
<g>
</g>
<g>
</g>
<g>
</g>
<g>
</g>
<g>
</g>
<g>
</g>
<g>
</g>
<g>
</g>
</svg>
