<?xml version="1.0" encoding="iso-8859-1"?>
<!-- Generator: Adobe Illustrator 19.0.0, SVG Export Plug-In . SVG Version: 6.00 Build 0)  -->
<svg version="1.1" id="Capa_1" xmlns="http://www.w3.org/2000/svg" xmlns:xlink="http://www.w3.org/1999/xlink" x="0px" y="0px"
	 viewBox="0 0 33 33" style="enable-background:new 0 0 33 33;" xml:space="preserve">
<g>
	<path d="M20.626,33h-8.253c-0.276,0-0.5-0.224-0.5-0.5v-9.701H11.76c-1.47,0-2.665-1.195-2.665-2.665v-6.442
		c0-1.47,1.195-2.665,2.665-2.665h9.479c1.47,0,2.665,1.195,2.665,2.665v6.442c0,1.469-1.195,2.665-2.665,2.665h-0.113V32.5
		C21.126,32.776,20.903,33,20.626,33z M12.874,32h7.253v-9.701c0-0.276,0.224-0.5,0.5-0.5h0.613c0.918,0,1.665-0.747,1.665-1.665
		v-6.442c0-0.918-0.747-1.665-1.665-1.665H11.76c-0.918,0-1.665,0.747-1.665,1.665v6.442c0,0.918,0.747,1.665,1.665,1.665h0.613
		c0.276,0,0.5,0.224,0.5,0.5V32z"/>
	<path d="M16.5,9.862c-2.719,0-4.931-2.212-4.931-4.931S13.781,0,16.5,0c2.72,0,4.932,2.212,4.932,4.931S19.219,9.862,16.5,9.862z
		 M16.5,1c-2.167,0-3.931,1.764-3.931,3.931s1.764,3.931,3.931,3.931c2.168,0,3.932-1.764,3.932-3.931S18.667,1,16.5,1z"/>
</g>
<g>
</g>
<g>
</g>
<g>
</g>
<g>
</g>
<g>
</g>
<g>
</g>
<g>
</g>
<g>
</g>
<g>
</g>
<g>
</g>
<g>
</g>
<g>
</g>
<g>
</g>
<g>
</g>
<g>
</g>
</svg>
