<?xml version="1.0" encoding="iso-8859-1"?>
<!-- Generator: Adobe Illustrator 19.0.0, SVG Export Plug-In . SVG Version: 6.00 Build 0)  -->
<svg version="1.1" id="Capa_1" xmlns="http://www.w3.org/2000/svg" xmlns:xlink="http://www.w3.org/1999/xlink" x="0px" y="0px"
	 viewBox="0 0 36.822 36.822" style="enable-background:new 0 0 36.822 36.822;" xml:space="preserve">
<g>
	<g>
		<g>
			<g>
				<path d="M29.343,36.822H7.479c-1.378,0-2.5-1.122-2.5-2.5V6.029c0-1.378,1.122-2.5,2.5-2.5h3.682c0.276,0,0.5,0.224,0.5,0.5
					s-0.224,0.5-0.5,0.5H7.479c-0.827,0-1.5,0.673-1.5,1.5v28.293c0,0.827,0.673,1.5,1.5,1.5h21.863c0.827,0,1.5-0.673,1.5-1.5
					V6.029c0-0.827-0.673-1.5-1.5-1.5h-3.682c-0.276,0-0.5-0.224-0.5-0.5s0.224-0.5,0.5-0.5h3.682c1.378,0,2.5,1.122,2.5,2.5v28.293
					C31.843,35.701,30.721,36.822,29.343,36.822z"/>
			</g>
		</g>
		<path d="M25.661,8.396h-14.5c-0.276,0-0.5-0.224-0.5-0.5V2.688c0-0.276,0.224-0.5,0.5-0.5h4.609C16.005,0.944,17.1,0,18.411,0
			s2.406,0.944,2.641,2.188h4.609c0.276,0,0.5,0.224,0.5,0.5v5.209C26.161,8.173,25.938,8.396,25.661,8.396z M11.661,7.396h13.5
			V3.188h-4.563c-0.276,0-0.5-0.224-0.5-0.5C20.099,1.757,19.342,1,18.411,1s-1.688,0.757-1.688,1.688c0,0.276-0.224,0.5-0.5,0.5
			h-4.563V7.396z"/>
	</g>
	<path d="M16.661,27.356c-0.197,0-0.376-0.116-0.457-0.297l-2.368-5.33H9.661c-0.276,0-0.5-0.224-0.5-0.5s0.224-0.5,0.5-0.5h4.5
		c0.198,0,0.376,0.116,0.457,0.297l1.99,4.479l3.582-10.148c0.068-0.191,0.245-0.323,0.447-0.333
		c0.206-0.023,0.391,0.104,0.478,0.288l2.532,5.418h3.515c0.276,0,0.5,0.224,0.5,0.5s-0.224,0.5-0.5,0.5h-3.833
		c-0.194,0-0.371-0.112-0.453-0.288l-2.149-4.599l-3.593,10.181c-0.068,0.193-0.248,0.325-0.452,0.333
		C16.674,27.356,16.667,27.356,16.661,27.356z"/>
</g>
<g>
</g>
<g>
</g>
<g>
</g>
<g>
</g>
<g>
</g>
<g>
</g>
<g>
</g>
<g>
</g>
<g>
</g>
<g>
</g>
<g>
</g>
<g>
</g>
<g>
</g>
<g>
</g>
<g>
</g>
</svg>
