<?xml version="1.0" encoding="iso-8859-1"?>
<!-- Generator: Adobe Illustrator 19.0.0, SVG Export Plug-In . SVG Version: 6.00 Build 0)  -->
<svg version="1.1" id="Capa_1" xmlns="http://www.w3.org/2000/svg" xmlns:xlink="http://www.w3.org/1999/xlink" x="0px" y="0px"
	 viewBox="0 0 36.671 36.671" style="enable-background:new 0 0 36.671 36.671;" xml:space="preserve">
<g>
	<path d="M36.171,29.091H0.5c-0.276,0-0.5-0.224-0.5-0.5V8.08c0-0.276,0.224-0.5,0.5-0.5h35.671c0.276,0,0.5,0.224,0.5,0.5v20.512
		C36.671,28.868,36.447,29.091,36.171,29.091z M1,28.091h34.671V8.58H1V28.091z"/>
	<path d="M36.171,12.788c-2.596,0-4.708-2.112-4.708-4.708c0-0.276,0.224-0.5,0.5-0.5s0.5,0.224,0.5,0.5
		c0,2.045,1.664,3.708,3.708,3.708c0.276,0,0.5,0.224,0.5,0.5S36.447,12.788,36.171,12.788z"/>
	<path d="M31.962,29.091c-0.276,0-0.5-0.224-0.5-0.5c0-2.596,2.112-4.708,4.708-4.708c0.276,0,0.5,0.224,0.5,0.5s-0.224,0.5-0.5,0.5
		c-2.045,0-3.708,1.664-3.708,3.708C32.462,28.868,32.239,29.091,31.962,29.091z"/>
	<path d="M0.5,12.788c-0.276,0-0.5-0.224-0.5-0.5s0.224-0.5,0.5-0.5c2.045,0,3.708-1.664,3.708-3.708c0-0.276,0.224-0.5,0.5-0.5
		s0.5,0.224,0.5,0.5C5.208,10.676,3.096,12.788,0.5,12.788z"/>
	<path d="M4.708,29.091c-0.276,0-0.5-0.224-0.5-0.5c0-2.045-1.664-3.708-3.708-3.708c-0.276,0-0.5-0.224-0.5-0.5s0.224-0.5,0.5-0.5
		c2.596,0,4.708,2.112,4.708,4.708C5.208,28.868,4.985,29.091,4.708,29.091z"/>
	<g>
		<g>
			<path d="M18.546,23.579c-1.369,0-3.082-0.853-3.808-1.429c-0.216-0.171-0.253-0.486-0.081-0.702
				c0.172-0.216,0.486-0.253,0.702-0.081c0.625,0.495,2.119,1.212,3.187,1.212c1.039,0,2.576-0.555,2.576-1.748
				c0-1.065-1.047-1.485-2.415-1.923l-0.405-0.132c-1.082-0.364-3.332-1.123-3.332-2.945c0-1.761,1.37-2.944,3.408-2.944
				c2.054,0,3.342,1.055,3.396,1.1c0.212,0.177,0.241,0.492,0.063,0.704c-0.176,0.211-0.49,0.241-0.703,0.065
				c-0.02-0.016-1.087-0.869-2.757-0.869c-1.485,0-2.408,0.745-2.408,1.944c0,0.973,1.34,1.556,2.651,1.998l0.39,0.127
				c1.238,0.396,3.11,0.995,3.11,2.875C22.122,22.727,20.031,23.579,18.546,23.579z"/>
			<path d="M18.378,25.068c-0.276,0-0.5-0.224-0.5-0.5V12.151c0-0.276,0.224-0.5,0.5-0.5s0.5,0.224,0.5,0.5v12.417
				C18.878,24.844,18.654,25.068,18.378,25.068z"/>
		</g>
	</g>
</g>
<g>
</g>
<g>
</g>
<g>
</g>
<g>
</g>
<g>
</g>
<g>
</g>
<g>
</g>
<g>
</g>
<g>
</g>
<g>
</g>
<g>
</g>
<g>
</g>
<g>
</g>
<g>
</g>
<g>
</g>
</svg>
