<?xml version="1.0" encoding="iso-8859-1"?>
<!-- Generator: Adobe Illustrator 19.0.0, SVG Export Plug-In . SVG Version: 6.00 Build 0)  -->
<svg version="1.1" id="Capa_1" xmlns="http://www.w3.org/2000/svg" xmlns:xlink="http://www.w3.org/1999/xlink" x="0px" y="0px"
	 viewBox="0 0 33 33" style="enable-background:new 0 0 33 33;" xml:space="preserve">
<g>
	<path d="M30.5,26.109h-28c-1.378,0-2.5-1.121-2.5-2.5V4.61c0-1.379,1.122-2.5,2.5-2.5h28c1.378,0,2.5,1.121,2.5,2.5v18.999
		C33,24.988,31.878,26.109,30.5,26.109z M2.5,3.11C1.673,3.11,1,3.783,1,4.61v18.999c0,0.827,0.673,1.5,1.5,1.5h28
		c0.827,0,1.5-0.673,1.5-1.5V4.61c0-0.827-0.673-1.5-1.5-1.5H2.5z"/>
	<path d="M22.875,30.89h-12.75c-0.276,0-0.5-0.224-0.5-0.5s0.224-0.5,0.5-0.5h12.75c0.276,0,0.5,0.224,0.5,0.5
		S23.151,30.89,22.875,30.89z"/>
	<path d="M19.384,11.662c-0.934,0-1.693-0.759-1.693-1.692s0.759-1.692,1.693-1.692c0.933,0,1.692,0.759,1.692,1.692
		S20.317,11.662,19.384,11.662z M19.384,9.277c-0.382,0-0.693,0.311-0.693,0.692s0.311,0.692,0.693,0.692s0.692-0.311,0.692-0.692
		S19.766,9.277,19.384,9.277z"/>
	<path d="M19.384,18.978c-0.934,0-1.693-0.759-1.693-1.692s0.759-1.693,1.693-1.693c0.933,0,1.692,0.76,1.692,1.693
		S20.317,18.978,19.384,18.978z M19.384,16.592c-0.382,0-0.693,0.312-0.693,0.693s0.311,0.692,0.693,0.692s0.692-0.311,0.692-0.692
		S19.766,16.592,19.384,16.592z"/>
	<path d="M12.674,15.32c-0.933,0-1.692-0.759-1.692-1.692s0.759-1.692,1.692-1.692s1.692,0.759,1.692,1.692
		S13.607,15.32,12.674,15.32z M12.674,12.935c-0.382,0-0.692,0.311-0.692,0.692s0.311,0.692,0.692,0.692s0.692-0.311,0.692-0.692
		S13.056,12.935,12.674,12.935z"/>
	<path d="M13.741,13.594c-0.174,0-0.344-0.091-0.436-0.254c-0.136-0.24-0.052-0.545,0.188-0.682l4.578-2.593
		c0.242-0.137,0.546-0.052,0.682,0.189c0.136,0.24,0.052,0.545-0.188,0.682l-4.578,2.593C13.909,13.574,13.824,13.594,13.741,13.594
		z"/>
	<path d="M18.318,17.252c-0.083,0-0.168-0.021-0.246-0.064l-4.579-2.593c-0.24-0.137-0.325-0.441-0.188-0.682
		c0.136-0.241,0.44-0.325,0.682-0.189l4.579,2.593c0.24,0.137,0.325,0.441,0.188,0.682C18.662,17.162,18.492,17.252,18.318,17.252z"
		/>
	<path d="M16.5,30.89c-0.276,0-0.5-0.224-0.5-0.5v-4.781c0-0.276,0.224-0.5,0.5-0.5s0.5,0.224,0.5,0.5v4.781
		C17,30.667,16.776,30.89,16.5,30.89z"/>
</g>
<g>
</g>
<g>
</g>
<g>
</g>
<g>
</g>
<g>
</g>
<g>
</g>
<g>
</g>
<g>
</g>
<g>
</g>
<g>
</g>
<g>
</g>
<g>
</g>
<g>
</g>
<g>
</g>
<g>
</g>
</svg>
