<?xml version="1.0" encoding="iso-8859-1"?>
<!-- Generator: Adobe Illustrator 19.0.0, SVG Export Plug-In . SVG Version: 6.00 Build 0)  -->
<svg version="1.1" id="Capa_1" xmlns="http://www.w3.org/2000/svg" xmlns:xlink="http://www.w3.org/1999/xlink" x="0px" y="0px"
	 viewBox="0 0 33 33" style="enable-background:new 0 0 33 33;" xml:space="preserve">
<g>
	<path d="M30.5,26.109h-28c-1.378,0-2.5-1.121-2.5-2.5V4.61c0-1.379,1.122-2.5,2.5-2.5h28c1.378,0,2.5,1.121,2.5,2.5v18.999
		C33,24.988,31.878,26.109,30.5,26.109z M2.5,3.11C1.673,3.11,1,3.783,1,4.61v18.999c0,0.827,0.673,1.5,1.5,1.5h28
		c0.827,0,1.5-0.673,1.5-1.5V4.61c0-0.827-0.673-1.5-1.5-1.5H2.5z"/>
	<path d="M22.875,30.89h-12.75c-0.276,0-0.5-0.224-0.5-0.5s0.224-0.5,0.5-0.5h12.75c0.276,0,0.5,0.224,0.5,0.5
		S23.151,30.89,22.875,30.89z"/>
	<path d="M16.5,17.901L16.5,17.901c-0.276,0-0.5-0.224-0.5-0.5l0-7.196c0-0.276,0.224-0.5,0.5-0.5l0,0c0.276,0,0.5,0.224,0.5,0.5
		l0,7.196C17,17.677,16.775,17.901,16.5,17.901z"/>
	<path d="M19.672,13.877c-0.128,0-0.256-0.049-0.354-0.146L16.5,10.912l-2.819,2.819c-0.195,0.195-0.512,0.195-0.707,0
		s-0.195-0.512,0-0.707l3.172-3.173c0.188-0.188,0.52-0.188,0.707,0l3.172,3.173c0.195,0.195,0.195,0.512,0,0.707
		C19.928,13.829,19.8,13.877,19.672,13.877z"/>
	<path d="M16.5,30.89c-0.276,0-0.5-0.224-0.5-0.5v-4.781c0-0.276,0.224-0.5,0.5-0.5s0.5,0.224,0.5,0.5v4.781
		C17,30.667,16.776,30.89,16.5,30.89z"/>
</g>
<g>
</g>
<g>
</g>
<g>
</g>
<g>
</g>
<g>
</g>
<g>
</g>
<g>
</g>
<g>
</g>
<g>
</g>
<g>
</g>
<g>
</g>
<g>
</g>
<g>
</g>
<g>
</g>
<g>
</g>
</svg>
