<?xml version="1.0" encoding="iso-8859-1"?>
<!-- Generator: Adobe Illustrator 19.0.0, SVG Export Plug-In . SVG Version: 6.00 Build 0)  -->
<svg version="1.1" id="Capa_1" xmlns="http://www.w3.org/2000/svg" xmlns:xlink="http://www.w3.org/1999/xlink" x="0px" y="0px"
	 viewBox="0 0 33 33" style="enable-background:new 0 0 33 33;" xml:space="preserve">
<g>
	<g>
		<path d="M16.5,33C7.402,33,0,25.598,0,16.5S7.402,0,16.5,0S33,7.402,33,16.5S25.598,33,16.5,33z M16.5,1C7.953,1,1,7.953,1,16.5
			S7.953,32,16.5,32S32,25.047,32,16.5S25.047,1,16.5,1z"/>
		<circle cx="11.702" cy="11.93" r="2.125"/>
		<circle cx="21.827" cy="11.93" r="2.125"/>
	</g>
	<g>
		<path d="M13.908,24.314c-0.128,0-0.256-0.049-0.354-0.146c-0.195-0.195-0.195-0.512,0-0.707l5.185-5.186
			c0.195-0.195,0.512-0.195,0.707,0s0.195,0.512,0,0.707l-5.185,5.186C14.164,24.266,14.036,24.314,13.908,24.314z"/>
		<path d="M19.093,24.314c-0.128,0-0.256-0.049-0.354-0.146l-5.185-5.186c-0.195-0.195-0.195-0.512,0-0.707s0.512-0.195,0.707,0
			l5.185,5.186c0.195,0.195,0.195,0.512,0,0.707C19.349,24.266,19.221,24.314,19.093,24.314z"/>
	</g>
</g>
<g>
</g>
<g>
</g>
<g>
</g>
<g>
</g>
<g>
</g>
<g>
</g>
<g>
</g>
<g>
</g>
<g>
</g>
<g>
</g>
<g>
</g>
<g>
</g>
<g>
</g>
<g>
</g>
<g>
</g>
</svg>
