<svg height="682.66669pt" viewBox="-21 -21 682.66669 682.66669" width="682.66669pt" xmlns="http://www.w3.org/2000/svg"><path d="m461.5625 231.050781-135.3125-78.125c-3.863281-2.238281-8.636719-2.238281-12.5 0l-135.3125 78.125c-3.863281 2.234375-6.25 6.363281-6.25 10.824219v156.25c0 4.460938 2.386719 8.589844 6.25 10.824219l135.3125 78.125c1.9375 1.113281 4.085938 1.675781 6.25 1.675781s4.3125-.5625 6.25-1.675781l135.3125-78.125c3.863281-2.234375 6.25-6.363281 6.25-10.824219v-156.25c0-4.460938-2.386719-8.589844-6.25-10.824219zm-264.375 32.738281 110.3125 63.6875v127.125l-110.3125-63.6875zm122.8125 42.035157-110.539062-63.824219 110.539062-63.8125 110.539062 63.8125zm122.8125 85.089843-110.3125 63.6875v-127.125l110.3125-63.6875zm0 0"/><path d="m627.5 100.023438c6.898438 0 12.5-5.601563 12.5-12.5v-75.023438c0-6.898438-5.601562-12.5-12.5-12.5h-75.023438c-6.898437 0-12.5 5.601562-12.5 12.5v25.015625h-439.953124v-25.015625c0-6.898438-5.601563-12.5-12.5-12.5h-75.023438c-6.898438 0-12.5 5.601562-12.5 12.5v75.023438c0 6.898437 5.601562 12.5 12.5 12.5h25.015625v439.953124h-25.015625c-6.898438 0-12.5 5.601563-12.5 12.5v75.023438c0 6.898438 5.601562 12.5 12.5 12.5h75.023438c6.898437 0 12.5-5.601562 12.5-12.5v-25.015625h40.828124c6.898438 0 12.5-5.59375 12.5-12.5 0-6.898437-5.601562-12.5-12.5-12.5h-40.828124v-25.007813c0-6.898437-5.601563-12.5-12.5-12.5h-25.007813v-439.953124h25.007813c6.898437 0 12.5-5.601563 12.5-12.5v-25.007813h439.953124v25.007813c0 6.898437 5.601563 12.5 12.5 12.5h25.007813v439.953124h-25.007813c-6.898437 0-12.5 5.601563-12.5 12.5v25.007813h-311.414062c-6.914062 0-12.5 5.601563-12.5 12.5 0 6.90625 5.585938 12.5 12.5 12.5h311.414062v25.015625c0 6.898438 5.601563 12.5 12.5 12.5h75.023438c6.898438 0 12.5-5.601562 12.5-12.5v-75.023438c0-6.898437-5.601562-12.5-12.5-12.5h-25.015625v-439.953124zm-552.476562 464.953124v50.023438h-50.023438v-50.023438zm0-489.953124h-50.023438v-50.023438h50.023438zm539.976562 489.953124v50.023438h-50.023438v-50.023438zm-50.023438-489.953124v-50.023438h50.023438v50.023438zm0 0"/><path d="m184.726562 602.492188c-6.898437 0-12.503906-5.597657-12.503906-12.5 0-6.90625 5.589844-12.5 12.496094-12.5h.007812c6.90625 0 12.5 5.59375 12.5 12.5 0 6.902343-5.59375 12.5-12.5 12.5zm0 0"/></svg>