<?xml version="1.0" encoding="iso-8859-1"?>
<!-- Generator: Adobe Illustrator 18.0.0, SVG Export Plug-In . SVG Version: 6.00 Build 0)  -->
<!DOCTYPE svg PUBLIC "-//W3C//DTD SVG 1.1//EN" "http://www.w3.org/Graphics/SVG/1.1/DTD/svg11.dtd">
<svg version="1.1" id="Capa_1" xmlns="http://www.w3.org/2000/svg" xmlns:xlink="http://www.w3.org/1999/xlink" x="0px" y="0px"
	 viewBox="0 0 325.04 325.04" style="enable-background:new 0 0 325.04 325.04;" xml:space="preserve">
<g>
	<path d="M84.821,210.938c-4.646-3.671-10.469-5.693-16.396-5.693c-8.055,0-15.556,3.579-20.58,9.821
		c-4.393,5.464-6.382,12.3-5.598,19.247c0.785,6.962,4.258,13.198,9.778,17.561c4.646,3.672,10.467,5.694,16.393,5.694
		c8.061,0,15.563-3.586,20.583-9.834c4.389-5.455,6.376-12.283,5.595-19.227C93.813,221.545,90.342,215.305,84.821,210.938z
		 M79.648,240.215c-2.732,3.402-6.826,5.354-11.23,5.354c-3.283,0-6.379-1.075-8.951-3.108c-2.991-2.364-4.871-5.735-5.296-9.493
		c-0.422-3.743,0.652-7.431,3.023-10.379c2.733-3.396,6.827-5.344,11.231-5.344c3.286,0,6.383,1.075,8.954,3.107
		c2.99,2.364,4.869,5.737,5.292,9.497C83.092,233.589,82.02,237.269,79.648,240.215z"/>
	<path d="M190.33,149.484c3.958,0,7.785-0.867,11.384-2.582c6.362-3.044,11.141-8.369,13.454-14.995
		c2.301-6.584,1.887-13.669-1.163-19.944c-4.363-8.994-13.681-14.806-23.738-14.806c-3.966,0-7.801,0.87-11.399,2.587
		c-6.36,3.034-11.141,8.355-13.458,14.983c-2.305,6.589-1.892,13.675,1.163,19.953C170.95,143.673,180.275,149.484,190.33,149.484z
		 M176.736,118.688c1.254-3.585,3.846-6.467,7.298-8.114c1.972-0.94,4.068-1.417,6.232-1.417c5.491,0,10.571,3.157,12.943,8.048
		c1.645,3.384,1.868,7.199,0.63,10.745c-1.253,3.587-3.848,6.473-7.296,8.123c-1.965,0.937-4.056,1.411-6.214,1.411
		c-5.496,0-10.586-3.162-12.968-8.055C175.718,126.05,175.496,122.236,176.736,118.688z"/>
	<path d="M125.035,107.081c1.93,0.436,3.905,0.657,5.87,0.657c12.352,0,22.905-8.354,25.665-20.327
		c1.551-6.789,0.358-13.778-3.356-19.682c-3.745-5.95-9.598-10.086-16.476-11.644c-1.938-0.44-3.921-0.664-5.895-0.664
		c-12.344,0-22.886,8.363-25.637,20.334c-1.564,6.784-0.379,13.774,3.336,19.682C112.29,101.395,118.149,105.531,125.035,107.081z
		 M116.901,78.447c1.491-6.491,7.225-11.025,13.942-11.025c1.079,0,2.168,0.123,3.239,0.366c3.752,0.85,6.939,3.099,8.975,6.333
		c2.006,3.187,2.65,6.957,1.816,10.605c-1.471,6.381-7.346,11.012-13.969,11.012c-1.076,0-2.161-0.122-3.229-0.363
		c-3.753-0.845-6.94-3.092-8.975-6.326C116.698,85.864,116.059,82.1,116.901,78.447z"/>
	<path d="M77.356,122.05c5.514-4.369,8.981-10.61,9.765-17.573c0.781-6.942-1.202-13.77-5.593-19.235
		c-5.032-6.239-12.539-9.817-20.594-9.817c-5.921,0-11.738,2.016-16.385,5.681c-5.515,4.356-8.984,10.587-9.771,17.545
		c-0.786,6.951,1.202,13.791,5.601,19.265c5.028,6.246,12.536,9.829,20.6,9.829C66.905,127.744,72.722,125.722,77.356,122.05z
		 M49.731,110.393c-2.376-2.956-3.451-6.648-3.027-10.396c0.424-3.753,2.302-7.119,5.282-9.474c2.571-2.028,5.666-3.1,8.949-3.1
		c4.408,0,8.511,1.95,11.246,5.341c2.365,2.946,3.437,6.629,3.016,10.37c-0.423,3.764-2.303,7.142-5.292,9.51
		c-2.559,2.027-5.646,3.099-8.925,3.099C56.567,115.744,52.467,113.792,49.731,110.393z"/>
	<path d="M322.745,63.336c-1.037-1.046-2.887-2.293-5.806-2.293c-3.423,0-12.516,0-67.74,46.992c-1.11,0.944-2.23,1.901-3.354,2.865
		c-9.867-25.739-27.203-48.686-49.542-65.284c-25.614-19.031-56.114-29.096-88.2-29.104c-0.01,0-0.017,0-0.025,0
		c-21.654,0-47.976,7.566-68.697,19.749C13.981,51.193-0.005,71.163,0,92.49c0.008,25.748,14.53,36.518,26.199,45.171
		c9.515,7.057,17.03,12.63,17.034,24.844c0.003,12.213-7.508,17.781-17.018,24.831c-11.665,8.648-26.184,19.412-26.176,45.163
		c0.006,21.324,14.001,41.299,39.406,56.244c20.736,12.198,47.072,19.78,68.73,19.786c0.015,0,0.028,0,0.042,0
		c39.305,0,76.254-15.171,104.044-42.72c27.436-27.197,42.695-63.246,43.096-101.661c9.316-10.601,18.341-21.138,26.58-31.067
		c14.096-16.986,24.935-31.002,32.216-41.657C323.799,77.311,328.023,68.655,322.745,63.336z M203.814,257.287
		c-25.529,25.308-59.475,39.242-95.596,39.242c-0.011,0-0.027,0-0.038,0c-38.707-0.011-96.13-26.903-96.141-64.034
		c-0.006-19.707,10.354-27.388,21.323-35.52c10.253-7.602,21.874-16.218,21.87-34.474c-0.006-18.253-11.63-26.874-21.886-34.479
		C22.372,119.883,12.006,112.196,12,92.487c-0.005-22.801,20.963-38.533,33.463-45.882c18.698-10.993,43.273-18.094,62.615-18.094
		c0.007,0,0.015,0,0.021,0c29.491,0.008,57.517,9.254,81.048,26.736c21.702,16.125,38.268,38.761,46.994,64.049
		c-26.025,22.724-54.207,48.924-75.195,69.98c-34.859,4.512-39.608,27.744-43.08,44.811c-2.956,14.532-4.875,21.558-16.092,22.458
		c-2.764,0.222-5.015,2.308-5.446,5.047c-0.432,2.738,1.069,5.416,3.631,6.477c0.721,0.298,17.877,7.308,37.921,7.309
		c0.003,0,0.005,0,0.007,0c13.968,0,25.95-3.386,35.612-10.063c11.906-8.228,19.979-21.273,24.036-38.767
		c13.713-13.874,29.382-30.604,44.876-47.837C238.845,208.381,225.456,235.833,203.814,257.287z M185.48,225.412
		c-6.358,25.196-22.356,37.968-47.594,37.967c0,0-0.004,0-0.006,0c-6.655,0-13.028-0.908-18.386-2.04
		c6.4-6.527,8.399-16.349,10.13-24.858c3.297-16.208,6.415-31.547,31.923-35.191L185.48,225.412z M268.336,130.652
		c-23.785,28.337-52.575,60.159-76.275,84.354l-3.669-3.698l-16.189-16.317c21.488-21.39,49.054-46.895,74.773-69.216l0,0
		c2.998-2.602,5.977-5.171,8.913-7.675c29.847-25.455,45.489-36.533,53.468-41.354C304.592,84.773,293.616,100.534,268.336,130.652z
		"/>
</g>
<g>
</g>
<g>
</g>
<g>
</g>
<g>
</g>
<g>
</g>
<g>
</g>
<g>
</g>
<g>
</g>
<g>
</g>
<g>
</g>
<g>
</g>
<g>
</g>
<g>
</g>
<g>
</g>
<g>
</g>
</svg>
