<?xml version="1.0" encoding="iso-8859-1"?>
<!-- Generator: Adobe Illustrator 19.0.0, SVG Export Plug-In . SVG Version: 6.00 Build 0)  -->
<svg version="1.1" id="Capa_1" xmlns="http://www.w3.org/2000/svg" xmlns:xlink="http://www.w3.org/1999/xlink" x="0px" y="0px"
	 viewBox="0 0 37 37" style="enable-background:new 0 0 37 37;" xml:space="preserve">
<g>
	<path d="M16.5,37C7.402,37,0,29.598,0,20.5S7.402,4,16.5,4C16.776,4,17,4.224,17,4.5V20h15.5c0.276,0,0.5,0.224,0.5,0.5
		C33,29.598,25.598,37,16.5,37z M16,5.008C7.684,5.273,1,12.121,1,20.5C1,29.047,7.953,36,16.5,36c8.379,0,15.227-6.684,15.492-15
		H16.5c-0.276,0-0.5-0.224-0.5-0.5V5.008z"/>
	<path d="M36.5,17h-16c-0.276,0-0.5-0.224-0.5-0.5v-16C20,0.224,20.224,0,20.5,0C29.598,0,37,7.402,37,16.5
		C37,16.776,36.776,17,36.5,17z M21,16h14.992C35.732,7.85,29.149,1.268,21,1.008V16z"/>
</g>
<g>
</g>
<g>
</g>
<g>
</g>
<g>
</g>
<g>
</g>
<g>
</g>
<g>
</g>
<g>
</g>
<g>
</g>
<g>
</g>
<g>
</g>
<g>
</g>
<g>
</g>
<g>
</g>
<g>
</g>
</svg>
