<?xml version="1.0" encoding="iso-8859-1"?>
<!-- Generator: Adobe Illustrator 19.0.0, SVG Export Plug-In . SVG Version: 6.00 Build 0)  -->
<svg version="1.1" id="Capa_1" xmlns="http://www.w3.org/2000/svg" xmlns:xlink="http://www.w3.org/1999/xlink" x="0px" y="0px"
	 viewBox="0 0 32.947 32.947" style="enable-background:new 0 0 32.947 32.947;" xml:space="preserve">
<g>
	<path d="M16.474,32.947c-0.276,0-0.5-0.224-0.5-0.5V10.986c0-0.276,0.224-0.5,0.5-0.5s0.5,0.224,0.5,0.5v21.461
		C16.974,32.724,16.75,32.947,16.474,32.947z"/>
	<path d="M16.474,11.486c-3.167,0-5.743-2.576-5.743-5.743C10.731,2.576,13.307,0,16.474,0s5.743,2.576,5.743,5.743
		C22.216,8.91,19.64,11.486,16.474,11.486z M16.474,1c-2.615,0-4.743,2.127-4.743,4.743s2.127,4.743,4.743,4.743
		s4.743-2.128,4.743-4.743S19.089,1,16.474,1z"/>
</g>
<g>
</g>
<g>
</g>
<g>
</g>
<g>
</g>
<g>
</g>
<g>
</g>
<g>
</g>
<g>
</g>
<g>
</g>
<g>
</g>
<g>
</g>
<g>
</g>
<g>
</g>
<g>
</g>
<g>
</g>
</svg>
