<?xml version="1.0" encoding="iso-8859-1"?>
<!-- Generator: Adobe Illustrator 19.0.0, SVG Export Plug-In . SVG Version: 6.00 Build 0)  -->
<svg version="1.1" id="Capa_1" xmlns="http://www.w3.org/2000/svg" xmlns:xlink="http://www.w3.org/1999/xlink" x="0px" y="0px"
	 viewBox="0 0 33.205 33.205" style="enable-background:new 0 0 33.205 33.205;" xml:space="preserve">
<g>
	<path d="M16.603,17.908c-3.131,0-5.679-2.548-5.679-5.68s2.547-5.68,5.679-5.68s5.679,2.548,5.679,5.68
		S19.734,17.908,16.603,17.908z M16.603,7.549c-2.58,0-4.679,2.099-4.679,4.68s2.099,4.68,4.679,4.68s4.679-2.099,4.679-4.68
		S19.183,7.549,16.603,7.549z"/>
	<g>
		<path d="M16.603,33.205c-0.148,0-0.288-0.065-0.383-0.179C15.736,32.449,4.376,18.811,4.376,12.229C4.376,5.486,9.861,0,16.603,0
			s12.227,5.486,12.227,12.229c0,6.583-11.36,20.22-11.843,20.798C16.891,33.14,16.75,33.205,16.603,33.205z M16.603,1
			C10.412,1,5.376,6.037,5.376,12.229c0,5.571,9.216,17.215,11.227,19.688c2.01-2.474,11.227-14.118,11.227-19.688
			C27.829,6.037,22.793,1,16.603,1z"/>
	</g>
</g>
<g>
</g>
<g>
</g>
<g>
</g>
<g>
</g>
<g>
</g>
<g>
</g>
<g>
</g>
<g>
</g>
<g>
</g>
<g>
</g>
<g>
</g>
<g>
</g>
<g>
</g>
<g>
</g>
<g>
</g>
</svg>
