<?xml version="1.0" encoding="iso-8859-1"?>
<!-- Generator: Adobe Illustrator 19.0.0, SVG Export Plug-In . SVG Version: 6.00 Build 0)  -->
<svg version="1.1" id="Capa_1" xmlns="http://www.w3.org/2000/svg" xmlns:xlink="http://www.w3.org/1999/xlink" x="0px" y="0px"
	 viewBox="0 0 33 33" style="enable-background:new 0 0 33 33;" xml:space="preserve">
<g>
	<g>
		<path d="M16.5,13.178c-2.333,0-4.23-1.898-4.23-4.23c0-2.333,1.898-4.231,4.23-4.231s4.23,1.898,4.23,4.231
			C20.73,11.28,18.833,13.178,16.5,13.178z M16.5,5.717c-1.781,0-3.23,1.449-3.23,3.231c0,1.781,1.449,3.23,3.23,3.23
			s3.23-1.449,3.23-3.23C19.73,7.166,18.281,5.717,16.5,5.717z"/>
		<g>
			<path d="M16.5,24.196c-0.148,0-0.288-0.065-0.383-0.179C15.767,23.6,7.554,13.739,7.554,8.948C7.554,4.014,11.567,0,16.5,0
				s8.946,4.014,8.946,8.948c0,4.791-8.213,14.652-8.563,15.069C16.788,24.13,16.648,24.196,16.5,24.196z M16.5,1
				c-4.382,0-7.946,3.565-7.946,7.948c0,3.875,6.31,11.934,7.946,13.958c1.636-2.024,7.946-10.083,7.946-13.958
				C24.446,4.565,20.882,1,16.5,1z"/>
		</g>
	</g>
	<path d="M32.443,33H0.557c-0.276,0-0.5-0.224-0.5-0.5V12.098c0-0.276,0.224-0.5,0.5-0.5h8.301c0.276,0,0.5,0.224,0.5,0.5
		s-0.224,0.5-0.5,0.5H1.057V32h30.887V12.598h-7.801c-0.276,0-0.5-0.224-0.5-0.5s0.224-0.5,0.5-0.5h8.301c0.276,0,0.5,0.224,0.5,0.5
		V32.5C32.943,32.776,32.72,33,32.443,33z"/>
</g>
<g>
</g>
<g>
</g>
<g>
</g>
<g>
</g>
<g>
</g>
<g>
</g>
<g>
</g>
<g>
</g>
<g>
</g>
<g>
</g>
<g>
</g>
<g>
</g>
<g>
</g>
<g>
</g>
<g>
</g>
</svg>
