<?xml version="1.0" encoding="iso-8859-1"?>
<!-- Generator: Adobe Illustrator 19.0.0, SVG Export Plug-In . SVG Version: 6.00 Build 0)  -->
<svg version="1.1" id="Capa_1" xmlns="http://www.w3.org/2000/svg" xmlns:xlink="http://www.w3.org/1999/xlink" x="0px" y="0px"
	 viewBox="0 0 32.354 32.354" style="enable-background:new 0 0 32.354 32.354;" xml:space="preserve">
<g>
	<g>
		<path d="M22.145,29.01H10.21c-3.873,0-7.024-3.15-7.024-7.023v-8.525c0-1.162,0.945-2.107,2.107-2.107h21.769
			c1.161,0,2.106,0.945,2.106,2.107v8.525C29.168,25.859,26.018,29.01,22.145,29.01z M5.293,12.354c-0.61,0-1.107,0.497-1.107,1.107
			v8.525c0,3.321,2.702,6.023,6.024,6.023h11.935c3.321,0,6.023-2.702,6.023-6.023v-8.525c0-0.61-0.496-1.107-1.106-1.107H5.293z"/>
		<path d="M10.394,12.354c-0.276,0-0.5-0.224-0.5-0.5V2.5c0-0.827-0.673-1.5-1.5-1.5H8.229c-0.827,0-1.5,0.673-1.5,1.5v9.354
			c0,0.276-0.224,0.5-0.5,0.5s-0.5-0.224-0.5-0.5V2.5c0-1.379,1.121-2.5,2.5-2.5h0.164c1.379,0,2.5,1.121,2.5,2.5v9.354
			C10.894,12.13,10.67,12.354,10.394,12.354z"/>
		<path d="M26.124,12.354c-0.276,0-0.5-0.224-0.5-0.5V2.5c0-0.827-0.673-1.5-1.5-1.5H23.96c-0.827,0-1.5,0.673-1.5,1.5v9.354
			c0,0.276-0.224,0.5-0.5,0.5s-0.5-0.224-0.5-0.5V2.5c0-1.379,1.121-2.5,2.5-2.5h0.164c1.379,0,2.5,1.121,2.5,2.5v9.354
			C26.624,12.13,26.4,12.354,26.124,12.354z"/>
		<path d="M19.929,32.354h-7.504c-0.276,0-0.5-0.224-0.5-0.5V28.51c0-0.276,0.224-0.5,0.5-0.5h7.504c0.276,0,0.5,0.224,0.5,0.5
			v3.344C20.429,32.13,20.205,32.354,19.929,32.354z M12.925,31.354h6.504V29.01h-6.504V31.354z"/>
	</g>
	<g>
		<g>
			<polygon points="14.721,23.418 15.936,20.079 14.402,19.641 17.278,16.223 16.418,19.209 17.952,19.647 			"/>
			<path d="M14.721,23.918c-0.087,0-0.174-0.022-0.252-0.068c-0.209-0.122-0.301-0.375-0.218-0.603l1.031-2.835l-1.018-0.291
				c-0.163-0.046-0.292-0.172-0.342-0.334c-0.049-0.162-0.014-0.339,0.096-0.469l2.877-3.418c0.152-0.181,0.411-0.228,0.618-0.119
				c0.208,0.111,0.311,0.353,0.245,0.58l-0.722,2.504l1.052,0.301c0.164,0.046,0.293,0.173,0.342,0.336
				c0.05,0.164,0.012,0.341-0.099,0.47l-3.231,3.771C15.003,23.857,14.862,23.918,14.721,23.918z M16.225,19.67
				c0.065,0.046,0.119,0.108,0.156,0.181c0.063,0.124,0.072,0.268,0.024,0.398l-0.274,0.755l0.935-1.091l-0.784-0.224
				C16.262,19.685,16.243,19.678,16.225,19.67z M15.281,19.372l0.791,0.226c0.02,0.005,0.038,0.012,0.057,0.02
				c-0.061-0.043-0.111-0.1-0.148-0.166c-0.064-0.116-0.08-0.253-0.043-0.381l0.21-0.728L15.281,19.372z"/>
		</g>
	</g>
</g>
<g>
</g>
<g>
</g>
<g>
</g>
<g>
</g>
<g>
</g>
<g>
</g>
<g>
</g>
<g>
</g>
<g>
</g>
<g>
</g>
<g>
</g>
<g>
</g>
<g>
</g>
<g>
</g>
<g>
</g>
</svg>
