<?xml version="1.0" encoding="iso-8859-1"?>
<!-- Generator: Adobe Illustrator 19.0.0, SVG Export Plug-In . SVG Version: 6.00 Build 0)  -->
<svg version="1.1" id="Capa_1" xmlns="http://www.w3.org/2000/svg" xmlns:xlink="http://www.w3.org/1999/xlink" x="0px" y="0px"
	 viewBox="0 0 32.006 32.006" style="enable-background:new 0 0 32.006 32.006;" xml:space="preserve">
<g>
	<path d="M31.505,23.63H0.5c-0.133,0-0.26-0.053-0.354-0.146S0,23.263,0,23.13L0.002,8.878c0-0.276,0.224-0.5,0.5-0.5h31.004
		c0.133,0,0.26,0.053,0.354,0.146s0.146,0.221,0.146,0.354L32.005,23.13C32.005,23.406,31.781,23.63,31.505,23.63z M1,22.63h30.005
		l0.001-13.252H1.002L1,22.63z"/>
	<g>
		<path d="M26.209,12.865c-0.276,0-0.5-0.224-0.5-0.5V8.876c0-0.276,0.224-0.5,0.5-0.5s0.5,0.224,0.5,0.5v3.489
			C26.709,12.642,26.485,12.865,26.209,12.865z"/>
		<path d="M21.108,15.103c-0.276,0-0.5-0.224-0.5-0.5V8.876c0-0.276,0.224-0.5,0.5-0.5s0.5,0.224,0.5,0.5v5.727
			C21.608,14.879,21.385,15.103,21.108,15.103z"/>
		<path d="M16.004,12.865c-0.276,0-0.5-0.224-0.5-0.5V8.876c0-0.276,0.224-0.5,0.5-0.5s0.5,0.224,0.5,0.5v3.489
			C16.504,12.642,16.28,12.865,16.004,12.865z"/>
		<path d="M10.899,15.103c-0.276,0-0.5-0.224-0.5-0.5V8.876c0-0.276,0.224-0.5,0.5-0.5s0.5,0.224,0.5,0.5v5.727
			C11.399,14.879,11.176,15.103,10.899,15.103z"/>
		<path d="M5.799,12.864c-0.276,0-0.5-0.224-0.5-0.5V8.876c0-0.276,0.224-0.5,0.5-0.5s0.5,0.224,0.5,0.5v3.488
			C6.299,12.641,6.075,12.864,5.799,12.864z"/>
	</g>
</g>
<g>
</g>
<g>
</g>
<g>
</g>
<g>
</g>
<g>
</g>
<g>
</g>
<g>
</g>
<g>
</g>
<g>
</g>
<g>
</g>
<g>
</g>
<g>
</g>
<g>
</g>
<g>
</g>
<g>
</g>
</svg>
