<?xml version="1.0" encoding="iso-8859-1"?>
<!-- Generator: Adobe Illustrator 19.0.0, SVG Export Plug-In . SVG Version: 6.00 Build 0)  -->
<svg version="1.1" id="Capa_1" xmlns="http://www.w3.org/2000/svg" xmlns:xlink="http://www.w3.org/1999/xlink" x="0px" y="0px"
	 viewBox="0 0 33 33" style="enable-background:new 0 0 33 33;" xml:space="preserve">
<g>
	<path d="M16.5,33C7.402,33,0,25.598,0,16.5S7.402,0,16.5,0S33,7.402,33,16.5S25.598,33,16.5,33z M16.5,1C7.953,1,1,7.953,1,16.5
		S7.953,32,16.5,32S32,25.047,32,16.5S25.047,1,16.5,1z"/>
	<circle cx="11.702" cy="11.93" r="2.125"/>
	<circle cx="21.827" cy="11.93" r="2.125"/>
	<path d="M10.326,23.918c-0.09,0-0.18-0.024-0.262-0.074c-0.235-0.146-0.308-0.453-0.163-0.688c1.429-2.314,3.905-3.696,6.623-3.696
		c2.679,0,5.136,1.352,6.572,3.615c0.148,0.233,0.079,0.542-0.154,0.689c-0.234,0.147-0.542,0.08-0.69-0.154
		c-1.251-1.973-3.393-3.15-5.727-3.15c-2.368,0-4.526,1.204-5.772,3.222C10.658,23.834,10.494,23.918,10.326,23.918z"/>
</g>
<g>
</g>
<g>
</g>
<g>
</g>
<g>
</g>
<g>
</g>
<g>
</g>
<g>
</g>
<g>
</g>
<g>
</g>
<g>
</g>
<g>
</g>
<g>
</g>
<g>
</g>
<g>
</g>
<g>
</g>
</svg>
