<?xml version="1.0" encoding="iso-8859-1"?>
<!-- Generator: Adobe Illustrator 19.0.0, SVG Export Plug-In . SVG Version: 6.00 Build 0)  -->
<svg version="1.1" id="Capa_1" xmlns="http://www.w3.org/2000/svg" xmlns:xlink="http://www.w3.org/1999/xlink" x="0px" y="0px"
	 viewBox="0 0 33 33" style="enable-background:new 0 0 33 33;" xml:space="preserve">
<g>
	<path d="M2.994,11.47c-1.016,0-2.029-0.574-2.5-0.951c-0.307-0.245-0.478-0.58-0.493-0.966c-0.025-0.618,0.351-1.311,1.088-2.005
		c0.595-0.56,1.331-1.523,2.042-2.455c0.396-0.517,0.777-1.016,1.116-1.422C4.745,3.075,5.62,2.714,6.647,2.683
		c1.132-0.021,2.225,0.335,2.82,0.965c0.189,0.201,0.181,0.518-0.02,0.707c-0.201,0.19-0.518,0.18-0.707-0.02
		C8.348,3.92,7.5,3.662,6.678,3.683C5.947,3.706,5.325,3.941,5.015,4.312C4.684,4.709,4.312,5.197,3.926,5.701
		C3.19,6.665,2.429,7.661,1.775,8.277C1.037,8.97,0.995,9.398,1,9.512c0.004,0.095,0.039,0.162,0.119,0.226
		c0.529,0.425,1.6,0.911,2.309,0.665c0.935-0.322,1.827-0.201,2.69-0.087l0.43,0.056c0.635,0.084,1.534-0.793,1.726-1.658
		c0.06-0.269,0.318-0.438,0.597-0.38C9.14,8.393,9.31,8.661,9.25,8.93c-0.276,1.245-1.549,2.573-2.819,2.435l-0.444-0.058
		c-0.784-0.105-1.524-0.203-2.232,0.041C3.506,11.433,3.25,11.47,2.994,11.47z"/>
	<path d="M10.183,6.822c-0.264,0-0.484-0.206-0.499-0.473C9.668,6.074,9.88,5.838,10.156,5.823c1.657-0.091,4.8-1.63,5.173-2.534
		c0.194-0.47,0.216-0.89,0.06-1.15c-0.104-0.174-0.285-0.275-0.539-0.302c-0.745-0.058-2.381,0.962-3.262,1.519
		c-1.138,0.719-3.252,1.879-3.342,1.928c-0.24,0.133-0.546,0.045-0.679-0.198C7.434,4.842,7.523,4.539,7.765,4.406
		c0.021-0.012,2.177-1.193,3.23-1.86c1.54-0.973,2.955-1.812,3.955-1.703c0.568,0.058,1.028,0.336,1.296,0.782
		c0.324,0.543,0.326,1.27,0.006,2.046c-0.603,1.459-4.261,3.053-6.042,3.15C10.201,6.822,10.192,6.822,10.183,6.822z"/>
	<path d="M25.697,32.167h-1.818c-0.135,0-0.265-0.055-0.358-0.151c-0.095-0.097-0.146-0.228-0.142-0.362
		c0.039-1.396,0.117-5.181,0.005-5.938l-0.041-0.311c-0.145-1.139-0.329-1.963-1.392-2.2c-1.582-0.354-4.137,0.039-4.629,0.715
		c-0.642,0.883-1.272,1.908-1.325,3.868c-0.057,2.104-0.113,3.895-0.113,3.895c-0.009,0.271-0.23,0.484-0.5,0.484h-1.876
		c-0.137,0-0.267-0.056-0.361-0.154c-0.094-0.099-0.145-0.23-0.139-0.367c0.068-1.58,0.141-4.113,0.063-4.619l-0.046-0.309
		c-0.117-0.795-0.361-2.449-0.693-3.049c-0.171-0.308-1.108-0.824-1.792-1.201c-0.706-0.39-1.373-0.757-1.754-1.124
		c-1.052-1.013-1.511-2.34-1.403-4.057c0.113-1.797-0.184-2.903-0.454-3.666c-0.307-0.863-1.157-2.068-1.405-2.222
		c-0.234-0.145-0.311-0.452-0.168-0.688C5.495,10.476,5.8,10.4,6.034,10.54c0.563,0.335,1.511,1.832,1.836,2.747
		c0.278,0.786,0.636,2.063,0.51,4.063c-0.088,1.406,0.271,2.478,1.099,3.273c0.286,0.275,0.925,0.628,1.543,0.969
		c0.963,0.531,1.873,1.033,2.184,1.592c0.389,0.7,0.621,2.116,0.809,3.389l0.045,0.302c0.096,0.623,0.013,3.154-0.031,4.293h0.871
		c0.021-0.671,0.059-1.965,0.098-3.406c0.061-2.245,0.814-3.464,1.517-4.429c0.859-1.185,3.978-1.479,5.656-1.104
		c1.829,0.41,2.039,2.063,2.165,3.051l0.039,0.291c0.122,0.828,0.052,4.238,0.019,5.597h0.805c0.003-1.73,0.02-5.441,0.119-6.135
		c0.124-0.868,0.706-1.951,1.778-3.309c0.886-1.119,1.766-3.856,1.711-5.325c-0.052-1.444-0.949-3.085-2.183-3.99
		c-1.225-0.9-4.129-0.577-5.525-0.422c-1.501,0.167-5.047,0.491-6.206-0.038c-1.044-0.478-2.723-2.12-3.045-2.979l-0.104-0.283
		c-0.227-0.615-0.604-1.646-0.928-2.055C10.643,6.415,10.68,6.1,10.897,5.929c0.216-0.171,0.531-0.134,0.702,0.083
		c0.422,0.534,0.803,1.572,1.081,2.329l0.103,0.277c0.198,0.53,1.606,2,2.524,2.419c0.713,0.327,3.351,0.215,5.646-0.042
		c1.673-0.187,4.722-0.527,6.261,0.606c1.485,1.09,2.526,3.003,2.591,4.759c0.063,1.712-0.892,4.675-1.927,5.983
		c-1.179,1.491-1.506,2.362-1.572,2.829c-0.075,0.525-0.109,3.64-0.109,6.493C26.197,31.943,25.973,32.167,25.697,32.167z"/>
	<path d="M31.407,22.221c-0.004,0-0.007,0-0.011,0c-0.276-0.006-0.495-0.235-0.489-0.511c0.001-0.039,0.081-3.852-0.216-5.256
		c-0.182-0.86-0.771-1.19-1.396-1.539c-0.256-0.144-0.497-0.278-0.707-0.451c-0.213-0.176-0.243-0.491-0.067-0.704
		c0.176-0.214,0.49-0.243,0.704-0.067c0.14,0.115,0.344,0.229,0.559,0.35c0.68,0.38,1.609,0.9,1.886,2.205
		c0.32,1.517,0.241,5.323,0.237,5.484C31.902,22.004,31.679,22.221,31.407,22.221z"/>
	<path d="M31.607,25.991c-0.042,0-0.085-0.005-0.127-0.017c-0.22-0.058-0.373-0.256-0.373-0.483
		c-0.028-0.063-0.293-0.512-0.468-0.808c-0.103-0.175-0.207-0.354-0.301-0.52c-0.304-0.539-0.276-1.414,0.063-2.036
		c0.23-0.425,0.582-0.672,0.987-0.696c0.447-0.027,0.831,0.093,1.113,0.347c0.208,0.186,0.463,0.539,0.495,1.168
		c0.043,0.832-0.351,1.718-0.954,2.79C31.952,25.896,31.784,25.991,31.607,25.991z M31.448,22.429
		c-0.046,0.003-0.114,0.073-0.17,0.176c-0.186,0.341-0.189,0.854-0.069,1.068c0.091,0.161,0.192,0.333,0.292,0.502
		c0.043,0.073,0.084,0.143,0.121,0.207c0.236-0.503,0.396-0.984,0.376-1.386c-0.009-0.156-0.043-0.366-0.163-0.474
		C31.753,22.451,31.625,22.421,31.448,22.429L31.448,22.429z"/>
	<path d="M4.801,7.809c-0.404,0-0.733-0.329-0.733-0.733c0-0.405,0.329-0.734,0.733-0.734c0.405,0,0.734,0.329,0.734,0.734
		C5.535,7.48,5.206,7.809,4.801,7.809z M4.801,6.809c-0.146,0-0.266,0.119-0.266,0.267c0,0.294,0.532,0.292,0.532,0
		C5.068,6.928,4.948,6.809,4.801,6.809z"/>
</g>
<g>
</g>
<g>
</g>
<g>
</g>
<g>
</g>
<g>
</g>
<g>
</g>
<g>
</g>
<g>
</g>
<g>
</g>
<g>
</g>
<g>
</g>
<g>
</g>
<g>
</g>
<g>
</g>
<g>
</g>
</svg>
