<?xml version="1.0" encoding="iso-8859-1"?>
<!-- Generator: Adobe Illustrator 19.0.0, SVG Export Plug-In . SVG Version: 6.00 Build 0)  -->
<svg version="1.1" id="Capa_1" xmlns="http://www.w3.org/2000/svg" xmlns:xlink="http://www.w3.org/1999/xlink" x="0px" y="0px"
	 viewBox="0 0 33 33" style="enable-background:new 0 0 33 33;" xml:space="preserve">
<g>
	<path d="M29.3,15.817c-1.364,0-2.558-0.742-3.2-1.843c-0.642,1.102-1.836,1.843-3.2,1.843s-2.559-0.742-3.2-1.843
		c-0.641,1.102-1.835,1.843-3.199,1.843c-1.364,0-2.559-0.742-3.2-1.843c-0.642,1.102-1.836,1.843-3.202,1.843
		c-1.364,0-2.558-0.742-3.2-1.843c-0.642,1.102-1.836,1.843-3.2,1.843C1.66,15.817,0,14.158,0,12.119V7.195
		c0-0.062,0.012-0.124,0.034-0.182l2.363-6.055c0.075-0.192,0.26-0.318,0.466-0.318h27.273c0.206,0,0.391,0.126,0.466,0.318
		l2.363,6.055C32.988,7.071,33,7.133,33,7.195v4.924C33,14.158,31.34,15.817,29.3,15.817z M26.101,11.619c0.276,0,0.5,0.224,0.5,0.5
		c0,1.488,1.211,2.698,2.7,2.698s2.7-1.21,2.7-2.698v-4.83l-2.205-5.649H3.205L1,7.289v4.83c0,1.488,1.211,2.698,2.699,2.698
		c1.489,0,2.7-1.21,2.7-2.698c0-0.276,0.224-0.5,0.5-0.5s0.5,0.224,0.5,0.5c0,1.488,1.211,2.698,2.7,2.698
		c1.49,0,2.702-1.21,2.702-2.698c0-0.276,0.224-0.5,0.5-0.5s0.5,0.224,0.5,0.5c0,1.488,1.211,2.698,2.7,2.698
		c1.488,0,2.699-1.21,2.699-2.698c0-0.276,0.224-0.5,0.5-0.5s0.5,0.224,0.5,0.5c0,1.488,1.211,2.698,2.7,2.698s2.7-1.21,2.7-2.698
		C25.601,11.843,25.824,11.619,26.101,11.619z"/>
	<path d="M28.39,32.361H4.611c-1.199,0-2.174-0.975-2.174-2.174V19.651c0-0.276,0.224-0.5,0.5-0.5s0.5,0.224,0.5,0.5v10.536
		c0,0.647,0.526,1.174,1.174,1.174H28.39c0.648,0,1.175-0.526,1.175-1.174V19.651c0-0.276,0.224-0.5,0.5-0.5s0.5,0.224,0.5,0.5
		v10.536C30.564,31.385,29.589,32.361,28.39,32.361z"/>
	<g>
		<path d="M14.433,32.16H7.194c-0.276,0-0.5-0.224-0.5-0.5V19.306c0-0.276,0.224-0.5,0.5-0.5h7.238c0.276,0,0.5,0.224,0.5,0.5V31.66
			C14.933,31.936,14.709,32.16,14.433,32.16z M7.694,31.16h6.238V19.806H7.694V31.16z"/>
		<path d="M25.805,26.38h-8.566c-0.276,0-0.5-0.224-0.5-0.5v-6.573c0-0.276,0.224-0.5,0.5-0.5h8.566c0.276,0,0.5,0.224,0.5,0.5
			v6.573C26.305,26.156,26.081,26.38,25.805,26.38z M17.738,25.38h7.566v-5.573h-7.566V25.38z"/>
	</g>
</g>
<g>
</g>
<g>
</g>
<g>
</g>
<g>
</g>
<g>
</g>
<g>
</g>
<g>
</g>
<g>
</g>
<g>
</g>
<g>
</g>
<g>
</g>
<g>
</g>
<g>
</g>
<g>
</g>
<g>
</g>
</svg>
