<?xml version="1.0" encoding="iso-8859-1"?>
<!-- Generator: Adobe Illustrator 19.0.0, SVG Export Plug-In . SVG Version: 6.00 Build 0)  -->
<svg version="1.1" id="Capa_1" fill="#fff" xmlns="http://www.w3.org/2000/svg" xmlns:xlink="http://www.w3.org/1999/xlink" x="0px" y="0px"
	 viewBox="0 0 33 33" style="enable-background:new 0 0 33 33;" xml:space="preserve">
<g>
	<path d="M27.28,33H5.72c-2.039,0-3.697-1.658-3.697-3.697V3.697C2.023,1.658,3.682,0,5.72,0h21.56c2.039,0,3.697,1.658,3.697,3.697
		v25.605C30.977,31.342,29.318,33,27.28,33z M5.72,1C4.233,1,3.023,2.21,3.023,3.697v25.605C3.023,30.79,4.233,32,5.72,32h21.56
		c1.487,0,2.697-1.21,2.697-2.697V3.697C29.977,2.21,28.767,1,27.28,1H5.72z"/>
	<path d="M30.477,11.667H2.523c-0.276,0-0.5-0.224-0.5-0.5s0.224-0.5,0.5-0.5h27.954c0.276,0,0.5,0.224,0.5,0.5
		S30.753,11.667,30.477,11.667z"/>
	<path d="M30.477,22.334H2.523c-0.276,0-0.5-0.224-0.5-0.5s0.224-0.5,0.5-0.5h27.954c0.276,0,0.5,0.224,0.5,0.5
		S30.753,22.334,30.477,22.334z"/>
	<circle cx="7.833" cy="5.995" r="0.983"/>
	<circle cx="12.661" cy="5.995" r="0.983"/>
</g>
<g>
</g>
<g>
</g>
<g>
</g>
<g>
</g>
<g>
</g>
<g>
</g>
<g>
</g>
<g>
</g>
<g>
</g>
<g>
</g>
<g>
</g>
<g>
</g>
<g>
</g>
<g>
</g>
<g>
</g>
</svg>
