<?xml version="1.0" encoding="iso-8859-1"?>
<!-- Generator: Adobe Illustrator 19.0.0, SVG Export Plug-In . SVG Version: 6.00 Build 0)  -->
<svg version="1.1" id="Capa_1" xmlns="http://www.w3.org/2000/svg" xmlns:xlink="http://www.w3.org/1999/xlink" x="0px" y="0px"
	 viewBox="0 0 35.742 35.742" style="enable-background:new 0 0 35.742 35.742;" xml:space="preserve">
<g>
	<path d="M25.257,34.371H3.697C1.659,34.371,0,32.713,0,30.674V5.068c0-2.039,1.659-3.697,3.697-3.697h21.56
		c2.039,0,3.697,1.658,3.697,3.697v5.715c0,0.276-0.224,0.5-0.5,0.5s-0.5-0.224-0.5-0.5V5.068c0-1.487-1.21-2.697-2.697-2.697H3.697
		C2.21,2.371,1,3.581,1,5.068v25.605c0,1.487,1.21,2.697,2.697,2.697h21.56c1.487,0,2.697-1.21,2.697-2.697v-5.807
		c0-0.276,0.224-0.5,0.5-0.5s0.5,0.224,0.5,0.5v5.807C28.954,32.713,27.295,34.371,25.257,34.371z"/>
	<path d="M24.132,13.038H0.5c-0.276,0-0.5-0.224-0.5-0.5s0.224-0.5,0.5-0.5h23.632c0.276,0,0.5,0.224,0.5,0.5
		S24.409,13.038,24.132,13.038z"/>
	<path d="M24.132,23.705H0.5c-0.276,0-0.5-0.224-0.5-0.5s0.224-0.5,0.5-0.5h23.632c0.276,0,0.5,0.224,0.5,0.5
		S24.409,23.705,24.132,23.705z"/>
	<circle cx="5.811" cy="7.366" r="0.983"/>
	<circle cx="10.638" cy="7.366" r="0.983"/>
	<path d="M28.455,25.16c-4.019,0-7.289-3.269-7.289-7.285c0-4.019,3.27-7.287,7.289-7.287c4.018,0,7.287,3.269,7.287,7.287
		C35.742,21.892,32.473,25.16,28.455,25.16z M28.455,11.588c-3.468,0-6.289,2.82-6.289,6.287c0,3.466,2.821,6.285,6.289,6.285
		c3.467,0,6.287-2.819,6.287-6.285C34.742,14.408,31.922,11.588,28.455,11.588z"/>
	<path d="M31.525,18.375H25.51c-0.276,0-0.5-0.224-0.5-0.5s0.224-0.5,0.5-0.5h6.016c0.276,0,0.5,0.224,0.5,0.5
		S31.802,18.375,31.525,18.375z"/>
</g>
<g>
</g>
<g>
</g>
<g>
</g>
<g>
</g>
<g>
</g>
<g>
</g>
<g>
</g>
<g>
</g>
<g>
</g>
<g>
</g>
<g>
</g>
<g>
</g>
<g>
</g>
<g>
</g>
<g>
</g>
</svg>
