<?xml version="1.0" encoding="iso-8859-1"?>
<!-- Generator: Adobe Illustrator 19.0.0, SVG Export Plug-In . SVG Version: 6.00 Build 0)  -->
<svg version="1.1" id="Capa_1" xmlns="http://www.w3.org/2000/svg" xmlns:xlink="http://www.w3.org/1999/xlink" x="0px" y="0px"
	 viewBox="0 0 35.727 35.727" style="enable-background:new 0 0 35.727 35.727;" xml:space="preserve">
<g>
	<path d="M25.257,34.363H3.697C1.659,34.363,0,32.705,0,30.666V5.061c0-2.039,1.659-3.697,3.697-3.697h21.56
		c2.039,0,3.697,1.658,3.697,3.697v5.715c0,0.276-0.224,0.5-0.5,0.5s-0.5-0.224-0.5-0.5V5.061c0-1.487-1.21-2.697-2.697-2.697H3.697
		C2.21,2.363,1,3.573,1,5.061v25.605c0,1.487,1.21,2.697,2.697,2.697h21.56c1.487,0,2.697-1.21,2.697-2.697v-5.807
		c0-0.276,0.224-0.5,0.5-0.5s0.5,0.224,0.5,0.5v5.807C28.954,32.705,27.295,34.363,25.257,34.363z"/>
	<path d="M24.132,13.03H0.5c-0.276,0-0.5-0.224-0.5-0.5s0.224-0.5,0.5-0.5h23.632c0.276,0,0.5,0.224,0.5,0.5
		S24.409,13.03,24.132,13.03z"/>
	<path d="M24.132,23.697H0.5c-0.276,0-0.5-0.224-0.5-0.5s0.224-0.5,0.5-0.5h23.632c0.276,0,0.5,0.224,0.5,0.5
		S24.409,23.697,24.132,23.697z"/>
	<circle cx="5.811" cy="7.358" r="0.983"/>
	<circle cx="10.638" cy="7.358" r="0.983"/>
	<path d="M28.454,25.136c-4.01,0-7.272-3.261-7.272-7.27c0-4.012,3.262-7.275,7.272-7.275s7.272,3.264,7.272,7.275
		C35.727,21.875,32.464,25.136,28.454,25.136z M28.454,11.591c-3.458,0-6.272,2.815-6.272,6.275c0,3.457,2.814,6.27,6.272,6.27
		s6.272-2.813,6.272-6.27C34.727,14.406,31.913,11.591,28.454,11.591z"/>
	<path d="M28.454,18.366c-0.132,0-0.26-0.053-0.354-0.146s-0.146-0.221-0.146-0.354v-4.078c0-0.276,0.224-0.5,0.5-0.5
		s0.5,0.224,0.5,0.5v3.577l2.173-0.002h0c0.276,0,0.5,0.224,0.5,0.499c0,0.276-0.223,0.501-0.5,0.501L28.454,18.366L28.454,18.366z"
		/>
</g>
<g>
</g>
<g>
</g>
<g>
</g>
<g>
</g>
<g>
</g>
<g>
</g>
<g>
</g>
<g>
</g>
<g>
</g>
<g>
</g>
<g>
</g>
<g>
</g>
<g>
</g>
<g>
</g>
<g>
</g>
</svg>
