<?xml version="1.0" encoding="iso-8859-1"?>
<!-- Generator: Adobe Illustrator 19.0.0, SVG Export Plug-In . SVG Version: 6.00 Build 0)  -->
<svg version="1.1" id="Capa_1" xmlns="http://www.w3.org/2000/svg" xmlns:xlink="http://www.w3.org/1999/xlink" x="0px" y="0px"
	 viewBox="0 0 512.005 512.005" style="enable-background:new 0 0 512.005 512.005;" xml:space="preserve">
<g>
	<g>
		<path d="M162.677,199.606c-1.365-2.679-4.036-4.437-7.031-4.633l-71.786-4.787c-3.72-0.367-7.159,1.937-8.516,5.401
			L23.593,327.845c-1.391,3.55-0.256,7.586,2.782,9.898c1.519,1.16,3.345,1.741,5.162,1.741c1.8,0,3.601-0.563,5.12-1.706
			l42.954-32.211l25.01,5c4.079,0.811,8.157-1.425,9.642-5.324c13.431-35.181,29.6-67.895,48.039-97.222
			C163.898,205.476,164.043,202.276,162.677,199.606z M100.934,292.425l-21.724-4.343c-2.372-0.469-4.847,0.094-6.792,1.544
			l-22.006,16.502l38.542-98.502l51.521,3.43C125.628,236.186,112.368,263.473,100.934,292.425z"/>
	</g>
</g>
<g>
	<g>
		<path d="M321.822,428.156l-4.787-71.795c-0.205-3.004-1.963-5.674-4.642-7.04c-2.671-1.365-5.871-1.229-8.413,0.375
			c-29.336,18.439-62.042,34.609-97.222,48.039c-3.891,1.476-6.144,5.555-5.324,9.642l5,25.01l-32.211,42.945
			c-2.287,3.055-2.278,7.253,0.034,10.291c1.647,2.167,4.181,3.37,6.792,3.37c1.041,0,2.091-0.196,3.114-0.572l132.258-51.751
			C319.885,435.315,322.069,431.867,321.822,428.156z M205.87,461.579l16.502-22.006c1.451-1.937,2.014-4.411,1.536-6.792
			l-4.343-21.716c28.96-11.434,56.239-24.694,81.368-39.541l3.439,51.512L205.87,461.579z"/>
	</g>
</g>
<g>
	<g>
		<path d="M247.45,256.007h-57.494c-3.097,0-5.947,1.681-7.458,4.386l-72.162,129.664c-1.877,3.379-1.246,7.611,1.536,10.291
			c1.63,1.57,3.771,2.389,5.922,2.389c1.519,0,3.046-0.401,4.411-1.237l129.664-78.467c2.551-1.544,4.113-4.309,4.113-7.295V264.54
			C255.983,259.83,252.16,256.007,247.45,256.007z M238.918,310.933l-98.033,59.328l54.081-97.18v-0.009h43.952V310.933z"/>
	</g>
</g>
<g>
	<g>
		<path d="M511.574,8.224c-0.35-4.155-3.643-7.449-7.799-7.799c-2.833-0.222-283.825-19.839-405.451,298.724
			c-1.203,3.149-0.444,6.698,1.937,9.079l40.573,40.573c1.903,1.903,4.565,2.773,7.236,2.415c2.654-0.384,4.975-1.988,6.272-4.335
			l40.65-73.808h43.927v37.962l-74.252,46.879c-2.193,1.391-3.635,3.695-3.925,6.272c-0.29,2.577,0.614,5.145,2.449,6.98
			l40.573,40.573c1.63,1.63,3.806,2.5,6.033,2.5c1.024,0,2.056-0.179,3.046-0.563C531.421,292.041,511.813,11.049,511.574,8.224z
			 M466.811,159.613c-29.942,74.081-98.46,174.794-254.908,236.136l-29.097-29.097l69.201-43.688
			c2.474-1.57,3.976-4.292,3.976-7.219v-51.197c0-4.71-3.823-8.533-8.533-8.533h-57.511c-3.114,0-5.973,1.698-7.475,4.42
			l-37.604,68.279l-28.61-28.619C223.021,27.713,450.607,16.569,494.849,17.192C495.165,37.091,493.339,93.97,466.811,159.613z"/>
	</g>
</g>
<g>
	<g>
		<path d="M146.166,376.874c-1.852-2.457-4.804-3.652-7.697-3.345c0.299-2.901-0.896-5.845-3.345-7.697
			c-12.867-9.727-29.472-12.961-45.573-8.883c-17.091,4.343-31.068,15.999-38.338,31.998L0.768,499.933
			c-1.476,3.242-0.785,7.057,1.732,9.565c1.63,1.638,3.814,2.5,6.033,2.5c1.195,0,2.398-0.256,3.533-0.768l110.986-50.454
			c15.99-7.261,27.646-21.238,31.989-38.329C159.128,406.363,155.894,389.75,146.166,376.874z M138.504,418.249
			c-3.055,12.04-11.263,21.878-22.509,26.998l-90.277,41.034l41.034-90.285c5.111-11.246,14.958-19.455,26.998-22.509
			c3.166-0.802,6.348-1.195,9.488-1.195c5.316,0,10.512,1.135,15.248,3.345l-8.123,14.378c-1.886,3.336-1.314,7.526,1.399,10.231
			c2.713,2.722,6.903,3.285,10.231,1.399l14.378-8.132C139.869,401.039,140.663,409.733,138.504,418.249z"/>
	</g>
</g>
<g>
	<g>
		<path d="M511.574,8.233c-0.35-4.155-3.644-7.449-7.799-7.799c-3.328-0.265-82.427-6.255-175.451,36.597
			c-2.534,1.16-4.335,3.498-4.83,6.246s0.393,5.563,2.364,7.534l135.33,135.33c1.613,1.613,3.789,2.5,6.033,2.5
			c0.503,0,1.007-0.043,1.51-0.128c2.748-0.495,5.077-2.295,6.246-4.83C517.837,90.659,511.847,11.552,511.574,8.233z
			 M464.456,165.261L346.738,47.543c68.1-28.747,127.735-30.727,148.12-30.385C495.199,37.56,493.279,97.008,464.456,165.261z"/>
	</g>
</g>
<g>
	<g>
		<path d="M376.841,135.158c-28.696-28.696-75.378-28.696-104.074,0s-28.696,75.378,0,104.074
			c14.344,14.352,33.193,21.52,52.033,21.52c18.849,0,37.689-7.176,52.041-21.52C405.537,210.536,405.537,163.853,376.841,135.158z
			 M364.776,227.166c-22.04,22.04-57.903,22.04-79.943,0c-22.04-22.04-22.04-57.903,0-79.943
			c11.016-11.016,25.496-16.528,39.968-16.528s28.952,5.512,39.976,16.528C386.816,169.263,386.816,205.126,364.776,227.166z"/>
	</g>
</g>
<g>
	<g>
		<path d="M341.763,204.162c-9.352,9.369-24.574,9.36-33.935,0c-9.352-9.36-9.352-24.574,0-33.935c9.352-9.352,24.574-9.36,33.935,0
			c3.328,3.336,8.738,3.336,12.065,0c3.336-3.336,3.336-8.729,0-12.065c-15.999-16.007-42.058-16.007-58.065,0
			c-16.008,16.007-16.008,42.058,0,58.065c8.004,8.004,18.525,12.006,29.037,12.006c10.521,0,21.033-4.002,29.028-12.006
			c3.336-3.336,3.336-8.729,0-12.065C350.5,200.826,345.091,200.826,341.763,204.162z"/>
	</g>
</g>
<g>
</g>
<g>
</g>
<g>
</g>
<g>
</g>
<g>
</g>
<g>
</g>
<g>
</g>
<g>
</g>
<g>
</g>
<g>
</g>
<g>
</g>
<g>
</g>
<g>
</g>
<g>
</g>
<g>
</g>
</svg>
