<?xml version="1.0" encoding="iso-8859-1"?>
<!-- Generator: Adobe Illustrator 19.0.0, SVG Export Plug-In . SVG Version: 6.00 Build 0)  -->
<svg version="1.1" id="Capa_1" xmlns="http://www.w3.org/2000/svg" xmlns:xlink="http://www.w3.org/1999/xlink" x="0px" y="0px"
	 viewBox="0 0 31.461 31.461" style="enable-background:new 0 0 31.461 31.461;" xml:space="preserve">
<path d="M15.731,31.461c-1.428,0-2.589-1.162-2.589-2.59l0.747-15.694c-2.175-0.816-3.46-3.184-3.46-6.427
	c0-3.722,2.378-6.75,5.302-6.75c2.923,0,5.302,3.028,5.302,6.75c0,3.243-1.285,5.61-3.459,6.427l0.746,15.671
	C18.32,30.299,17.158,31.461,15.731,31.461z M15.731,1c-2.372,0-4.302,2.579-4.302,5.75c0,2.954,1.164,5.044,3.112,5.589
	c0.225,0.063,0.376,0.272,0.365,0.505l-0.765,16.051c0,0.854,0.713,1.566,1.59,1.566c0.876,0,1.589-0.713,1.589-1.59l-0.764-16.027
	c-0.011-0.232,0.14-0.442,0.365-0.505c1.949-0.545,3.112-2.635,3.112-5.589C20.032,3.579,18.103,1,15.731,1z"/>
<g>
</g>
<g>
</g>
<g>
</g>
<g>
</g>
<g>
</g>
<g>
</g>
<g>
</g>
<g>
</g>
<g>
</g>
<g>
</g>
<g>
</g>
<g>
</g>
<g>
</g>
<g>
</g>
<g>
</g>
</svg>
