<?xml version="1.0" encoding="iso-8859-1"?>
<!-- Generator: Adobe Illustrator 19.0.0, SVG Export Plug-In . SVG Version: 6.00 Build 0)  -->
<svg version="1.1" id="Capa_1" xmlns="http://www.w3.org/2000/svg" xmlns:xlink="http://www.w3.org/1999/xlink" x="0px" y="0px"
	 viewBox="0 0 34.861 34.861" style="enable-background:new 0 0 34.861 34.861;" xml:space="preserve">
<g>
	<g>
		<path d="M9.575,24.769c-0.276,0-0.5-0.224-0.5-0.5V7.908c0-1.93,1.481-3.5,3.303-3.5s3.303,1.57,3.303,3.5v10.637
			c0,0.276-0.224,0.5-0.5,0.5s-0.5-0.224-0.5-0.5V7.908c0-1.378-1.033-2.5-2.303-2.5s-2.303,1.122-2.303,2.5v16.361
			C10.075,24.545,9.851,24.769,9.575,24.769z"/>
		<path d="M11.74,34.861c-0.128,0-0.256-0.049-0.354-0.146l-7.412-7.412c-1.755-1.754-2.135-4.229-0.847-5.517
			c1.288-1.289,3.416-1.255,4.745,0.074l2.056,2.056c0.195,0.195,0.195,0.512,0,0.707s-0.512,0.195-0.707,0l-2.056-2.056
			c-0.939-0.938-2.433-0.972-3.331-0.074c-0.883,0.883-0.495,2.762,0.847,4.103l7.412,7.412c0.195,0.195,0.195,0.512,0,0.707
			C11.996,34.812,11.868,34.861,11.74,34.861z"/>
		<path d="M20.787,19.617c-0.276,0-0.5-0.224-0.5-0.5v-2.521c0-1.115-1.033-2.021-2.303-2.021c-1.271,0-2.304,0.907-2.304,2.021
			v2.521c0,0.276-0.224,0.5-0.5,0.5s-0.5-0.224-0.5-0.5v-2.521c0-1.666,1.482-3.021,3.304-3.021s3.303,1.355,3.303,3.021v2.521
			C21.287,19.393,21.063,19.617,20.787,19.617z"/>
		<path d="M26.391,19.617c-0.276,0-0.5-0.224-0.5-0.5v-2.104c0-0.87-1.054-1.604-2.302-1.604s-2.303,0.735-2.303,1.604v2.104
			c0,0.276-0.224,0.5-0.5,0.5s-0.5-0.224-0.5-0.5v-2.104c0-1.436,1.481-2.604,3.303-2.604c1.82,0,3.302,1.168,3.302,2.604v2.104
			C26.891,19.393,26.668,19.617,26.391,19.617z"/>
		<path d="M31.997,26.035c-0.276,0-0.5-0.224-0.5-0.5v-6.877c0-1.378-1.033-2.5-2.303-2.5c-1.357,0-2.303,0.648-2.303,1.229v1.729
			c0,0.276-0.224,0.5-0.5,0.5s-0.5-0.224-0.5-0.5v-1.729c0-1.25,1.451-2.229,3.303-2.229c1.821,0,3.303,1.57,3.303,3.5v6.877
			C32.497,25.811,32.273,26.035,31.997,26.035z"/>
		<path d="M27.997,34.857H11.779c-0.276,0-0.519-0.224-0.519-0.5s0.206-0.5,0.482-0.5h16.254c1.93,0,3.5-1.57,3.5-3.5V24.96
			c0-0.276,0.224-0.5,0.5-0.5c0.276,0,0.5,0.224,0.5,0.5v5.396C32.497,32.838,30.478,34.857,27.997,34.857z"/>
	</g>
	<path d="M19.128,8.347c-0.276,0-0.5-0.224-0.5-0.5V7.25c0-3.446-2.804-6.25-6.25-6.25s-6.25,2.804-6.25,6.25v0.597
		c0,0.276-0.224,0.5-0.5,0.5s-0.5-0.224-0.5-0.5V7.25C5.128,3.252,8.38,0,12.378,0s7.25,3.252,7.25,7.25v0.597
		C19.628,8.124,19.404,8.347,19.128,8.347z"/>
</g>
<g>
</g>
<g>
</g>
<g>
</g>
<g>
</g>
<g>
</g>
<g>
</g>
<g>
</g>
<g>
</g>
<g>
</g>
<g>
</g>
<g>
</g>
<g>
</g>
<g>
</g>
<g>
</g>
<g>
</g>
</svg>
