<?xml version="1.0" encoding="iso-8859-1"?>
<!-- Generator: Adobe Illustrator 19.0.0, SVG Export Plug-In . SVG Version: 6.00 Build 0)  -->
<svg version="1.1" id="Capa_1" xmlns="http://www.w3.org/2000/svg" xmlns:xlink="http://www.w3.org/1999/xlink" x="0px" y="0px"
	 viewBox="0 0 42.585 42.585" style="enable-background:new 0 0 42.585 42.585;" xml:space="preserve">
<g>
	<g>
		<path d="M14.934,32.494c-0.276,0-0.5-0.224-0.5-0.5V15.632c0-1.93,1.481-3.5,3.303-3.5s3.303,1.57,3.303,3.5v10.637
			c0,0.276-0.224,0.5-0.5,0.5s-0.5-0.224-0.5-0.5V15.632c0-1.378-1.033-2.5-2.303-2.5s-2.303,1.122-2.303,2.5v16.361
			C15.434,32.27,15.21,32.494,14.934,32.494z"/>
		<path d="M17.099,42.585c-0.128,0-0.256-0.049-0.354-0.146l-7.413-7.412c-0.824-0.824-1.376-1.835-1.555-2.846
			c-0.189-1.076,0.062-2.025,0.708-2.67c1.287-1.288,3.415-1.255,4.745,0.074l2.056,2.056c0.195,0.195,0.195,0.512,0,0.707
			s-0.512,0.195-0.707,0l-2.056-2.056c-0.94-0.939-2.435-0.972-3.331-0.074c-0.409,0.409-0.562,1.044-0.43,1.79
			c0.143,0.811,0.596,1.632,1.277,2.313l7.413,7.412c0.195,0.195,0.195,0.512,0,0.707C17.355,42.537,17.227,42.585,17.099,42.585z"
			/>
		<path d="M26.146,27.341c-0.276,0-0.5-0.224-0.5-0.5V24.32c0-1.115-1.033-2.021-2.303-2.021s-2.303,0.907-2.303,2.021v2.521
			c0,0.276-0.224,0.5-0.5,0.5s-0.5-0.224-0.5-0.5V24.32c0-1.666,1.482-3.021,3.303-3.021s3.303,1.355,3.303,3.021v2.521
			C26.646,27.118,26.422,27.341,26.146,27.341z"/>
		<path d="M31.75,27.341c-0.276,0-0.5-0.224-0.5-0.5v-2.104c0-0.87-1.054-1.604-2.302-1.604s-2.302,0.735-2.302,1.604v2.104
			c0,0.276-0.224,0.5-0.5,0.5s-0.5-0.224-0.5-0.5v-2.104c0-1.436,1.481-2.604,3.302-2.604s3.302,1.168,3.302,2.604v2.104
			C32.25,27.118,32.027,27.341,31.75,27.341z"/>
		<path d="M37.356,33.759c-0.276,0-0.5-0.224-0.5-0.5v-6.877c0-1.378-1.033-2.5-2.303-2.5c-1.357,0-2.303,0.648-2.303,1.229v1.729
			c0,0.276-0.224,0.5-0.5,0.5s-0.5-0.224-0.5-0.5v-1.729c0-1.25,1.451-2.229,3.303-2.229c1.821,0,3.303,1.57,3.303,3.5v6.877
			C37.856,33.536,37.632,33.759,37.356,33.759z"/>
		<path d="M33.356,42.582H17.138c-0.276,0-0.518-0.224-0.518-0.5s0.206-0.5,0.482-0.5h16.254c1.93,0,3.5-1.57,3.5-3.5v-5.396
			c0-0.276,0.224-0.5,0.5-0.5s0.5,0.224,0.5,0.5v5.396C37.856,40.563,35.837,42.582,33.356,42.582z"/>
	</g>
	<path d="M17.737,7.197c-0.276,0-0.5-0.224-0.5-0.5V0.5c0-0.276,0.224-0.5,0.5-0.5s0.5,0.224,0.5,0.5v6.197
		C18.237,6.973,18.013,7.197,17.737,7.197z"/>
	<path d="M21.857,8.916c-0.128,0-0.256-0.049-0.354-0.146c-0.195-0.195-0.195-0.512,0-0.707l4.381-4.382
		c0.195-0.195,0.512-0.195,0.707,0s0.195,0.512,0,0.707L22.21,8.769C22.113,8.867,21.985,8.916,21.857,8.916z"/>
	<path d="M30.244,12.408h-6.197c-0.276,0-0.5-0.224-0.5-0.5s0.224-0.5,0.5-0.5h6.197c0.276,0,0.5,0.224,0.5,0.5
		S30.521,12.408,30.244,12.408z"/>
	<g>
		<path d="M13.617,8.916c-0.128,0-0.256-0.049-0.354-0.146L8.881,4.387c-0.195-0.195-0.195-0.512,0-0.707s0.512-0.195,0.707,0
			l4.382,4.382c0.195,0.195,0.195,0.512,0,0.707C13.873,8.867,13.745,8.916,13.617,8.916z"/>
		<path d="M11.426,12.408H5.229c-0.276,0-0.5-0.224-0.5-0.5s0.224-0.5,0.5-0.5h6.196c0.276,0,0.5,0.224,0.5,0.5
			S11.702,12.408,11.426,12.408z"/>
	</g>
</g>
<g>
</g>
<g>
</g>
<g>
</g>
<g>
</g>
<g>
</g>
<g>
</g>
<g>
</g>
<g>
</g>
<g>
</g>
<g>
</g>
<g>
</g>
<g>
</g>
<g>
</g>
<g>
</g>
<g>
</g>
</svg>
