<?xml version="1.0" encoding="iso-8859-1"?>
<!-- Generator: Adobe Illustrator 19.0.0, SVG Export Plug-In . SVG Version: 6.00 Build 0)  -->
<svg version="1.1" id="Capa_1" xmlns="http://www.w3.org/2000/svg" xmlns:xlink="http://www.w3.org/1999/xlink" x="0px" y="0px"
	 viewBox="0 0 31 31" style="enable-background:new 0 0 31 31;" xml:space="preserve">
<g>
	<path d="M15.5,31c-5.252,0-9.525-4.273-9.525-9.525s4.273-9.525,9.525-9.525s9.525,4.273,9.525,9.525S20.752,31,15.5,31z
		 M15.5,12.949c-4.701,0-8.525,3.824-8.525,8.525S10.799,30,15.5,30s8.525-3.824,8.525-8.525S20.201,12.949,15.5,12.949z"/>
	<path d="M15.5,12.949c-3.57,0-6.475-2.904-6.475-6.475c0-0.276,0.224-0.5,0.5-0.5s0.5,0.224,0.5,0.5
		c0,3.019,2.456,5.475,5.475,5.475s5.475-2.456,5.475-5.475c0-0.276,0.224-0.5,0.5-0.5s0.5,0.224,0.5,0.5
		C21.975,10.045,19.07,12.949,15.5,12.949z"/>
	<path d="M21.475,6.975c-0.276,0-0.5-0.224-0.5-0.5c0-3.57,2.904-6.475,6.475-6.475c0.276,0,0.5,0.224,0.5,0.5S27.726,1,27.449,1
		c-3.019,0-5.475,2.456-5.475,5.475C21.975,6.751,21.751,6.975,21.475,6.975z"/>
	<path d="M9.525,6.975c-0.276,0-0.5-0.224-0.5-0.5C9.025,3.456,6.569,1,3.551,1c-0.276,0-0.5-0.224-0.5-0.5S3.274,0,3.551,0
		c3.57,0,6.475,2.904,6.475,6.475C10.025,6.751,9.802,6.975,9.525,6.975z"/>
</g>
<g>
</g>
<g>
</g>
<g>
</g>
<g>
</g>
<g>
</g>
<g>
</g>
<g>
</g>
<g>
</g>
<g>
</g>
<g>
</g>
<g>
</g>
<g>
</g>
<g>
</g>
<g>
</g>
<g>
</g>
</svg>
