<?xml version="1.0" encoding="iso-8859-1"?>
<!-- Generator: Adobe Illustrator 19.0.0, SVG Export Plug-In . SVG Version: 6.00 Build 0)  -->
<svg version="1.1" id="Capa_1" xmlns="http://www.w3.org/2000/svg" xmlns:xlink="http://www.w3.org/1999/xlink" x="0px" y="0px"
	 viewBox="0 0 480.655 480.655" style="enable-background:new 0 0 480.655 480.655;" xml:space="preserve">
<g>
	<g>
		<path d="M464.255,373.681c-0.001-0.001-0.003-0.003-0.004-0.004l-0.008,0.008L362.419,271.861c-3.124-3.123-8.188-3.123-11.312,0
			l-22.656,22.664l-28.288-28.288l29.152-29.12c40.169,9.009,82.157-3.113,111.344-32.144c32.61-32.854,43.565-81.461,28.2-125.128
			c-0.917-2.585-3.093-4.52-5.768-5.128c-2.677-0.595-5.473,0.209-7.424,2.136l-56.8,56.752l-42.4-14.136l-14.136-42.4l56.752-56.8
			c3.121-3.127,3.116-8.193-0.012-11.314c-0.841-0.84-1.86-1.481-2.98-1.878c-62.431-22.241-131.071,10.34-153.312,72.77
			c-7.628,21.411-9.018,44.548-4.008,66.718l-29.12,29.152L107.675,73.669l-3.2-34.488c-0.265-2.859-2.042-5.356-4.656-6.544
			L37.595,4.397c-3.029-1.383-6.597-0.746-8.96,1.6l-22.56,22.56c-2.346,2.363-2.983,5.931-1.6,8.96l28.24,62.24
			c1.187,2.619,3.688,4.4,6.552,4.664l34.488,3.2l102.016,101.976l-159.4,159.384c-21.828,21.888-21.828,57.312,0,79.2l11.28,11.28
			c21.89,21.824,57.31,21.824,79.2,0l159.44-159.352l28.288,28.28l-22.664,22.672c-3.123,3.124-3.123,8.188,0,11.312
			l101.824,101.816c21.883,21.841,57.317,21.841,79.2,0l11.312-11.312C486.121,431.009,486.123,395.551,464.255,373.681z
			 M82.987,94.261c-1.32-1.321-3.06-2.139-4.92-2.312l-32.736-3.008l-24-52.96l14.72-14.728l52.96,24l3.016,32.728
			c0.171,1.859,0.986,3.599,2.304,4.92l104,104.096l-11.256,11.256L82.987,94.261z M95.571,448.181
			c-15.642,15.608-40.966,15.608-56.608,0l-11.28-11.28c-15.608-15.642-15.608-40.966,0-56.608l225.6-225.6
			c2.022-2.021,2.812-4.967,2.072-7.728c-14.712-55.622,18.452-112.639,74.074-127.351c15.924-4.212,32.62-4.588,48.718-1.097
			l-50.64,50.704c-2.143,2.145-2.89,5.317-1.928,8.192l16.96,50.88c0.798,2.388,2.674,4.262,5.064,5.056l50.88,16.952
			c2.869,0.957,6.033,0.214,8.176-1.92l50.712-50.64c12.353,56.066-23.084,111.531-79.15,123.884
			c-16.287,3.589-33.198,3.206-49.306-1.116c-2.759-0.752-5.709,0.04-7.72,2.072L95.571,448.181z M277.603,288.797l9.088-9.088
			l2.16-2.16l28.32,28.288l-11.28,11.28L277.603,288.797z M452.931,441.565v0.032l-11.312,11.28
			c-15.632,15.594-40.936,15.594-56.568,0l-96.168-96.16l67.88-67.888l96.168,96.168
			C468.552,400.618,468.552,425.944,452.931,441.565z"/>
	</g>
</g>
<g>
</g>
<g>
</g>
<g>
</g>
<g>
</g>
<g>
</g>
<g>
</g>
<g>
</g>
<g>
</g>
<g>
</g>
<g>
</g>
<g>
</g>
<g>
</g>
<g>
</g>
<g>
</g>
<g>
</g>
</svg>
