<?xml version="1.0" encoding="iso-8859-1"?>
<!-- Generator: Adobe Illustrator 19.0.0, SVG Export Plug-In . SVG Version: 6.00 Build 0)  -->
<svg version="1.1" id="Capa_1" xmlns="http://www.w3.org/2000/svg" xmlns:xlink="http://www.w3.org/1999/xlink" x="0px" y="0px"
	 viewBox="0 0 36.539 36.539" style="enable-background:new 0 0 36.539 36.539;" xml:space="preserve">
<g>
	<path d="M4.09,15.786c-1.283,0-2.246-0.309-2.926-0.935c-1.238-1.139-1.19-2.986-1.148-4.615c0.007-0.269,0.014-0.53,0.014-0.779
		C0.028,7.718,1.933,5.819,5.122,4.376c3.509-1.587,8.177-2.461,13.146-2.461c4.971,0,9.64,0.874,13.148,2.461
		c3.19,1.442,5.094,3.342,5.093,5.08c0,0.251,0.007,0.514,0.014,0.782c0.041,1.629,0.088,3.475-1.148,4.613
		c-0.854,0.785-2.155,1.073-3.982,0.873c-5.39-0.586-5.373-2.732-5.354-5.219l0.002-0.442c0-0.41-0.561-1.748-7.772-1.748
		c-2.354,0.001-4.218,0.143-5.54,0.423c-0.833,0.177-2.23,0.583-2.23,1.324L10.5,10.51c0.018,2.485,0.033,4.631-5.354,5.215
		C4.773,15.766,4.421,15.786,4.09,15.786z M18.269,2.915c-4.83,0-9.353,0.843-12.734,2.372c-2.737,1.237-4.505,2.874-4.505,4.17
		c0,0.258-0.007,0.528-0.015,0.805c-0.036,1.417-0.077,3.022,0.826,3.854c0.62,0.57,1.699,0.777,3.196,0.614
		c4.49-0.486,4.479-1.89,4.463-4.213l-0.002-0.455C9.497,8.96,10.515,8.185,12.522,7.76c1.39-0.294,3.323-0.443,5.747-0.444l0,0
		c5.985,0,8.772,0.873,8.772,2.748l-0.002,0.45c-0.019,2.325-0.029,3.729,4.461,4.217c1.507,0.164,2.577-0.044,3.197-0.615
		c0.903-0.83,0.862-2.436,0.826-3.852c-0.007-0.277-0.014-0.549-0.014-0.808c0.001-1.295-1.768-2.932-4.505-4.169
		C27.623,3.758,23.1,2.915,18.269,2.915z"/>
	<path d="M11.24,21.956H6.573c-0.276,0-0.5-0.224-0.5-0.5v-3c0-0.276,0.224-0.5,0.5-0.5h4.667c0.276,0,0.5,0.224,0.5,0.5v3
		C11.74,21.733,11.517,21.956,11.24,21.956z M7.073,20.956h3.667v-2H7.073V20.956z"/>
	<path d="M20.603,21.956h-4.667c-0.276,0-0.5-0.224-0.5-0.5v-3c0-0.276,0.224-0.5,0.5-0.5h4.667c0.276,0,0.5,0.224,0.5,0.5v3
		C21.103,21.733,20.879,21.956,20.603,21.956z M16.436,20.956h3.667v-2h-3.667V20.956z"/>
	<path d="M29.964,21.956h-4.666c-0.276,0-0.5-0.224-0.5-0.5v-3c0-0.276,0.224-0.5,0.5-0.5h4.666c0.276,0,0.5,0.224,0.5,0.5v3
		C30.464,21.733,30.24,21.956,29.964,21.956z M25.798,20.956h3.666v-2h-3.666V20.956z"/>
	<path d="M11.24,28.289H6.573c-0.276,0-0.5-0.224-0.5-0.5v-3c0-0.276,0.224-0.5,0.5-0.5h4.667c0.276,0,0.5,0.224,0.5,0.5v3
		C11.74,28.066,11.517,28.289,11.24,28.289z M7.073,27.289h3.667v-2H7.073V27.289z"/>
	<path d="M20.603,28.289h-4.667c-0.276,0-0.5-0.224-0.5-0.5v-3c0-0.276,0.224-0.5,0.5-0.5h4.667c0.276,0,0.5,0.224,0.5,0.5v3
		C21.103,28.066,20.879,28.289,20.603,28.289z M16.436,27.289h3.667v-2h-3.667V27.289z"/>
	<path d="M29.964,28.289h-4.666c-0.276,0-0.5-0.224-0.5-0.5v-3c0-0.276,0.224-0.5,0.5-0.5h4.666c0.276,0,0.5,0.224,0.5,0.5v3
		C30.464,28.066,30.24,28.289,29.964,28.289z M25.798,27.289h3.666v-2h-3.666V27.289z"/>
	<path d="M11.24,34.623H6.573c-0.276,0-0.5-0.224-0.5-0.5v-3c0-0.276,0.224-0.5,0.5-0.5h4.667c0.276,0,0.5,0.224,0.5,0.5v3
		C11.74,34.4,11.517,34.623,11.24,34.623z M7.073,33.623h3.667v-2H7.073V33.623z"/>
	<path d="M20.603,34.623h-4.667c-0.276,0-0.5-0.224-0.5-0.5v-3c0-0.276,0.224-0.5,0.5-0.5h4.667c0.276,0,0.5,0.224,0.5,0.5v3
		C21.103,34.4,20.879,34.623,20.603,34.623z M16.436,33.623h3.667v-2h-3.667V33.623z"/>
	<path d="M29.964,34.623h-4.666c-0.276,0-0.5-0.224-0.5-0.5v-3c0-0.276,0.224-0.5,0.5-0.5h4.666c0.276,0,0.5,0.224,0.5,0.5v3
		C30.464,34.4,30.24,34.623,29.964,34.623z M25.798,33.623h3.666v-2h-3.666V33.623z"/>
</g>
<g>
</g>
<g>
</g>
<g>
</g>
<g>
</g>
<g>
</g>
<g>
</g>
<g>
</g>
<g>
</g>
<g>
</g>
<g>
</g>
<g>
</g>
<g>
</g>
<g>
</g>
<g>
</g>
<g>
</g>
</svg>
