<?xml version="1.0" encoding="iso-8859-1"?>
<!-- Generator: Adobe Illustrator 19.0.0, SVG Export Plug-In . SVG Version: 6.00 Build 0)  -->
<svg version="1.1" id="Capa_1" xmlns="http://www.w3.org/2000/svg" xmlns:xlink="http://www.w3.org/1999/xlink" x="0px" y="0px"
	 viewBox="0 0 33 33" style="enable-background:new 0 0 33 33;" xml:space="preserve">
<g>
	<path d="M26.529,30.421H3.094C1.388,30.421,0,29.033,0,27.327V13.153c0-1.706,1.388-3.095,3.094-3.095h23.435
		c1.706,0,3.094,1.389,3.094,3.095v14.174C29.623,29.033,28.235,30.421,26.529,30.421z M3.094,11.059
		C1.939,11.059,1,11.998,1,13.153v14.174c0,1.154,0.939,2.094,2.094,2.094h23.435c1.155,0,2.094-0.939,2.094-2.094V13.153
		c0-1.155-0.939-2.095-2.094-2.095H3.094z"/>
	<g>
		<path d="M4.83,32.275c-0.852,0-1.545-0.693-1.545-1.546v-0.809c0-0.276,0.224-0.5,0.5-0.5h2.09c0.276,0,0.5,0.224,0.5,0.5v0.809
			C6.375,31.582,5.682,32.275,4.83,32.275z M4.285,30.421v0.309c0,0.301,0.245,0.546,0.545,0.546c0.301,0,0.545-0.245,0.545-0.546
			v-0.309H4.285z"/>
		<path d="M24.793,32.275c-0.852,0-1.545-0.693-1.545-1.546v-0.809c0-0.276,0.224-0.5,0.5-0.5h2.09c0.276,0,0.5,0.224,0.5,0.5v0.809
			C26.339,31.582,25.646,32.275,24.793,32.275z M24.249,30.421v0.309c0,0.301,0.245,0.546,0.545,0.546
			c0.301,0,0.545-0.245,0.545-0.546v-0.309H24.249z"/>
	</g>
	<path d="M29.123,16.838c-0.087,0-0.173-0.022-0.251-0.067c-0.154-0.09-0.249-0.254-0.249-0.433v-2.171
		c0-0.18,0.096-0.345,0.252-0.435l1.967-1.124c0.451-0.258,0.989-0.255,1.438,0.005C32.731,12.874,33,13.341,33,13.861
		c0,0.516-0.278,0.996-0.726,1.252c0,0,0,0,0,0.001l-2.902,1.658C29.294,16.816,29.208,16.838,29.123,16.838z M29.623,14.457v1.02
		l2.154-1.23C31.915,14.167,32,14.02,32,13.861c0-0.23-0.154-0.345-0.221-0.383c-0.067-0.039-0.243-0.115-0.44-0.002L29.623,14.457z
		"/>
	<path d="M20.48,11.059H9.143c-0.276,0-0.5-0.224-0.5-0.5V6.794c-1.155-0.498-1.908-1.62-1.908-2.896
		c0-1.75,1.423-3.173,3.172-3.173h9.809c1.749,0,3.171,1.423,3.171,3.173c0,1.276-0.752,2.398-1.908,2.896v3.765
		C20.98,10.835,20.756,11.059,20.48,11.059z M9.643,10.059H19.98V6.444c0-0.221,0.145-0.415,0.356-0.479
		c0.928-0.278,1.551-1.109,1.551-2.068c0-1.198-0.974-2.173-2.171-2.173H9.907c-1.198,0-2.172,0.975-2.172,2.173
		c0,0.959,0.624,1.79,1.551,2.068c0.211,0.063,0.356,0.258,0.356,0.479V10.059z"/>
	<path d="M5.797,18.003c-1.069,0-1.938-0.869-1.938-1.938s0.869-1.938,1.938-1.938s1.938,0.869,1.938,1.938
		S6.866,18.003,5.797,18.003z M5.797,15.128c-0.517,0-0.938,0.421-0.938,0.938s0.421,0.938,0.938,0.938s0.938-0.421,0.938-0.938
		S6.314,15.128,5.797,15.128z"/>
	<path d="M5.797,23.005c-1.069,0-1.938-0.869-1.938-1.938c0-1.069,0.869-1.938,1.938-1.938s1.938,0.869,1.938,1.938
		C7.735,22.136,6.866,23.005,5.797,23.005z M5.797,20.129c-0.517,0-0.938,0.421-0.938,0.938c0,0.517,0.421,0.938,0.938,0.938
		s0.938-0.421,0.938-0.938C6.735,20.55,6.314,20.129,5.797,20.129z"/>
</g>
<g>
</g>
<g>
</g>
<g>
</g>
<g>
</g>
<g>
</g>
<g>
</g>
<g>
</g>
<g>
</g>
<g>
</g>
<g>
</g>
<g>
</g>
<g>
</g>
<g>
</g>
<g>
</g>
<g>
</g>
</svg>
