<?xml version="1.0" encoding="iso-8859-1"?>
<!-- Generator: Adobe Illustrator 19.0.0, SVG Export Plug-In . SVG Version: 6.00 Build 0)  -->
<svg version="1.1" id="Capa_1" xmlns="http://www.w3.org/2000/svg" xmlns:xlink="http://www.w3.org/1999/xlink" x="0px" y="0px"
	 viewBox="0 0 33 33" style="enable-background:new 0 0 33 33;" xml:space="preserve">
<g>
	<g>
		<path d="M16.5,26.33C8.501,26.33,0,24.351,0,20.683c0-1.975,2.669-3.699,7.325-4.73c0.265-0.059,0.536,0.109,0.596,0.38
			c0.06,0.27-0.11,0.537-0.38,0.597C3.567,17.809,1,19.283,1,20.683c0,2.197,6.366,4.646,15.5,4.646S32,22.88,32,20.683
			c0-1.398-2.566-2.872-6.537-3.754c-0.27-0.061-0.439-0.327-0.38-0.597c0.061-0.27,0.328-0.435,0.597-0.38
			c4.652,1.033,7.32,2.758,7.32,4.73C33,24.351,24.499,26.33,16.5,26.33z"/>
		<path d="M16.554,21.986c-4.727,0-9.75-1.218-9.75-3.475c0-0.276,0.224-0.5,0.5-0.5s0.5,0.224,0.5,0.5
			c0,1.033,3.329,2.475,8.75,2.475s8.75-1.441,8.75-2.475c0-0.276,0.224-0.5,0.5-0.5s0.5,0.224,0.5,0.5
			C26.303,20.768,21.28,21.986,16.554,21.986z"/>
		<path d="M25.803,19.011c-0.276,0-0.5-0.224-0.5-0.5c0-4.854-3.949-8.803-8.804-8.803c-4.854,0-8.803,3.949-8.803,8.803
			c0,0.276-0.224,0.5-0.5,0.5s-0.5-0.224-0.5-0.5c0-5.405,4.397-9.803,9.803-9.803c5.406,0,9.804,4.397,9.804,9.803
			C26.303,18.788,26.08,19.011,25.803,19.011z"/>
	</g>
	<g>
		<path d="M28.288,29.274h-1.553c-0.188,0-0.361-0.106-0.446-0.274l-1.833-3.622c-0.125-0.246-0.026-0.547,0.221-0.672
			c0.246-0.124,0.547-0.025,0.672,0.221l1.694,3.348h1.246c0.276,0,0.5,0.224,0.5,0.5S28.564,29.274,28.288,29.274z"/>
		<path d="M6.266,29.291H4.713c-0.276,0-0.5-0.224-0.5-0.5s0.224-0.5,0.5-0.5h1.245l1.694-3.348
			c0.125-0.246,0.426-0.343,0.672-0.221c0.247,0.125,0.345,0.426,0.221,0.672l-1.833,3.622C6.626,29.184,6.454,29.291,6.266,29.291z
			"/>
	</g>
	<path d="M16.5,9.708c-0.276,0-0.5-0.224-0.5-0.5V6.459c0-0.276,0.224-0.5,0.5-0.5s0.5,0.224,0.5,0.5v2.749
		C17,9.485,16.776,9.708,16.5,9.708z"/>
	<path d="M16.5,6.959c-0.896,0-1.625-0.729-1.625-1.625s0.729-1.625,1.625-1.625s1.625,0.729,1.625,1.625S17.396,6.959,16.5,6.959z
		 M16.5,4.709c-0.345,0-0.625,0.28-0.625,0.625s0.28,0.625,0.625,0.625s0.625-0.28,0.625-0.625S16.844,4.709,16.5,4.709z"/>
</g>
<g>
</g>
<g>
</g>
<g>
</g>
<g>
</g>
<g>
</g>
<g>
</g>
<g>
</g>
<g>
</g>
<g>
</g>
<g>
</g>
<g>
</g>
<g>
</g>
<g>
</g>
<g>
</g>
<g>
</g>
</svg>
