<?xml version="1.0" encoding="iso-8859-1"?>
<!-- Generator: Adobe Illustrator 19.0.0, SVG Export Plug-In . SVG Version: 6.00 Build 0)  -->
<svg version="1.1" id="Capa_1" xmlns="http://www.w3.org/2000/svg" xmlns:xlink="http://www.w3.org/1999/xlink" x="0px" y="0px"
	 viewBox="0 0 192.701 192.701" style="enable-background:new 0 0 192.701 192.701;" xml:space="preserve">
<g>
	<g id="Double_Chevron_Up">
		<path d="M20.746,104.169l75.61-74.528l75.61,74.54c4.74,4.704,12.439,4.704,17.179,0s4.74-12.319,0-17.011l-84.2-82.997
			c-4.559-4.511-12.608-4.535-17.191,0l-84.2,83.009c-4.74,4.692-4.74,12.319,0,17.011C8.307,108.873,16.006,108.873,20.746,104.169
			z"/>
		<path d="M104.946,88.373c-4.559-4.511-12.608-4.535-17.191,0l-84.2,82.997c-4.74,4.704-4.74,12.319,0,17.011
			c4.74,4.704,12.439,4.704,17.179,0l75.622-74.528l75.61,74.54c4.74,4.704,12.439,4.704,17.179,0s4.74-12.319,0-17.011
			L104.946,88.373z"/>
	</g>
	<g>
	</g>
	<g>
	</g>
	<g>
	</g>
	<g>
	</g>
	<g>
	</g>
	<g>
	</g>
</g>
<g>
</g>
<g>
</g>
<g>
</g>
<g>
</g>
<g>
</g>
<g>
</g>
<g>
</g>
<g>
</g>
<g>
</g>
<g>
</g>
<g>
</g>
<g>
</g>
<g>
</g>
<g>
</g>
<g>
</g>
</svg>
