<?xml version="1.0" encoding="iso-8859-1"?>
<!-- Generator: Adobe Illustrator 19.0.0, SVG Export Plug-In . SVG Version: 6.00 Build 0)  -->
<svg version="1.1" id="Capa_1" xmlns="http://www.w3.org/2000/svg" xmlns:xlink="http://www.w3.org/1999/xlink" x="0px" y="0px"
	 viewBox="0 0 41.76 41.76" style="enable-background:new 0 0 41.76 41.76;" xml:space="preserve">
<g>
	<path d="M26.365,33.46H2.897C1.3,33.46,0,32.161,0,30.564V11.195C0,9.599,1.3,8.3,2.897,8.3h23.468
		c1.597,0,2.896,1.299,2.896,2.896v19.369C29.261,32.161,27.962,33.46,26.365,33.46z M2.897,9.3C1.852,9.3,1,10.15,1,11.195v19.369
		c0,1.045,0.852,1.896,1.897,1.896h23.468c1.045,0,1.896-0.85,1.896-1.896V11.195c0-1.045-0.851-1.896-1.896-1.896H2.897z"/>
	<path d="M41.26,30.73c-0.106,0-0.211-0.034-0.3-0.1l-12.499-9.354c-0.126-0.095-0.2-0.243-0.2-0.4s0.074-0.306,0.2-0.4
		l12.496-9.348c0.153-0.113,0.355-0.132,0.523-0.047c0.17,0.085,0.276,0.258,0.276,0.447L41.76,30.23
		c0,0.189-0.106,0.362-0.276,0.447C41.413,30.713,41.336,30.73,41.26,30.73z M29.596,20.877l11.164,8.354l-0.003-16.704
		L29.596,20.877z"/>
</g>
<g>
</g>
<g>
</g>
<g>
</g>
<g>
</g>
<g>
</g>
<g>
</g>
<g>
</g>
<g>
</g>
<g>
</g>
<g>
</g>
<g>
</g>
<g>
</g>
<g>
</g>
<g>
</g>
<g>
</g>
</svg>
