<?xml version="1.0" encoding="iso-8859-1"?>
<!-- Generator: Adobe Illustrator 19.0.0, SVG Export Plug-In . SVG Version: 6.00 Build 0)  -->
<svg version="1.1" id="Capa_1" xmlns="http://www.w3.org/2000/svg" xmlns:xlink="http://www.w3.org/1999/xlink" x="0px" y="0px"
	 viewBox="0 0 33 33" style="enable-background:new 0 0 33 33;" xml:space="preserve">
<g>
	<g>
		<path d="M16.5,21.793C9.17,21.793,3.208,15.83,3.208,8.5c0-0.276,0.224-0.5,0.5-0.5h25.585c0.276,0,0.5,0.224,0.5,0.5
			C29.793,15.83,23.83,21.793,16.5,21.793z M4.218,9C4.481,15.547,9.89,20.793,16.5,20.793c6.611,0,12.02-5.246,12.283-11.793H4.218
			z"/>
		<g>
			<path d="M16.5,25C7.402,25,0,17.598,0,8.5C0,8.224,0.224,8,0.5,8h32C32.776,8,33,8.224,33,8.5C33,17.598,25.598,25,16.5,25z
				 M1.008,9C1.273,17.316,8.121,24,16.5,24s15.227-6.684,15.492-15H1.008z"/>
		</g>
	</g>
	<g>
		<path d="M16.5,19.121c-0.735,0-1.333-0.598-1.333-1.333c0-0.412,0.347-2.333,1.333-2.333s1.333,1.921,1.333,2.333
			C17.833,18.523,17.235,19.121,16.5,19.121z M16.5,16.596c-0.162,0.312-0.333,0.918-0.333,1.192c0,0.184,0.149,0.333,0.333,0.333
			s0.333-0.149,0.333-0.333C16.833,17.514,16.663,16.907,16.5,16.596z"/>
		<path d="M21.641,17.571c-0.089,0-0.178-0.009-0.267-0.026c-0.349-0.071-0.65-0.273-0.847-0.57
			c-0.228-0.343-1.001-2.135-0.18-2.681c0.82-0.549,2.173,0.862,2.401,1.205c0,0.001,0,0.001,0.001,0.001
			c0.196,0.297,0.266,0.652,0.195,1.002c-0.07,0.35-0.272,0.649-0.57,0.847C22.155,17.495,21.9,17.571,21.641,17.571z
			 M20.978,15.242c0.037,0.35,0.23,0.951,0.382,1.18c0.049,0.074,0.125,0.125,0.212,0.143c0.087,0.016,0.176-0.001,0.25-0.049
			c0.075-0.05,0.125-0.125,0.143-0.212c0.018-0.088,0-0.177-0.049-0.251C21.759,15.817,21.286,15.411,20.978,15.242z"/>
		<path d="M25.058,13.437c-0.172,0-0.346-0.033-0.514-0.104c-0.289-0.122-0.725-0.429-1.06-0.746
			c-0.55-0.521-0.743-0.988-0.574-1.389c0.057-0.136,0.187-0.324,0.475-0.441c0.631-0.257,1.779-0.058,2.193,0.118l0,0c0,0,0,0,0,0
			l0,0c0.328,0.139,0.583,0.396,0.717,0.726c0.134,0.33,0.132,0.692-0.006,1.021C26.075,13.13,25.579,13.437,25.058,13.437z
			 M23.961,11.641c0.225,0.271,0.718,0.664,0.97,0.771c0.168,0.071,0.365-0.009,0.437-0.179c0.035-0.082,0.035-0.172,0.001-0.254
			c-0.033-0.083-0.097-0.147-0.179-0.182c0,0,0,0,0,0C24.937,11.69,24.312,11.611,23.961,11.641z"/>
	</g>
	<g>
		<path d="M11.359,17.571c-0.26,0-0.514-0.076-0.735-0.224c-0.296-0.195-0.498-0.496-0.569-0.845
			c-0.071-0.35-0.001-0.706,0.196-1.003l0,0c0.229-0.344,1.58-1.748,2.4-1.207c0.125,0.083,0.285,0.245,0.347,0.551
			c0.134,0.666-0.277,1.758-0.526,2.132c-0.196,0.296-0.497,0.498-0.846,0.569C11.537,17.563,11.448,17.571,11.359,17.571z
			 M11.084,16.053c-0.049,0.075-0.067,0.164-0.049,0.251s0.068,0.162,0.142,0.211c0.074,0.05,0.165,0.065,0.25,0.05
			c0.087-0.018,0.163-0.068,0.211-0.143c0.152-0.229,0.346-0.828,0.383-1.178C11.714,15.414,11.236,15.824,11.084,16.053
			L11.084,16.053z"/>
		<path d="M7.942,13.437c-0.521,0-1.017-0.307-1.231-0.815c-0.138-0.328-0.14-0.69-0.006-1.021c0.134-0.329,0.389-0.587,0.718-0.726
			c0.289-0.121,0.812-0.219,1.273-0.236c0.763-0.028,1.227,0.158,1.395,0.56c0.382,0.909-1.254,1.975-1.634,2.135
			C8.289,13.403,8.114,13.437,7.942,13.437z M8.876,11.635c-0.356,0-0.849,0.07-1.066,0.162c-0.082,0.034-0.146,0.099-0.179,0.182
			c-0.034,0.082-0.033,0.172,0.001,0.254c0.071,0.17,0.268,0.25,0.437,0.179c0.252-0.106,0.745-0.5,0.97-0.771
			C8.99,11.637,8.935,11.635,8.876,11.635z"/>
	</g>
</g>
<g>
</g>
<g>
</g>
<g>
</g>
<g>
</g>
<g>
</g>
<g>
</g>
<g>
</g>
<g>
</g>
<g>
</g>
<g>
</g>
<g>
</g>
<g>
</g>
<g>
</g>
<g>
</g>
<g>
</g>
</svg>
