<svg height="453pt" viewBox="1 -31 453.72775 453" width="453pt" xmlns="http://www.w3.org/2000/svg"><path d="m314.152344 368.433594c-1.792969 0-3.585938-.6875-4.953125-2.054688l-47.445313-47.441406c-1.3125-1.3125-2.050781-3.097656-2.050781-4.953125s.738281-3.640625 2.050781-4.953125l132.84375-132.84375c1.316406-1.3125 3.097656-2.050781 4.953125-2.050781 1.859375 0 3.640625.738281 4.953125 2.050781l47.445313 47.445312c2.734375 2.734376 2.734375 7.167969 0 9.90625l-132.84375 132.839844c-1.367188 1.367188-3.160157 2.054688-4.953125 2.054688zm-37.539063-54.449219 37.539063 37.539063 122.9375-122.9375-37.539063-37.542969zm0 0"/><path d="m242.988281 392.15625c-1.828125 0-3.621093-.71875-4.957031-2.050781-1.875-1.878907-2.527344-4.652344-1.691406-7.167969l23.722656-71.167969c.769531-2.304687 2.675781-4.042969 5.035156-4.601562 2.367188-.558594 4.847656.148437 6.5625 1.863281l47.445313 47.445312c1.714843 1.714844 2.421875 4.199219 1.863281 6.5625-.558594 2.363282-2.300781 4.265626-4.601562 5.035157l-71.167969 23.722656c-.726563.242187-1.472657.359375-2.210938.359375zm26.78125-65.207031-15.710937 47.128906 47.125-15.710937zm0 0"/><path d="m420.902344 261.683594c-1.792969 0-3.585938-.683594-4.953125-2.050782l-47.445313-47.445312c-2.734375-2.734375-2.734375-7.171875 0-9.90625s7.171875-2.734375 9.90625 0l47.445313 47.445312c2.734375 2.734376 2.734375 7.167969 0 9.90625-1.371094 1.367188-3.164063 2.050782-4.953125 2.050782zm0 0"/><path d="m274.519531 313.179688h-227.492187c-25.929688 0-47.027344-21.097657-47.027344-47.027344v-218.742188c0-25.929687 21.097656-47.027344 47.027344-47.027344h260.15625c25.933594 0 47.027344 21.097657 47.027344 47.027344v186.074219c0 3.867187-3.132813 7.003906-7.003907 7.003906-3.867187 0-7.003906-3.136719-7.003906-7.003906v-186.074219c0-18.207031-14.8125-33.019531-33.019531-33.019531h-260.15625c-18.207032 0-33.019532 14.8125-33.019532 33.019531v218.742188c0 18.207031 14.8125 33.019531 33.019532 33.019531h227.492187c3.867188 0 7.003907 3.132813 7.003907 7.003906 0 3.867188-3.136719 7.003907-7.003907 7.003907zm0 0"/><path d="m347.207031 95.785156h-340.203125c-3.867187 0-7.003906-3.136718-7.003906-7.003906s3.136719-7.003906 7.003906-7.003906h340.203125c3.871094 0 7.003907 3.136718 7.003907 7.003906s-3.132813 7.003906-7.003907 7.003906zm0 0"/><path d="m100.4375 67.988281c-10.792969 0-19.574219-8.78125-19.574219-19.574219 0-10.796874 8.78125-19.578124 19.574219-19.578124 10.796875 0 19.578125 8.78125 19.578125 19.578124 0 10.792969-8.78125 19.574219-19.578125 19.574219zm0-25.144531c-3.070312 0-5.566406 2.5-5.566406 5.570312 0 3.066407 2.496094 5.566407 5.566406 5.566407s5.570312-2.5 5.570312-5.566407c0-3.070312-2.5-5.570312-5.570312-5.570312zm0 0"/><path d="m43.960938 67.8125c-10.792969 0-19.574219-8.78125-19.574219-19.578125 0-10.792969 8.78125-19.574219 19.574219-19.574219 10.796874 0 19.578124 8.78125 19.578124 19.574219 0 10.796875-8.78125 19.578125-19.578124 19.578125zm0-25.144531c-3.070313 0-5.566407 2.496093-5.566407 5.566406s2.496094 5.570313 5.566407 5.570313c3.070312 0 5.570312-2.5 5.570312-5.570313s-2.5-5.566406-5.570312-5.566406zm0 0"/><path d="m156.914062 68.164062c-10.792968 0-19.574218-8.78125-19.574218-19.574218 0-10.796875 8.78125-19.578125 19.574218-19.578125 10.796876 0 19.578126 8.78125 19.578126 19.578125 0 10.792968-8.78125 19.574218-19.578126 19.574218zm0-25.144531c-3.070312 0-5.566406 2.5-5.566406 5.570313 0 3.070312 2.496094 5.566406 5.566406 5.566406 3.070313 0 5.570313-2.496094 5.570313-5.566406 0-3.074219-2.5-5.570313-5.570313-5.570313zm0 0"/></svg>