<?xml version="1.0" encoding="iso-8859-1"?>
<!-- Generator: Adobe Illustrator 19.0.0, SVG Export Plug-In . SVG Version: 6.00 Build 0)  -->
<svg version="1.1" id="Capa_1" xmlns="http://www.w3.org/2000/svg" xmlns:xlink="http://www.w3.org/1999/xlink" x="0px" y="0px"
	 viewBox="0 0 34.553 34.553" style="enable-background:new 0 0 34.553 34.553;" xml:space="preserve">
<g>
	<g>
		<g>
			<path d="M17.276,18.669c-1.202,0-2.18-0.978-2.18-2.18s0.978-2.18,2.18-2.18s2.18,0.978,2.18,2.18S18.478,18.669,17.276,18.669z
				 M17.276,15.31c-0.65,0-1.18,0.529-1.18,1.18s0.529,1.18,1.18,1.18s1.18-0.529,1.18-1.18S17.927,15.31,17.276,15.31z"/>
		</g>
		<path d="M33.271,16.995c-0.276,0-0.5-0.224-0.5-0.5C32.771,7.951,25.82,1,17.276,1S1.782,7.951,1.782,16.495
			c0,0.276-0.224,0.5-0.5,0.5s-0.5-0.224-0.5-0.5C0.782,7.399,8.181,0,17.276,0s16.495,7.399,16.495,16.495
			C33.771,16.771,33.547,16.995,33.271,16.995z"/>
		<path d="M28.622,16.995c-0.276,0-0.5-0.224-0.5-0.5c0-5.979-4.865-10.845-10.845-10.845S6.432,10.516,6.432,16.495
			c0,0.276-0.224,0.5-0.5,0.5s-0.5-0.224-0.5-0.5c0-6.531,5.313-11.845,11.845-11.845s11.845,5.313,11.845,11.845
			C29.122,16.771,28.898,16.995,28.622,16.995z"/>
		<path d="M23.856,16.995c-0.276,0-0.5-0.224-0.5-0.5c0-3.353-2.727-6.08-6.08-6.08s-6.08,2.728-6.08,6.08
			c0,0.276-0.224,0.5-0.5,0.5s-0.5-0.224-0.5-0.5c0-3.904,3.176-7.08,7.08-7.08s7.08,3.176,7.08,7.08
			C24.356,16.771,24.132,16.995,23.856,16.995z"/>
	</g>
	<path d="M17.276,34.553c-0.276,0-0.5-0.224-0.5-0.5V18.169c0-0.276,0.224-0.5,0.5-0.5s0.5,0.224,0.5,0.5v15.884
		C17.776,34.329,17.553,34.553,17.276,34.553z"/>
	<path d="M19.999,34.553h-5.444c-0.276,0-0.5-0.224-0.5-0.5s0.224-0.5,0.5-0.5h5.444c0.276,0,0.5,0.224,0.5,0.5
		S20.275,34.553,19.999,34.553z"/>
</g>
<g>
</g>
<g>
</g>
<g>
</g>
<g>
</g>
<g>
</g>
<g>
</g>
<g>
</g>
<g>
</g>
<g>
</g>
<g>
</g>
<g>
</g>
<g>
</g>
<g>
</g>
<g>
</g>
<g>
</g>
</svg>
