<?xml version="1.0" encoding="iso-8859-1"?>
<!-- Generator: Adobe Illustrator 19.0.0, SVG Export Plug-In . SVG Version: 6.00 Build 0)  -->
<svg version="1.1" id="Capa_1" xmlns="http://www.w3.org/2000/svg" xmlns:xlink="http://www.w3.org/1999/xlink" x="0px" y="0px"
	 viewBox="0 0 33 33" style="enable-background:new 0 0 33 33;" xml:space="preserve">
<g>
	<path d="M20.627,33h-8.254c-0.276,0-0.5-0.224-0.5-0.5v-4.975h-3.5c-0.195,0-0.372-0.113-0.454-0.29s-0.054-0.385,0.072-0.534
		l3.333-3.938c-1.263-0.208-2.229-1.308-2.229-2.629v-6.442c0-1.47,1.195-2.665,2.665-2.665h9.479c1.469,0,2.665,1.195,2.665,2.665
		v6.442c0,1.321-0.966,2.421-2.229,2.629l3.333,3.938c0.125,0.149,0.154,0.357,0.072,0.534s-0.259,0.29-0.454,0.29h-3.5V32.5
		C21.127,32.776,20.903,33,20.627,33z M12.873,32h7.254v-4.975c0-0.276,0.224-0.5,0.5-0.5h2.922l-3.304-3.903
		c-0.125-0.149-0.154-0.357-0.072-0.534s0.259-0.29,0.454-0.29h0.613c0.918,0,1.665-0.747,1.665-1.665v-6.442
		c0-0.918-0.747-1.665-1.665-1.665H11.76c-0.918,0-1.665,0.747-1.665,1.665v6.442c0,0.918,0.747,1.665,1.665,1.665h0.613
		c0.195,0,0.372,0.113,0.454,0.29s0.054,0.385-0.072,0.534l-3.304,3.903h2.922c0.276,0,0.5,0.224,0.5,0.5V32z"/>
	<path d="M16.5,9.862c-2.719,0-4.931-2.212-4.931-4.931S13.781,0,16.5,0s4.931,2.212,4.931,4.931S19.219,9.862,16.5,9.862z M16.5,1
		c-2.167,0-3.931,1.764-3.931,3.931s1.764,3.931,3.931,3.931s3.931-1.764,3.931-3.931S18.667,1,16.5,1z"/>
</g>
<g>
</g>
<g>
</g>
<g>
</g>
<g>
</g>
<g>
</g>
<g>
</g>
<g>
</g>
<g>
</g>
<g>
</g>
<g>
</g>
<g>
</g>
<g>
</g>
<g>
</g>
<g>
</g>
<g>
</g>
</svg>
