<?xml version="1.0" encoding="iso-8859-1"?>
<!-- Generator: Adobe Illustrator 19.0.0, SVG Export Plug-In . SVG Version: 6.00 Build 0)  -->
<svg version="1.1" id="Capa_1" xmlns="http://www.w3.org/2000/svg" xmlns:xlink="http://www.w3.org/1999/xlink" x="0px" y="0px"
	 viewBox="0 0 33 33" style="enable-background:new 0 0 33 33;" xml:space="preserve">
<g>
	<path d="M16.5,33C7.402,33,0,25.598,0,16.5S7.402,0,16.5,0S33,7.402,33,16.5S25.598,33,16.5,33z M16.5,1C7.953,1,1,7.953,1,16.5
		S7.953,32,16.5,32S32,25.047,32,16.5S25.047,1,16.5,1z"/>
	<path d="M16.5,33c-3.869,0-7.634-1.372-10.601-3.864c-0.132-0.11-0.197-0.281-0.174-0.452s0.134-0.317,0.29-0.387
		c0.413-0.185,0.867-0.371,1.376-0.556c2.631-0.958,3.929-1.8,4.487-2.963c-4.918-1.225-5.498-4.259-5.521-4.393
		c-0.033-0.197,0.053-0.395,0.22-0.504c0.099-0.065,2.454-1.679,2.454-5.811c0-4.493,0.888-9.085,7.469-9.085
		s7.469,4.593,7.469,9.085c0,4.132,2.355,5.746,2.456,5.813c0.164,0.109,0.251,0.308,0.218,0.502
		c-0.023,0.133-0.604,3.168-5.521,4.393c0.559,1.163,1.856,2.004,4.486,2.963c0.509,0.185,0.964,0.371,1.376,0.557
		c0.157,0.071,0.267,0.217,0.29,0.387s-0.042,0.341-0.174,0.452C24.135,31.628,20.37,33,16.5,33z M7.191,28.887
		C9.868,30.9,13.143,32,16.5,32c3.358,0,6.633-1.1,9.309-3.113c-0.173-0.069-0.354-0.137-0.542-0.206
		c-3.34-1.217-4.775-2.334-5.296-4.123c-0.039-0.134-0.02-0.278,0.052-0.397c0.072-0.12,0.191-0.204,0.327-0.232
		c3.886-0.802,4.955-2.719,5.225-3.44c-0.748-0.63-2.605-2.582-2.605-6.418c0-4.853-1.1-8.085-6.469-8.085s-6.469,3.232-6.469,8.085
		c0,3.836-1.858,5.788-2.605,6.418c0.268,0.717,1.335,2.637,5.224,3.439c0.137,0.028,0.256,0.112,0.328,0.231
		c0.071,0.12,0.091,0.264,0.052,0.397c-0.52,1.789-1.955,2.907-5.296,4.124l0,0C7.545,28.75,7.365,28.818,7.191,28.887z"/>
</g>
<g>
</g>
<g>
</g>
<g>
</g>
<g>
</g>
<g>
</g>
<g>
</g>
<g>
</g>
<g>
</g>
<g>
</g>
<g>
</g>
<g>
</g>
<g>
</g>
<g>
</g>
<g>
</g>
<g>
</g>
</svg>
