<?xml version="1.0" encoding="iso-8859-1"?>
<!-- Generator: Adobe Illustrator 19.0.0, SVG Export Plug-In . SVG Version: 6.00 Build 0)  -->
<svg version="1.1" id="Capa_1" xmlns="http://www.w3.org/2000/svg" xmlns:xlink="http://www.w3.org/1999/xlink" x="0px" y="0px"
	 viewBox="0 0 33.293 33.293" style="enable-background:new 0 0 33.293 33.293;" xml:space="preserve">
<g>
	<g>
		<g>
			<path d="M27.577,33.293H5.716c-1.378,0-2.5-1.121-2.5-2.5V2.5c0-1.379,1.122-2.5,2.5-2.5h15.875c0.276,0,0.5,0.224,0.5,0.5
				S21.867,1,21.591,1H5.716c-0.827,0-1.5,0.673-1.5,1.5v28.293c0,0.827,0.673,1.5,1.5,1.5h21.861c0.827,0,1.5-0.673,1.5-1.5V8.704
				c0-0.276,0.224-0.5,0.5-0.5s0.5,0.224,0.5,0.5v22.09C30.077,32.172,28.956,33.293,27.577,33.293z"/>
			<path d="M29.577,9.204h-7.986c-0.276,0-0.5-0.224-0.5-0.5V0.717c0-0.276,0.224-0.5,0.5-0.5s0.5,0.224,0.5,0.5v7.486h7.486
				c0.276,0,0.5,0.224,0.5,0.5S29.854,9.204,29.577,9.204z"/>
			<path d="M29.577,9.204c-0.13,0-0.26-0.051-0.358-0.151l-7.986-8.203c-0.192-0.197-0.188-0.515,0.01-0.707
				c0.197-0.193,0.514-0.188,0.707,0.01l7.986,8.203c0.192,0.197,0.188,0.515-0.01,0.707C29.829,9.157,29.703,9.204,29.577,9.204z"
				/>
		</g>
	</g>
	<path d="M16.647,4.211c-0.276,0-0.5-0.224-0.5-0.5V0.717c0-0.276,0.224-0.5,0.5-0.5s0.5,0.224,0.5,0.5v2.994
		C17.147,3.988,16.923,4.211,16.647,4.211z"/>
	<path d="M16.647,11.784c-0.276,0-0.5-0.224-0.5-0.5V8.289c0-0.276,0.224-0.5,0.5-0.5s0.5,0.224,0.5,0.5v2.994
		C17.147,11.56,16.923,11.784,16.647,11.784z"/>
	<path d="M16.647,19.356c-0.276,0-0.5-0.224-0.5-0.5v-2.994c0-0.276,0.224-0.5,0.5-0.5s0.5,0.224,0.5,0.5v2.994
		C17.147,19.132,16.923,19.356,16.647,19.356z"/>
	<g>
		<path d="M16.646,30.481c-1.562,0-2.832-1.271-2.832-2.832c0-0.276,0.224-0.5,0.5-0.5s0.5,0.224,0.5,0.5
			c0,1.01,0.822,1.832,1.832,1.832c1.011,0,1.834-0.822,1.834-1.832c0-0.276,0.224-0.5,0.5-0.5s0.5,0.224,0.5,0.5
			C19.48,29.21,18.208,30.481,16.646,30.481z"/>
		<path d="M18.979,28.149c-0.228,0-0.434-0.156-0.487-0.388l-0.911-3.946h-1.87l-0.911,3.946c-0.062,0.269-0.332,0.438-0.6,0.375
			c-0.269-0.063-0.437-0.331-0.375-0.6l1-4.334c0.052-0.227,0.254-0.388,0.487-0.388h2.666c0.233,0,0.435,0.161,0.487,0.388l1,4.334
			c0.062,0.269-0.106,0.537-0.375,0.6C19.054,28.145,19.016,28.149,18.979,28.149z"/>
	</g>
</g>
<g>
</g>
<g>
</g>
<g>
</g>
<g>
</g>
<g>
</g>
<g>
</g>
<g>
</g>
<g>
</g>
<g>
</g>
<g>
</g>
<g>
</g>
<g>
</g>
<g>
</g>
<g>
</g>
<g>
</g>
</svg>
