<?xml version="1.0" encoding="utf-8"?>
<!-- Generator: Adobe Illustrator 24.2.0, SVG Export Plug-In . SVG Version: 6.00 Build 0)  -->
<svg version="1.1" id="Réteg_1" xmlns="http://www.w3.org/2000/svg" xmlns:xlink="http://www.w3.org/1999/xlink" x="0px" y="0px"
	 viewBox="0 0 841.89 595.28" style="enable-background:new 0 0 841.89 595.28;" xml:space="preserve">
<style type="text/css">
	.st0{fill:#404041;}
	.st1{fill:#41B670;}
</style>
<g>
	<g>
		<g>
			<path class="st0" d="M314.26,297.43c0,9.88-2.47,17.55-7.41,23.03c-4.94,5.48-11.93,8.22-20.98,8.22
				c-9.16,0-16.19-2.72-21.1-8.15c-4.91-5.44-7.36-13.16-7.36-23.17s2.47-17.71,7.41-23.07c4.94-5.37,11.99-8.05,21.14-8.05
				c9.02,0,15.99,2.73,20.91,8.18S314.26,287.53,314.26,297.43z M267.95,297.43c0,7.47,1.51,13.13,4.52,16.99
				c3.02,3.86,7.48,5.79,13.4,5.79c5.89,0,10.34-1.91,13.34-5.73c3-3.82,4.5-9.5,4.5-17.05c0-7.44-1.49-13.08-4.46-16.93
				c-2.98-3.84-7.41-5.77-13.3-5.77c-5.95,0-10.44,1.92-13.47,5.77C269.46,284.35,267.95,289.99,267.95,297.43z"/>
			<path class="st0" d="M347.06,281.12c1.96,0,3.58,0.14,4.86,0.42l-0.95,9.09c-1.38-0.33-2.82-0.5-4.32-0.5
				c-3.9,0-7.06,1.27-9.48,3.82c-2.42,2.54-3.63,5.85-3.63,9.92v23.98h-9.75v-45.89h7.64l1.29,8.09h0.5
				c1.52-2.74,3.51-4.91,5.96-6.51C341.61,281.93,344.24,281.12,347.06,281.12z"/>
			<path class="st0" d="M376.46,328.68c-6.94,0-12.22-2.03-15.83-6.08c-3.61-4.05-5.41-9.87-5.41-17.45c0-7.72,1.89-13.65,5.66-17.8
				c3.78-4.15,9.23-6.22,16.37-6.22c4.84,0,9.2,0.9,13.07,2.7l-2.94,7.84c-4.12-1.61-7.53-2.41-10.21-2.41
				c-7.94,0-11.91,5.27-11.91,15.81c0,5.15,0.99,9.01,2.97,11.6c1.98,2.59,4.88,3.88,8.69,3.88c4.34,0,8.45-1.08,12.32-3.24v8.51
				c-1.74,1.02-3.6,1.76-5.58,2.2C381.69,328.46,379.29,328.68,376.46,328.68z"/>
			<path class="st0" d="M437.95,327.85h-9.79v-28.22c0-3.54-0.71-6.18-2.14-7.93c-1.43-1.74-3.69-2.61-6.78-2.61
				c-4.09,0-7.1,1.22-9.03,3.67s-2.88,6.55-2.88,12.3v22.78h-9.75v-64.56h9.75v16.39c0,2.63-0.17,5.44-0.5,8.42h0.62
				c1.33-2.21,3.17-3.93,5.54-5.15c2.37-1.22,5.13-1.83,8.28-1.83c11.12,0,16.68,5.6,16.68,16.81V327.85z"/>
			<path class="st0" d="M477.76,327.85l-1.95-6.39h-0.33c-2.21,2.8-4.44,4.7-6.68,5.71c-2.24,1.01-5.12,1.51-8.63,1.51
				c-4.51,0-8.03-1.22-10.56-3.65c-2.53-2.43-3.8-5.88-3.8-10.33c0-4.73,1.76-8.3,5.27-10.71c3.51-2.41,8.87-3.72,16.06-3.94
				l7.93-0.25v-2.45c0-2.93-0.68-5.12-2.05-6.58c-1.37-1.45-3.49-2.18-6.37-2.18c-2.35,0-4.61,0.35-6.76,1.04
				c-2.16,0.69-4.23,1.51-6.23,2.45l-3.15-6.97c2.49-1.3,5.21-2.29,8.17-2.97c2.96-0.68,5.76-1.02,8.38-1.02
				c5.84,0,10.24,1.27,13.21,3.82c2.97,2.55,4.46,6.54,4.46,11.99v30.91H477.76z M463.24,321.21c3.54,0,6.38-0.99,8.53-2.97
				c2.14-1.98,3.22-4.75,3.22-8.32v-3.98l-5.89,0.25c-4.59,0.16-7.93,0.93-10.02,2.3c-2.09,1.37-3.13,3.46-3.13,6.29
				c0,2.05,0.61,3.63,1.83,4.75C458.98,320.65,460.81,321.21,463.24,321.21z"/>
			<path class="st0" d="M519.16,281.12c1.96,0,3.58,0.14,4.86,0.42l-0.95,9.09c-1.38-0.33-2.82-0.5-4.32-0.5
				c-3.9,0-7.06,1.27-9.48,3.82c-2.42,2.54-3.63,5.85-3.63,9.92v23.98h-9.75v-45.89h7.64l1.29,8.09h0.5
				c1.52-2.74,3.51-4.91,5.96-6.51C513.7,281.93,516.34,281.12,519.16,281.12z"/>
			<path class="st0" d="M545.53,328.68c-5.73,0-10.2-2.07-13.4-6.22c-3.21-4.15-4.81-9.97-4.81-17.47c0-7.53,1.62-13.38,4.88-17.57
				c3.25-4.19,7.75-6.29,13.51-6.29c6.03,0,10.62,2.23,13.78,6.68h0.5c-0.47-3.29-0.71-5.89-0.71-7.8v-16.72h9.79v64.56h-7.64
				l-1.7-6.02h-0.46C556.14,326.4,551.56,328.68,545.53,328.68z M548.15,320.79c4.01,0,6.93-1.13,8.76-3.38
				c1.83-2.25,2.76-5.91,2.82-10.98v-1.37c0-5.78-0.94-9.89-2.82-12.32c-1.88-2.43-4.83-3.65-8.84-3.65c-3.43,0-6.07,1.39-7.93,4.17
				c-1.85,2.78-2.78,6.74-2.78,11.89c0,5.09,0.9,8.97,2.7,11.64C541.85,319.46,544.55,320.79,548.15,320.79z"/>
			<path class="st0" d="M627,274.82c-5.7,0-10.18,2.02-13.45,6.06c-3.26,4.04-4.9,9.61-4.9,16.72c0,7.44,1.57,13.07,4.71,16.89
				c3.14,3.82,7.68,5.73,13.63,5.73c2.57,0,5.06-0.26,7.47-0.77c2.41-0.51,4.91-1.17,7.51-1.97v8.51c-4.76,1.8-10.15,2.7-16.18,2.7
				c-8.88,0-15.7-2.69-20.46-8.07c-4.76-5.38-7.14-13.08-7.14-23.09c0-6.31,1.15-11.82,3.47-16.56c2.31-4.73,5.65-8.35,10.02-10.87
				c4.37-2.52,9.5-3.78,15.39-3.78c6.2,0,11.92,1.3,17.18,3.9l-3.57,8.26c-2.05-0.97-4.21-1.82-6.49-2.55
				C631.91,275.18,629.51,274.82,627,274.82z"/>
			<path class="st0" d="M692.25,304.82c0,7.5-1.92,13.35-5.77,17.55c-3.85,4.21-9.2,6.31-16.06,6.31c-4.29,0-8.08-0.97-11.37-2.9
				c-3.29-1.94-5.82-4.72-7.59-8.34s-2.65-7.83-2.65-12.61c0-7.44,1.91-13.25,5.72-17.43c3.82-4.18,9.2-6.27,16.14-6.27
				c6.64,0,11.9,2.14,15.77,6.41C690.31,291.81,692.25,297.57,692.25,304.82z M658.85,304.82c0,10.6,3.91,15.89,11.74,15.89
				c7.75,0,11.62-5.3,11.62-15.89c0-10.48-3.9-15.73-11.7-15.73c-4.09,0-7.06,1.35-8.9,4.07
				C659.77,295.87,658.85,299.76,658.85,304.82z"/>
			<path class="st0" d="M724.27,281.12c1.96,0,3.58,0.14,4.86,0.42l-0.95,9.09c-1.38-0.33-2.82-0.5-4.32-0.5
				c-3.9,0-7.06,1.27-9.48,3.82c-2.42,2.54-3.63,5.85-3.63,9.92v23.98h-9.75v-45.89h7.64l1.29,8.09h0.5
				c1.52-2.74,3.51-4.91,5.96-6.51C718.81,281.93,721.44,281.12,724.27,281.12z"/>
			<path class="st0" d="M755.21,328.68c-7.14,0-12.72-2.08-16.74-6.24c-4.02-4.16-6.04-9.9-6.04-17.2c0-7.5,1.87-13.39,5.6-17.68
				c3.73-4.29,8.86-6.43,15.39-6.43c6.06,0,10.84,1.84,14.36,5.52c3.51,3.68,5.27,8.74,5.27,15.19v5.27h-30.58
				c0.14,4.45,1.34,7.88,3.61,10.27c2.27,2.39,5.46,3.59,9.59,3.59c2.71,0,5.23-0.26,7.57-0.77c2.34-0.51,4.85-1.36,7.53-2.55v7.93
				c-2.38,1.13-4.79,1.94-7.22,2.41C761.11,328.44,758.33,328.68,755.21,328.68z M753.42,288.51c-3.1,0-5.58,0.98-7.45,2.94
				c-1.87,1.97-2.98,4.83-3.34,8.59h20.83c-0.05-3.79-0.97-6.66-2.74-8.61S756.52,288.51,753.42,288.51z"/>
		</g>
	</g>
	<g>
		<path class="st1" d="M143.28,223.2c-41.11,0-74.44,33.33-74.44,74.44s33.33,74.44,74.44,74.44c41.11,0,74.44-33.33,74.44-74.44
			S184.4,223.2,143.28,223.2z M143.28,357.75c-33.2,0-60.12-26.91-60.12-60.12c0-33.2,26.91-60.12,60.12-60.12
			c33.2,0,60.12,26.91,60.12,60.12C203.4,330.84,176.48,357.75,143.28,357.75z"/>
		<path class="st1" d="M179.12,333.16L179.12,333.16L179.12,333.16c-19.36-19.36-19.36-50.76,0-70.13l0,0l0,0
			C198.48,282.4,198.48,313.8,179.12,333.16z"/>
		<path class="st1" d="M159.2,313.24L159.2,313.24L159.2,313.24c-27.39,0-49.59-22.2-49.59-49.59v0h0
			C137,263.66,159.2,285.86,159.2,313.24z"/>
		<path class="st1" d="M108.77,333.35L108.77,333.35L108.77,333.35c19.36-19.36,50.76-19.36,70.13,0l0,0l0,0
			C159.53,352.71,128.13,352.71,108.77,333.35z"/>
	</g>
</g>
</svg>
