<?xml version="1.0" encoding="iso-8859-1"?>
<!-- Generator: Adobe Illustrator 19.0.0, SVG Export Plug-In . SVG Version: 6.00 Build 0)  -->
<svg xmlns="http://www.w3.org/2000/svg" xmlns:xlink="http://www.w3.org/1999/xlink" version="1.1" id="Layer_1" x="0px" y="0px" viewBox="0 0 504.999 504.999" style="enable-background:new 0 0 504.999 504.999;" xml:space="preserve" width="512" height="512">
<path d="M452.207,62.763c-5.579,0-11.022,0.858-16.252,2.559c-11.961-14.81-29.931-23.488-49.176-23.488  c-6.492,0-12.81,1.008-18.788,2.88C336.33,15.876,295.525,0.03,252.563,0c-0.021,0-0.043,0-0.064,0c-0.018,0-0.035,0-0.053,0  c-0.003,0-0.007,0-0.01,0c-0.003,0-0.005,0-0.008,0c-45.776,0.005-88.856,17.866-121.315,50.302  C98.622,82.77,80.728,125.887,80.728,171.71c0,13.416,1.587,26.624,4.604,39.405c-22.746,3.364-42.178,19.004-50.168,40.761  C15.08,255.529,0.018,273.131,0.018,294.04c0,23.639,19.231,42.87,42.87,42.87h42.559c4.142,0,7.5-3.358,7.5-7.5s-3.358-7.5-7.5-7.5  H42.888c-15.367,0-27.87-12.502-27.87-27.87c0-14.748,11.526-26.964,26.241-27.812c3.205-0.185,5.938-2.389,6.796-5.482  c5.314-19.151,21.948-32.973,41.412-35.038c11.617,35.024,34.374,65.898,65.583,87.426c3.62,2.497,6.937,5.331,9.931,8.437  c-1.653,0.218-3.327,0.34-5.022,0.34h-44.51c-4.142,0-7.5,3.358-7.5,7.5s3.358,7.5,7.5,7.5h44.51c5.1,0,10.078-0.73,14.875-2.143  c5.495,9.712,8.505,20.814,8.505,32.313v64.426c0,0.049,0.007,32.011,0.007,32.011c0,22.873,18.609,41.482,41.482,41.482h56.128  c22.874,0,41.482-18.609,41.482-41.482V367.08v-0.63c0-21.451,10.454-41.535,27.964-53.724  c17.019-11.841,31.623-26.492,43.407-43.546c2.354-3.408,1.501-8.079-1.907-10.434c-3.407-2.354-8.079-1.5-10.434,1.907  c-10.759,15.572-24.094,28.949-39.635,39.762c-19.654,13.681-32.08,35.436-34.104,59.165h-26.843l-2.258-0.142  c2.437-18.118,13.589-35.258,21.265-47.054l1.126-1.732c20.688-31.892,33.038-83.833,33.038-138.942  c0-1.128-0.018-2.283-0.029-3.428c0.369,0.01,0.735,0.028,1.106,0.028h73.957c0.024,1.134,0.056,2.267,0.056,3.4  c0,21.269-4.186,41.889-12.44,61.288c-1.622,3.811,0.153,8.216,3.965,9.838c0.958,0.408,1.954,0.601,2.933,0.601  c2.917,0,5.69-1.712,6.905-4.565c9.049-21.266,13.638-43.862,13.638-67.161c0-1.133-0.034-2.267-0.056-3.4h28.115  c29.1,0,52.774-23.674,52.774-52.773S481.306,62.763,452.207,62.763z M322.976,84.347c-6.362-23.116-15.203-42.754-25.793-57.149  c-1.95-2.651-3.959-5.092-6.01-7.368c22.649,5.75,43.77,16.536,61.921,31.781c-11.605,7.324-20.79,18.348-25.681,31.67  C325.903,83.556,324.425,83.919,322.976,84.347z M163.567,300.786c-42.479-29.301-67.839-77.554-67.839-129.076  c0-41.814,16.332-81.163,45.988-110.797c20.256-20.241,45.038-34.258,72.038-41.106c-26.195,29.15-42.946,87.986-42.946,151.903  c0,55.396,12.454,107.492,33.314,139.357l0.945,1.442c7.73,11.786,18.933,28.874,21.513,47.071h-28.591  C195.788,335.965,183.27,314.378,163.567,300.786z M307.438,374.58v49.426h-30.974c4.872-9.983,3.173-22.389-5.11-30.672  l-13.616-13.616c-2.929-2.929-7.678-2.929-10.606,0l-13.616,13.616c-5.054,5.054-7.837,11.772-7.837,18.919  c0,4.143,0.941,8.139,2.712,11.753h-30.052V374.58h36.291h46.02H307.438z M240.679,412.253c0-3.14,1.223-6.092,3.443-8.313  l8.313-8.313l8.313,8.313c4.583,4.583,4.583,12.042,0,16.625c-4.583,4.582-12.042,4.583-16.625,0  C241.902,418.345,240.679,415.393,240.679,412.253z M307.438,463.517c0,14.602-11.88,26.482-26.482,26.482h-56.128  c-14.603,0-26.482-11.88-26.482-26.482v-24.511h109.093V463.517z M319.058,171.71c0,52.33-11.448,101.219-30.623,130.779  l-1.114,1.714c-8.21,12.617-21.442,32.954-23.807,55.376h-21.819c-2.553-22.467-15.825-42.704-24.085-55.297l-0.938-1.431  c-19.327-29.522-30.865-78.548-30.865-131.142c0-62.563,16.313-119.279,41.561-144.489c8.12-8.107,16.55-12.218,25.059-12.22  c0.006,0,0.012,0,0.018,0c0.009,0,0.019,0,0.028,0c22.616,0.04,44.651,29.79,56.831,76.252  c-10.369,7.849-17.034,20.286-17.034,34.193c0,17.925,11.065,33.307,26.719,39.697C319.032,167.356,319.058,169.555,319.058,171.71z   M452.207,153.31H335.135c-15.364,0-27.864-12.5-27.864-27.864c0-14.751,11.524-26.968,26.236-27.812  c3.206-0.184,5.939-2.389,6.797-5.483c5.768-20.795,24.879-35.318,46.474-35.318c16.244,0,31.3,8.111,40.274,21.697  c2.041,3.089,6.029,4.227,9.393,2.68c4.971-2.287,10.274-3.447,15.761-3.447c20.829,0,37.774,16.945,37.774,37.773  S473.035,153.31,452.207,153.31z"/>















</svg>
