<?xml version="1.0" encoding="iso-8859-1"?>
<!-- Generator: Adobe Illustrator 19.0.0, SVG Export Plug-In . SVG Version: 6.00 Build 0)  -->
<svg version="1.1" id="Capa_1" xmlns="http://www.w3.org/2000/svg" xmlns:xlink="http://www.w3.org/1999/xlink" x="0px" y="0px"
	 viewBox="0 0 33 33" style="enable-background:new 0 0 33 33;" xml:space="preserve">
<g>
	<path d="M16.5,33c-3.538,0-13.742-9.407-13.742-18.5C2.758,5.963,8.409,0,16.5,0s13.742,5.963,13.742,14.5
		C30.242,23.593,20.038,33,16.5,33z M16.5,1C8.878,1,3.758,6.425,3.758,14.5c0,8.402,9.553,17.5,12.742,17.5
		s12.742-9.098,12.742-17.5C29.242,6.425,24.122,1,16.5,1z"/>
	<g>
		<path d="M21.427,17.088c-0.393,0-0.778-0.059-1.14-0.176c-0.854-0.277-1.479-0.847-1.759-1.604
			c-0.281-0.757-0.178-1.596,0.29-2.363c0.445-0.729,1.172-1.31,2.05-1.635c1.854-0.689,3.818-0.011,4.381,1.508l0,0
			c0.562,1.519-0.488,3.312-2.341,3.998C22.42,16.997,21.917,17.088,21.427,17.088z M22.354,12.038c-0.368,0-0.756,0.067-1.14,0.21
			c-0.667,0.247-1.215,0.68-1.543,1.218c-0.305,0.501-0.378,1.031-0.207,1.495s0.573,0.819,1.13,1
			c0.599,0.194,1.297,0.164,1.964-0.082c1.336-0.495,2.121-1.712,1.751-2.713C24.046,12.452,23.265,12.038,22.354,12.038z"/>
		<path d="M11.573,17.088c-0.491,0-0.994-0.091-1.48-0.271C8.24,16.13,7.19,14.337,7.752,12.818l0,0
			c0.563-1.518,2.527-2.196,4.381-1.508c0.877,0.325,1.605,0.906,2.05,1.635c0.468,0.768,0.571,1.606,0.29,2.363
			c-0.28,0.757-0.905,1.326-1.759,1.604C12.352,17.029,11.966,17.088,11.573,17.088z M8.689,13.166
			c-0.37,1.001,0.415,2.218,1.751,2.713c0.667,0.246,1.365,0.276,1.964,0.082c0.557-0.181,0.958-0.536,1.13-1
			s0.099-0.994-0.207-1.495c-0.328-0.538-0.876-0.971-1.543-1.218C10.45,11.752,9.061,12.164,8.689,13.166L8.689,13.166z"/>
	</g>
	<path d="M16.933,25.4c-1.346,0-2.441-1.095-2.441-2.441c0-1.345,1.095-2.439,2.441-2.439s2.441,1.095,2.441,2.439
		C19.374,24.306,18.279,25.4,16.933,25.4z M16.933,21.52c-0.794,0-1.441,0.646-1.441,1.439c0,0.795,0.646,1.441,1.441,1.441
		s1.441-0.646,1.441-1.441C18.374,22.165,17.728,21.52,16.933,21.52z"/>
</g>
<g>
</g>
<g>
</g>
<g>
</g>
<g>
</g>
<g>
</g>
<g>
</g>
<g>
</g>
<g>
</g>
<g>
</g>
<g>
</g>
<g>
</g>
<g>
</g>
<g>
</g>
<g>
</g>
<g>
</g>
</svg>
