<?xml version="1.0" encoding="iso-8859-1"?>
<!-- Generator: Adobe Illustrator 19.0.0, SVG Export Plug-In . SVG Version: 6.00 Build 0)  -->
<svg version="1.1" id="Capa_1" xmlns="http://www.w3.org/2000/svg" xmlns:xlink="http://www.w3.org/1999/xlink" x="0px" y="0px"
	 viewBox="0 0 31 31" style="enable-background:new 0 0 31 31;" xml:space="preserve">
<g>
	<path d="M22.749,15.499c-0.276,0-0.5-0.224-0.5-0.5s0.224-0.5,0.5-0.5c3.722,0,6.75-3.027,6.75-6.749S26.471,1,22.749,1
		C19.028,1,16,4.028,16,7.75c0,0.276-0.224,0.5-0.5,0.5S15,8.026,15,7.75C15,3.477,18.476,0,22.749,0s7.75,3.477,7.75,7.75
		C30.499,12.022,27.022,15.499,22.749,15.499z"/>
	<path d="M8.251,15.499c-4.273,0-7.75-3.477-7.75-7.749C0.501,3.477,3.978,0,8.251,0S16,3.477,16,7.75c0,0.276-0.224,0.5-0.5,0.5
		S15,8.026,15,7.75C15,4.028,11.972,1,8.251,1c-3.722,0-6.75,3.028-6.75,6.75s3.028,6.749,6.75,6.749c0.276,0,0.5,0.224,0.5,0.5
		S8.527,15.499,8.251,15.499z"/>
	<path d="M15.5,31c-0.276,0-0.5-0.224-0.5-0.5V7.75c0-0.276,0.224-0.5,0.5-0.5S16,7.474,16,7.75V30.5C16,30.776,15.776,31,15.5,31z"
		/>
</g>
<g>
</g>
<g>
</g>
<g>
</g>
<g>
</g>
<g>
</g>
<g>
</g>
<g>
</g>
<g>
</g>
<g>
</g>
<g>
</g>
<g>
</g>
<g>
</g>
<g>
</g>
<g>
</g>
<g>
</g>
</svg>
