<?xml version="1.0" encoding="iso-8859-1"?>
<!-- Generator: Adobe Illustrator 19.0.0, SVG Export Plug-In . SVG Version: 6.00 Build 0)  -->
<svg version="1.1" id="Capa_1" xmlns="http://www.w3.org/2000/svg" xmlns:xlink="http://www.w3.org/1999/xlink" x="0px" y="0px"
	 viewBox="0 0 33 33" style="enable-background:new 0 0 33 33;" xml:space="preserve">
<g>
	<g>
		<path d="M16.5,32.65c-6.145,0-11.534-4.037-12.975-9.655C1.575,22.96,0,21.363,0,19.405c0-1.98,1.611-3.592,3.592-3.592h0.308
			c1.875-5.076,6.892-8.461,12.601-8.461s10.726,3.385,12.601,8.461h0.309c1.979,0,3.591,1.611,3.591,3.592
			c0,1.958-1.575,3.555-3.524,3.59C28.035,28.613,22.645,32.65,16.5,32.65z M3.592,16.813C2.163,16.813,1,17.977,1,19.405
			s1.163,2.591,2.592,2.591H3.92c0.234,0,0.438,0.163,0.488,0.393c1.186,5.366,6.271,9.262,12.092,9.262s10.907-3.896,12.093-9.262
			c0.051-0.229,0.254-0.393,0.488-0.393h0.328c1.429,0,2.591-1.162,2.591-2.591s-1.162-2.592-2.591-2.592h-0.662
			c-0.215,0-0.405-0.137-0.474-0.341c-1.636-4.856-6.367-8.12-11.773-8.12s-10.138,3.264-11.773,8.12
			c-0.068,0.204-0.259,0.341-0.474,0.341H3.592z"/>
		<g>
			<circle cx="20.69" cy="21.334" r="1.208"/>
		</g>
		<g>
			<circle cx="12.771" cy="21.334" r="1.208"/>
		</g>
		<path d="M16.499,27.87c-1.223,0-2.444-0.335-3.533-1.006l-0.197-0.121c-0.234-0.146-0.308-0.453-0.163-0.688
			c0.146-0.235,0.454-0.306,0.688-0.163l0.196,0.121c1.855,1.143,4.161,1.144,6.021-0.001l0.195-0.121
			c0.234-0.143,0.543-0.072,0.688,0.163c0.145,0.235,0.071,0.543-0.163,0.688l-0.196,0.121C18.944,27.534,17.721,27.87,16.499,27.87
			z"/>
	</g>
	<path d="M17.6,8.417c-2.44,0-4.426-1.985-4.426-4.426c0-2.008,1.633-3.642,3.641-3.642c1.661,0,3.013,1.352,3.013,3.013
		c0,1.385-1.126,2.511-2.511,2.511c-1.162,0-2.107-0.946-2.107-2.108c0-0.276,0.224-0.5,0.5-0.5s0.5,0.224,0.5,0.5
		c0,0.611,0.497,1.108,1.107,1.108c0.833,0,1.511-0.678,1.511-1.511c0-1.109-0.903-2.013-2.013-2.013
		c-1.456,0-2.641,1.185-2.641,2.642c0,1.889,1.537,3.426,3.426,3.426c0.276,0,0.5,0.224,0.5,0.5S17.876,8.417,17.6,8.417z"/>
</g>
<g>
</g>
<g>
</g>
<g>
</g>
<g>
</g>
<g>
</g>
<g>
</g>
<g>
</g>
<g>
</g>
<g>
</g>
<g>
</g>
<g>
</g>
<g>
</g>
<g>
</g>
<g>
</g>
<g>
</g>
</svg>
