<?xml version="1.0" encoding="iso-8859-1"?>
<!-- Generator: Adobe Illustrator 19.0.0, SVG Export Plug-In . SVG Version: 6.00 Build 0)  -->
<svg version="1.1" id="Capa_1" xmlns="http://www.w3.org/2000/svg" xmlns:xlink="http://www.w3.org/1999/xlink" x="0px" y="0px"
	 viewBox="0 0 33 33" style="enable-background:new 0 0 33 33;" xml:space="preserve">
<g>
	<g>
		<path d="M16.5,29.149c-6.145,0-11.534-4.037-12.975-9.655C1.575,19.458,0,17.861,0,15.903c0-1.979,1.611-3.591,3.592-3.591h0.308
			C5.774,7.236,10.791,3.851,16.5,3.851s10.726,3.385,12.601,8.461h0.308c1.98,0,3.592,1.611,3.592,3.591
			c0,1.958-1.575,3.555-3.524,3.591C28.035,25.112,22.645,29.149,16.5,29.149z M3.592,13.312C2.163,13.312,1,14.474,1,15.903
			s1.163,2.592,2.592,2.592H3.92c0.234,0,0.438,0.163,0.488,0.393c1.186,5.366,6.271,9.262,12.092,9.262s10.907-3.896,12.093-9.262
			c0.051-0.229,0.254-0.393,0.488-0.393h0.327c1.429,0,2.592-1.163,2.592-2.592s-1.163-2.591-2.592-2.591h-0.661
			c-0.215,0-0.405-0.137-0.474-0.341c-1.636-4.856-6.367-8.12-11.773-8.12S6.362,8.115,4.727,12.971
			c-0.068,0.204-0.259,0.341-0.474,0.341H3.592z"/>
		<g>
			<circle cx="20.69" cy="17.832" r="1.208"/>
		</g>
		<g>
			<circle cx="12.771" cy="17.832" r="1.208"/>
		</g>
		<path d="M16.499,24.369c-1.222,0-2.444-0.336-3.534-1.007l-0.194-0.119c-0.235-0.145-0.31-0.452-0.166-0.688
			c0.146-0.237,0.454-0.309,0.688-0.166l0.196,0.12c1.857,1.145,4.165,1.144,6.022,0.001l0.195-0.121
			c0.234-0.143,0.543-0.073,0.688,0.163c0.145,0.235,0.071,0.543-0.163,0.688l-0.196,0.121
			C18.944,24.033,17.722,24.369,16.499,24.369z"/>
	</g>
</g>
<g>
</g>
<g>
</g>
<g>
</g>
<g>
</g>
<g>
</g>
<g>
</g>
<g>
</g>
<g>
</g>
<g>
</g>
<g>
</g>
<g>
</g>
<g>
</g>
<g>
</g>
<g>
</g>
<g>
</g>
</svg>
