<?xml version="1.0" encoding="iso-8859-1"?>
<!-- Generator: Adobe Illustrator 19.0.0, SVG Export Plug-In . SVG Version: 6.00 Build 0)  -->
<svg version="1.1" id="Capa_1" xmlns="http://www.w3.org/2000/svg" xmlns:xlink="http://www.w3.org/1999/xlink" x="0px" y="0px"
	 viewBox="0 0 33 33" style="enable-background:new 0 0 33 33;" xml:space="preserve">
<g>
	<g>
		<path d="M19.568,7.693c-0.24,0-0.452-0.173-0.493-0.418C19.03,7.002,19.214,6.746,19.486,6.7l10.815-1.805
			c0.273-0.043,0.53,0.138,0.576,0.411c0.045,0.272-0.139,0.529-0.411,0.575L19.651,7.686C19.624,7.691,19.596,7.693,19.568,7.693z"
			/>
		<path d="M2.615,10.522c-0.24,0-0.452-0.173-0.493-0.418C2.077,9.832,2.261,9.575,2.533,9.529L13.432,7.71
			c0.276-0.049,0.53,0.139,0.576,0.411c0.045,0.272-0.139,0.529-0.411,0.575L2.698,10.515C2.67,10.52,2.643,10.522,2.615,10.522z"/>
	</g>
	<g>
		<g>
			<path d="M26.836,23.305c-3.398,0-6.163-2.766-6.163-6.164c0-0.276,0.224-0.5,0.5-0.5H32.5c0.276,0,0.5,0.224,0.5,0.5
				C33,20.54,30.235,23.305,26.836,23.305z M21.697,17.641c0.252,2.614,2.461,4.664,5.139,4.664c2.679,0,4.887-2.05,5.14-4.664
				H21.697z"/>
			<path d="M21.173,17.641c-0.078,0-0.157-0.019-0.231-0.057c-0.245-0.128-0.339-0.43-0.212-0.675l5.663-10.851
				c0.173-0.33,0.714-0.33,0.887,0l5.664,10.851c0.127,0.245,0.033,0.547-0.212,0.675c-0.244,0.127-0.547,0.032-0.675-0.212
				l-5.22-10.001l-5.22,10.001C21.527,17.543,21.353,17.641,21.173,17.641z"/>
		</g>
		<g>
			<path d="M6.164,26.54C2.765,26.54,0,23.774,0,20.376c0-0.276,0.224-0.5,0.5-0.5h11.327c0.276,0,0.5,0.224,0.5,0.5
				C12.327,23.774,9.562,26.54,6.164,26.54z M1.024,20.876c0.252,2.614,2.461,4.664,5.14,4.664c2.678,0,4.887-2.05,5.139-4.664
				H1.024z"/>
			<path d="M11.827,20.876c-0.18,0-0.354-0.098-0.444-0.269l-5.22-10.001l-5.22,10.001c-0.128,0.245-0.43,0.338-0.675,0.212
				c-0.245-0.128-0.339-0.43-0.212-0.675L5.72,9.293c0.173-0.33,0.714-0.33,0.887,0l5.663,10.851
				c0.127,0.245,0.033,0.547-0.212,0.675C11.984,20.857,11.905,20.876,11.827,20.876z"/>
		</g>
	</g>
	<path d="M16.5,11.255c-1.958,0-3.551-1.593-3.551-3.551c0-1.957,1.593-3.55,3.551-3.55s3.551,1.593,3.551,3.55
		C20.051,9.663,18.458,11.255,16.5,11.255z M16.5,5.155c-1.407,0-2.551,1.144-2.551,2.55s1.144,2.551,2.551,2.551
		s2.551-1.145,2.551-2.551S17.907,5.155,16.5,5.155z"/>
	<path d="M16.5,30.059c-0.276,0-0.5-0.224-0.5-0.5V10.755c0-0.276,0.224-0.5,0.5-0.5s0.5,0.224,0.5,0.5v18.804
		C17,29.835,16.776,30.059,16.5,30.059z"/>
	<path d="M16.5,5.155c-0.276,0-0.5-0.224-0.5-0.5V3.441c0-0.276,0.224-0.5,0.5-0.5s0.5,0.224,0.5,0.5v1.214
		C17,4.931,16.776,5.155,16.5,5.155z"/>
	<path d="M23.096,30.059H9.904c-0.276,0-0.5-0.224-0.5-0.5s0.224-0.5,0.5-0.5h13.192c0.276,0,0.5,0.224,0.5,0.5
		S23.373,30.059,23.096,30.059z"/>
</g>
<g>
</g>
<g>
</g>
<g>
</g>
<g>
</g>
<g>
</g>
<g>
</g>
<g>
</g>
<g>
</g>
<g>
</g>
<g>
</g>
<g>
</g>
<g>
</g>
<g>
</g>
<g>
</g>
<g>
</g>
</svg>
