<?xml version="1.0" encoding="iso-8859-1"?>
<!-- Generator: Adobe Illustrator 19.0.0, SVG Export Plug-In . SVG Version: 6.00 Build 0)  -->
<svg version="1.1" id="Capa_1" xmlns="http://www.w3.org/2000/svg" xmlns:xlink="http://www.w3.org/1999/xlink" x="0px" y="0px"
	 viewBox="0 0 33 33" style="enable-background:new 0 0 33 33;" xml:space="preserve">
<g>
	<path d="M24.5,33h-16C7.121,33,6,31.879,6,30.5v-24C6,5.121,7.121,4,8.5,4h16C25.879,4,27,5.121,27,6.5v24
		C27,31.879,25.879,33,24.5,33z M8.5,5C7.673,5,7,5.673,7,6.5v24C7,31.327,7.673,32,8.5,32h16c0.827,0,1.5-0.673,1.5-1.5v-24
		C26,5.673,25.327,5,24.5,5H8.5z"/>
	<path d="M19.75,5h-6.5c-0.276,0-0.5-0.224-0.5-0.5v-4c0-0.276,0.224-0.5,0.5-0.5h6.5c0.276,0,0.5,0.224,0.5,0.5v4
		C20.25,4.776,20.026,5,19.75,5z M13.75,4h5.5V1h-5.5V4z"/>
	<path d="M22.5,28.889h-12c-0.276,0-0.5-0.224-0.5-0.5s0.224-0.5,0.5-0.5h12c0.276,0,0.5,0.224,0.5,0.5S22.776,28.889,22.5,28.889z"
		/>
	<path d="M22.5,23.91h-12c-0.276,0-0.5-0.224-0.5-0.5s0.224-0.5,0.5-0.5h12c0.276,0,0.5,0.224,0.5,0.5S22.776,23.91,22.5,23.91z"/>
</g>
<g>
</g>
<g>
</g>
<g>
</g>
<g>
</g>
<g>
</g>
<g>
</g>
<g>
</g>
<g>
</g>
<g>
</g>
<g>
</g>
<g>
</g>
<g>
</g>
<g>
</g>
<g>
</g>
<g>
</g>
</svg>
