<?xml version="1.0" encoding="iso-8859-1"?>
<!-- Generator: Adobe Illustrator 19.0.0, SVG Export Plug-In . SVG Version: 6.00 Build 0)  -->
<svg version="1.1" id="Capa_1" xmlns="http://www.w3.org/2000/svg" xmlns:xlink="http://www.w3.org/1999/xlink" x="0px" y="0px"
	 viewBox="0 0 33 33" style="enable-background:new 0 0 33 33;" xml:space="preserve">
<g>
	<g>
		<path d="M20.136,33h-9.212c-2.397,0-4.349-1.951-4.349-4.349V11.265c0-0.276,0.224-0.5,0.5-0.5h16.828
			c0.276,0,0.581,0.224,0.581,0.5v17.387C24.484,31.049,22.533,33,20.136,33z M7.575,11.765v16.887c0,1.847,1.502,3.349,3.349,3.349
			h9.212c1.847,0,3.349-1.502,3.349-3.349V11.765H7.575z"/>
		<path d="M26.096,25.574h-2.111c-0.276,0-0.5-0.224-0.5-0.5s0.224-0.5,0.5-0.5h2.111c1.005,0,1.823-0.818,1.823-1.823v-4.693
			c0-1.006-0.818-1.824-1.823-1.824h-2.111c-0.276,0-0.5-0.224-0.5-0.5s0.224-0.5,0.5-0.5h2.111c1.557,0,2.823,1.267,2.823,2.824
			v4.693C28.919,24.308,27.652,25.574,26.096,25.574z"/>
		<g>
			<path d="M11.376,28.365c-0.276,0-0.5-0.224-0.5-0.5V15.691c0-0.276,0.224-0.5,0.5-0.5s0.5,0.224,0.5,0.5v12.174
				C11.876,28.142,11.652,28.365,11.376,28.365z"/>
			<path d="M19.683,28.365c-0.276,0-0.5-0.224-0.5-0.5V15.691c0-0.276,0.224-0.5,0.5-0.5s0.5,0.224,0.5,0.5v12.174
				C20.183,28.142,19.959,28.365,19.683,28.365z"/>
			<path d="M15.529,28.365c-0.276,0-0.5-0.224-0.5-0.5V15.691c0-0.276,0.224-0.5,0.5-0.5s0.5,0.224,0.5,0.5v12.174
				C16.029,28.142,15.806,28.365,15.529,28.365z"/>
		</g>
	</g>
	<path d="M23.698,11.765H7.361c-1.809,0-3.28-1.472-3.28-3.28s1.472-3.28,3.28-3.28h0.239C7.936,2.249,10.413,0,13.438,0
		c1.795,0,3.482,0.819,4.596,2.213c0.487-0.207,0.993-0.312,1.508-0.312c1.952,0,3.586,1.417,3.909,3.303h0.247
		c1.809,0,3.28,1.472,3.28,3.28S25.507,11.765,23.698,11.765z M7.361,6.204c-1.258,0-2.28,1.022-2.28,2.28s1.022,2.28,2.28,2.28
		h16.337c1.258,0,2.28-1.022,2.28-2.28s-1.022-2.28-2.28-2.28h-0.693c-0.267,0-0.485-0.208-0.499-0.475
		c-0.082-1.586-1.384-2.828-2.964-2.828c-0.485,0-0.964,0.128-1.423,0.38c-0.223,0.124-0.508,0.056-0.652-0.155
		C16.554,1.795,15.048,1,13.438,1c-2.646,0-4.786,2.073-4.873,4.721c-0.009,0.27-0.23,0.483-0.5,0.483H7.361z"/>
</g>
<g>
</g>
<g>
</g>
<g>
</g>
<g>
</g>
<g>
</g>
<g>
</g>
<g>
</g>
<g>
</g>
<g>
</g>
<g>
</g>
<g>
</g>
<g>
</g>
<g>
</g>
<g>
</g>
<g>
</g>
</svg>
