<?xml version="1.0" encoding="iso-8859-1"?>
<!-- Generator: Adobe Illustrator 19.0.0, SVG Export Plug-In . SVG Version: 6.00 Build 0)  -->
<svg version="1.1" id="Capa_1" xmlns="http://www.w3.org/2000/svg" xmlns:xlink="http://www.w3.org/1999/xlink" x="0px" y="0px"
	 viewBox="0 0 33 33" style="enable-background:new 0 0 33 33;" xml:space="preserve">
<g>
	<g>
		<g>
			<path d="M7.16,30.513c-3.948,0-7.16-3.212-7.16-7.16s3.212-7.161,7.16-7.161s7.161,3.212,7.161,7.161S11.108,30.513,7.16,30.513z
				 M7.16,17.192c-3.396,0-6.16,2.764-6.16,6.161c0,3.396,2.764,6.16,6.16,6.16c3.397,0,6.161-2.764,6.161-6.16
				C13.321,19.956,10.557,17.192,7.16,17.192z"/>
			<path d="M13.821,10.987c-0.276,0-0.5-0.224-0.5-0.5c0-2.096-1.705-3.8-3.8-3.8c-1.598,0-3.036,1.01-3.577,2.513
				C5.851,9.458,5.565,9.595,5.304,9.5C5.044,9.407,4.91,9.12,5.003,8.86c0.683-1.898,2.499-3.174,4.517-3.174
				c2.647,0,4.8,2.153,4.8,4.8C14.321,10.763,14.097,10.987,13.821,10.987z"/>
			<path d="M13.821,23.853c-0.276,0-0.5-0.224-0.5-0.5V10.487c0-0.276,0.224-0.5,0.5-0.5s0.5,0.224,0.5,0.5v12.866
				C14.321,23.629,14.097,23.853,13.821,23.853z"/>
			<path d="M0.845,21.743c-0.059,0-0.119-0.01-0.178-0.033c-0.258-0.098-0.388-0.387-0.29-0.645l4.56-12.002
				c0.098-0.258,0.386-0.388,0.645-0.29c0.258,0.098,0.388,0.387,0.29,0.645L1.313,21.42C1.237,21.62,1.047,21.743,0.845,21.743z"/>
		</g>
		<g>
			<path d="M12.754,5.463c-0.276,0-0.5-0.224-0.5-0.5c0-0.814-0.663-1.477-1.477-1.477c-0.621,0-1.18,0.393-1.39,0.977
				c-0.093,0.259-0.38,0.396-0.64,0.301c-0.26-0.093-0.395-0.38-0.301-0.64c0.353-0.979,1.289-1.638,2.331-1.638
				c1.366,0,2.477,1.111,2.477,2.477C13.254,5.24,13.03,5.463,12.754,5.463z"/>
			<path d="M12.754,7.607c-0.276,0-0.5-0.224-0.5-0.5V4.963c0-0.276,0.224-0.5,0.5-0.5s0.5,0.224,0.5,0.5v2.144
				C13.254,7.384,13.03,7.607,12.754,7.607z"/>
			<path d="M8.214,6.657c-0.059,0-0.119-0.01-0.178-0.033c-0.258-0.098-0.388-0.387-0.29-0.645l0.671-1.767
				c0.098-0.258,0.386-0.389,0.645-0.29c0.258,0.098,0.388,0.387,0.29,0.645L8.681,6.335C8.605,6.535,8.416,6.657,8.214,6.657z"/>
		</g>
	</g>
	<g>
		<g>
			<path d="M25.84,30.513c-3.948,0-7.161-3.212-7.161-7.16s3.212-7.161,7.161-7.161S33,19.405,33,23.353S29.788,30.513,25.84,30.513
				z M25.84,17.192c-3.397,0-6.161,2.764-6.161,6.161c0,3.396,2.764,6.16,6.161,6.16c3.396,0,6.16-2.764,6.16-6.16
				C32,19.956,29.236,17.192,25.84,17.192z"/>
			<path d="M19.179,10.987c-0.276,0-0.5-0.224-0.5-0.5c0-2.647,2.153-4.8,4.8-4.8c2.019,0,3.834,1.275,4.517,3.174
				c0.094,0.26-0.041,0.546-0.301,0.64c-0.262,0.095-0.547-0.042-0.64-0.301c-0.541-1.503-1.979-2.513-3.577-2.513
				c-2.096,0-3.8,1.705-3.8,3.8C19.679,10.763,19.456,10.987,19.179,10.987z"/>
			<path d="M19.179,23.853c-0.276,0-0.5-0.224-0.5-0.5V10.487c0-0.276,0.224-0.5,0.5-0.5s0.5,0.224,0.5,0.5v12.866
				C19.679,23.629,19.456,23.853,19.179,23.853z"/>
			<path d="M32.155,21.743c-0.202,0-0.392-0.123-0.467-0.322l-4.56-12.002c-0.098-0.258,0.032-0.547,0.29-0.645
				c0.26-0.099,0.547,0.032,0.645,0.29l4.56,12.002c0.098,0.258-0.032,0.547-0.29,0.645C32.274,21.732,32.214,21.743,32.155,21.743z
				"/>
		</g>
		<g>
			<path d="M20.246,5.463c-0.276,0-0.5-0.224-0.5-0.5c0-1.366,1.111-2.477,2.477-2.477c1.042,0,1.979,0.658,2.331,1.638
				c0.094,0.26-0.041,0.546-0.301,0.64c-0.263,0.094-0.546-0.042-0.64-0.301c-0.21-0.584-0.769-0.977-1.391-0.977
				c-0.814,0-1.477,0.663-1.477,1.477C20.746,5.24,20.522,5.463,20.246,5.463z"/>
			<path d="M20.246,7.607c-0.276,0-0.5-0.224-0.5-0.5V4.963c0-0.276,0.224-0.5,0.5-0.5s0.5,0.224,0.5,0.5v2.144
				C20.746,7.384,20.522,7.607,20.246,7.607z"/>
			<path d="M24.786,6.657c-0.202,0-0.392-0.123-0.467-0.322l-0.671-1.767c-0.098-0.258,0.032-0.547,0.29-0.645
				c0.26-0.1,0.547,0.031,0.645,0.29l0.671,1.767c0.098,0.258-0.032,0.547-0.29,0.645C24.905,6.647,24.845,6.657,24.786,6.657z"/>
		</g>
	</g>
	<path d="M19.179,18.038h-5.358c-0.276,0-0.5-0.224-0.5-0.5s0.224-0.5,0.5-0.5h4.858v-4.17h-4.858c-0.276,0-0.5-0.224-0.5-0.5
		s0.224-0.5,0.5-0.5h5.358c0.276,0,0.5,0.224,0.5,0.5v5.17C19.679,17.814,19.456,18.038,19.179,18.038z"/>
</g>
<g>
</g>
<g>
</g>
<g>
</g>
<g>
</g>
<g>
</g>
<g>
</g>
<g>
</g>
<g>
</g>
<g>
</g>
<g>
</g>
<g>
</g>
<g>
</g>
<g>
</g>
<g>
</g>
<g>
</g>
</svg>
