<?xml version="1.0" encoding="iso-8859-1"?>
<!-- Generator: Adobe Illustrator 19.0.0, SVG Export Plug-In . SVG Version: 6.00 Build 0)  -->
<svg version="1.1" id="Capa_1" xmlns="http://www.w3.org/2000/svg" xmlns:xlink="http://www.w3.org/1999/xlink" x="0px" y="0px"
	 viewBox="0 0 39.619 39.619" style="enable-background:new 0 0 39.619 39.619;" xml:space="preserve">
<g>
	<path d="M4.155,36.456c-0.128,0-0.256-0.049-0.354-0.146c-0.195-0.195-0.195-0.512,0-0.707L36.094,3.31
		c0.195-0.195,0.512-0.195,0.707,0s0.195,0.512,0,0.707L4.508,36.309C4.411,36.407,4.283,36.456,4.155,36.456z"/>
	<path d="M9.595,30.927c-0.091,0-0.182-0.024-0.265-0.076c-6.136-3.84-9.153-9.852-9.278-10.106C0.018,20.676,0,20.6,0,20.524
		v-0.133c0-0.077,0.018-0.152,0.052-0.221C0.117,20.038,6.706,6.994,19.809,6.994c3.577,0,6.993,0.965,10.153,2.867
		c0.237,0.142,0.313,0.45,0.17,0.686c-0.143,0.237-0.45,0.312-0.686,0.17c-3.003-1.807-6.246-2.724-9.638-2.724
		c-11.728,0-18.007,11.018-18.779,12.463c0.515,0.964,3.476,6.195,8.831,9.546c0.234,0.146,0.305,0.455,0.159,0.689
		C9.924,30.844,9.761,30.927,9.595,30.927z"/>
	<path d="M19.809,33.918c-2.233,0-4.423-0.379-6.507-1.127c-0.26-0.093-0.395-0.38-0.302-0.64c0.093-0.26,0.38-0.396,0.64-0.302
		c1.975,0.709,4.051,1.069,6.169,1.069c11.73,0,18.009-11.016,18.781-12.461c-0.414-0.776-2.41-4.318-5.954-7.405
		c-0.208-0.181-0.23-0.497-0.048-0.706c0.182-0.208,0.499-0.229,0.706-0.048c4.144,3.61,6.189,7.699,6.274,7.872
		c0.034,0.069,0.052,0.145,0.052,0.221v0.133c0,0.077-0.018,0.152-0.052,0.221C39.502,20.877,32.913,33.918,19.809,33.918z"/>
	<path d="M19.809,26.958c-0.226,0-0.449-0.012-0.668-0.034c-0.275-0.029-0.475-0.274-0.446-0.549
		c0.029-0.275,0.268-0.469,0.549-0.446c0.187,0.02,0.375,0.029,0.566,0.029c2.997,0,5.436-2.439,5.436-5.437
		c0-0.276,0.224-0.5,0.5-0.5s0.5,0.224,0.5,0.5C26.244,24.071,23.357,26.958,19.809,26.958z"/>
	<path d="M15.453,25.053c-0.134,0-0.269-0.054-0.367-0.161c-1.103-1.192-1.71-2.745-1.71-4.371c0-3.548,2.886-6.435,6.434-6.435
		c1.647,0,3.214,0.622,4.412,1.75c0.201,0.189,0.21,0.506,0.021,0.707c-0.189,0.201-0.505,0.21-0.707,0.021
		c-1.012-0.953-2.335-1.478-3.727-1.478c-2.996,0-5.434,2.438-5.434,5.435c0,1.373,0.513,2.685,1.445,3.692
		c0.188,0.203,0.175,0.519-0.028,0.707C15.696,25.009,15.574,25.053,15.453,25.053z"/>
</g>
<g>
</g>
<g>
</g>
<g>
</g>
<g>
</g>
<g>
</g>
<g>
</g>
<g>
</g>
<g>
</g>
<g>
</g>
<g>
</g>
<g>
</g>
<g>
</g>
<g>
</g>
<g>
</g>
<g>
</g>
</svg>
