<?xml version="1.0" encoding="iso-8859-1"?>
<!-- Generator: Adobe Illustrator 19.0.0, SVG Export Plug-In . SVG Version: 6.00 Build 0)  -->
<svg version="1.1" id="Capa_1" xmlns="http://www.w3.org/2000/svg" xmlns:xlink="http://www.w3.org/1999/xlink" x="0px" y="0px"
	 viewBox="0 0 32.711 32.711" style="enable-background:new 0 0 32.711 32.711;" xml:space="preserve">
<g>
	<g>
		<path d="M28.238,5.92H7.473c-1.93,0-3.5-1.328-3.5-2.96S5.543,0,7.473,0h17.766c3.5,0,3.5,0,3.5,0.532
			c0,0.334-0.369,0.59-0.667,0.489C27.73,1.01,26.663,1,25.238,1H7.473c-1.378,0-2.5,0.879-2.5,1.96s1.122,1.96,2.5,1.96h20.766
			c0.276,0,0.5,0.224,0.5,0.5S28.515,5.92,28.238,5.92z"/>
		<path d="M28.238,32.711H8.473c-2.481,0-4.5-2.019-4.5-4.5V3.096c0-0.276,0.224-0.5,0.5-0.5s0.5,0.224,0.5,0.5v25.115
			c0,1.93,1.57,3.5,3.5,3.5h19.766c0.276,0,0.5,0.224,0.5,0.5S28.515,32.711,28.238,32.711z"/>
		<path d="M28.238,32.711c-0.276,0-0.5-0.224-0.5-0.5V5.42c0-0.276,0.224-0.5,0.5-0.5s0.5,0.224,0.5,0.5v26.791
			C28.738,32.487,28.515,32.711,28.238,32.711z"/>
	</g>
	<g>
		<path d="M21.23,19.315h-9.75c-0.276,0-0.5-0.224-0.5-0.5s0.224-0.5,0.5-0.5h9.75c0.276,0,0.5,0.224,0.5,0.5
			S21.507,19.315,21.23,19.315z"/>
		<path d="M16.355,24.19c-0.276,0-0.5-0.224-0.5-0.5v-9.75c0-0.276,0.224-0.5,0.5-0.5s0.5,0.224,0.5,0.5v9.75
			C16.855,23.967,16.632,24.19,16.355,24.19z"/>
	</g>
</g>
<g>
</g>
<g>
</g>
<g>
</g>
<g>
</g>
<g>
</g>
<g>
</g>
<g>
</g>
<g>
</g>
<g>
</g>
<g>
</g>
<g>
</g>
<g>
</g>
<g>
</g>
<g>
</g>
<g>
</g>
</svg>
