<?xml version="1.0" encoding="iso-8859-1"?>
<!-- Generator: Adobe Illustrator 19.0.0, SVG Export Plug-In . SVG Version: 6.00 Build 0)  -->
<svg version="1.1" id="Capa_1" xmlns="http://www.w3.org/2000/svg" xmlns:xlink="http://www.w3.org/1999/xlink" x="0px" y="0px"
	 viewBox="0 0 32.944 32.944" style="enable-background:new 0 0 32.944 32.944;" xml:space="preserve">
<g>
	<g>
		<path d="M22.427,22.572h-11.38c-0.276,0-0.5-0.224-0.5-0.5s0.224-0.5,0.5-0.5h11.38c0.276,0,0.5,0.224,0.5,0.5
			S22.704,22.572,22.427,22.572z"/>
		<path d="M8.339,25.28c-1.769,0-3.208-1.439-3.208-3.208c0-1.77,1.439-3.209,3.208-3.209s3.208,1.439,3.208,3.209
			C11.547,23.841,10.108,25.28,8.339,25.28z M8.339,19.863c-1.217,0-2.208,0.991-2.208,2.209s0.991,2.208,2.208,2.208
			c1.218,0,2.208-0.99,2.208-2.208S9.557,19.863,8.339,19.863z"/>
		<path d="M25.136,25.28c-1.769,0-3.208-1.439-3.208-3.208c0-1.77,1.439-3.209,3.208-3.209s3.208,1.439,3.208,3.209
			C28.344,23.841,26.905,25.28,25.136,25.28z M25.136,19.863c-1.218,0-2.208,0.991-2.208,2.209s0.991,2.208,2.208,2.208
			c1.217,0,2.208-0.99,2.208-2.208S26.353,19.863,25.136,19.863z"/>
	</g>
	<path d="M22.431,22.572H11.049c-0.276,0-0.5-0.224-0.5-0.5s0.224-0.5,0.5-0.5h11.382c0.276,0,0.5,0.224,0.5,0.5
		S22.707,22.572,22.431,22.572z"/>
	<path d="M30.234,22.572h-2.393c-0.276,0-0.5-0.224-0.5-0.5s0.224-0.5,0.5-0.5h2.393c0.615,0,1.131-0.441,1.226-1.05l0.469-3.003
		c0.053-0.338-0.033-0.674-0.241-0.946c-0.208-0.271-0.51-0.441-0.851-0.479l-6.256-0.784c-0.109-0.014-0.211-0.063-0.289-0.14
		l-5.779-5.697c-0.53-0.522-1.231-0.81-1.975-0.81H4.139c-0.869,0-1.594,0.679-1.651,1.546l-0.422,6.41
		c-0.008,0.114-0.055,0.224-0.133,0.308l-0.509,0.546C1.15,17.767,1,18.148,1,18.547v2.277c0,0.412,0.335,0.748,0.748,0.748h3.879
		c0.276,0,0.5,0.224,0.5,0.5s-0.224,0.5-0.5,0.5H1.748C0.784,22.572,0,21.788,0,20.824v-2.277c0-0.653,0.246-1.277,0.691-1.755
		l0.388-0.416l0.411-6.232c0.091-1.391,1.255-2.479,2.649-2.479h12.399c1.008,0,1.958,0.39,2.677,1.097l5.659,5.579l6.08,0.762
		c0.607,0.066,1.153,0.373,1.529,0.864c0.376,0.49,0.53,1.098,0.435,1.708l-0.469,3.003C32.277,21.775,31.346,22.572,30.234,22.572z
		"/>
	<path d="M19.268,15.698H4.864c-0.276,0-0.5-0.224-0.5-0.5s0.224-0.5,0.5-0.5h14.404c0.276,0,0.5,0.224,0.5,0.5
		S19.544,15.698,19.268,15.698z"/>
</g>
<g>
</g>
<g>
</g>
<g>
</g>
<g>
</g>
<g>
</g>
<g>
</g>
<g>
</g>
<g>
</g>
<g>
</g>
<g>
</g>
<g>
</g>
<g>
</g>
<g>
</g>
<g>
</g>
<g>
</g>
</svg>
