<?xml version="1.0" encoding="iso-8859-1"?>
<!-- Generator: Adobe Illustrator 19.0.0, SVG Export Plug-In . SVG Version: 6.00 Build 0)  -->
<svg version="1.1" id="Capa_1" xmlns="http://www.w3.org/2000/svg" xmlns:xlink="http://www.w3.org/1999/xlink" x="0px" y="0px"
	 viewBox="0 0 22.914 22.914" style="enable-background:new 0 0 22.914 22.914;" xml:space="preserve">
<g>
	<path d="M17.719,22.827H5.195c-0.276,0-0.5-0.224-0.5-0.5s0.224-0.5,0.5-0.5h12.523c0.276,0,0.5,0.224,0.5,0.5
		S17.995,22.827,17.719,22.827z"/>
	<path d="M22.414,15.581H0.5c-0.276,0-0.5-0.224-0.5-0.5s0.224-0.5,0.5-0.5h21.914c0.276,0,0.5,0.224,0.5,0.5
		S22.69,15.581,22.414,15.581z"/>
	<path d="M17.719,8.334H5.195c-0.276,0-0.5-0.224-0.5-0.5s0.224-0.5,0.5-0.5h12.523c0.276,0,0.5,0.224,0.5,0.5
		S17.995,8.334,17.719,8.334z"/>
	<path d="M22.414,1.087H0.5c-0.276,0-0.5-0.224-0.5-0.5s0.224-0.5,0.5-0.5h21.914c0.276,0,0.5,0.224,0.5,0.5
		S22.69,1.087,22.414,1.087z"/>
</g>
<g>
</g>
<g>
</g>
<g>
</g>
<g>
</g>
<g>
</g>
<g>
</g>
<g>
</g>
<g>
</g>
<g>
</g>
<g>
</g>
<g>
</g>
<g>
</g>
<g>
</g>
<g>
</g>
<g>
</g>
</svg>
