<?xml version="1.0" encoding="iso-8859-1"?>
<!-- Generator: Adobe Illustrator 19.0.0, SVG Export Plug-In . SVG Version: 6.00 Build 0)  -->
<svg version="1.1" id="Capa_1" xmlns="http://www.w3.org/2000/svg" xmlns:xlink="http://www.w3.org/1999/xlink" x="0px" y="0px"
	 viewBox="0 0 28.458 28.458" style="enable-background:new 0 0 28.458 28.458;" xml:space="preserve">
<g>
	<path d="M13.271,20.469c-1.59,0-2.98-0.394-3.934-1.348l0,0C5.797,15.58,9.967,6.017,13.403,2.58c3.439-3.44,9.036-3.439,12.476,0
		c3.439,3.439,3.439,9.036,0,12.476C23.368,17.567,17.585,20.469,13.271,20.469z M10.044,18.414
		c2.972,2.97,11.967-0.906,15.127-4.065c3.049-3.05,3.049-8.012,0-11.062c-3.049-3.049-8.011-3.05-11.062,0
		C10.951,6.448,7.075,15.444,10.044,18.414L10.044,18.414z"/>
	<path d="M6.454,28.457c-0.845,0-1.689-0.321-2.333-0.965c-0.593-0.594-0.927-1.372-0.956-2.199c-0.827-0.029-1.606-0.362-2.2-0.956
		C0.343,23.714,0,22.886,0,22.004c0-0.881,0.343-1.709,0.966-2.332c1.218-1.217,3.323-1.251,4.578-0.085l2.831-2.831
		c0.195-0.195,0.512-0.195,0.707,0s0.195,0.512,0,0.707l-3.209,3.21c-0.103,0.102-0.245,0.156-0.388,0.146
		c-0.145-0.01-0.277-0.082-0.364-0.197c-0.086-0.114-0.134-0.182-0.194-0.241c-0.87-0.871-2.382-0.87-3.252-0.001
		C1.239,20.814,1,21.391,1,22.005c0,0.613,0.239,1.19,0.673,1.625c0.511,0.511,1.225,0.744,1.949,0.641
		c0.155-0.021,0.313,0.03,0.424,0.142c0.111,0.111,0.164,0.268,0.142,0.424c-0.103,0.729,0.13,1.438,0.641,1.949
		c0.896,0.896,2.355,0.896,3.251,0c0.896-0.896,0.896-2.354,0-3.251c-0.06-0.06-0.126-0.107-0.191-0.156
		c-0.116-0.088-0.213-0.239-0.223-0.384s0.018-0.305,0.121-0.407l3.209-3.21c0.195-0.195,0.512-0.195,0.707,0s0.195,0.512,0,0.707
		l-2.831,2.831c1.201,1.292,1.172,3.32-0.085,4.577C8.144,28.135,7.299,28.457,6.454,28.457z"/>
	<path d="M24.989,10.531c-0.081,0-0.163-0.02-0.239-0.062c-0.242-0.131-0.331-0.433-0.201-0.675c0.032-0.063,0.699-1.382-0.283-3.16
		c-0.133-0.241-0.045-0.546,0.196-0.679c0.242-0.136,0.546-0.046,0.68,0.196c1.259,2.282,0.327,4.044,0.286,4.118
		C25.338,10.437,25.167,10.531,24.989,10.531z"/>
</g>
<g>
</g>
<g>
</g>
<g>
</g>
<g>
</g>
<g>
</g>
<g>
</g>
<g>
</g>
<g>
</g>
<g>
</g>
<g>
</g>
<g>
</g>
<g>
</g>
<g>
</g>
<g>
</g>
<g>
</g>
</svg>
