<?xml version="1.0" encoding="iso-8859-1"?>
<!-- Generator: Adobe Illustrator 19.0.0, SVG Export Plug-In . SVG Version: 6.00 Build 0)  -->
<svg version="1.1" id="Capa_1" xmlns="http://www.w3.org/2000/svg" xmlns:xlink="http://www.w3.org/1999/xlink" x="0px" y="0px"
	 viewBox="0 0 32.857 32.857" style="enable-background:new 0 0 32.857 32.857;" xml:space="preserve">
<g>
	<g>
		<path d="M16.428,32.857C7.369,32.857,0,25.489,0,16.432C0,7.371,7.369,0,16.428,0c9.06,0,16.43,7.371,16.43,16.432
			C32.857,25.489,25.487,32.857,16.428,32.857z M16.428,1C7.921,1,1,7.923,1,16.432c0,8.506,6.921,15.426,15.428,15.426
			c8.508,0,15.43-6.92,15.43-15.426C31.857,7.923,24.936,1,16.428,1z"/>
	</g>
	<path d="M11.65,22.701c-0.112,0-0.226-0.038-0.319-0.115c-0.212-0.176-0.242-0.491-0.065-0.704l4.662-5.63V6.844
		c0-0.276,0.224-0.5,0.5-0.5s0.5,0.224,0.5,0.5v9.588c0,0.116-0.041,0.229-0.115,0.319l-4.777,5.77
		C11.937,22.64,11.794,22.701,11.65,22.701z"/>
</g>
<g>
</g>
<g>
</g>
<g>
</g>
<g>
</g>
<g>
</g>
<g>
</g>
<g>
</g>
<g>
</g>
<g>
</g>
<g>
</g>
<g>
</g>
<g>
</g>
<g>
</g>
<g>
</g>
<g>
</g>
</svg>
