<?xml version="1.0" encoding="iso-8859-1"?>
<!-- Generator: Adobe Illustrator 19.0.0, SVG Export Plug-In . SVG Version: 6.00 Build 0)  -->
<svg version="1.1" id="Capa_1" xmlns="http://www.w3.org/2000/svg" xmlns:xlink="http://www.w3.org/1999/xlink" x="0px" y="0px"
	 viewBox="0 0 40.062 40.062" style="enable-background:new 0 0 40.062 40.062;" xml:space="preserve">
<g>
	<g>
		<path d="M25.615,33.608H6.442C2.89,33.608,0,30.719,0,27.167c0-3.502,2.81-6.361,6.294-6.44c1.241-4.303,5.161-7.274,9.67-7.274
			c3.738,0,7.104,2.026,8.869,5.311c0.28-0.031,0.534-0.046,0.781-0.046c4.106,0,7.446,3.339,7.446,7.443
			C33.062,30.268,29.721,33.608,25.615,33.608z M6.442,21.726C3.441,21.726,1,24.167,1,27.167c0,3,2.441,5.44,5.442,5.44h19.173
			c3.555,0,6.446-2.892,6.446-6.446c0-3.553-2.892-6.443-6.446-6.443c-0.298,0-0.613,0.026-0.991,0.083
			c-0.214,0.032-0.426-0.079-0.522-0.273c-1.544-3.129-4.663-5.074-8.138-5.074c-4.184,0-7.804,2.839-8.804,6.904
			c-0.056,0.228-0.263,0.378-0.498,0.38L6.442,21.726z"/>
		<path d="M25.615,33.608c-0.276,0-0.5-0.224-0.5-0.5s0.224-0.5,0.5-0.5c3.555,0,6.446-2.892,6.446-6.446
			c0-3.553-2.892-6.443-6.446-6.443c-1.862,0-3.633,0.805-4.858,2.208c-0.181,0.208-0.497,0.23-0.705,0.048
			c-0.208-0.181-0.229-0.497-0.048-0.705c1.414-1.621,3.459-2.55,5.611-2.55c4.106,0,7.446,3.339,7.446,7.443
			C33.062,30.268,29.721,33.608,25.615,33.608z"/>
	</g>
	<g>
		<path d="M32.615,26.608c-0.276,0-0.5-0.224-0.5-0.5s0.224-0.5,0.5-0.5c3.555,0,6.446-2.892,6.446-6.446
			c0-3.553-2.892-6.443-6.446-6.443c-0.298,0-0.613,0.026-0.991,0.083c-0.214,0.032-0.426-0.079-0.522-0.273
			c-1.544-3.129-4.663-5.074-8.138-5.074c-4.184,0-7.804,2.839-8.804,6.904c-0.056,0.228-0.261,0.376-0.498,0.38l-0.127-0.007
			c-0.276,0-0.547-0.227-0.547-0.502c0-0.22,0.112-0.409,0.298-0.476c1.232-4.316,5.159-7.299,9.677-7.299
			c3.738,0,7.104,2.026,8.869,5.311c0.28-0.031,0.534-0.046,0.781-0.046c4.106,0,7.446,3.339,7.446,7.443
			C40.062,23.268,36.721,26.608,32.615,26.608z"/>
		<path d="M32.615,26.608c-0.276,0-0.5-0.224-0.5-0.5s0.224-0.5,0.5-0.5c3.555,0,6.446-2.892,6.446-6.446
			c0-3.553-2.892-6.443-6.446-6.443c-1.862,0-3.633,0.805-4.858,2.208c-0.181,0.209-0.497,0.23-0.705,0.048
			c-0.208-0.181-0.229-0.497-0.048-0.705c1.414-1.621,3.459-2.55,5.611-2.55c4.106,0,7.446,3.339,7.446,7.443
			C40.062,23.268,36.721,26.608,32.615,26.608z"/>
	</g>
</g>
<g>
</g>
<g>
</g>
<g>
</g>
<g>
</g>
<g>
</g>
<g>
</g>
<g>
</g>
<g>
</g>
<g>
</g>
<g>
</g>
<g>
</g>
<g>
</g>
<g>
</g>
<g>
</g>
<g>
</g>
</svg>
