<?xml version="1.0" encoding="iso-8859-1"?>
<!-- Generator: Adobe Illustrator 19.0.0, SVG Export Plug-In . SVG Version: 6.00 Build 0)  -->
<svg version="1.1" id="Capa_1" xmlns="http://www.w3.org/2000/svg" xmlns:xlink="http://www.w3.org/1999/xlink" x="0px" y="0px"
	 viewBox="0 0 46.6 46.6" style="enable-background:new 0 0 46.6 46.6;" xml:space="preserve">
<g>
	<path d="M25.615,39.658H6.442C2.89,39.658,0,36.769,0,33.217c0-3.502,2.81-6.361,6.294-6.44c1.24-4.303,5.16-7.274,9.67-7.274
		c3.738,0,7.104,2.026,8.869,5.311c0.279-0.031,0.534-0.046,0.781-0.046c4.105,0,7.446,3.339,7.446,7.443
		C33.061,36.317,29.721,39.658,25.615,39.658z M6.442,27.776c-3,0-5.442,2.441-5.442,5.441c0,3,2.441,5.44,5.442,5.44h19.173
		c3.554,0,6.446-2.892,6.446-6.446c0-3.553-2.892-6.443-6.446-6.443c-0.299,0-0.614,0.026-0.991,0.083
		c-0.215,0.031-0.426-0.078-0.522-0.273c-1.544-3.129-4.663-5.074-8.138-5.074c-4.184,0-7.804,2.839-8.804,6.904
		c-0.056,0.228-0.259,0.369-0.498,0.38L6.442,27.776z"/>
	<path d="M25.615,39.658c-0.276,0-0.5-0.224-0.5-0.5s0.224-0.5,0.5-0.5c3.554,0,6.446-2.892,6.446-6.446
		c0-3.553-2.892-6.443-6.446-6.443c-1.863,0-3.633,0.805-4.857,2.208c-0.182,0.208-0.497,0.229-0.706,0.048
		c-0.208-0.182-0.229-0.498-0.048-0.706c1.414-1.621,3.459-2.55,5.611-2.55c4.105,0,7.446,3.339,7.446,7.443
		C33.061,36.317,29.721,39.658,25.615,39.658z"/>
	<g>
		<path d="M36.044,29.809c-0.128,0-0.256-0.049-0.354-0.147c-0.195-0.196-0.194-0.513,0.001-0.708
			c1.491-1.484,2.312-3.46,2.312-5.564c0-4.33-3.522-7.853-7.853-7.853c-2.278,0-4.442,0.989-5.937,2.713
			c-0.182,0.208-0.497,0.231-0.706,0.05c-0.208-0.181-0.231-0.497-0.05-0.706c1.685-1.943,4.125-3.058,6.693-3.058
			c4.881,0,8.853,3.971,8.853,8.853c0,2.372-0.925,4.6-2.605,6.273C36.299,29.761,36.171,29.809,36.044,29.809z"/>
		<g>
			<path d="M30.15,11.695c-0.276,0-0.5-0.224-0.5-0.5V7.442c0-0.276,0.224-0.5,0.5-0.5s0.5,0.224,0.5,0.5v3.753
				C30.65,11.471,30.426,11.695,30.15,11.695z"/>
		</g>
		<g>
			<path d="M46.1,23.89h-3.753c-0.276,0-0.5-0.224-0.5-0.5s0.224-0.5,0.5-0.5H46.1c0.276,0,0.5,0.224,0.5,0.5
				S46.376,23.89,46.1,23.89z"/>
		</g>
		<g>
			<path d="M38.774,15.266c-0.128,0-0.256-0.049-0.354-0.146c-0.195-0.195-0.195-0.512,0-0.707l2.654-2.653
				c0.195-0.195,0.512-0.195,0.707,0s0.195,0.512,0,0.707l-2.654,2.653C39.03,15.217,38.902,15.266,38.774,15.266z"/>
		</g>
		<g>
			<path d="M41.427,35.168c-0.128,0-0.256-0.049-0.354-0.146L38.42,32.37c-0.195-0.195-0.195-0.512,0-0.707s0.512-0.195,0.707,0
				l2.653,2.652c0.195,0.195,0.195,0.512,0,0.707C41.683,35.12,41.555,35.168,41.427,35.168z"/>
			<path d="M21.524,15.266c-0.128,0-0.256-0.049-0.354-0.146l-2.652-2.653c-0.195-0.195-0.195-0.512,0-0.707s0.512-0.195,0.707,0
				l2.652,2.653c0.195,0.195,0.195,0.512,0,0.707C21.78,15.217,21.652,15.266,21.524,15.266z"/>
		</g>
	</g>
</g>
<g>
</g>
<g>
</g>
<g>
</g>
<g>
</g>
<g>
</g>
<g>
</g>
<g>
</g>
<g>
</g>
<g>
</g>
<g>
</g>
<g>
</g>
<g>
</g>
<g>
</g>
<g>
</g>
<g>
</g>
</svg>
