<?xml version="1.0" encoding="iso-8859-1"?>
<!-- Generator: Adobe Illustrator 19.0.0, SVG Export Plug-In . SVG Version: 6.00 Build 0)  -->
<svg version="1.1" id="Capa_1" xmlns="http://www.w3.org/2000/svg" xmlns:xlink="http://www.w3.org/1999/xlink" x="0px" y="0px"
	 viewBox="0 0 34.555 34.555" style="enable-background:new 0 0 34.555 34.555;" xml:space="preserve">
<g>
	<g>
		<g>
			<path d="M24.065,34.555H5.489c-1.379,0-2.5-1.122-2.5-2.5V7.864c0-1.378,1.121-2.5,2.5-2.5h2.364c0.276,0,0.5,0.224,0.5,0.5
				s-0.224,0.5-0.5,0.5H5.489c-0.827,0-1.5,0.673-1.5,1.5v24.19c0,0.827,0.673,1.5,1.5,1.5h18.576c0.827,0,1.5-0.673,1.5-1.5v-2.365
				c0-0.276,0.224-0.5,0.5-0.5s0.5,0.224,0.5,0.5v2.365C26.565,33.433,25.444,34.555,24.065,34.555z"/>
		</g>
	</g>
	<g>
		<g>
			<path d="M29.065,29.19H10.489c-1.379,0-2.5-1.122-2.5-2.5V2.5c0-1.378,1.121-2.5,2.5-2.5h13.604c0.276,0,0.5,0.224,0.5,0.5
				S24.37,1,24.094,1H10.489c-0.827,0-1.5,0.673-1.5,1.5v24.19c0,0.827,0.673,1.5,1.5,1.5h18.576c0.827,0,1.5-0.673,1.5-1.5V7.661
				c0-0.276,0.224-0.5,0.5-0.5s0.5,0.224,0.5,0.5V26.69C31.565,28.069,30.444,29.19,29.065,29.19z"/>
			<path d="M31.065,8.161h-6.972c-0.276,0-0.5-0.224-0.5-0.5V0.688c0-0.276,0.224-0.5,0.5-0.5s0.5,0.224,0.5,0.5v6.473h6.472
				c0.276,0,0.5,0.224,0.5,0.5S31.342,8.161,31.065,8.161z"/>
			<path d="M31.065,8.161c-0.13,0-0.26-0.051-0.358-0.151l-6.972-7.161c-0.192-0.198-0.188-0.514,0.01-0.707
				c0.197-0.191,0.516-0.187,0.707,0.01l6.972,7.161c0.192,0.198,0.188,0.514-0.01,0.707C31.317,8.114,31.191,8.161,31.065,8.161z"
				/>
		</g>
	</g>
</g>
<g>
</g>
<g>
</g>
<g>
</g>
<g>
</g>
<g>
</g>
<g>
</g>
<g>
</g>
<g>
</g>
<g>
</g>
<g>
</g>
<g>
</g>
<g>
</g>
<g>
</g>
<g>
</g>
<g>
</g>
</svg>
