<?xml version="1.0" encoding="iso-8859-1"?>
<!-- Generator: Adobe Illustrator 19.0.0, SVG Export Plug-In . SVG Version: 6.00 Build 0)  -->
<svg version="1.1" id="Capa_1" xmlns="http://www.w3.org/2000/svg" xmlns:xlink="http://www.w3.org/1999/xlink" x="0px" y="0px"
	 viewBox="0 0 33 33" style="enable-background:new 0 0 33 33;" xml:space="preserve">
<g>
	<path d="M13.265,26.265c-1.743,0-3.383-0.679-4.616-1.912s-1.912-2.873-1.912-4.616c0-1.744,0.679-3.384,1.912-4.617L21.854,1.912
		C23.088,0.679,24.728,0,26.472,0c1.743,0,3.383,0.679,4.616,1.912S33,4.785,33,6.529c0,1.743-0.679,3.383-1.912,4.616
		L17.882,24.353C16.648,25.586,15.009,26.265,13.265,26.265z M26.471,1.002c-1.415,0-2.831,0.539-3.909,1.617L9.355,15.826
		c-2.155,2.156-2.155,5.663,0,7.819c2.154,2.155,5.661,2.156,7.819,0l13.206-13.207c2.155-2.156,2.155-5.663,0-7.819
		C29.303,1.541,27.887,1.002,26.471,1.002z"/>
	<path d="M0.5,33c-0.128,0-0.256-0.049-0.354-0.146c-0.195-0.195-0.195-0.512,0-0.707l8.502-8.501c0.195-0.195,0.512-0.195,0.707,0
		s0.195,0.512,0,0.707l-8.502,8.501C0.756,32.951,0.628,33,0.5,33z"/>
	<path d="M13.135,21.78c-0.128,0-0.256-0.049-0.354-0.146c-0.195-0.195-0.195-0.512,0-0.707c0.439-0.439,0.435-0.859,0.39-1.563
		c-0.046-0.692-0.102-1.554,0.68-2.335c0.782-0.781,1.645-0.727,2.335-0.68c0.701,0.042,1.123,0.05,1.563-0.39
		c0.438-0.438,0.434-0.857,0.387-1.561c-0.045-0.692-0.102-1.553,0.679-2.333c0.779-0.778,1.638-0.722,2.333-0.679
		c0.704,0.047,1.121,0.052,1.56-0.387s0.434-0.857,0.387-1.56c-0.046-0.692-0.103-1.553,0.678-2.333
		c0.779-0.78,1.641-0.721,2.332-0.677c0.702,0.046,1.122,0.053,1.559-0.385c0.195-0.195,0.512-0.195,0.707,0s0.195,0.512,0,0.707
		c-0.778,0.78-1.64,0.723-2.332,0.676c-0.702-0.046-1.12-0.053-1.559,0.386s-0.434,0.857-0.387,1.56
		c0.046,0.692,0.103,1.553-0.678,2.333s-1.645,0.721-2.332,0.678c-0.703-0.046-1.122-0.051-1.561,0.388s-0.434,0.857-0.388,1.561
		c0.046,0.691,0.102,1.553-0.678,2.333c-0.781,0.782-1.644,0.729-2.335,0.68c-0.702-0.044-1.123-0.051-1.563,0.39
		c-0.439,0.439-0.435,0.859-0.39,1.563c0.046,0.692,0.102,1.554-0.68,2.335C13.391,21.731,13.263,21.78,13.135,21.78z"/>
</g>
<g>
</g>
<g>
</g>
<g>
</g>
<g>
</g>
<g>
</g>
<g>
</g>
<g>
</g>
<g>
</g>
<g>
</g>
<g>
</g>
<g>
</g>
<g>
</g>
<g>
</g>
<g>
</g>
<g>
</g>
</svg>
