<?xml version="1.0" encoding="iso-8859-1"?>
<!-- Generator: Adobe Illustrator 19.0.0, SVG Export Plug-In . SVG Version: 6.00 Build 0)  -->
<svg version="1.1" id="Capa_1" xmlns="http://www.w3.org/2000/svg" xmlns:xlink="http://www.w3.org/1999/xlink" x="0px" y="0px"
	 viewBox="0 0 33.001 33.001" style="enable-background:new 0 0 33.001 33.001;" xml:space="preserve">
<g>
	<path d="M5.322,8.425c-0.402,0-0.73-0.328-0.73-0.73c0-0.402,0.328-0.729,0.73-0.729s0.73,0.327,0.73,0.729
		C6.052,8.097,5.725,8.425,5.322,8.425z M5.322,7.425c-0.149,0-0.27,0.121-0.27,0.27c0,0.299,0.54,0.299,0.54,0
		C5.592,7.546,5.471,7.425,5.322,7.425z"/>
	<path d="M2.801,12.086c-0.599,0-1.318-0.402-1.697-0.745c-0.154-0.14-1.493-1.39-0.993-2.273c0.143-0.253,0.563-0.67,1.561-1.631
		c0.671-0.646,1.432-1.38,1.76-1.787c0.155-0.191,0.301-0.392,0.445-0.587c0.527-0.718,1.073-1.46,1.912-1.677
		c0.734-0.188,2.098-0.539,3.193,0.812C9.157,4.413,9.124,4.728,8.91,4.902c-0.216,0.175-0.53,0.14-0.704-0.074
		C7.568,4.041,6.878,4.141,6.04,4.355c-0.494,0.128-0.913,0.697-1.356,1.3C4.531,5.863,4.376,6.074,4.211,6.278
		c-0.368,0.456-1.119,1.18-1.845,1.879C1.827,8.676,1.089,9.388,0.98,9.563c0.014,0.116,0.371,0.653,0.795,1.036
		c0.342,0.31,0.904,0.527,1.055,0.485c0.054-0.016,0.126-0.043,0.212-0.075c0.554-0.208,1.585-0.595,2.696-0.149
		c0.857,0.339,2.647-0.392,3.583-1.82c0.152-0.23,0.461-0.295,0.692-0.144c0.231,0.151,0.295,0.461,0.145,0.692
		c-1.138,1.738-3.376,2.768-4.792,2.199c-0.748-0.298-1.517-0.013-1.975,0.158c-0.116,0.044-0.214,0.079-0.29,0.101
		C3.007,12.074,2.906,12.086,2.801,12.086z"/>
	<path d="M9.125,7.079c-0.227,0-0.432-0.155-0.486-0.386C8.576,6.424,8.742,6.156,9.011,6.092c0.713-0.168,1.477-1.183,1.458-1.743
		c-0.01-0.281-0.083-0.458-0.132-0.528c-0.014,0.018-0.053,0.046-0.104,0.097C9.585,4.565,8.556,5.28,8.159,5.525
		C7.924,5.668,7.616,5.596,7.471,5.362C7.327,5.127,7.4,4.819,7.635,4.673c0.35-0.216,1.312-0.883,1.891-1.463
		c0.499-0.498,0.946-0.427,1.167-0.34c0.46,0.181,0.75,0.721,0.775,1.443c0.039,1.094-1.085,2.482-2.227,2.751
		C9.202,7.075,9.163,7.079,9.125,7.079z"/>
	<path d="M26.014,30.192h-1.675c-0.142,0-0.277-0.061-0.372-0.165c-0.095-0.105-0.141-0.246-0.125-0.387
		c0.099-0.947,0.333-3.59,0.225-4.436c-0.107-0.837-0.332-1.956-0.496-2.772l-0.114-0.573c-0.025-0.135-0.246-0.506-0.441-0.833
		c-0.613-1.031-1.539-2.59-1.322-4.24c0.036-0.273,0.278-0.473,0.561-0.431c0.273,0.036,0.466,0.287,0.43,0.562
		c-0.172,1.306,0.615,2.631,1.19,3.599c0.293,0.492,0.504,0.849,0.563,1.154l0.112,0.566c0.167,0.831,0.395,1.97,0.507,2.842
		c0.112,0.871-0.071,3.076-0.168,4.114h0.633c0.012-0.266,0.032-0.638,0.06-1.15c0.05-0.915,0.113-2.055,0.099-2.464
		c-0.03-0.83,0.027-3.732,0.115-4.384c0.062-0.45,0.477-1.034,1.15-1.95c0.403-0.55,0.821-1.118,1.084-1.6
		c0.569-1.039,0.883-3.752,0.451-5.828c-0.397-1.913-2.019-3.438-4.036-3.796c-1.197-0.212-2.112,0.114-2.998,0.43
		c-0.641,0.228-1.247,0.443-1.912,0.443c-1.377,0-4.056-0.132-5.377-0.484c-1.273-0.341-3.37-1.355-4.064-1.839
		C9.869,6.413,9.813,6.101,9.971,5.875c0.157-0.228,0.469-0.284,0.696-0.125c0.623,0.433,2.593,1.383,3.752,1.692
		c1.164,0.312,3.694,0.451,5.119,0.451c0.492,0,0.995-0.179,1.577-0.386c0.96-0.343,2.048-0.73,3.507-0.472
		c2.416,0.428,4.36,2.268,4.84,4.577c0.449,2.161,0.196,5.144-0.554,6.512c-0.295,0.54-0.732,1.135-1.155,1.711
		c-0.371,0.504-0.93,1.266-0.965,1.494c-0.079,0.582-0.134,3.449-0.107,4.212c0.016,0.455-0.045,1.57-0.099,2.555
		c-0.035,0.633-0.079,1.42-0.069,1.555c0.009,0.139-0.039,0.278-0.134,0.379S26.152,30.192,26.014,30.192z"/>
	<path d="M23.753,22.18c-0.16,0-0.318-0.077-0.415-0.22c-0.399-0.589-2.303-1.223-4.237-1.176c-1.212,0.025-2.496,0.639-3.177,1.198
		c-0.212,0.177-0.528,0.145-0.704-0.068c-0.175-0.213-0.145-0.528,0.069-0.703c0.836-0.688,2.333-1.396,3.791-1.427
		c1.909-0.026,4.338,0.512,5.086,1.615c0.155,0.229,0.095,0.539-0.133,0.694C23.947,22.152,23.85,22.18,23.753,22.18z"/>
	<path d="M14.987,30.192h-1.842c-0.144,0-0.28-0.062-0.375-0.17c-0.095-0.107-0.139-0.251-0.121-0.394
		c0.004-0.034,0.442-3.493,0.415-4.643c-0.029-1.247-0.259-2.712-0.513-3.266c-0.091-0.198-0.313-0.525-0.548-0.871
		c-0.507-0.746-1.081-1.593-1.168-2.289c-0.034-0.274,0.16-0.524,0.434-0.559c0.273-0.038,0.524,0.159,0.558,0.434
		c0.058,0.459,0.604,1.265,1.004,1.853c0.27,0.397,0.503,0.741,0.629,1.017c0.354,0.773,0.576,2.462,0.604,3.658
		c0.022,0.939-0.228,3.176-0.354,4.229h0.786c0.022-0.906,0.094-2.791,0.274-4.251c0.077-0.63,0.158-1.486,0.241-2.366
		c0.196-2.077,0.337-3.477,0.506-3.983c0.087-0.261,0.369-0.403,0.632-0.316c0.262,0.088,0.403,0.371,0.316,0.633
		c-0.145,0.436-0.319,2.279-0.459,3.761c-0.084,0.891-0.166,1.758-0.245,2.395c-0.224,1.818-0.275,4.315-0.275,4.629
		C15.487,29.968,15.264,30.192,14.987,30.192z"/>
	<path d="M12.281,22.258c-1.042,0-2.329-0.483-2.821-1.986c-0.217-0.663-0.373-1.3-0.522-1.915c-0.221-0.909-0.45-1.849-0.889-2.905
		c-0.214-0.516-0.375-0.966-0.519-1.365c-0.353-0.983-0.565-1.576-1.191-2.123c-0.208-0.182-0.229-0.498-0.047-0.706
		c0.182-0.208,0.499-0.227,0.706-0.048c0.822,0.719,1.095,1.482,1.474,2.539c0.138,0.387,0.293,0.821,0.501,1.32
		c0.468,1.127,0.706,2.105,0.937,3.052c0.152,0.624,0.295,1.214,0.5,1.841c0.461,1.406,1.911,1.361,2.383,1.235
		c0.265-0.064,0.541,0.087,0.612,0.354c0.071,0.267-0.087,0.541-0.354,0.612C12.826,22.223,12.563,22.258,12.281,22.258z"/>
	<path d="M31.233,20.068c-0.239,0-0.45-0.171-0.492-0.414c-0.074-0.428-0.081-1.345-0.088-2.506c-0.009-1.322-0.02-2.82-0.138-3.771
		c-0.191-1.526-1.727-2.936-2.715-3.325c-0.257-0.101-0.383-0.392-0.282-0.648c0.102-0.257,0.391-0.387,0.649-0.281
		c1.197,0.472,3.087,2.111,3.34,4.131c0.126,1.01,0.137,2.539,0.146,3.889c0.007,1.026,0.014,1.995,0.074,2.341
		c0.047,0.272-0.135,0.531-0.407,0.578C31.29,20.066,31.261,20.068,31.233,20.068z"/>
	<path d="M31.55,24.739c-0.011,0-0.021,0-0.032-0.001c-0.16-0.011-0.305-0.097-0.391-0.231c-0.015-0.023-0.377-0.599-0.815-1.568
		c-0.256-0.567-0.796-1.986-0.291-2.904c0.149-0.271,0.456-0.613,1.067-0.7c0.602-0.086,1.075,0.039,1.411,0.369
		c0.584,0.574,0.542,1.581,0.439,2.394c-0.184,1.459-0.971,2.422-1.004,2.462C31.839,24.673,31.698,24.739,31.55,24.739z
		 M31.441,20.307c-0.063,0-0.134,0.006-0.211,0.017c-0.216,0.03-0.289,0.114-0.332,0.192c-0.188,0.341-0.054,1.168,0.326,2.011
		c0.124,0.274,0.241,0.515,0.345,0.718c0.157-0.33,0.313-0.766,0.377-1.273c0.13-1.037-0.009-1.418-0.148-1.556
		C31.725,20.343,31.605,20.307,31.441,20.307z"/>
</g>
<g>
</g>
<g>
</g>
<g>
</g>
<g>
</g>
<g>
</g>
<g>
</g>
<g>
</g>
<g>
</g>
<g>
</g>
<g>
</g>
<g>
</g>
<g>
</g>
<g>
</g>
<g>
</g>
<g>
</g>
</svg>
