<?xml version="1.0" encoding="iso-8859-1"?>
<!-- Generator: Adobe Illustrator 19.0.0, SVG Export Plug-In . SVG Version: 6.00 Build 0)  -->
<svg version="1.1" id="Capa_1" fill="#fff" xmlns="http://www.w3.org/2000/svg" xmlns:xlink="http://www.w3.org/1999/xlink" x="0px" y="0px"
	 viewBox="0 0 33.872 33.872" style="enable-background:new 0 0 33.872 33.872;" xml:space="preserve">
<g>
	<g>
		<path d="M24.156,33.872c-1.237,0-2.731-0.31-4.373-0.93c-3.603-1.358-7.522-4.042-11.036-7.556
			C5.232,21.872,2.549,17.952,1.19,14.35c-1.236-3.275-1.239-5.964-0.01-7.193c0.177-0.178,0.358-0.368,0.544-0.563
			c1.124-1.18,2.415-2.52,4.074-2.449c1.16,0.048,2.283,0.768,3.434,2.198c3.396,4.226,1.866,5.732,0.094,7.478l-0.313,0.31
			c-0.29,0.29-0.839,1.633,4.26,6.731c1.664,1.664,3.083,2.882,4.217,3.619c0.715,0.465,1.99,1.166,2.514,0.642l0.315-0.318
			c1.745-1.77,3.251-3.296,7.474,0.099c1.431,1.149,2.149,2.272,2.198,3.433c0.069,1.681-1.27,2.952-2.451,4.075
			c-0.194,0.185-0.385,0.365-0.562,0.542C26.364,33.565,25.388,33.872,24.156,33.872z M5.68,5.142c-1.195,0-2.275,1.136-3.23,2.141
			C2.258,7.483,2.071,7.68,1.888,7.863c-0.916,0.915-0.822,3.323,0.238,6.134c1.31,3.472,3.912,7.266,7.328,10.683
			c3.416,3.415,7.209,6.018,10.682,7.327c2.813,1.062,5.219,1.152,6.135,0.237c0.183-0.183,0.379-0.369,0.58-0.561
			c1.027-0.976,2.191-2.081,2.14-3.308c-0.034-0.844-0.648-1.75-1.825-2.695c-3.52-2.829-4.503-1.831-6.135-0.176l-0.32,0.323
			c-0.779,0.781-2.047,0.607-3.766-0.51c-1.192-0.775-2.666-2.038-4.379-3.751c-4.231-4.231-5.585-6.819-4.26-8.146l0.318-0.315
			c1.658-1.632,2.659-2.617-0.171-6.138C7.507,5.792,6.601,5.178,5.757,5.143C5.731,5.142,5.705,5.142,5.68,5.142z"/>
	</g>
	<path d="M27.478,25.791c-0.154,0-0.306-0.071-0.404-0.205c-0.162-0.224-0.113-0.536,0.109-0.699
		c1.036-0.756,1.957-1.658,2.737-2.683c1.76-2.313,2.69-5.077,2.69-7.992C32.611,6.927,26.685,1,19.4,1
		c-2.207,0-4.392,0.556-6.317,1.605c-0.242,0.134-0.546,0.045-0.678-0.199c-0.133-0.242-0.043-0.546,0.199-0.678
		C14.676,0.598,17.026,0,19.4,0c7.836,0,14.211,6.375,14.211,14.212c0,3.136-1.001,6.108-2.896,8.598
		c-0.838,1.102-1.828,2.072-2.942,2.886C27.685,25.76,27.581,25.791,27.478,25.791z"/>
	<g>
		<path d="M16.618,8.806c0.596-0.18,1.168-0.292,1.785-0.292c1.596,0,2.572,0.797,2.572,2.156c0,0.752-0.416,1.325-1.303,1.909
			l-1.785,1.201c-0.551,0.371-0.798,0.955-0.798,1.584h3.649c0.079,0,0.124,0.045,0.124,0.123v0.865
			c0,0.078-0.045,0.123-0.124,0.123h-4.795c-0.078,0-0.123-0.045-0.123-0.123v-0.539c0-1.37,0.449-2.358,1.459-3.021l1.775-1.179
			c0.449-0.304,0.65-0.596,0.65-0.943c0-0.629-0.494-1.033-1.303-1.033c-0.505,0-0.988,0.09-1.414,0.235l-0.652,0.214
			c-0.066,0.022-0.123-0.012-0.146-0.079l-0.28-0.842c-0.034-0.067,0-0.124,0.078-0.146L16.618,8.806z"/>
		<path d="M27.907,14.342c0,0.079-0.045,0.124-0.123,0.124h-0.696v1.887c0,0.078-0.045,0.123-0.124,0.123h-1.01
			c-0.079,0-0.124-0.045-0.124-0.123v-1.887h-3.763c-0.078,0-0.123-0.045-0.123-0.124v-0.943c0-0.067,0.012-0.112,0.057-0.157
			c0.28-0.325,0.527-0.629,0.797-0.999l2.078-2.673c0.213-0.281,0.381-0.551,0.572-0.865c0.045-0.056,0.09-0.078,0.157-0.078h1.358
			c0.079,0,0.124,0.045,0.124,0.123v4.604h0.696c0.078,0,0.123,0.045,0.123,0.124V14.342z M25.83,11.411
			c0-0.359,0.022-0.719,0.067-1.101c0.022-0.135-0.078-0.169-0.168-0.045l-1.82,2.313c-0.146,0.202-0.359,0.46-0.516,0.606
			c-0.079,0.09-0.034,0.168,0.056,0.168h2.381V11.411z"/>
	</g>
</g>
<g>
</g>
<g>
</g>
<g>
</g>
<g>
</g>
<g>
</g>
<g>
</g>
<g>
</g>
<g>
</g>
<g>
</g>
<g>
</g>
<g>
</g>
<g>
</g>
<g>
</g>
<g>
</g>
<g>
</g>
</svg>
