<?xml version="1.0" encoding="iso-8859-1"?>
<!-- Generator: Adobe Illustrator 19.0.0, SVG Export Plug-In . SVG Version: 6.00 Build 0)  -->
<svg version="1.1" id="Capa_1" xmlns="http://www.w3.org/2000/svg" xmlns:xlink="http://www.w3.org/1999/xlink" x="0px" y="0px"
	 viewBox="0 0 31.461 31.461" style="enable-background:new 0 0 31.461 31.461;" xml:space="preserve">
<g>
	<path d="M22.557,31.461c-1.428,0-2.589-1.162-2.589-2.59l0.747-15.694c-2.175-0.816-3.46-3.184-3.46-6.427
		c0-3.722,2.378-6.75,5.302-6.75c2.923,0,5.302,3.028,5.302,6.75c0,3.243-1.285,5.61-3.459,6.427l0.746,15.671
		C25.146,30.299,23.985,31.461,22.557,31.461z M22.557,1c-2.372,0-4.302,2.579-4.302,5.75c0,2.954,1.164,5.044,3.112,5.589
		c0.225,0.063,0.376,0.272,0.365,0.505l-0.765,16.051c0,0.854,0.713,1.566,1.59,1.566c0.876,0,1.589-0.713,1.589-1.59l-0.764-16.027
		c-0.011-0.232,0.14-0.442,0.365-0.505c1.949-0.545,3.112-2.635,3.112-5.589C26.859,3.579,24.929,1,22.557,1z"/>
	<path d="M8.904,31.461c-1.428,0-2.589-1.162-2.589-2.59l0.747-15.703c-2.056-0.744-3.46-2.707-3.46-4.906V0.5
		c0-0.276,0.224-0.5,0.5-0.5h2.239c0.276,0,0.5,0.224,0.5,0.5v6.711h0.555V0.5c0-0.276,0.224-0.5,0.5-0.5h2.016
		c0.276,0,0.5,0.224,0.5,0.5v6.711h0.555V0.5c0-0.276,0.224-0.5,0.5-0.5h2.239c0.276,0,0.5,0.224,0.5,0.5v7.762
		c0,2.199-1.404,4.162-3.46,4.906l0.747,15.68C11.493,30.299,10.332,31.461,8.904,31.461z M4.602,1v7.262
		c0,1.886,1.279,3.558,3.111,4.065c0.225,0.063,0.377,0.271,0.366,0.505L7.315,28.895c0,0.854,0.713,1.566,1.589,1.566
		s1.589-0.713,1.589-1.59L9.729,12.832c-0.011-0.233,0.141-0.442,0.366-0.505c1.832-0.508,3.111-2.18,3.111-4.065V1h-1.239v6.711
		c0,0.276-0.224,0.5-0.5,0.5H9.912c-0.276,0-0.5-0.224-0.5-0.5V1H8.396v6.711c0,0.276-0.224,0.5-0.5,0.5H6.342
		c-0.276,0-0.5-0.224-0.5-0.5V1H4.602z"/>
</g>
<g>
</g>
<g>
</g>
<g>
</g>
<g>
</g>
<g>
</g>
<g>
</g>
<g>
</g>
<g>
</g>
<g>
</g>
<g>
</g>
<g>
</g>
<g>
</g>
<g>
</g>
<g>
</g>
<g>
</g>
</svg>
