<?xml version="1.0" encoding="iso-8859-1"?>
<!-- Generator: Adobe Illustrator 19.0.0, SVG Export Plug-In . SVG Version: 6.00 Build 0)  -->
<svg version="1.1" id="Capa_1" xmlns="http://www.w3.org/2000/svg" xmlns:xlink="http://www.w3.org/1999/xlink" x="0px" y="0px"
	 viewBox="0 0 33 33" style="enable-background:new 0 0 33 33;" xml:space="preserve">
<g>
	<g>
		<path d="M16.5,33C7.402,33,0,25.598,0,16.5S7.402,0,16.5,0S33,7.402,33,16.5S25.598,33,16.5,33z M16.5,1C7.953,1,1,7.953,1,16.5
			S7.953,32,16.5,32S32,25.047,32,16.5S25.047,1,16.5,1z"/>
		<circle cx="11.702" cy="11.93" r="2.125"/>
		<circle cx="21.827" cy="11.93" r="2.125"/>
	</g>
	<path d="M10.653,24.721c-0.206,0-0.399-0.129-0.472-0.334c-0.092-0.261,0.046-0.547,0.306-0.638l13.299-4.666
		c0.267-0.093,0.547,0.046,0.638,0.306c0.092,0.261-0.046,0.547-0.306,0.638l-13.299,4.666
		C10.764,24.712,10.708,24.721,10.653,24.721z"/>
</g>
<g>
</g>
<g>
</g>
<g>
</g>
<g>
</g>
<g>
</g>
<g>
</g>
<g>
</g>
<g>
</g>
<g>
</g>
<g>
</g>
<g>
</g>
<g>
</g>
<g>
</g>
<g>
</g>
<g>
</g>
</svg>
