<?xml version="1.0" encoding="iso-8859-1"?>
<!-- Generator: Adobe Illustrator 19.0.0, SVG Export Plug-In . SVG Version: 6.00 Build 0)  -->
<svg version="1.1" id="Capa_1" xmlns="http://www.w3.org/2000/svg" xmlns:xlink="http://www.w3.org/1999/xlink" x="0px" y="0px"
	 viewBox="0 0 33.293 33.293" style="enable-background:new 0 0 33.293 33.293;" xml:space="preserve">
<g>
	<g>
		<g>
			<g>
				<path d="M27.577,33.293H5.716c-1.379,0-2.5-1.121-2.5-2.5V2.5c0-1.379,1.121-2.5,2.5-2.5h15.875c0.276,0,0.5,0.224,0.5,0.5
					S21.867,1,21.591,1H5.716c-0.827,0-1.5,0.673-1.5,1.5v28.293c0,0.827,0.673,1.5,1.5,1.5h21.861c0.827,0,1.5-0.673,1.5-1.5V8.703
					c0-0.276,0.224-0.5,0.5-0.5s0.5,0.224,0.5,0.5v22.09C30.077,32.172,28.956,33.293,27.577,33.293z"/>
				<path d="M29.577,9.203h-7.986c-0.276,0-0.5-0.224-0.5-0.5V0.717c0-0.276,0.224-0.5,0.5-0.5s0.5,0.224,0.5,0.5v7.486h7.486
					c0.276,0,0.5,0.224,0.5,0.5S29.853,9.203,29.577,9.203z"/>
				<path d="M29.577,9.203c-0.13,0-0.26-0.051-0.358-0.151l-7.986-8.203c-0.192-0.197-0.188-0.515,0.01-0.707
					c0.196-0.191,0.513-0.188,0.707,0.01l7.986,8.203c0.192,0.197,0.188,0.515-0.01,0.707C29.829,9.156,29.703,9.203,29.577,9.203z"
					/>
			</g>
		</g>
	</g>
	<g>
		<path d="M16.646,25.914c-0.121,0-0.242-0.044-0.338-0.132l-5.434-4.987c-0.792-0.727-1.229-1.696-1.229-2.73
			s0.437-2.004,1.229-2.73c1.448-1.33,3.805-1.329,5.251,0l0.521,0.477l0.521-0.477c1.447-1.33,3.805-1.33,5.252,0l0,0
			c0.792,0.727,1.228,1.696,1.228,2.73s-0.436,2.004-1.228,2.73l-5.435,4.987C16.889,25.87,16.768,25.914,16.646,25.914z
			 M13.5,15.33c-0.706,0-1.411,0.247-1.949,0.74c-0.583,0.535-0.904,1.243-0.904,1.994s0.321,1.459,0.904,1.994l5.096,4.677
			l5.097-4.677c0.583-0.535,0.903-1.243,0.903-1.994s-0.32-1.459-0.903-1.994l0,0c-1.076-0.986-2.824-0.986-3.9,0l-0.858,0.787
			c-0.191,0.176-0.484,0.176-0.676,0L15.45,16.07C14.912,15.577,14.206,15.33,13.5,15.33z"/>
	</g>
</g>
<g>
</g>
<g>
</g>
<g>
</g>
<g>
</g>
<g>
</g>
<g>
</g>
<g>
</g>
<g>
</g>
<g>
</g>
<g>
</g>
<g>
</g>
<g>
</g>
<g>
</g>
<g>
</g>
<g>
</g>
</svg>
