<?xml version="1.0" encoding="iso-8859-1"?>
<!-- Generator: Adobe Illustrator 19.0.0, SVG Export Plug-In . SVG Version: 6.00 Build 0)  -->
<svg version="1.1" id="Capa_1" xmlns="http://www.w3.org/2000/svg" xmlns:xlink="http://www.w3.org/1999/xlink" x="0px" y="0px"
	 viewBox="0 0 33 33" style="enable-background:new 0 0 33 33;" xml:space="preserve">
<g>
	<path d="M17.867,28.376H2.024c-0.276,0-0.5-0.224-0.5-0.5V5.124c0-0.276,0.224-0.5,0.5-0.5h15.843c0.276,0,0.5,0.224,0.5,0.5
		v22.752C18.367,28.153,18.144,28.376,17.867,28.376z M2.524,27.376h14.843V5.624H2.524V27.376z"/>
	<path d="M19.392,5.567H0.5c-0.276,0-0.5-0.224-0.5-0.5V1.256c0-0.276,0.224-0.5,0.5-0.5h18.892c0.276,0,0.5,0.224,0.5,0.5v3.811
		C19.892,5.344,19.668,5.567,19.392,5.567z M1,4.567h17.892V1.756H1V4.567z"/>
	<path d="M19.392,32.244H0.5c-0.276,0-0.5-0.224-0.5-0.5v-3.811c0-0.276,0.224-0.5,0.5-0.5h18.892c0.276,0,0.5,0.224,0.5,0.5v3.811
		C19.892,32.02,19.668,32.244,19.392,32.244z M1,31.244h17.892v-2.811H1V31.244z"/>
	<g>
		<path d="M21.109,13.411c-0.276,0-0.5-0.224-0.5-0.5v-1.143c0-0.276,0.224-0.5,0.5-0.5s0.5,0.224,0.5,0.5v1.143
			C21.609,13.188,21.386,13.411,21.109,13.411z"/>
		<path d="M24.794,13.411c-0.276,0-0.5-0.224-0.5-0.5v-1.143c0-0.276,0.224-0.5,0.5-0.5s0.5,0.224,0.5,0.5v1.143
			C25.294,13.188,25.07,13.411,24.794,13.411z"/>
		<path d="M28.478,13.411c-0.276,0-0.5-0.224-0.5-0.5v-1.143c0-0.276,0.224-0.5,0.5-0.5s0.5,0.224,0.5,0.5v1.143
			C28.978,13.188,28.754,13.411,28.478,13.411z"/>
		<path d="M21.109,21.732c-0.276,0-0.5-0.224-0.5-0.5v-1.144c0-0.276,0.224-0.5,0.5-0.5s0.5,0.224,0.5,0.5v1.144
			C21.609,21.509,21.386,21.732,21.109,21.732z"/>
		<path d="M24.794,21.732c-0.276,0-0.5-0.224-0.5-0.5v-1.144c0-0.276,0.224-0.5,0.5-0.5s0.5,0.224,0.5,0.5v1.144
			C25.294,21.509,25.07,21.732,24.794,21.732z"/>
	</g>
	<path d="M28.464,24.791H17.867c-0.276,0-0.5-0.224-0.5-0.5V8.709c0-0.276,0.224-0.5,0.5-0.5H32.5c0.276,0,0.5,0.224,0.5,0.5v11.546
		c0,0.276-0.224,0.5-0.5,0.5c-2.512,0-3.536,1.024-3.536,3.536C28.964,24.568,28.74,24.791,28.464,24.791z M18.367,23.791h9.61
		c0.148-2.553,1.47-3.874,4.022-4.022V9.209H18.367V23.791z"/>
</g>
<g>
</g>
<g>
</g>
<g>
</g>
<g>
</g>
<g>
</g>
<g>
</g>
<g>
</g>
<g>
</g>
<g>
</g>
<g>
</g>
<g>
</g>
<g>
</g>
<g>
</g>
<g>
</g>
<g>
</g>
</svg>
