<?xml version="1.0" encoding="iso-8859-1"?>
<!-- Generator: Adobe Illustrator 19.0.0, SVG Export Plug-In . SVG Version: 6.00 Build 0)  -->
<svg version="1.1" id="Capa_1" xmlns="http://www.w3.org/2000/svg" xmlns:xlink="http://www.w3.org/1999/xlink" x="0px" y="0px"
	 viewBox="0 0 33 33" style="enable-background:new 0 0 33 33;" xml:space="preserve">
<g>
	<g>
		<path d="M22.467,33c-0.205,0-0.397-0.127-0.471-0.331c-0.023-0.065-2.173-6.351,5.234-10.075C24.925,20.291,16,10.711,16,0.5
			C16,0.224,16.224,0,16.5,0S17,0.224,17,0.5c0,11.037,11.321,21.766,11.436,21.872c0.122,0.114,0.179,0.282,0.151,0.447
			c-0.028,0.165-0.136,0.306-0.289,0.374c-7.357,3.298-5.446,8.901-5.361,9.138c0.093,0.26-0.042,0.546-0.302,0.64
			C22.58,32.99,22.523,33,22.467,33z"/>
		<path d="M10.534,33c-0.056,0-0.112-0.01-0.168-0.029c-0.259-0.093-0.395-0.378-0.304-0.639c0.084-0.237,1.966-5.854-5.36-9.139
			c-0.153-0.068-0.261-0.209-0.289-0.374c-0.027-0.165,0.029-0.333,0.151-0.447C4.679,22.266,16,11.537,16,0.5
			C16,0.224,16.224,0,16.5,0S17,0.224,17,0.5c0,10.211-8.925,19.791-11.23,22.094c7.407,3.725,5.257,10.01,5.234,10.075
			C10.931,32.873,10.739,33,10.534,33z"/>
	</g>
	<path d="M16.5,19.44c-0.276,0-0.5-0.224-0.5-0.5V0.5C16,0.224,16.224,0,16.5,0S17,0.224,17,0.5v18.44
		C17,19.217,16.776,19.44,16.5,19.44z"/>
	<path d="M16.5,22.966c-1.248,0-2.263-1.015-2.263-2.263s1.015-2.263,2.263-2.263s2.263,1.015,2.263,2.263
		S17.748,22.966,16.5,22.966z M16.5,19.44c-0.696,0-1.263,0.566-1.263,1.263s0.566,1.263,1.263,1.263s1.263-0.566,1.263-1.263
		S17.196,19.44,16.5,19.44z"/>
	<path d="M26.975,33H6.025c-0.276,0-0.5-0.224-0.5-0.5s0.224-0.5,0.5-0.5h20.949c0.276,0,0.5,0.224,0.5,0.5S27.251,33,26.975,33z"/>
</g>
<g>
</g>
<g>
</g>
<g>
</g>
<g>
</g>
<g>
</g>
<g>
</g>
<g>
</g>
<g>
</g>
<g>
</g>
<g>
</g>
<g>
</g>
<g>
</g>
<g>
</g>
<g>
</g>
<g>
</g>
</svg>
