<?xml version="1.0" encoding="iso-8859-1"?>
<!-- Generator: Adobe Illustrator 19.0.0, SVG Export Plug-In . SVG Version: 6.00 Build 0)  -->
<svg version="1.1" id="Capa_1" xmlns="http://www.w3.org/2000/svg" xmlns:xlink="http://www.w3.org/1999/xlink" x="0px" y="0px"
	 viewBox="0 0 33 33" style="enable-background:new 0 0 33 33;" xml:space="preserve">
<g>
	<g>
		<path d="M19.62,33c-0.205,0-0.397-0.127-0.471-0.331c-0.023-0.065-2.173-6.351,5.234-10.075
			c-2.305-2.303-11.23-11.883-11.23-22.094c0-0.276,0.224-0.5,0.5-0.5s0.5,0.224,0.5,0.5c0,11.037,11.321,21.766,11.436,21.872
			c0.122,0.114,0.179,0.282,0.151,0.447c-0.028,0.165-0.136,0.306-0.289,0.374c-7.357,3.298-5.446,8.901-5.361,9.138
			c0.093,0.26-0.042,0.546-0.302,0.64C19.733,32.99,19.676,33,19.62,33z"/>
		<path d="M7.687,33c-0.056,0-0.112-0.01-0.168-0.029c-0.259-0.093-0.395-0.378-0.304-0.639c0.084-0.237,1.966-5.854-5.36-9.139
			c-0.153-0.068-0.261-0.209-0.289-0.374c-0.027-0.165,0.029-0.333,0.151-0.447C1.832,22.266,13.153,11.537,13.153,0.5
			c0-0.276,0.224-0.5,0.5-0.5s0.5,0.224,0.5,0.5c0,10.211-8.925,19.791-11.23,22.094c7.407,3.725,5.257,10.01,5.234,10.075
			C8.084,32.873,7.892,33,7.687,33z"/>
	</g>
	<path d="M13.653,19.44c-0.276,0-0.5-0.224-0.5-0.5V0.5c0-0.276,0.224-0.5,0.5-0.5s0.5,0.224,0.5,0.5v18.44
		C14.153,19.217,13.93,19.44,13.653,19.44z"/>
	<path d="M13.653,22.966c-1.248,0-2.263-1.015-2.263-2.263s1.015-2.263,2.263-2.263s2.263,1.015,2.263,2.263
		S14.901,22.966,13.653,22.966z M13.653,19.44c-0.696,0-1.263,0.566-1.263,1.263s0.566,1.263,1.263,1.263s1.263-0.566,1.263-1.263
		S14.35,19.44,13.653,19.44z"/>
	<path d="M24.128,33H3.179c-0.276,0-0.5-0.224-0.5-0.5s0.224-0.5,0.5-0.5h20.949c0.276,0,0.5,0.224,0.5,0.5S24.404,33,24.128,33z"/>
	<g>
		<path d="M30.94,5.16h-8.324c-0.276,0-0.5-0.224-0.5-0.5s0.224-0.5,0.5-0.5h8.324c0.276,0,0.5,0.224,0.5,0.5
			S31.217,5.16,30.94,5.16z"/>
		<path d="M26.777,9.322c-0.276,0-0.5-0.224-0.5-0.5V0.5c0-0.276,0.224-0.5,0.5-0.5s0.5,0.224,0.5,0.5v8.322
			C27.277,9.099,27.054,9.322,26.777,9.322z"/>
	</g>
</g>
<g>
</g>
<g>
</g>
<g>
</g>
<g>
</g>
<g>
</g>
<g>
</g>
<g>
</g>
<g>
</g>
<g>
</g>
<g>
</g>
<g>
</g>
<g>
</g>
<g>
</g>
<g>
</g>
<g>
</g>
</svg>
