<?xml version="1.0" encoding="iso-8859-1"?>
<!-- Generator: Adobe Illustrator 19.0.0, SVG Export Plug-In . SVG Version: 6.00 Build 0)  -->
<svg version="1.1" id="Capa_1" xmlns="http://www.w3.org/2000/svg" xmlns:xlink="http://www.w3.org/1999/xlink" x="0px" y="0px"
	 viewBox="0 0 27.25 27.25" style="enable-background:new 0 0 27.25 27.25;" xml:space="preserve">
<g>
	<path d="M20.875,27.25h-14.5c-0.254,0-0.468-0.19-0.497-0.443l-3-26.25c-0.016-0.142,0.029-0.283,0.124-0.39S3.232,0,3.375,0h20.5
		c0.143,0,0.278,0.061,0.373,0.167s0.14,0.248,0.124,0.39l-3,26.25C21.343,27.06,21.129,27.25,20.875,27.25z M6.821,26.25h13.607
		L23.314,1H3.936L6.821,26.25z"/>
	<path d="M22.688,11.593H4.65c-0.276,0-0.5-0.224-0.5-0.5s0.224-0.5,0.5-0.5h18.037c0.276,0,0.5,0.224,0.5,0.5
		S22.964,11.593,22.688,11.593z"/>
</g>
<g>
</g>
<g>
</g>
<g>
</g>
<g>
</g>
<g>
</g>
<g>
</g>
<g>
</g>
<g>
</g>
<g>
</g>
<g>
</g>
<g>
</g>
<g>
</g>
<g>
</g>
<g>
</g>
<g>
</g>
</svg>
