<?xml version="1.0" encoding="iso-8859-1"?>
<!-- Generator: Adobe Illustrator 19.0.0, SVG Export Plug-In . SVG Version: 6.00 Build 0)  -->
<svg version="1.1" id="Capa_1" xmlns="http://www.w3.org/2000/svg" xmlns:xlink="http://www.w3.org/1999/xlink" x="0px" y="0px"
	 viewBox="0 0 32.997 32.997" style="enable-background:new 0 0 32.997 32.997;" xml:space="preserve">
<g>
	<path d="M8.515,28.969c-0.307,0-0.612-0.019-0.917-0.056c-3.813-0.466-3.991-3.229-4.148-5.668
		c-0.103-1.584-0.208-3.223-1.169-4.437c-1.596-2.018-3.218-6.732-1.632-10.446c0.759-1.778,2.583-3.983,6.963-4.399l0,0
		c2.94-0.277,5.397,0.423,7.282,2.09c2.401,2.122,3.796,5.806,3.928,10.372c0.105,3.686-1.521,7.518-4.246,10
		C12.755,28.085,10.633,28.969,8.515,28.969z M7.706,4.959C4.583,5.255,2.517,6.532,1.569,8.755
		c-1.364,3.195-0.008,7.531,1.497,9.433c1.153,1.459,1.274,3.337,1.382,4.993c0.163,2.54,0.282,4.374,3.271,4.74
		c2.123,0.261,4.317-0.535,6.184-2.235c2.515-2.292,4.017-5.829,3.919-9.231c-0.123-4.287-1.397-7.715-3.59-9.652
		C12.562,5.326,10.365,4.704,7.706,4.959L7.706,4.959z"/>
	<path d="M7.362,13.901c-1.475,0-2.675-1.2-2.675-2.675s1.2-2.675,2.675-2.675s2.674,1.2,2.674,2.675S8.837,13.901,7.362,13.901z
		 M7.362,9.552c-0.924,0-1.675,0.751-1.675,1.675s0.751,1.675,1.675,1.675c0.923,0,1.674-0.751,1.674-1.675S8.285,9.552,7.362,9.552
		z"/>
	<path d="M10.972,29.094c-0.831,0-1.708-0.04-2.637-0.126c-0.275-0.025-0.478-0.27-0.452-0.544c0.025-0.276,0.273-0.469,0.544-0.452
		c7.121,0.662,11.104-1.508,13.781-3.473c2.55-1.87,5.227-2.847,9.193-3.349c1.154-1.968,0.361-3.658,0.026-4.22
		c-0.995-0.044-4.328-0.408-6.066-3.27c-1.903-3.136-6.494-8.438-15.841-8.731C9.244,4.921,9.027,4.69,9.036,4.414
		c0.009-0.275,0.25-0.506,0.516-0.484c9.818,0.308,14.655,5.903,16.665,9.212c1.709,2.815,5.443,2.796,5.476,2.795
		c0.203,0,0.312,0.072,0.407,0.198c0.021,0.027,1.995,2.704,0.021,5.754c-0.081,0.125-0.213,0.207-0.36,0.225
		c-3.914,0.471-6.511,1.396-8.961,3.192C20.331,27.116,16.809,29.094,10.972,29.094z"/>
</g>
<g>
</g>
<g>
</g>
<g>
</g>
<g>
</g>
<g>
</g>
<g>
</g>
<g>
</g>
<g>
</g>
<g>
</g>
<g>
</g>
<g>
</g>
<g>
</g>
<g>
</g>
<g>
</g>
<g>
</g>
</svg>
