<svg height="512pt" viewBox="0 -62 512.00032 512" width="512pt" xmlns="http://www.w3.org/2000/svg"><path d="m504.425781 337.292969h-69.175781v-26.800781c43.109375-4.789063 76.75-41.429688 76.75-85.796876 0-6.632812-.601562-13.125-1.746094-19.433593-.003906-.035157-.003906-.066407-.011718-.097657-.03125-.175781-.070313-.34375-.105469-.515624-.222657-1.1875-.464844-2.367188-.722657-3.539063-.113281-.507813-.230468-1.011719-.347656-1.515625-.21875-.921875-.449218-1.835938-.691406-2.746094-9.390625-35.613281-36.046875-63.378906-69.871094-74.898437-.144531-.050781-.292968-.101563-.4375-.152344-1.078125-.359375-2.160156-.703125-3.25-1.035156-.632812-.191407-1.261718-.378907-1.898437-.558594-.628907-.175781-1.257813-.347656-1.890625-.511719-1.046875-.277344-2.101563-.542968-3.160156-.785156-.453126-.105469-.90625-.199219-1.355469-.296875-1.058594-.230469-2.121094-.445313-3.1875-.644531-.332031-.0625-.664063-.125-.996094-.183594-1.25-.21875-2.507813-.414062-3.773437-.589844-.296876-.042968-.59375-.085937-.890626-.125-1.339843-.175781-2.691406-.324218-4.046874-.453125-.285157-.023437-.570313-.050781-.855469-.074219-1.390625-.117187-2.785157-.214843-4.1875-.28125-.21875-.007812-.4375-.015624-.652344-.023437-1.488281-.0625-2.980469-.101563-4.480469-.101563h-50.054687l-20.058594-36.46875c-1.332031-2.421874-3.875-3.925781-6.636719-3.925781h-20.703125v-24.234375h141.34375c17.410157 0 33.476563-9.453125 41.933594-24.671875l8.652344-15.578125c1.304687-2.347656 1.269531-5.207031-.089844-7.519531-1.363281-2.3125-3.847656-3.734375-6.53125-3.734375h-341.800781c-17.410156 0-33.476563 9.453125-41.933594 24.671875l-8.652344 15.578125c-1.304687 2.347656-1.269531 5.207031.09375 7.519531 1.359375 2.3125 3.84375 3.734375 6.527344 3.734375h185.308594v24.234375h-20.699219c-2.761719 0-5.304687 1.503907-6.636719 3.925781l-20.0625 36.46875h-57.121094c-4.183593 0-7.574218 3.390626-7.574218 7.574219 0 4.183594 3.390625 7.574219 7.574218 7.574219h187.328126v36.859375c0 25.335937 20.613281 45.949219 45.949218 45.949219h76.648438c.394531 3.480468.605468 7.019531.605468 10.605468 0 39.257813-31.9375 71.195313-71.195312 71.195313h-27.265625c-4.183594 0-7.574219 3.390625-7.574219 7.574219s3.390625 7.574218 7.574219 7.574218h21.710937v26.253907h-93.914062v-26.253907h36.859375c4.183594 0 7.574219-3.390624 7.574219-7.574218s-3.390625-7.574219-7.574219-7.574219h-44.472656c-23.410157 0-43.769531-15.03125-50.664063-37.398437l-15.054687-48.828126c-8.863281-28.761718-35.042969-48.085937-65.140625-48.085937h-132.085938l-35.667968-69.679687h29.742187l21.027344 35.660156c1.363281 2.308594 3.84375 3.722656 6.523437 3.722656h73.722656c4.183594 0 7.574219-3.390625 7.574219-7.570312 0-4.183594-3.390625-7.574219-7.574219-7.574219h-69.394531l-21.03125-35.660157c-1.359375-2.308593-3.839843-3.726562-6.523437-3.726562h-46.453125c-2.636719 0-5.085938 1.375-6.460938 3.625-1.378906 2.25-1.484375 5.054688-.28125 7.402344l43.421875 84.828125c1.296875 2.53125 3.902344 4.121093 6.742188 4.121093h136.71875c23.40625 0 43.765625 15.03125 50.664062 37.398438l15.050782 48.828125c8.117187 26.332031 30.746093 44.738281 57.605468 47.664063v26.675781h-69.175781c-2.683594 0-5.167969 1.421875-6.527344 3.734375s-1.394531 5.171875-.09375 7.519531l8.65625 15.578125c8.453125 15.21875 24.519531 24.671875 41.929688 24.671875h174.632812c17.410157 0 33.476563-9.453125 41.933594-24.671875l8.652344-15.578125c1.304687-2.347656 1.269531-5.207031-.089844-7.519531s-3.84375-3.734375-6.527344-3.734375zm-28.402343-317.820313c-5.785157 10.414063-16.777344 16.882813-28.691407 16.882813h-123.164062v-21.207031h154.257812zm-355.21875 12.558594c5.785156-10.414062 16.78125-16.882812 28.691406-16.882812h123.167968v21.207031h-154.261718zm167.007812-16.882812h21.207031v21.207031h-21.207031zm-27.082031 100.988281 13.886719-25.25h47.597656l13.882812 25.25zm158.867187 82.804687c-16.984375 0-30.800781-13.816406-30.800781-30.800781v-36.859375h14.644531c1.175782 0 2.347656.03125 3.515625.074219.234375.007812.472657.015625.710938.027343 1.121093.050782 2.234375.117188 3.347656.207032.230469.019531.460937.042968.691406.0625 1.007813.089844 2.011719.191406 3.011719.3125.175781.019531.355469.039062.53125.0625 1.046875.128906 2.089844.289062 3.128906.453125.347656.058593.699219.117187 1.046875.175781.96875.167969 1.929688.347656 2.886719.542969.421875.085937.84375.183593 1.261719.273437.597656.132813 1.1875.269532 1.78125.414063.875.210937 1.746093.433593 2.613281.671875.378906.101562.761719.203125 1.136719.3125.6875.195312 1.371093.398437 2.050781.609375.039062.011719.078125.023437.117188.035156 29.851562 9.339844 53.308593 33.285156 61.96875 63.425781zm69.554688 157.828125c-5.785156 10.410157-16.777344 16.878907-28.691406 16.878907h-174.632813c-11.914063 0-22.90625-6.46875-28.691406-16.878907l-2.402344-4.328125h236.820313zm0 0"/></svg>