<?xml version="1.0" encoding="iso-8859-1"?>
<!-- Generator: Adobe Illustrator 19.0.0, SVG Export Plug-In . SVG Version: 6.00 Build 0)  -->
<svg version="1.1" id="Capa_1" xmlns="http://www.w3.org/2000/svg" xmlns:xlink="http://www.w3.org/1999/xlink" x="0px" y="0px"
	 viewBox="0 0 33 33" style="enable-background:new 0 0 33 33;" xml:space="preserve">
<g>
	<path d="M27.813,31.617H5.186c-0.276,0-0.5-0.224-0.5-0.5V12.521c0-0.276,0.224-0.5,0.5-0.5s0.5,0.224,0.5,0.5v18.096h21.627
		V12.521c0-0.276,0.224-0.5,0.5-0.5s0.5,0.224,0.5,0.5v18.596C28.313,31.394,28.089,31.617,27.813,31.617z"/>
	<path d="M32.5,17.493c-0.123,0-0.247-0.045-0.343-0.136L16.499,2.57L0.843,17.356c-0.201,0.19-0.518,0.18-0.707-0.02
		c-0.19-0.201-0.181-0.517,0.02-0.707L16.156,1.52c0.192-0.183,0.494-0.182,0.687,0l16.001,15.11c0.201,0.19,0.21,0.506,0.021,0.707
		C32.765,17.44,32.633,17.493,32.5,17.493z"/>
	<g>
		<path d="M20.491,25.981h-7.981c-0.276,0-0.5-0.224-0.5-0.5V17.5c0-0.276,0.224-0.5,0.5-0.5h7.981c0.276,0,0.5,0.224,0.5,0.5v7.981
			C20.991,25.757,20.767,25.981,20.491,25.981z M13.009,24.981h6.981V18h-6.981V24.981z"/>
		<path d="M16.499,25.981c-0.276,0-0.5-0.224-0.5-0.5V17.5c0-0.276,0.224-0.5,0.5-0.5s0.5,0.224,0.5,0.5v7.981
			C16.999,25.757,16.776,25.981,16.499,25.981z"/>
		<path d="M20.49,21.99h-7.981c-0.276,0-0.5-0.224-0.5-0.5s0.224-0.5,0.5-0.5h7.981c0.276,0,0.5,0.224,0.5,0.5
			S20.767,21.99,20.49,21.99z"/>
	</g>
</g>
<g>
</g>
<g>
</g>
<g>
</g>
<g>
</g>
<g>
</g>
<g>
</g>
<g>
</g>
<g>
</g>
<g>
</g>
<g>
</g>
<g>
</g>
<g>
</g>
<g>
</g>
<g>
</g>
<g>
</g>
</svg>
