<?xml version="1.0" encoding="iso-8859-1"?>
<!-- Generator: Adobe Illustrator 19.0.0, SVG Export Plug-In . SVG Version: 6.00 Build 0)  -->
<svg version="1.1" id="Capa_1" xmlns="http://www.w3.org/2000/svg" xmlns:xlink="http://www.w3.org/1999/xlink" x="0px" y="0px"
	 viewBox="0 0 33.205 33.205" style="enable-background:new 0 0 33.205 33.205;" xml:space="preserve">
<g>
	<path d="M27.823,33.205H5.38c-0.276,0-0.5-0.224-0.5-0.5V15.488c0-0.276,0.224-0.5,0.5-0.5h22.443c0.276,0,0.5,0.224,0.5,0.5
		v17.217C28.323,32.982,28.1,33.205,27.823,33.205z M5.88,32.205h21.443V15.988H5.88V32.205z"/>
	<path d="M32.474,15.988H0.732c-0.205,0-0.389-0.125-0.465-0.315c-0.075-0.19-0.027-0.407,0.121-0.548L16.257,0.137
		c0.193-0.183,0.494-0.182,0.688,0l15.873,14.988c0.148,0.141,0.196,0.358,0.121,0.548C32.862,15.863,32.679,15.988,32.474,15.988z
		 M1.989,14.988h29.227L16.601,1.188L1.989,14.988z"/>
	<path d="M20.562,33.205h-7.918c-0.276,0-0.5-0.224-0.5-0.5V21.957c0-0.276,0.224-0.5,0.5-0.5h7.918c0.276,0,0.5,0.224,0.5,0.5
		v10.748C21.062,32.982,20.838,33.205,20.562,33.205z M13.144,32.205h6.918v-9.748h-6.918V32.205z"/>
	<path d="M27.823,11.553c-0.276,0-0.5-0.224-0.5-0.5V4.936c0-0.276,0.224-0.5,0.5-0.5s0.5,0.224,0.5,0.5v6.117
		C28.323,11.329,28.1,11.553,27.823,11.553z"/>
</g>
<g>
</g>
<g>
</g>
<g>
</g>
<g>
</g>
<g>
</g>
<g>
</g>
<g>
</g>
<g>
</g>
<g>
</g>
<g>
</g>
<g>
</g>
<g>
</g>
<g>
</g>
<g>
</g>
<g>
</g>
</svg>
