<?xml version="1.0" encoding="iso-8859-1"?>
<!-- Generator: Adobe Illustrator 19.0.0, SVG Export Plug-In . SVG Version: 6.00 Build 0)  -->
<svg version="1.1" id="Capa_1" xmlns="http://www.w3.org/2000/svg" xmlns:xlink="http://www.w3.org/1999/xlink" x="0px" y="0px"
	 viewBox="0 0 33 33" style="enable-background:new 0 0 33 33;" xml:space="preserve">
<path d="M27.649,33h-7.216c-0.276,0-0.5-0.224-0.5-0.5V22.32h-6.867V32.5c0,0.276-0.224,0.5-0.5,0.5H5.348
	c-0.276,0-0.5-0.224-0.5-0.5V15.893H0.73c-0.205,0-0.389-0.125-0.465-0.315c-0.075-0.19-0.027-0.407,0.121-0.548L16.154,0.137
	c0.193-0.183,0.494-0.182,0.688,0l15.772,14.893c0.148,0.141,0.196,0.358,0.121,0.548c-0.076,0.19-0.26,0.315-0.465,0.315h-4.121
	V32.5C28.149,32.776,27.925,33,27.649,33z M20.933,32h6.216V15.393c0-0.276,0.224-0.5,0.5-0.5h3.363L16.498,1.188L1.988,14.893h3.36
	c0.276,0,0.5,0.224,0.5,0.5V32h6.218V21.82c0-0.276,0.224-0.5,0.5-0.5h7.867c0.276,0,0.5,0.224,0.5,0.5V32z"/>
<g>
</g>
<g>
</g>
<g>
</g>
<g>
</g>
<g>
</g>
<g>
</g>
<g>
</g>
<g>
</g>
<g>
</g>
<g>
</g>
<g>
</g>
<g>
</g>
<g>
</g>
<g>
</g>
<g>
</g>
</svg>
