<?xml version="1.0" encoding="iso-8859-1"?>
<!-- Generator: Adobe Illustrator 19.0.0, SVG Export Plug-In . SVG Version: 6.00 Build 0)  -->
<svg version="1.1" id="Capa_1" xmlns="http://www.w3.org/2000/svg" xmlns:xlink="http://www.w3.org/1999/xlink" x="0px" y="0px"
	 viewBox="0 0 511.999 511.999" style="enable-background:new 0 0 511.999 511.999;" xml:space="preserve">
<g>
	<g>
		<path d="M245.167,11.115C238.001,3.948,228.473,0,218.337,0c-7.733,0-15.115,2.299-21.362,6.572
			C190.727,2.298,183.346,0,175.613,0c-10.135,0-19.664,3.948-26.83,11.114c-7.168,7.166-11.115,16.694-11.115,26.831
			c0,10.135,3.947,19.665,11.115,26.832l42.724,42.721c1.51,1.51,3.49,2.265,5.469,2.265s3.959-0.755,5.47-2.266l42.721-42.722
			C259.957,49.979,259.956,25.907,245.167,11.115z M234.226,53.838l-37.249,37.251l-37.254-37.251
			c-4.245-4.245-6.583-9.889-6.583-15.892s2.336-11.647,6.582-15.892c4.244-4.245,9.888-6.583,15.891-6.583
			s11.647,2.338,15.894,6.584c1.45,1.45,3.418,2.265,5.47,2.265s4.019-0.815,5.469-2.266c4.244-4.245,9.888-6.583,15.891-6.583
			s11.645,2.338,15.889,6.583C242.987,30.816,242.986,45.075,234.226,53.838z"/>
	</g>
</g>
<g>
	<g>
		<path d="M316.629,95.091c-4.313-4.316-10.049-6.692-16.152-6.692c-3.785,0-7.429,0.915-10.679,2.639
			c-3.252-1.724-6.897-2.639-10.682-2.639c-6.102,0-11.839,2.377-16.15,6.69c-4.314,4.313-6.69,10.049-6.69,16.15
			c0,6.101,2.375,11.837,6.69,16.151l21.365,21.362c1.45,1.45,3.418,2.265,5.47,2.265c2.051,0,4.019-0.815,5.469-2.266
			l21.359-21.362C325.532,118.483,325.532,103.993,316.629,95.091z M305.686,116.453l-15.887,15.89l-15.894-15.891
			c-1.392-1.392-2.158-3.243-2.158-5.212s0.766-3.82,2.159-5.213c1.391-1.391,3.241-2.158,5.209-2.158
			c1.97,0,3.822,0.768,5.215,2.161c1.451,1.45,3.418,2.265,5.469,2.265h0.003c2.052-0.001,4.019-0.817,5.469-2.268
			c1.39-1.391,3.238-2.157,5.205-2.157c1.968,0,3.818,0.767,5.21,2.16C308.56,108.903,308.558,113.578,305.686,116.453z"/>
	</g>
</g>
<g>
	<g>
		<path d="M441.968,124.589c-1.918,0-47.237,0.274-71.102,24.14l-47.957,47.957L93.776,139.41c-0.055-0.014-0.112-0.02-0.167-0.033
			c-0.147-0.033-0.294-0.063-0.442-0.087c-0.112-0.019-0.224-0.035-0.335-0.048c-0.133-0.016-0.266-0.028-0.4-0.037
			c-0.124-0.009-0.248-0.015-0.372-0.018c-0.125-0.002-0.25-0.001-0.375,0.003c-0.125,0.004-0.25,0.009-0.375,0.018
			c-0.129,0.01-0.258,0.025-0.387,0.041c-0.114,0.015-0.228,0.029-0.339,0.049c-0.145,0.025-0.288,0.056-0.432,0.089
			c-0.092,0.022-0.183,0.042-0.274,0.067c-0.162,0.043-0.321,0.095-0.48,0.149c-0.07,0.024-0.141,0.047-0.211,0.074
			c-0.169,0.064-0.335,0.134-0.501,0.21c-0.059,0.027-0.118,0.053-0.176,0.082c-0.163,0.079-0.322,0.166-0.479,0.257
			c-0.062,0.036-0.125,0.072-0.185,0.109c-0.142,0.088-0.281,0.181-0.418,0.278c-0.078,0.055-0.154,0.111-0.23,0.168
			c-0.114,0.088-0.226,0.179-0.335,0.273c-0.095,0.082-0.187,0.166-0.278,0.252c-0.05,0.047-0.104,0.089-0.153,0.138l-21.876,21.874
			c-0.037,0.037-0.068,0.078-0.104,0.115c-0.099,0.103-0.194,0.208-0.288,0.317c-0.087,0.101-0.171,0.203-0.252,0.308
			c-0.035,0.045-0.074,0.086-0.108,0.132c-0.037,0.05-0.068,0.104-0.104,0.156c-0.085,0.121-0.167,0.244-0.245,0.37
			c-0.059,0.095-0.116,0.191-0.17,0.288c-0.07,0.125-0.137,0.251-0.199,0.379c-0.052,0.106-0.102,0.212-0.149,0.32
			c-0.052,0.12-0.101,0.242-0.147,0.364c-0.044,0.118-0.087,0.238-0.125,0.358c-0.037,0.115-0.071,0.23-0.102,0.346
			c-0.035,0.129-0.067,0.258-0.095,0.388c-0.024,0.112-0.045,0.224-0.064,0.336c-0.022,0.133-0.042,0.266-0.057,0.4
			c-0.013,0.114-0.023,0.229-0.031,0.343c-0.009,0.131-0.016,0.261-0.019,0.391c-0.002,0.121-0.001,0.241,0.002,0.362
			c0.004,0.124,0.009,0.247,0.018,0.37c0.009,0.128,0.023,0.256,0.038,0.383c0.015,0.115,0.03,0.229,0.05,0.342
			c0.022,0.134,0.049,0.267,0.08,0.4c0.023,0.107,0.049,0.213,0.078,0.32c0.036,0.134,0.077,0.267,0.121,0.399
			c0.034,0.105,0.069,0.208,0.109,0.312c0.048,0.127,0.1,0.254,0.155,0.379c0.046,0.107,0.096,0.213,0.147,0.318
			c0.057,0.115,0.118,0.229,0.181,0.342c0.062,0.113,0.128,0.224,0.196,0.333c0.063,0.101,0.129,0.199,0.196,0.298
			c0.081,0.116,0.165,0.23,0.252,0.343c0.068,0.088,0.139,0.175,0.212,0.261c0.096,0.112,0.194,0.222,0.297,0.329
			c0.043,0.045,0.081,0.094,0.125,0.138c0.04,0.04,0.085,0.074,0.125,0.113c0.097,0.092,0.196,0.182,0.298,0.27
			c0.107,0.092,0.216,0.182,0.326,0.267c0.042,0.032,0.08,0.069,0.123,0.101l160.517,118.64l-77.787,77.787l-39.219-13.077
			c-0.077-0.026-0.154-0.041-0.231-0.064c-0.144-0.043-0.289-0.087-0.436-0.121c-0.126-0.03-0.252-0.052-0.379-0.076
			c-0.117-0.022-0.232-0.044-0.349-0.06c-0.147-0.02-0.293-0.033-0.439-0.045c-0.101-0.008-0.2-0.017-0.301-0.021
			c-0.154-0.006-0.307-0.005-0.461-0.002c-0.097,0.002-0.192,0.003-0.289,0.008c-0.152,0.009-0.303,0.024-0.454,0.042
			c-0.1,0.012-0.199,0.023-0.298,0.038c-0.147,0.023-0.292,0.052-0.437,0.084c-0.102,0.022-0.202,0.043-0.302,0.068
			c-0.147,0.038-0.29,0.083-0.433,0.129c-0.096,0.031-0.191,0.06-0.286,0.095c-0.153,0.056-0.304,0.12-0.453,0.186
			c-0.081,0.035-0.16,0.068-0.24,0.106c-0.17,0.082-0.334,0.172-0.499,0.266c-0.045,0.026-0.093,0.046-0.138,0.074l-0.101,0.06
			c-0.013,0.008-0.026,0.015-0.038,0.023l-36.257,21.754c-0.019,0.011-0.037,0.022-0.055,0.033l-0.013,0.008
			c-0.02,0.012-0.036,0.026-0.056,0.038c-0.197,0.121-0.391,0.249-0.578,0.388c-0.06,0.044-0.115,0.094-0.173,0.14
			c-0.14,0.11-0.279,0.22-0.411,0.34c-0.09,0.081-0.171,0.168-0.257,0.252c-0.092,0.092-0.186,0.181-0.274,0.278
			c-0.115,0.127-0.22,0.26-0.325,0.393c-0.05,0.064-0.105,0.124-0.153,0.19c-0.139,0.186-0.266,0.379-0.387,0.576
			c-0.012,0.02-0.026,0.037-0.038,0.057c-0.001,0.002-0.002,0.004-0.003,0.006c-0.265,0.442-0.484,0.906-0.655,1.388
			c-0.074,0.207-0.134,0.415-0.188,0.626c-0.008,0.03-0.019,0.058-0.026,0.088c-0.048,0.193-0.084,0.387-0.117,0.581
			c-0.009,0.052-0.022,0.103-0.029,0.156c-0.025,0.164-0.037,0.329-0.051,0.494c-0.007,0.087-0.019,0.174-0.023,0.261
			c-0.006,0.125-0.003,0.249-0.002,0.374c-0.001,0.13-0.005,0.259,0.002,0.389c0.004,0.083,0.015,0.165,0.022,0.248
			c0.014,0.169,0.027,0.337,0.051,0.506c0.008,0.046,0.019,0.092,0.027,0.138c0.033,0.2,0.07,0.401,0.12,0.599
			c0.002,0.01,0.006,0.019,0.008,0.028c0.092,0.359,0.216,0.713,0.361,1.063c0.043,0.104,0.081,0.21,0.128,0.312
			c0.013,0.026,0.029,0.052,0.041,0.078c0.101,0.208,0.208,0.413,0.326,0.612c0.003,0.004,0.004,0.009,0.007,0.013
			c0.009,0.015,0.02,0.027,0.029,0.041c0.15,0.248,0.318,0.486,0.498,0.718c0.053,0.068,0.108,0.135,0.163,0.201
			c0.147,0.177,0.302,0.347,0.467,0.512c0.06,0.061,0.119,0.125,0.181,0.184c0.212,0.199,0.434,0.389,0.672,0.565
			c0.076,0.056,0.157,0.104,0.235,0.157c0.135,0.093,0.266,0.189,0.409,0.274l64.433,38.662l-7.582,7.582
			c-3.021,3.021-3.021,7.919,0,10.939c1.511,1.51,3.491,2.266,5.47,2.266c1.979,0,3.959-0.755,5.47-2.266l7.582-7.582l38.621,64.365
			c0.011,0.019,0.022,0.037,0.033,0.055l0.008,0.013c0.004,0.007,0.01,0.013,0.014,0.021c0.156,0.258,0.33,0.505,0.518,0.745
			c0.049,0.064,0.1,0.125,0.151,0.187c0.151,0.183,0.312,0.359,0.482,0.529c0.057,0.057,0.111,0.116,0.169,0.171
			c0.214,0.2,0.438,0.393,0.679,0.571c0.07,0.052,0.144,0.095,0.216,0.145c0.14,0.097,0.277,0.196,0.424,0.285
			c0.031,0.019,0.065,0.031,0.097,0.049c0.189,0.11,0.384,0.203,0.58,0.296c0.121,0.057,0.239,0.121,0.361,0.171
			c0.172,0.07,0.349,0.124,0.525,0.182c0.149,0.049,0.297,0.106,0.448,0.146c0.152,0.04,0.308,0.063,0.461,0.094
			c0.174,0.034,0.347,0.078,0.522,0.1c0.209,0.027,0.422,0.032,0.635,0.042c0.115,0.005,0.23,0.023,0.344,0.023
			c0.002,0,0.005-0.001,0.007-0.001c0.002,0,0.005,0.001,0.007,0.001c0.115,0,0.23-0.018,0.344-0.023
			c0.212-0.01,0.425-0.015,0.634-0.042c0.176-0.022,0.35-0.065,0.525-0.101c0.153-0.03,0.307-0.053,0.458-0.092
			c0.153-0.04,0.302-0.098,0.453-0.149c0.174-0.057,0.348-0.11,0.519-0.18c0.125-0.051,0.246-0.116,0.37-0.175
			c0.192-0.091,0.384-0.183,0.568-0.291c0.034-0.019,0.068-0.032,0.102-0.051c0.153-0.092,0.296-0.195,0.44-0.296
			c0.065-0.045,0.133-0.084,0.196-0.132c0.243-0.18,0.468-0.373,0.684-0.576c0.056-0.053,0.109-0.11,0.163-0.165
			c0.171-0.172,0.334-0.349,0.488-0.535c0.05-0.061,0.101-0.122,0.149-0.185c0.186-0.239,0.361-0.485,0.517-0.743
			c0.005-0.008,0.011-0.015,0.016-0.024l0.009-0.016c0.01-0.017,0.021-0.034,0.031-0.051l21.837-36.399
			c0.048-0.08,0.086-0.163,0.13-0.244c0.066-0.119,0.133-0.238,0.192-0.361c0.058-0.12,0.11-0.242,0.161-0.365
			c0.045-0.108,0.093-0.215,0.133-0.324c0.049-0.133,0.092-0.267,0.133-0.402c0.033-0.105,0.066-0.209,0.095-0.316
			c0.035-0.135,0.064-0.271,0.093-0.407c0.023-0.111,0.046-0.223,0.064-0.336c0.02-0.129,0.035-0.258,0.049-0.388
			c0.013-0.123,0.026-0.247,0.034-0.371c0.007-0.12,0.009-0.24,0.01-0.36c0.002-0.128,0.003-0.262-0.002-0.396
			c-0.005-0.114-0.015-0.228-0.024-0.341c-0.011-0.136-0.023-0.273-0.041-0.41c-0.017-0.119-0.04-0.237-0.061-0.355
			c-0.024-0.128-0.046-0.255-0.077-0.383c-0.032-0.133-0.071-0.264-0.111-0.396c-0.025-0.089-0.044-0.178-0.074-0.266l-13.078-39.22
			l222.674-222.674c0.011-0.012,0.024-0.022,0.036-0.033c23.865-23.865,24.139-69.183,24.139-71.101
			C449.703,128.052,446.24,124.589,441.968,124.589z M81.845,167.907l12.427-12.426l215.879,53.961l-73.145,73.145L81.845,167.907z
			 M414.648,192.458c-0.008,0.009-0.018,0.016-0.027,0.025l-226.089,226.09c-0.025,0.026-0.046,0.054-0.072,0.08
			c-0.106,0.109-0.205,0.222-0.305,0.337c-0.074,0.085-0.148,0.169-0.218,0.256c-0.077,0.097-0.147,0.198-0.219,0.299
			c-0.081,0.112-0.161,0.223-0.235,0.338c-0.051,0.079-0.096,0.162-0.144,0.243c-0.082,0.139-0.162,0.277-0.235,0.419
			c-0.035,0.07-0.065,0.143-0.1,0.215c-0.072,0.154-0.143,0.308-0.205,0.465c-0.031,0.08-0.056,0.162-0.085,0.243
			c-0.052,0.15-0.107,0.3-0.15,0.452c-0.03,0.108-0.053,0.218-0.08,0.327c-0.03,0.127-0.064,0.254-0.088,0.383
			c-0.025,0.138-0.041,0.278-0.059,0.419c-0.014,0.103-0.03,0.204-0.04,0.308c-0.013,0.154-0.017,0.308-0.022,0.463
			c-0.002,0.094-0.008,0.187-0.008,0.28c0.001,0.148,0.012,0.295,0.021,0.443c0.007,0.106,0.011,0.212,0.023,0.318
			c0.013,0.126,0.034,0.253,0.054,0.379c0.02,0.131,0.04,0.261,0.068,0.391c0.021,0.103,0.048,0.205,0.074,0.307
			c0.038,0.153,0.079,0.305,0.127,0.456c0.01,0.032,0.016,0.065,0.027,0.098l13.464,40.381l-13.414,22.359l-34.019-56.695
			l32.195-32.195c3.024-3.023,3.024-7.921,0.003-10.942c-3.022-3.021-7.919-3.021-10.94,0l-32.194,32.194l-56.695-34.019
			l22.359-13.415l40.381,13.465c0.025,0.009,0.051,0.01,0.077,0.019c0.344,0.111,0.694,0.197,1.047,0.258
			c0.087,0.015,0.172,0.025,0.258,0.037c0.319,0.044,0.639,0.073,0.96,0.077c0.035,0.001,0.07,0.009,0.106,0.009
			c0.039,0,0.078-0.009,0.117-0.009c0.306-0.005,0.611-0.031,0.916-0.072c0.096-0.013,0.191-0.025,0.286-0.041
			c0.329-0.057,0.655-0.133,0.976-0.233c0.065-0.021,0.128-0.045,0.193-0.068c0.292-0.099,0.578-0.216,0.859-0.351
			c0.052-0.025,0.107-0.047,0.159-0.074c0.303-0.154,0.596-0.331,0.88-0.528c0.074-0.051,0.146-0.107,0.219-0.161
			c0.222-0.165,0.435-0.342,0.642-0.534c0.063-0.059,0.131-0.113,0.192-0.174c0.009-0.009,0.019-0.016,0.028-0.025l226.089-226.089
			c13.984-13.985,39.058-17.996,51.976-19.146C432.647,153.418,428.659,178.421,414.648,192.458z"/>
	</g>
</g>
<g>
	<g>
		<path d="M435.079,481.843c-0.008-0.126-0.02-0.252-0.034-0.378c-0.014-0.117-0.031-0.233-0.051-0.35
			c-0.024-0.147-0.053-0.292-0.086-0.437c-0.013-0.056-0.019-0.112-0.033-0.169l-49.587-198.373
			c-1.036-4.145-5.238-6.664-9.38-5.628c-4.145,1.036-6.665,5.235-5.629,9.38l48.524,194.124l-12.426,12.426L306.336,357.084
			c-2.539-3.436-7.383-4.161-10.818-1.623c-3.436,2.539-4.162,7.383-1.623,10.818l105.382,142.578
			c0.026,0.036,0.058,0.067,0.086,0.103c0.12,0.156,0.248,0.307,0.382,0.456c0.071,0.079,0.139,0.159,0.212,0.235
			c0.025,0.026,0.046,0.053,0.071,0.078c0.111,0.111,0.229,0.209,0.346,0.312c0.074,0.066,0.145,0.138,0.222,0.201
			c0.216,0.177,0.439,0.341,0.668,0.491c0.063,0.041,0.13,0.076,0.194,0.115c0.177,0.109,0.357,0.214,0.542,0.308
			c0.084,0.042,0.169,0.079,0.254,0.118c0.172,0.08,0.346,0.155,0.522,0.221c0.09,0.034,0.18,0.064,0.271,0.095
			c0.178,0.059,0.358,0.111,0.538,0.157c0.091,0.023,0.181,0.047,0.273,0.067c0.191,0.041,0.384,0.073,0.577,0.1
			c0.082,0.012,0.163,0.027,0.245,0.035c0.267,0.029,0.535,0.045,0.803,0.046c0.008,0,0.015,0.001,0.023,0.001
			c0.009,0,0.018-0.002,0.026-0.002c0.344-0.001,0.687-0.033,1.028-0.08c0.082-0.011,0.162-0.021,0.244-0.035
			c0.339-0.057,0.676-0.136,1.007-0.24c0.064-0.02,0.128-0.045,0.191-0.067c0.324-0.111,0.643-0.241,0.953-0.395
			c0.029-0.015,0.057-0.026,0.087-0.04c0.332-0.171,0.652-0.374,0.962-0.597c0.03-0.022,0.063-0.036,0.094-0.058
			c0.044-0.033,0.083-0.07,0.126-0.103c0.109-0.084,0.216-0.173,0.321-0.264c0.103-0.088,0.203-0.178,0.3-0.271
			c0.041-0.039,0.085-0.073,0.125-0.113l21.874-21.874c0.043-0.044,0.081-0.092,0.124-0.136c0.097-0.102,0.19-0.205,0.281-0.312
			c0.081-0.099,0.161-0.197,0.238-0.297c0.071-0.092,0.139-0.185,0.205-0.28c0.085-0.119,0.164-0.238,0.241-0.36
			c0.052-0.085,0.102-0.17,0.151-0.256c0.077-0.134,0.15-0.268,0.217-0.405c0.042-0.086,0.082-0.173,0.121-0.261
			c0.061-0.137,0.122-0.275,0.174-0.415c0.038-0.099,0.071-0.2,0.105-0.3c0.044-0.13,0.086-0.26,0.122-0.392
			c0.033-0.119,0.06-0.239,0.088-0.359c0.026-0.117,0.052-0.233,0.072-0.351c0.024-0.136,0.042-0.271,0.059-0.408
			c0.013-0.108,0.025-0.216,0.034-0.324c0.011-0.141,0.017-0.283,0.02-0.425c0.003-0.111,0.005-0.221,0.003-0.332
			C435.096,482.111,435.089,481.977,435.079,481.843z"/>
	</g>
</g>
<g>
</g>
<g>
</g>
<g>
</g>
<g>
</g>
<g>
</g>
<g>
</g>
<g>
</g>
<g>
</g>
<g>
</g>
<g>
</g>
<g>
</g>
<g>
</g>
<g>
</g>
<g>
</g>
<g>
</g>
</svg>
