<?xml version="1.0" encoding="iso-8859-1"?>
<!-- Generator: Adobe Illustrator 19.0.0, SVG Export Plug-In . SVG Version: 6.00 Build 0)  -->
<svg version="1.1" id="Capa_1" xmlns="http://www.w3.org/2000/svg" xmlns:xlink="http://www.w3.org/1999/xlink" x="0px" y="0px"
	 viewBox="0 0 33.462 33.462" style="enable-background:new 0 0 33.462 33.462;" xml:space="preserve">
<g>
	<path d="M6.269,5.248c-0.411,0-0.745-0.334-0.745-0.745s0.334-0.745,0.745-0.745s0.745,0.334,0.745,0.745S6.68,5.248,6.269,5.248z
		 M6.269,4.248c-0.141,0-0.255,0.114-0.255,0.255c0,0.281,0.51,0.281,0.51,0C6.524,4.362,6.41,4.248,6.269,4.248z"/>
	<path d="M2.765,8.975c-1.114,0-2.285-1.654-2.337-1.729c-0.179-0.255-0.237-0.55-0.17-0.854C0.368,5.898,0.812,5.424,1.58,4.98
		c0.938-0.54,2.728-2.23,3.606-3.192c1.062-1.164,2.939-1.512,4.563-0.846c0.256,0.105,0.378,0.397,0.273,0.652
		C9.918,1.851,9.623,1.972,9.371,1.868c-1.389-0.57-2.784-0.132-3.446,0.594C5.138,3.322,3.204,5.199,2.08,5.848
		C1.341,6.272,1.246,6.557,1.234,6.609c0.444,0.679,1.231,1.424,1.544,1.364c0.2-0.033,0.467-0.185,0.748-0.344
		c0.505-0.287,1.139-0.646,1.891-0.614C6.358,7.055,7.992,6.82,8.559,6.034C8.72,5.81,9.033,5.758,9.256,5.921
		C9.481,6.082,9.532,6.395,9.37,6.618C8.316,8.081,5.675,8.021,5.378,8.016C4.872,7.997,4.455,8.253,4.019,8.499
		C3.659,8.704,3.318,8.897,2.942,8.96C2.883,8.97,2.825,8.975,2.765,8.975z"/>
	<path d="M9.995,4.758c-0.162,0-0.32-0.079-0.417-0.224c-0.152-0.23-0.089-0.541,0.141-0.693c0.926-0.612,1.553-1.687,1.694-2.431
		c0.025-0.136,0.034-0.26,0.027-0.366C10.75,1.22,10.094,1.876,9.717,2.252c-0.145,0.146-0.26,0.256-0.335,0.313
		C9.161,2.731,8.848,2.684,8.683,2.464c-0.166-0.222-0.121-0.534,0.1-0.7C8.835,1.725,8.911,1.645,9.01,1.545
		C9.551,1.005,10.557,0,11.778,0c0.163,0,0.315,0.079,0.409,0.213c0.242,0.345,0.313,0.823,0.208,1.383
		c-0.214,1.126-1.087,2.393-2.124,3.079C10.186,4.731,10.09,4.758,9.995,4.758z"/>
	<path d="M26.483,33.462h-2.021c-0.139,0-0.271-0.058-0.366-0.159c-0.094-0.102-0.143-0.237-0.133-0.376
		c0.004-0.045,0.315-4.469,0.277-5.737c-0.038-1.25-0.074-2.431-0.742-3.166l-0.215-0.229c-0.885-0.932-2.367-2.49-2.214-6.47
		c0.011-0.275,0.195-0.498,0.52-0.48c0.275,0.011,0.491,0.243,0.48,0.52c-0.138,3.558,1.112,4.872,1.939,5.742l0.229,0.245
		c0.916,1.007,0.96,2.431,1.002,3.808c0.031,1.06-0.16,4.066-0.243,5.303h0.988c-0.025-0.943-0.157-3.046-0.354-4.589
		c-0.232-1.827,0.11-4.081,0.874-5.742l0.306-0.649c0.625-1.315,1.334-2.806,1.595-4.834c0.279-2.158-0.497-3.938-2.245-5.146
		c-1.316-0.912-3.592-0.521-5.42-0.207c-0.455,0.078-0.889,0.152-1.286,0.205c-2.229,0.294-4.238-0.161-5.075-0.765
		c-0.807-0.582-2.132-2.085-2.523-3.393l-0.219-0.744c-0.283-0.976-0.67-2.313-0.948-2.729c-0.153-0.229-0.091-0.54,0.139-0.693
		c0.228-0.153,0.539-0.092,0.693,0.139c0.337,0.506,0.659,1.565,1.077,3.006l0.215,0.735c0.308,1.025,1.479,2.384,2.152,2.869
		c0.563,0.407,2.29,0.858,4.358,0.583c0.386-0.051,0.807-0.123,1.248-0.198c2.008-0.345,4.506-0.773,6.157,0.37
		c2.076,1.436,2.998,3.543,2.669,6.097c-0.281,2.186-1.06,3.821-1.685,5.135l-0.3,0.639c-0.69,1.503-1.001,3.543-0.79,5.197
		c0.238,1.861,0.404,4.761,0.358,5.262C26.957,33.265,26.742,33.462,26.483,33.462z"/>
	<path d="M13.516,33.462h-2.095c-0.144,0-0.28-0.062-0.376-0.17c-0.095-0.108-0.139-0.252-0.12-0.395
		c0.006-0.039,0.512-3.947,0.512-5.286c0-0.949-0.438-2.528-1.23-4.446c-0.512-1.236-0.994-3.863-0.869-5.657
		c0.02-0.276,0.262-0.487,0.534-0.464c0.275,0.02,0.482,0.259,0.464,0.534c-0.11,1.581,0.337,4.097,0.795,5.204
		c0.596,1.44,1.307,3.448,1.307,4.829c0,1.099-0.306,3.696-0.448,4.851h1.028c0.002-0.394,0.008-0.919,0.013-1.509
		c0.021-2.06,0.047-4.879-0.007-5.688c-0.061-0.912,0.293-3.003,0.578-4.683c0.107-0.636,0.203-1.203,0.259-1.602
		c0.038-0.274,0.308-0.458,0.563-0.427c0.274,0.038,0.465,0.29,0.427,0.563c-0.057,0.406-0.154,0.984-0.264,1.632
		c-0.261,1.542-0.618,3.654-0.565,4.449c0.057,0.847,0.029,3.688,0.009,5.763c-0.008,0.894-0.016,1.638-0.014,1.997
		c0.001,0.134-0.052,0.262-0.146,0.355C13.777,33.409,13.649,33.462,13.516,33.462z"/>
	<path d="M17.834,22.119c-1.815,0-3.421-0.265-3.725-0.318c-0.272-0.047-0.454-0.307-0.406-0.578
		c0.047-0.273,0.31-0.462,0.578-0.406c1.775,0.311,5.615,0.621,7.453-0.423c0.239-0.139,0.545-0.054,0.682,0.188
		c0.137,0.24,0.053,0.546-0.188,0.682C21.055,21.93,19.37,22.119,17.834,22.119z"/>
	<path d="M9.818,20.699c-0.108,0-0.217-0.035-0.309-0.106c-0.897-0.702-2.567-2.011-2.433-5.25c0.031-0.741,0.105-1.429,0.178-2.095
		c0.204-1.884,0.38-3.511-0.561-5.391C6.571,7.61,6.67,7.311,6.917,7.187C7.165,7.063,7.464,7.163,7.588,7.41
		c1.071,2.143,0.872,3.99,0.66,5.945c-0.07,0.649-0.143,1.321-0.172,2.028c-0.114,2.728,1.24,3.788,2.05,4.422
		c0.217,0.17,0.255,0.484,0.085,0.702C10.113,20.634,9.966,20.699,9.818,20.699z"/>
	<path d="M20.322,11.358c-0.007,0-0.014,0-0.021,0c-4.27-0.183-5.457-3.246-6.095-4.892l-0.07-0.18
		c-0.706-1.824-1.095-2.829-2.408-3.457c-0.249-0.119-0.354-0.418-0.235-0.667s0.419-0.354,0.667-0.235
		c1.671,0.799,2.19,2.141,2.909,3.998l0.069,0.18c0.77,1.983,1.869,4.111,5.206,4.253c0.275,0.012,0.49,0.245,0.479,0.521
		C20.81,11.148,20.588,11.358,20.322,11.358z"/>
	<path d="M32.554,25.76c-1.083,0-2.309-0.591-3.182-1.546c-0.837-0.916-1.217-2.037-1.044-3.073c0.275-1.65,0.588-3.521,0.16-4.147
		c-0.156-0.228-0.099-0.539,0.13-0.694c0.227-0.156,0.538-0.098,0.694,0.13c0.612,0.894,0.409,2.438,0.002,4.876
		c-0.167,1.003,0.427,1.83,0.796,2.234c0.397,0.435,0.89,0.778,1.391,0.988c-0.343-0.709-0.519-1.757-0.021-3.221
		c0.751-2.208,1.197-5.998,0.085-7.373c-1.175-1.452-2.624-1.483-3.889-1.315c-0.273,0.04-0.524-0.157-0.561-0.432
		c-0.035-0.273,0.157-0.524,0.432-0.561c1.335-0.173,3.284-0.188,4.795,1.679c1.551,1.916,0.727,6.436,0.085,8.324
		c-0.69,2.029,0.186,2.926,0.594,3.217c0.172,0.122,0.248,0.339,0.191,0.542c-0.057,0.202-0.234,0.348-0.444,0.364
		C32.698,25.757,32.626,25.76,32.554,25.76z"/>
</g>
<g>
</g>
<g>
</g>
<g>
</g>
<g>
</g>
<g>
</g>
<g>
</g>
<g>
</g>
<g>
</g>
<g>
</g>
<g>
</g>
<g>
</g>
<g>
</g>
<g>
</g>
<g>
</g>
<g>
</g>
</svg>
