<?xml version="1.0" encoding="iso-8859-1"?>
<!-- Generator: Adobe Illustrator 19.0.0, SVG Export Plug-In . SVG Version: 6.00 Build 0)  -->
<svg version="1.1" id="Capa_1" xmlns="http://www.w3.org/2000/svg" xmlns:xlink="http://www.w3.org/1999/xlink" x="0px" y="0px"
	 viewBox="0 0 33 33" style="enable-background:new 0 0 33 33;" xml:space="preserve">
<g>
	<g>
		<path d="M31.89,19.394h-0.718c-0.612,0-1.111-0.498-1.111-1.11v-7.451c0-1.3-1.057-2.356-2.356-2.356h-1.962
			c-0.276,0-0.5-0.224-0.5-0.5V6.037c0-0.276,0.224-0.5,0.5-0.5h1.962c2.92,0,5.296,2.376,5.296,5.296v7.45
			C33,18.896,32.502,19.394,31.89,19.394z M26.242,7.476h1.462c1.851,0,3.356,1.506,3.356,3.356v7.451c0,0.061,0.05,0.11,0.111,0.11
			h0.718c0.061,0,0.11-0.05,0.11-0.11v-7.45c0-2.369-1.927-4.296-4.296-4.296h-1.462V7.476z"/>
	</g>
	<path d="M23.594,30.307H7.954c-1.46,0-2.648-1.188-2.648-2.648V8.706L0.147,3.547C0.004,3.404-0.039,3.189,0.038,3.002
		C0.115,2.815,0.298,2.693,0.5,2.693h25.242c0.276,0,0.5,0.224,0.5,0.5v24.465C26.242,29.118,25.054,30.307,23.594,30.307z
		 M1.707,3.693l4.452,4.452c0.094,0.094,0.146,0.221,0.146,0.354v19.159c0,0.909,0.739,1.648,1.648,1.648h15.64
		c0.909,0,1.648-0.739,1.648-1.648V3.693H1.707z"/>
	<g>
		<path d="M8.485,12.946h-2.68c-0.276,0-0.5-0.224-0.5-0.5s0.224-0.5,0.5-0.5h2.68c0.276,0,0.5,0.224,0.5,0.5
			S8.762,12.946,8.485,12.946z"/>
		<path d="M8.485,16.697h-2.68c-0.276,0-0.5-0.224-0.5-0.5s0.224-0.5,0.5-0.5h2.68c0.276,0,0.5,0.224,0.5,0.5
			S8.762,16.697,8.485,16.697z"/>
		<path d="M8.485,20.449h-2.68c-0.276,0-0.5-0.224-0.5-0.5s0.224-0.5,0.5-0.5h2.68c0.276,0,0.5,0.224,0.5,0.5
			S8.762,20.449,8.485,20.449z"/>
		<path d="M8.485,24.2h-2.68c-0.276,0-0.5-0.224-0.5-0.5s0.224-0.5,0.5-0.5h2.68c0.276,0,0.5,0.224,0.5,0.5S8.762,24.2,8.485,24.2z"
			/>
	</g>
</g>
<g>
</g>
<g>
</g>
<g>
</g>
<g>
</g>
<g>
</g>
<g>
</g>
<g>
</g>
<g>
</g>
<g>
</g>
<g>
</g>
<g>
</g>
<g>
</g>
<g>
</g>
<g>
</g>
<g>
</g>
</svg>
