<?xml version="1.0" encoding="iso-8859-1"?>
<!-- Generator: Adobe Illustrator 19.0.0, SVG Export Plug-In . SVG Version: 6.00 Build 0)  -->
<svg version="1.1" id="Capa_1" xmlns="http://www.w3.org/2000/svg" xmlns:xlink="http://www.w3.org/1999/xlink" x="0px" y="0px"
	 viewBox="0 0 33 33" style="enable-background:new 0 0 33 33;" xml:space="preserve">
<g>
	<g>
		<path d="M28.137,31.48H4.864c-0.239,0-0.445-0.17-0.491-0.405L0.009,8.384c-0.052-0.271,0.126-0.533,0.396-0.586
			C0.672,7.75,0.94,7.923,0.991,8.195L5.278,30.48h22.446l4.285-22.285c0.052-0.271,0.309-0.447,0.586-0.396
			c0.271,0.053,0.448,0.314,0.396,0.586l-4.363,22.69C28.582,31.31,28.376,31.48,28.137,31.48z"/>
		<path d="M24.057,14.353c-2.016,0-3.033-0.538-4.017-1.058c-0.917-0.484-1.782-0.942-3.551-0.942c-1.767,0-2.633,0.458-3.549,0.942
			c-0.454,0.24-0.925,0.489-1.506,0.686c-0.753,0.254-1.55,0.372-2.508,0.372c-2.016,0-3.032-0.538-4.016-1.058
			c-0.916-0.484-1.782-0.942-3.549-0.942c-0.276,0-0.5-0.224-0.5-0.5s0.224-0.5,0.5-0.5c2.016,0,3.032,0.538,4.016,1.058
			c0.916,0.484,1.782,0.942,3.549,0.942c0.846,0,1.541-0.102,2.188-0.319c0.505-0.171,0.92-0.39,1.358-0.622
			c0.984-0.521,2.001-1.059,4.017-1.059c2.017,0,3.034,0.538,4.018,1.058c0.917,0.484,1.782,0.942,3.55,0.942
			c0.252,0,0.486-0.009,0.705-0.026c1.311-0.104,2.056-0.498,2.845-0.916c0.984-0.52,2.002-1.058,4.019-1.058
			c0.276,0,0.5,0.224,0.5,0.5s-0.224,0.5-0.5,0.5c-1.769,0-2.635,0.458-3.551,0.942c-0.844,0.446-1.717,0.907-3.232,1.027
			C24.598,14.342,24.338,14.353,24.057,14.353z"/>
	</g>
	<g>
		<path d="M8.916,15.281c-0.537,0-1.066-0.197-1.466-0.597c-0.826-0.828-0.79-2.21,0.081-3.081l6.693-6.693
			c0.195-0.195,0.512-0.195,0.707,0s0.195,0.512,0,0.707L8.238,12.31c-0.481,0.481-0.518,1.229-0.081,1.667
			c0.438,0.437,1.187,0.399,1.667-0.081l4.352-4.352c0.195-0.195,0.512-0.195,0.707,0s0.195,0.512,0,0.707l-4.352,4.352
			C10.081,15.054,9.493,15.281,8.916,15.281z"/>
		<path d="M14.578,5.763l-1.683-0.001c-1.202,0-2.182-0.951-2.182-2.121s1.263-2.121,2.814-2.121h6.064c0.276,0,0.5,0.224,0.5,0.5
			s-0.224,0.5-0.5,0.5h-6.064c-0.967,0-1.814,0.523-1.814,1.121c0,0.618,0.53,1.121,1.183,1.121l1.682,0.001
			c0.276,0,0.5,0.224,0.5,0.5S14.855,5.763,14.578,5.763z"/>
		<path d="M10.46,18.325c-0.537,0-1.066-0.197-1.466-0.597c-0.827-0.827-0.791-2.21,0.08-3.082L14.41,9.31
			c0.195-0.195,0.512-0.195,0.707,0s0.195,0.512,0,0.707l-5.336,5.336c-0.481,0.482-0.518,1.23-0.08,1.668
			c0.438,0.438,1.187,0.399,1.667-0.081l5.336-5.336c0.195-0.195,0.512-0.195,0.707,0s0.195,0.512,0,0.707l-5.336,5.336
			C11.625,18.098,11.037,18.325,10.46,18.325z"/>
		<path d="M13.504,19.868c-0.538,0-1.067-0.198-1.467-0.598c-0.827-0.827-0.791-2.209,0.081-3.08l4.586-4.586
			c0.195-0.195,0.512-0.195,0.707,0s0.195,0.512,0,0.707l-4.586,4.586c-0.481,0.481-0.518,1.229-0.081,1.666
			c0.438,0.438,1.187,0.4,1.667-0.08l4.586-4.586c0.195-0.195,0.512-0.195,0.707,0s0.195,0.512,0,0.707l-4.586,4.586
			C14.668,19.64,14.08,19.868,13.504,19.868z"/>
		<path d="M16.92,21.035c-0.561,0-1.078-0.21-1.465-0.597c-0.827-0.827-0.791-2.209,0.081-3.08l3.461-3.461
			c0.195-0.195,0.512-0.195,0.707,0s0.195,0.512,0,0.707l-3.461,3.461c-0.481,0.481-0.518,1.229-0.081,1.666
			c0.438,0.438,1.187,0.4,1.667-0.08l6.087-6.087c0.195-0.195,0.512-0.195,0.707,0s0.195,0.512,0,0.707l-6.087,6.087
			c-0.416,0.416-0.963,0.656-1.54,0.676C16.971,21.035,16.945,21.035,16.92,21.035z"/>
		<path d="M24.034,14.653c-0.128,0-0.256-0.049-0.354-0.146c-0.195-0.195-0.195-0.512,0-0.707l2.208-2.208
			c0.707-0.707,0.707-1.857,0-2.565l-6.635-6.635c-0.195-0.195-0.202-0.52-0.008-0.715c0.195-0.193,0.505-0.201,0.7-0.007
			l6.649,6.649c1.097,1.098,1.097,2.883,0,3.979l-2.208,2.208C24.29,14.604,24.162,14.653,24.034,14.653z"/>
	</g>
</g>
<g>
</g>
<g>
</g>
<g>
</g>
<g>
</g>
<g>
</g>
<g>
</g>
<g>
</g>
<g>
</g>
<g>
</g>
<g>
</g>
<g>
</g>
<g>
</g>
<g>
</g>
<g>
</g>
<g>
</g>
</svg>
