<?xml version="1.0" encoding="iso-8859-1"?>
<!-- Generator: Adobe Illustrator 19.0.0, SVG Export Plug-In . SVG Version: 6.00 Build 0)  -->
<svg version="1.1" id="Capa_1" xmlns="http://www.w3.org/2000/svg" xmlns:xlink="http://www.w3.org/1999/xlink" x="0px" y="0px"
	 viewBox="0 0 33 33" style="enable-background:new 0 0 33 33;" xml:space="preserve">
<g>
	<g>
		<path d="M28.137,25.345H4.864c-0.239,0-0.445-0.17-0.491-0.405L0.009,2.25c-0.052-0.271,0.126-0.533,0.396-0.586
			C0.67,1.614,0.94,1.789,0.991,2.06l4.286,22.285h22.446L32.009,2.06c0.052-0.271,0.31-0.446,0.586-0.396
			c0.271,0.053,0.448,0.314,0.396,0.586l-4.363,22.69C28.582,25.175,28.376,25.345,28.137,25.345z"/>
		<path d="M23.702,8.218c-1.957,0-2.943-0.539-3.898-1.062c-0.883-0.482-1.717-0.938-3.418-0.938c-1.7,0-2.533,0.456-3.415,0.938
			c-0.954,0.521-1.94,1.062-3.896,1.062c-1.956,0-2.942-0.539-3.896-1.062C4.297,6.674,3.463,6.218,1.763,6.218
			c-0.276,0-0.5-0.224-0.5-0.5s0.224-0.5,0.5-0.5c1.956,0,2.942,0.539,3.896,1.062c0.882,0.482,1.716,0.938,3.416,0.938
			s2.533-0.456,3.415-0.938c0.954-0.521,1.94-1.062,3.896-1.062c1.957,0,2.943,0.539,3.898,1.062
			c0.883,0.482,1.717,0.938,3.418,0.938s2.534-0.456,3.417-0.938c0.955-0.521,1.941-1.062,3.898-1.062c0.276,0,0.5,0.224,0.5,0.5
			s-0.224,0.5-0.5,0.5c-1.701,0-2.535,0.456-3.418,0.938C26.646,7.679,25.658,8.218,23.702,8.218z"/>
	</g>
	<path d="M28.137,28.345H4.864c-0.276,0-0.5-0.224-0.5-0.5s0.224-0.5,0.5-0.5h23.272c0.276,0,0.5,0.224,0.5,0.5
		S28.413,28.345,28.137,28.345z"/>
	<path d="M28.137,31.345H4.864c-0.276,0-0.5-0.224-0.5-0.5s0.224-0.5,0.5-0.5h23.272c0.276,0,0.5,0.224,0.5,0.5
		S28.413,31.345,28.137,31.345z"/>
</g>
<g>
</g>
<g>
</g>
<g>
</g>
<g>
</g>
<g>
</g>
<g>
</g>
<g>
</g>
<g>
</g>
<g>
</g>
<g>
</g>
<g>
</g>
<g>
</g>
<g>
</g>
<g>
</g>
<g>
</g>
</svg>
