<?xml version="1.0" encoding="iso-8859-1"?>
<!-- Generator: Adobe Illustrator 19.0.0, SVG Export Plug-In . SVG Version: 6.00 Build 0)  -->
<svg version="1.1" id="Capa_1" xmlns="http://www.w3.org/2000/svg" xmlns:xlink="http://www.w3.org/1999/xlink" x="0px" y="0px"
	 viewBox="0 0 33 33" style="enable-background:new 0 0 33 33;" xml:space="preserve">
<g>
	<path d="M16.5,21.793C9.17,21.793,3.208,15.83,3.208,8.5c0-0.276,0.224-0.5,0.5-0.5h25.585c0.276,0,0.5,0.224,0.5,0.5
		C29.793,15.83,23.83,21.793,16.5,21.793z M4.218,9C4.481,15.547,9.89,20.793,16.5,20.793c6.611,0,12.02-5.246,12.283-11.793H4.218z
		"/>
	<g>
		<path d="M16.5,25C7.402,25,0,17.598,0,8.5C0,8.224,0.224,8,0.5,8h32C32.776,8,33,8.224,33,8.5C33,17.598,25.598,25,16.5,25z
			 M1.008,9C1.273,17.316,8.121,24,16.5,24s15.227-6.684,15.492-15H1.008z"/>
	</g>
	<path d="M16.5,21.687c-0.276,0-0.5-0.224-0.5-0.5V8.5C16,8.224,16.224,8,16.5,8S17,8.224,17,8.5v12.687
		C17,21.463,16.776,21.687,16.5,21.687z"/>
	<path d="M25.49,17.99c-0.128,0-0.256-0.049-0.354-0.146l-8.99-8.99c-0.195-0.195-0.195-0.512,0-0.707s0.512-0.195,0.707,0
		l8.99,8.99c0.195,0.195,0.195,0.512,0,0.707C25.746,17.941,25.618,17.99,25.49,17.99z"/>
	<path d="M7.51,17.99c-0.128,0-0.256-0.049-0.354-0.146c-0.195-0.195-0.195-0.512,0-0.707l8.99-8.99
		c0.195-0.195,0.512-0.195,0.707,0s0.195,0.512,0,0.707l-8.99,8.99C7.766,17.941,7.638,17.99,7.51,17.99z"/>
</g>
<g>
</g>
<g>
</g>
<g>
</g>
<g>
</g>
<g>
</g>
<g>
</g>
<g>
</g>
<g>
</g>
<g>
</g>
<g>
</g>
<g>
</g>
<g>
</g>
<g>
</g>
<g>
</g>
<g>
</g>
</svg>
