<?xml version="1.0" encoding="iso-8859-1"?>
<!-- Generator: Adobe Illustrator 19.0.0, SVG Export Plug-In . SVG Version: 6.00 Build 0)  -->
<svg version="1.1" id="Capa_1" xmlns="http://www.w3.org/2000/svg" xmlns:xlink="http://www.w3.org/1999/xlink" x="0px" y="0px"
	 viewBox="0 0 27.25 27.25" style="enable-background:new 0 0 27.25 27.25;" xml:space="preserve">
<g>
	<g>
		<path d="M20.875,27.25h-14.5c-0.254,0-0.468-0.19-0.497-0.443l-3-26.25c-0.016-0.142,0.029-0.283,0.124-0.39S3.232,0,3.375,0h20.5
			c0.143,0,0.278,0.061,0.373,0.167s0.14,0.248,0.124,0.39l-3,26.25C21.343,27.06,21.129,27.25,20.875,27.25z M6.821,26.25h13.607
			L23.314,1H3.936L6.821,26.25z"/>
	</g>
	<path d="M22.573,10.251c-3.536,0-6.465-0.556-9.296-1.093c-2.853-0.541-5.548-1.053-8.845-1.053c-0.276,0-0.5-0.224-0.5-0.5
		s0.224-0.5,0.5-0.5c3.392,0,6.259,0.544,9.031,1.07c2.786,0.528,5.667,1.075,9.109,1.075c0.276,0,0.5,0.224,0.5,0.5
		S22.85,10.251,22.573,10.251z"/>
	<path d="M8.505,11.737c-0.13,0-0.26-0.051-0.36-0.141c-0.09-0.09-0.14-0.22-0.14-0.359c0-0.131,0.05-0.261,0.149-0.351
		c0.17-0.18,0.5-0.189,0.7,0c0.101,0.101,0.15,0.23,0.15,0.351c0,0.13-0.05,0.26-0.141,0.35C8.755,11.687,8.635,11.737,8.505,11.737
		z"/>
	<path d="M15.585,16.407c-0.13,0-0.261-0.051-0.351-0.15c-0.1-0.09-0.149-0.22-0.149-0.35s0.05-0.261,0.14-0.351
		c0.19-0.189,0.53-0.189,0.71,0c0.1,0.09,0.15,0.221,0.15,0.351s-0.051,0.26-0.141,0.35C15.845,16.356,15.715,16.407,15.585,16.407z
		"/>
	<path d="M12.165,17.407c-0.12,0-0.25-0.051-0.351-0.141c-0.09-0.1-0.149-0.229-0.149-0.359s0.06-0.261,0.149-0.351
		c0.2-0.2,0.51-0.189,0.7-0.01c0.1,0.1,0.15,0.23,0.15,0.36s-0.051,0.26-0.141,0.35C12.425,17.356,12.295,17.407,12.165,17.407z"/>
	<path d="M13.085,21.487c-0.13,0-0.25-0.051-0.351-0.141c-0.1-0.1-0.149-0.229-0.149-0.359c0-0.131,0.05-0.25,0.14-0.351
		c0.21-0.189,0.521-0.189,0.71,0c0.1,0.101,0.15,0.22,0.15,0.351c0,0.13-0.051,0.26-0.141,0.35
		C13.345,21.437,13.215,21.487,13.085,21.487z"/>
	<path d="M13.085,12.827c-0.13,0-0.25-0.05-0.351-0.15c-0.1-0.09-0.149-0.22-0.149-0.35c0-0.141,0.05-0.271,0.149-0.36
		c0.19-0.189,0.511-0.18,0.7,0c0.1,0.101,0.15,0.23,0.15,0.36s-0.051,0.25-0.141,0.35C13.345,12.777,13.215,12.827,13.085,12.827z"
		/>
	<path d="M18.005,18.407c-0.13,0-0.26-0.051-0.351-0.141c-0.1-0.1-0.149-0.229-0.149-0.359s0.05-0.261,0.14-0.351
		c0.2-0.2,0.521-0.189,0.71-0.01c0.101,0.1,0.15,0.23,0.15,0.36s-0.05,0.25-0.141,0.35C18.255,18.356,18.125,18.407,18.005,18.407z"
		/>
	<path d="M19.505,14.657c-0.13,0-0.26-0.051-0.351-0.141c-0.1-0.1-0.149-0.229-0.149-0.359s0.05-0.261,0.14-0.351
		c0.2-0.189,0.521-0.189,0.71-0.01c0.09,0.1,0.15,0.23,0.15,0.36s-0.061,0.26-0.15,0.35C19.755,14.606,19.635,14.657,19.505,14.657z
		"/>
	<path d="M9.335,23.657c-0.13,0-0.261-0.051-0.351-0.15c-0.1-0.09-0.149-0.22-0.149-0.35s0.05-0.261,0.149-0.351
		c0.181-0.189,0.521-0.189,0.7,0c0.1,0.09,0.15,0.221,0.15,0.351s-0.051,0.26-0.141,0.35C9.595,23.606,9.465,23.657,9.335,23.657z"
		/>
	<path d="M17.335,23.657c-0.13,0-0.25-0.051-0.351-0.141c-0.1-0.1-0.149-0.229-0.149-0.359s0.05-0.261,0.149-0.351
		c0.19-0.189,0.511-0.189,0.7,0c0.1,0.101,0.15,0.221,0.15,0.351s-0.051,0.26-0.141,0.35C17.595,23.606,17.465,23.657,17.335,23.657
		z"/>
	<path d="M8.505,17.407c-0.13,0-0.26-0.051-0.36-0.15c-0.09-0.09-0.14-0.22-0.14-0.35s0.05-0.261,0.149-0.36
		c0.17-0.18,0.5-0.18,0.7,0c0.101,0.1,0.15,0.23,0.15,0.36s-0.05,0.25-0.141,0.35C8.755,17.356,8.635,17.407,8.505,17.407z"/>
</g>
<g>
</g>
<g>
</g>
<g>
</g>
<g>
</g>
<g>
</g>
<g>
</g>
<g>
</g>
<g>
</g>
<g>
</g>
<g>
</g>
<g>
</g>
<g>
</g>
<g>
</g>
<g>
</g>
<g>
</g>
</svg>
