<?xml version="1.0" encoding="iso-8859-1"?>
<!-- Generator: Adobe Illustrator 19.0.0, SVG Export Plug-In . SVG Version: 6.00 Build 0)  -->
<svg version="1.1" id="Capa_1" xmlns="http://www.w3.org/2000/svg" xmlns:xlink="http://www.w3.org/1999/xlink" x="0px" y="0px"
	 viewBox="0 0 30.998 30.998" style="enable-background:new 0 0 30.998 30.998;" xml:space="preserve">
<g>
	<g>
		<path d="M21.207,22.33c-0.128,0-0.256-0.049-0.354-0.146c-0.195-0.195-0.195-0.512,0-0.707l3.414-3.414
			c3.897-3.897,3.897-10.237,0-14.135C22.38,2.04,19.87,1,17.2,1c-2.669,0-5.18,1.04-7.067,2.928
			c-3.897,3.897-3.897,10.237,0,14.135c0.195,0.195,0.195,0.512,0,0.707s-0.512,0.195-0.707,0c-4.287-4.287-4.287-11.262,0-15.549
			C11.502,1.144,14.264,0,17.2,0c2.937,0,5.698,1.144,7.774,3.221c4.287,4.287,4.287,11.262,0,15.549l-3.414,3.414
			C21.463,22.281,21.335,22.33,21.207,22.33z"/>
	</g>
	<g>
		<path d="M24.799,30.998c-1.429,0-2.857-0.544-3.945-1.632c-2.175-2.175-2.175-5.715,0-7.89c0.195-0.195,0.512-0.195,0.707,0
			s0.195,0.512,0,0.707c-1.785,1.785-1.785,4.69,0,6.476s4.69,1.785,6.476,0c0.728-0.728,1.179-1.651,1.306-2.67
			c0.034-0.273,0.281-0.476,0.558-0.435c0.274,0.034,0.469,0.284,0.435,0.558c-0.154,1.242-0.705,2.367-1.591,3.254
			C27.656,30.454,26.227,30.998,24.799,30.998z"/>
	</g>
	<g>
		<path d="M6.208,27.536c-1.422,0-2.843-0.541-3.925-1.623c-2.165-2.164-2.165-5.687,0-7.851c2.164-2.163,5.686-2.165,7.85,0
			c2.165,2.164,2.165,5.687,0,7.851C9.051,26.995,7.629,27.536,6.208,27.536z M6.207,17.438c-1.165,0-2.331,0.444-3.218,1.331
			c-1.774,1.774-1.774,4.662,0,6.437c1.775,1.774,4.662,1.773,6.436,0c1.774-1.774,1.774-4.662,0-6.437
			C8.539,17.883,7.373,17.438,6.207,17.438z"/>
	</g>
</g>
<g>
</g>
<g>
</g>
<g>
</g>
<g>
</g>
<g>
</g>
<g>
</g>
<g>
</g>
<g>
</g>
<g>
</g>
<g>
</g>
<g>
</g>
<g>
</g>
<g>
</g>
<g>
</g>
<g>
</g>
</svg>
