<?xml version="1.0" encoding="iso-8859-1"?>
<!-- Generator: Adobe Illustrator 19.0.0, SVG Export Plug-In . SVG Version: 6.00 Build 0)  -->
<svg version="1.1" id="Capa_1" xmlns="http://www.w3.org/2000/svg" xmlns:xlink="http://www.w3.org/1999/xlink" x="0px" y="0px"
	 viewBox="0 0 33.875 33.875" style="enable-background:new 0 0 33.875 33.875;" xml:space="preserve">
<g>
	<path d="M21.173,32.393c-4.11,0-6.222-0.592-7.618-0.984c-0.655-0.184-1.129-0.317-1.558-0.317H6.339c-0.276,0-0.5-0.224-0.5-0.5
		V18.816c0-0.276,0.224-0.5,0.5-0.5c1.96,0,3.658-1.084,5.046-3.222c1.951-3.008,3.1-4.695,5.162-7.354
		c1.951-2.514,3.032-5.272,3.226-6.146l0.072-0.351C19.965,0.632,20.089,0,21.107,0c1.995,0,3.072,2.303,3.072,4.471
		c0,1.338-0.504,3.138-1.54,5.503c-0.403,0.921-0.34,1.563-0.163,1.833c0.088,0.135,0.212,0.198,0.39,0.198h7.937
		c0.966,0.111,2.68,0.864,2.68,2.938c0,1.374-0.498,2.14-0.968,2.557c0.464,0.421,0.968,1.155,0.968,2.355
		c0,1.396-0.925,2.276-1.61,2.736c0.354,0.405,0.698,1.087,0.698,2.209c0,1.597-1.362,2.408-2.229,2.763
		c0.344,0.622,0.411,1.356,0.239,2.364C30.285,31.656,27.471,32.393,21.173,32.393z M6.839,30.092h5.158
		c0.566,0,1.123,0.156,1.828,0.354c1.344,0.377,3.375,0.947,7.348,0.947c7.084,0,8.316-1.023,8.421-1.633
		c0.2-1.171-0.014-1.675-0.425-2.109c-0.123-0.13-0.166-0.316-0.115-0.487c0.052-0.171,0.19-0.302,0.365-0.343
		c0.021-0.005,2.15-0.524,2.15-2.019c0-1.491-0.74-1.794-0.771-1.806c-0.191-0.073-0.324-0.259-0.326-0.464
		c-0.002-0.205,0.114-0.393,0.305-0.471c0.017-0.007,1.705-0.715,1.705-2.205c0-1.488-1.063-1.903-1.073-1.907
		c-0.205-0.077-0.336-0.277-0.324-0.495c0.012-0.218,0.163-0.403,0.375-0.458c0.034-0.01,1.022-0.321,1.022-2.053
		c0-1.714-1.668-1.933-1.739-1.941l-7.877,0.003c-0.517,0-0.952-0.231-1.227-0.651c-0.432-0.661-0.401-1.674,0.084-2.782
		c0.979-2.236,1.456-3.905,1.456-5.102C23.179,3.03,22.537,1,21.107,1c-0.152,0-0.198,0.019-0.199,0.02
		c-0.005,0.027-0.047,0.243-0.081,0.416L20.75,1.812c-0.209,0.941-1.357,3.895-3.412,6.542c-2.04,2.631-3.178,4.302-5.113,7.286
		c-1.47,2.263-3.278,3.491-5.385,3.658V30.092z"/>
	<path d="M6.339,33.875H0.893c-0.276,0-0.5-0.224-0.5-0.5V16.196c0-0.276,0.224-0.5,0.5-0.5h5.446c0.276,0,0.5,0.224,0.5,0.5v17.179
		C6.839,33.651,6.616,33.875,6.339,33.875z M1.393,32.875h4.446V16.696H1.393V32.875z"/>
</g>
<g>
</g>
<g>
</g>
<g>
</g>
<g>
</g>
<g>
</g>
<g>
</g>
<g>
</g>
<g>
</g>
<g>
</g>
<g>
</g>
<g>
</g>
<g>
</g>
<g>
</g>
<g>
</g>
<g>
</g>
</svg>
