<?xml version="1.0" encoding="iso-8859-1"?>
<!-- Generator: Adobe Illustrator 19.0.0, SVG Export Plug-In . SVG Version: 6.00 Build 0)  -->
<svg version="1.1" id="Capa_1" xmlns="http://www.w3.org/2000/svg" xmlns:xlink="http://www.w3.org/1999/xlink" x="0px" y="0px"
	 viewBox="0 0 46.561 46.561" style="enable-background:new 0 0 46.561 46.561;" xml:space="preserve">
<g>
	<g>
		<path d="M40.091,34.304H14.079c-0.685,0-1.282-0.27-1.682-0.76c-0.399-0.489-0.543-1.129-0.404-1.8l3.526-17.129
			c0.269-1.301,1.566-2.358,2.893-2.358h26.012c0.686,0,1.282,0.27,1.682,0.76c0.399,0.489,0.543,1.129,0.404,1.8l-3.526,17.129
			C42.716,33.246,41.418,34.304,40.091,34.304z M18.412,13.257c-0.862,0-1.739,0.715-1.914,1.561l-3.526,17.128
			c-0.076,0.371-0.005,0.715,0.201,0.967c0.206,0.253,0.527,0.392,0.906,0.392h26.012c0.863,0,1.739-0.714,1.914-1.56l0,0
			l3.526-17.129c0.076-0.371,0.005-0.715-0.201-0.967c-0.205-0.253-0.527-0.392-0.906-0.392H18.412z"/>
		<path d="M28.966,25.8c-0.751,0-1.503-0.286-2.027-0.839l-9.883-10.418c-0.19-0.2-0.183-0.517,0.019-0.706
			c0.199-0.189,0.517-0.183,0.706,0.019l9.883,10.417c0.584,0.611,1.65,0.709,2.33,0.208l14.533-10.685
			c0.221-0.163,0.534-0.117,0.699,0.107c0.163,0.223,0.115,0.535-0.107,0.699L30.585,25.286C30.115,25.632,29.541,25.8,28.966,25.8z
			"/>
	</g>
	<path d="M12.079,15.999H5.5c-0.276,0-0.5-0.224-0.5-0.5s0.224-0.5,0.5-0.5h6.579c0.276,0,0.5,0.224,0.5,0.5
		S12.355,15.999,12.079,15.999z"/>
	<path d="M10.746,22.666H0.5c-0.276,0-0.5-0.224-0.5-0.5s0.224-0.5,0.5-0.5h10.246c0.276,0,0.5,0.224,0.5,0.5
		S11.022,22.666,10.746,22.666z"/>
	<path d="M9.079,28.666H4.084c-0.276,0-0.5-0.224-0.5-0.5s0.224-0.5,0.5-0.5h4.995c0.276,0,0.5,0.224,0.5,0.5
		S9.355,28.666,9.079,28.666z"/>
</g>
<g>
</g>
<g>
</g>
<g>
</g>
<g>
</g>
<g>
</g>
<g>
</g>
<g>
</g>
<g>
</g>
<g>
</g>
<g>
</g>
<g>
</g>
<g>
</g>
<g>
</g>
<g>
</g>
<g>
</g>
</svg>
