<?xml version="1.0" encoding="iso-8859-1"?>
<!-- Generator: Adobe Illustrator 19.0.0, SVG Export Plug-In . SVG Version: 6.00 Build 0)  -->
<svg version="1.1" fill="#fff" id="Capa_1" xmlns="http://www.w3.org/2000/svg" xmlns:xlink="http://www.w3.org/1999/xlink" x="0px" y="0px"
	 viewBox="0 0 31.012 31.012" style="enable-background:new 0 0 31.012 31.012;" xml:space="preserve">
<g>
	<path d="M28.512,26.529H2.5c-1.378,0-2.5-1.121-2.5-2.5V6.982c0-1.379,1.122-2.5,2.5-2.5h26.012c1.378,0,2.5,1.121,2.5,2.5v17.047
		C31.012,25.408,29.89,26.529,28.512,26.529z M2.5,5.482c-0.827,0-1.5,0.673-1.5,1.5v17.047c0,0.827,0.673,1.5,1.5,1.5h26.012
		c0.827,0,1.5-0.673,1.5-1.5V6.982c0-0.827-0.673-1.5-1.5-1.5H2.5z"/>
	<path d="M15.506,18.018c-0.665,0-1.33-0.221-1.836-0.662L0.891,6.219c-0.208-0.182-0.23-0.497-0.048-0.705
		c0.182-0.21,0.498-0.23,0.706-0.049l12.778,11.137c0.64,0.557,1.72,0.556,2.358,0L29.46,5.466c0.207-0.183,0.522-0.162,0.706,0.049
		c0.182,0.208,0.16,0.523-0.048,0.705L17.342,17.355C16.836,17.797,16.171,18.018,15.506,18.018z"/>
</g>
<g>
</g>
<g>
</g>
<g>
</g>
<g>
</g>
<g>
</g>
<g>
</g>
<g>
</g>
<g>
</g>
<g>
</g>
<g>
</g>
<g>
</g>
<g>
</g>
<g>
</g>
<g>
</g>
<g>
</g>
</svg>
