<?xml version="1.0" encoding="iso-8859-1"?>
<!-- Generator: Adobe Illustrator 19.0.0, SVG Export Plug-In . SVG Version: 6.00 Build 0)  -->
<svg version="1.1" id="Capa_1" xmlns="http://www.w3.org/2000/svg" xmlns:xlink="http://www.w3.org/1999/xlink" x="0px" y="0px"
	 viewBox="0 0 37.801 37.801" style="enable-background:new 0 0 37.801 37.801;" xml:space="preserve">
<g>
	<g>
		<g>
			<path d="M25.109,28.298c-0.123,0-0.246-0.045-0.342-0.136l-5.754-5.398c-0.202-0.188-0.212-0.505-0.022-0.706
				c0.188-0.203,0.507-0.211,0.706-0.022l5.754,5.398c0.202,0.188,0.212,0.505,0.022,0.706
				C25.376,28.245,25.242,28.298,25.109,28.298z"/>
			<path d="M5.904,28.298c-0.133,0-0.267-0.053-0.364-0.158c-0.189-0.201-0.18-0.518,0.022-0.706l5.754-5.4
				c0.198-0.188,0.518-0.181,0.706,0.022c0.189,0.201,0.18,0.518-0.022,0.706l-5.754,5.4C6.15,28.253,6.027,28.298,5.904,28.298z"/>
		</g>
		<path d="M28.512,33.317H2.5c-1.379,0-2.5-1.121-2.5-2.5V13.769c0-1.379,1.121-2.5,2.5-2.5h21.225c0.276,0,0.5,0.224,0.5,0.5
			s-0.224,0.5-0.5,0.5H2.5c-0.827,0-1.5,0.673-1.5,1.5v17.049c0,0.827,0.673,1.5,1.5,1.5h26.012c0.827,0,1.5-0.673,1.5-1.5V18.556
			c0-0.276,0.224-0.5,0.5-0.5s0.5,0.224,0.5,0.5v12.262C31.012,32.196,29.891,33.317,28.512,33.317z"/>
		<path d="M15.513,24.805c-0.667,0-1.335-0.222-1.843-0.664L0.754,12.866c-0.208-0.182-0.229-0.498-0.048-0.706
			s0.498-0.229,0.706-0.048l12.916,11.274c0.639,0.559,1.72,0.562,2.362,0.005l8.529-7.386c0.208-0.181,0.524-0.158,0.705,0.051
			s0.158,0.524-0.051,0.705l-8.529,7.386C16.84,24.586,16.176,24.805,15.513,24.805z"/>
	</g>
	<g>
		<path d="M30.514,19.056c-4.02,0-7.289-3.269-7.289-7.285c0-4.019,3.27-7.287,7.289-7.287c4.019,0,7.287,3.269,7.287,7.287
			C37.801,15.787,34.532,19.056,30.514,19.056z M30.514,5.483c-3.468,0-6.289,2.82-6.289,6.287c0,3.466,2.821,6.285,6.289,6.285
			c3.467,0,6.287-2.819,6.287-6.285C36.801,8.304,33.98,5.483,30.514,5.483z"/>
		<path d="M32.703,14.397c-0.128,0-0.256-0.049-0.354-0.146l-4.252-4.254c-0.195-0.195-0.195-0.512,0-0.707s0.512-0.195,0.707,0
			l4.252,4.254c0.195,0.195,0.195,0.512,0,0.707C32.959,14.349,32.831,14.397,32.703,14.397z"/>
		<path d="M28.451,14.397c-0.128,0-0.256-0.049-0.354-0.146c-0.195-0.195-0.195-0.512,0-0.707l4.252-4.252
			c0.195-0.195,0.512-0.195,0.707,0s0.195,0.512,0,0.707l-4.252,4.252C28.707,14.349,28.579,14.397,28.451,14.397z"/>
	</g>
</g>
<g>
</g>
<g>
</g>
<g>
</g>
<g>
</g>
<g>
</g>
<g>
</g>
<g>
</g>
<g>
</g>
<g>
</g>
<g>
</g>
<g>
</g>
<g>
</g>
<g>
</g>
<g>
</g>
<g>
</g>
</svg>
