<?xml version="1.0" encoding="iso-8859-1"?>
<!-- Generator: Adobe Illustrator 19.0.0, SVG Export Plug-In . SVG Version: 6.00 Build 0)  -->
<svg version="1.1" id="Capa_1" xmlns="http://www.w3.org/2000/svg" xmlns:xlink="http://www.w3.org/1999/xlink" x="0px" y="0px"
	 viewBox="0 0 33 33" style="enable-background:new 0 0 33 33;" xml:space="preserve">
<g>
	<path d="M0.5,31.424c-0.11,0-0.22-0.037-0.309-0.106C0.07,31.223,0,31.078,0,30.924V4.688c0-0.23,0.157-0.431,0.381-0.486
		l10.665-2.613c0.146-0.035,0.307-0.003,0.428,0.092c0.121,0.095,0.191,0.24,0.191,0.394V28.31c0,0.23-0.157,0.431-0.381,0.486
		L0.619,31.41C0.58,31.42,0.54,31.424,0.5,31.424z M1,5.08v25.207l9.665-2.369V2.713L1,5.08z"/>
	<path d="M21.833,31.424c-0.04,0-0.08-0.005-0.119-0.014l-10.668-2.612c-0.224-0.055-0.381-0.255-0.381-0.486V2.075
		c0-0.153,0.07-0.299,0.191-0.394c0.122-0.095,0.281-0.125,0.428-0.092l10.668,2.613c0.224,0.055,0.381,0.255,0.381,0.486v26.236
		c0,0.153-0.07,0.298-0.191,0.394C22.053,31.388,21.943,31.424,21.833,31.424z M11.665,27.92l9.668,2.368V5.08l-9.668-2.368V27.92z"
		/>
	<path d="M21.833,31.424c-0.11,0-0.22-0.037-0.309-0.106c-0.121-0.095-0.191-0.24-0.191-0.394V4.688c0-0.23,0.157-0.431,0.381-0.486
		l10.667-2.613c0.146-0.035,0.306-0.003,0.428,0.092C32.93,1.776,33,1.922,33,2.075V28.31c0,0.23-0.157,0.431-0.381,0.486
		L21.952,31.41C21.913,31.42,21.873,31.424,21.833,31.424z M22.333,5.08v25.207L32,27.918V2.713L22.333,5.08z"/>
</g>
<g>
</g>
<g>
</g>
<g>
</g>
<g>
</g>
<g>
</g>
<g>
</g>
<g>
</g>
<g>
</g>
<g>
</g>
<g>
</g>
<g>
</g>
<g>
</g>
<g>
</g>
<g>
</g>
<g>
</g>
</svg>
