<?xml version="1.0" encoding="iso-8859-1"?>
<!-- Generator: Adobe Illustrator 19.0.0, SVG Export Plug-In . SVG Version: 6.00 Build 0)  -->
<svg version="1.1" id="Capa_1" xmlns="http://www.w3.org/2000/svg" xmlns:xlink="http://www.w3.org/1999/xlink" x="0px" y="0px"
	 viewBox="0 0 33 33" style="enable-background:new 0 0 33 33;" xml:space="preserve">
<g>
	<path d="M30.128,33H2.872C1.288,33,0,31.712,0,30.129V2.872C0,1.288,1.288,0,2.872,0h27.257C31.712,0,33,1.288,33,2.872v27.257
		C33,31.712,31.712,33,30.128,33z M2.872,1C1.839,1,1,1.84,1,2.872v27.257C1,31.16,1.839,32,2.872,32h27.257
		C31.161,32,32,31.16,32,30.129V2.872C32,1.84,31.161,1,30.128,1H2.872z"/>
	<g>
		<g>
			<path d="M12.625,10.485H6.292c-0.276,0-0.5-0.224-0.5-0.5s0.224-0.5,0.5-0.5h6.333c0.276,0,0.5,0.224,0.5,0.5
				S12.901,10.485,12.625,10.485z"/>
			<path d="M9.458,13.652c-0.276,0-0.5-0.224-0.5-0.5V6.818c0-0.276,0.224-0.5,0.5-0.5s0.5,0.224,0.5,0.5v6.334
				C9.958,13.429,9.735,13.652,9.458,13.652z"/>
		</g>
		<g>
			<path d="M11.698,26.683c-0.128,0-0.256-0.049-0.354-0.146l-4.479-4.479c-0.195-0.195-0.195-0.512,0-0.707s0.512-0.195,0.707,0
				l4.479,4.479c0.195,0.195,0.195,0.512,0,0.707C11.954,26.634,11.826,26.683,11.698,26.683z"/>
			<path d="M7.219,26.683c-0.128,0-0.256-0.049-0.354-0.146c-0.195-0.195-0.195-0.512,0-0.707l4.479-4.479
				c0.195-0.195,0.512-0.195,0.707,0s0.195,0.512,0,0.707l-4.479,4.479C7.475,26.634,7.347,26.683,7.219,26.683z"/>
		</g>
		<g>
			<path d="M26.708,10.485h-6.333c-0.276,0-0.5-0.224-0.5-0.5s0.224-0.5,0.5-0.5h6.333c0.276,0,0.5,0.224,0.5,0.5
				S26.984,10.485,26.708,10.485z"/>
		</g>
		<g>
			<g>
				<path d="M26.708,26.063h-6.333c-0.276,0-0.5-0.224-0.5-0.5s0.224-0.5,0.5-0.5h6.333c0.276,0,0.5,0.224,0.5,0.5
					S26.984,26.063,26.708,26.063z"/>
			</g>
			<g>
				<path d="M26.708,22.823h-6.333c-0.276,0-0.5-0.224-0.5-0.5s0.224-0.5,0.5-0.5h6.333c0.276,0,0.5,0.224,0.5,0.5
					S26.984,22.823,26.708,22.823z"/>
			</g>
		</g>
	</g>
</g>
<g>
</g>
<g>
</g>
<g>
</g>
<g>
</g>
<g>
</g>
<g>
</g>
<g>
</g>
<g>
</g>
<g>
</g>
<g>
</g>
<g>
</g>
<g>
</g>
<g>
</g>
<g>
</g>
<g>
</g>
</svg>
