<?xml version="1.0" encoding="iso-8859-1"?>
<!-- Generator: Adobe Illustrator 19.0.0, SVG Export Plug-In . SVG Version: 6.00 Build 0)  -->
<svg version="1.1" id="Capa_1" xmlns="http://www.w3.org/2000/svg" xmlns:xlink="http://www.w3.org/1999/xlink" x="0px" y="0px"
	 viewBox="0 0 512.003 512.003" style="enable-background:new 0 0 512.003 512.003;" xml:space="preserve">
<g>
	<g>
		<g>
			<path d="M206.022,247.469h-34.133c-4.71,0-8.533,3.814-8.533,8.533s3.823,8.533,8.533,8.533h34.133
				c4.719,0,8.533-3.814,8.533-8.533S210.732,247.469,206.022,247.469z"/>
			<path d="M71.793,245.268c-9.941-2.509-19.081-7.014-27.162-13.414c-3.695-2.927-9.062-2.304-11.989,1.391
				s-2.304,9.062,1.391,11.989c9.984,7.902,21.282,13.483,33.579,16.58c0.7,0.171,1.399,0.256,2.091,0.256
				c3.823,0,7.296-2.577,8.277-6.443C79.131,251.062,76.358,246.42,71.793,245.268z"/>
			<path d="M170.668,93.869c0-4.719-3.823-8.533-8.533-8.533h-34.133c-4.71,0-8.533,3.814-8.533,8.533
				c0,4.719,3.823,8.533,8.533,8.533h34.133C166.845,102.403,170.668,98.588,170.668,93.869z"/>
			<path d="M137.755,247.469h-34.133c-4.71,0-8.533,3.814-8.533,8.533s3.823,8.533,8.533,8.533h34.133
				c4.719,0,8.533-3.814,8.533-8.533S142.466,247.469,137.755,247.469z"/>
			<path d="M102.402,93.869c0-4.719-3.823-8.533-8.533-8.533h-4.267c-11.127,0-21.982,2.014-32.265,5.982
				c-4.403,1.698-6.588,6.639-4.89,11.034c1.306,3.388,4.54,5.461,7.962,5.461c1.015,0,2.057-0.179,3.072-0.572
				c8.32-3.209,17.101-4.838,26.12-4.838h4.267C98.579,102.403,102.402,98.588,102.402,93.869z"/>
			<path d="M376.689,264.536h34.133c4.71,0,8.533-3.814,8.533-8.533s-3.823-8.533-8.533-8.533h-34.133
				c-4.71,0-8.533,3.814-8.533,8.533S371.978,264.536,376.689,264.536z"/>
			<path d="M308.422,264.536h34.133c4.71,0,8.533-3.814,8.533-8.533s-3.823-8.533-8.533-8.533h-34.133
				c-4.71,0-8.533,3.814-8.533,8.533S303.712,264.536,308.422,264.536z"/>
			<path d="M17.205,179.296c-0.282-4.702-4.343-8.235-9.028-8.004c-4.702,0.282-8.294,4.318-8.013,9.028
				c0.751,12.706,4.113,24.849,9.993,36.087c1.527,2.91,4.497,4.574,7.569,4.574c1.331,0,2.688-0.307,3.951-0.973
				c4.181-2.185,5.794-7.339,3.61-11.52C20.533,199.401,17.819,189.579,17.205,179.296z"/>
			<path d="M10.711,154.302c0.99,0.367,2.014,0.546,3.012,0.546c3.447,0,6.699-2.099,7.987-5.513
				c3.627-9.6,9.139-18.176,16.401-25.489c3.319-3.345,3.294-8.747-0.051-12.066c-3.345-3.319-8.747-3.302-12.066,0.051
				c-8.96,9.028-15.77,19.618-20.25,31.471C4.081,147.715,6.299,152.638,10.711,154.302z"/>
			<path d="M481.103,280.502c3.038-3.61,2.568-8.994-1.041-12.023c-9.754-8.192-20.873-14.123-33.058-17.596
				c-4.54-1.28-9.259,1.348-10.547,5.871c-1.297,4.531,1.331,9.259,5.862,10.547c9.865,2.807,18.867,7.603,26.761,14.242
				c1.596,1.34,3.55,1.997,5.487,1.997C476.998,283.54,479.421,282.507,481.103,280.502z"/>
			<path d="M446.474,405.515c-7.714,2.714-15.812,4.087-24.073,4.087h-6.707c-4.71,0-8.533,3.814-8.533,8.533
				s3.823,8.533,8.533,8.533h6.707c10.197,0,20.198-1.707,29.73-5.06c4.446-1.553,6.784-6.434,5.222-10.88
				C455.793,406.283,450.929,403.919,446.474,405.515z"/>
			<path d="M500.644,360.058c-4.361-1.775-9.344,0.282-11.145,4.634c-3.857,9.361-9.796,18.005-17.169,24.994
				c-3.422,3.251-3.558,8.653-0.316,12.066c1.672,1.775,3.925,2.662,6.187,2.662c2.108,0,4.224-0.777,5.888-2.347
				c9.225-8.755,16.358-19.14,21.188-30.857C507.078,366.851,505.004,361.858,500.644,360.058z"/>
			<path d="M503.05,298.012c-2.048-4.233-7.159-5.999-11.401-3.951c-4.233,2.048-6.008,7.159-3.951,11.401
				c4.471,9.216,6.895,19.115,7.202,29.414c0.136,4.625,3.925,8.286,8.525,8.286c0.085,0,0.171,0,0.247,0
				c4.719-0.137,8.422-4.07,8.277-8.781C511.575,321.649,508.571,309.413,503.05,298.012z"/>
			<path d="M274.289,247.469h-34.133c-4.71,0-8.533,3.814-8.533,8.533s3.823,8.533,8.533,8.533h34.133
				c4.71,0,8.533-3.814,8.533-8.533S278.999,247.469,274.289,247.469z"/>
			<path d="M238.935,93.869c0-4.719-3.823-8.533-8.533-8.533h-34.133c-4.71,0-8.533,3.814-8.533,8.533
				c0,4.719,3.823,8.533,8.533,8.533h34.133C235.112,102.403,238.935,98.588,238.935,93.869z"/>
			<path d="M381.561,409.603h-34.133c-4.71,0-8.533,3.814-8.533,8.533s3.823,8.533,8.533,8.533h34.133
				c4.71,0,8.533-3.814,8.533-8.533S386.272,409.603,381.561,409.603z"/>
			<path d="M313.295,409.603h-23.159c-4.71,0-8.533,3.814-8.533,8.533s3.823,8.533,8.533,8.533h23.159
				c4.71,0,8.533-3.814,8.533-8.533S318.005,409.603,313.295,409.603z"/>
		</g>
	</g>
</g>
<g>
	<g>
		<path d="M290.135,324.269c-4.71,0-8.533,3.814-8.533,8.533v170.667c0,4.719,3.823,8.533,8.533,8.533s8.533-3.823,8.533-8.533
			V332.802C298.668,328.084,294.845,324.269,290.135,324.269z"/>
	</g>
</g>
<g>
	<g>
		<path d="M506.242,85.797L258.775,0.463c-3.149-1.084-6.656-0.23-8.96,2.185c-2.295,2.423-2.978,5.956-1.741,9.054l34.133,85.333
			c1.306,3.243,4.437,5.367,7.927,5.367h213.333c4.164,0,7.723-3.012,8.405-7.134C512.565,91.164,510.176,87.153,506.242,85.797z
			 M295.912,85.336L270.85,22.684l181.692,62.652H295.912z"/>
	</g>
</g>
<g>
	<g>
		<path d="M511.882,92.461c-0.691-4.113-4.25-7.125-8.414-7.125H290.135c-3.49,0-6.622,2.125-7.919,5.359l-34.133,85.333
			c-1.246,3.106-0.563,6.639,1.741,9.054c1.638,1.732,3.883,2.654,6.178,2.654c0.93,0,1.869-0.154,2.782-0.469l247.467-85.333
			C510.184,100.576,512.573,96.566,511.882,92.461z M270.85,165.054l25.062-62.652h156.629L270.85,165.054z"/>
	</g>
</g>
<g>
	<g>
		<g>
			<path d="M42.668,409.603H8.535c-4.71,0-8.533,3.814-8.533,8.533s3.823,8.533,8.533,8.533h34.133c4.71,0,8.533-3.814,8.533-8.533
				S47.379,409.603,42.668,409.603z"/>
			<path d="M110.935,409.603H76.802c-4.71,0-8.533,3.814-8.533,8.533s3.823,8.533,8.533,8.533h34.133
				c4.71,0,8.533-3.814,8.533-8.533S115.645,409.603,110.935,409.603z"/>
			<path d="M179.202,409.603h-34.133c-4.71,0-8.533,3.814-8.533,8.533s3.823,8.533,8.533,8.533h34.133
				c4.71,0,8.533-3.814,8.533-8.533S183.912,409.603,179.202,409.603z"/>
			<path d="M247.468,409.603h-34.133c-4.71,0-8.533,3.814-8.533,8.533s3.823,8.533,8.533,8.533h34.133
				c4.71,0,8.533-3.814,8.533-8.533S252.179,409.603,247.468,409.603z"/>
		</g>
	</g>
</g>
<g>
</g>
<g>
</g>
<g>
</g>
<g>
</g>
<g>
</g>
<g>
</g>
<g>
</g>
<g>
</g>
<g>
</g>
<g>
</g>
<g>
</g>
<g>
</g>
<g>
</g>
<g>
</g>
<g>
</g>
</svg>
