<?xml version="1.0" encoding="iso-8859-1"?>
<!-- Generator: Adobe Illustrator 19.0.0, SVG Export Plug-In . SVG Version: 6.00 Build 0)  -->
<svg version="1.1" id="Capa_1" xmlns="http://www.w3.org/2000/svg" xmlns:xlink="http://www.w3.org/1999/xlink" x="0px" y="0px"
	 viewBox="0 0 33 33" style="enable-background:new 0 0 33 33;" xml:space="preserve">
<g>
	<path d="M30.5,26.109h-28c-1.378,0-2.5-1.121-2.5-2.5V4.61c0-1.379,1.122-2.5,2.5-2.5h28c1.378,0,2.5,1.121,2.5,2.5v18.999
		C33,24.988,31.878,26.109,30.5,26.109z M2.5,3.11C1.673,3.11,1,3.783,1,4.61v18.999c0,0.827,0.673,1.5,1.5,1.5h28
		c0.827,0,1.5-0.673,1.5-1.5V4.61c0-0.827-0.673-1.5-1.5-1.5H2.5z"/>
	<path d="M22.875,30.89h-12.75c-0.276,0-0.5-0.224-0.5-0.5s0.224-0.5,0.5-0.5h12.75c0.276,0,0.5,0.224,0.5,0.5
		S23.151,30.89,22.875,30.89z"/>
	<path d="M17.227,19.163c-0.187,0-0.365-0.104-0.451-0.283l-1.692-3.521l-1.256,1.521c-0.135,0.162-0.356,0.223-0.555,0.152
		c-0.199-0.071-0.331-0.26-0.331-0.471V8.555c0-0.195,0.114-0.373,0.292-0.454c0.177-0.082,0.386-0.053,0.534,0.075l6.116,5.255
		c0.159,0.136,0.216,0.356,0.143,0.553s-0.26,0.326-0.469,0.326h-2.169l1.68,3.496c0.058,0.121,0.065,0.261,0.02,0.387
		s-0.14,0.229-0.261,0.284l-1.392,0.64C17.367,19.148,17.296,19.163,17.227,19.163z M15.195,13.937c0.02,0,0.04,0.001,0.061,0.004
		c0.169,0.021,0.316,0.126,0.39,0.279l1.818,3.783l0.483-0.223l-1.804-3.754c-0.074-0.155-0.064-0.338,0.027-0.483
		c0.092-0.146,0.251-0.233,0.423-0.233h1.615l-4.267-3.666v5.526l0.868-1.052C14.905,14.002,15.047,13.937,15.195,13.937z"/>
	<path d="M16.5,30.89c-0.276,0-0.5-0.224-0.5-0.5v-4.781c0-0.276,0.224-0.5,0.5-0.5s0.5,0.224,0.5,0.5v4.781
		C17,30.667,16.776,30.89,16.5,30.89z"/>
</g>
<g>
</g>
<g>
</g>
<g>
</g>
<g>
</g>
<g>
</g>
<g>
</g>
<g>
</g>
<g>
</g>
<g>
</g>
<g>
</g>
<g>
</g>
<g>
</g>
<g>
</g>
<g>
</g>
<g>
</g>
</svg>
