<?xml version="1.0" encoding="iso-8859-1"?>
<!-- Generator: Adobe Illustrator 19.0.0, SVG Export Plug-In . SVG Version: 6.00 Build 0)  -->
<svg version="1.1" id="Capa_1" fill="#fff" xmlns="http://www.w3.org/2000/svg" xmlns:xlink="http://www.w3.org/1999/xlink" x="0px" y="0px"
	 viewBox="0 0 33 33" style="enable-background:new 0 0 33 33;" xml:space="preserve">
<g>
	<path d="M30.5,26.109h-28c-1.378,0-2.5-1.121-2.5-2.5V4.61c0-1.379,1.122-2.5,2.5-2.5h28c1.378,0,2.5,1.121,2.5,2.5v18.999
		C33,24.988,31.878,26.109,30.5,26.109z M2.5,3.11C1.673,3.11,1,3.783,1,4.61v18.999c0,0.827,0.673,1.5,1.5,1.5h28
		c0.827,0,1.5-0.673,1.5-1.5V4.61c0-0.827-0.673-1.5-1.5-1.5H2.5z"/>
	<path d="M22.875,30.89h-12.75c-0.276,0-0.5-0.224-0.5-0.5s0.224-0.5,0.5-0.5h12.75c0.276,0,0.5,0.224,0.5,0.5
		S23.151,30.89,22.875,30.89z"/>
	<path d="M15.846,16.617c-2.02,0-3.662-1.643-3.662-3.662c0-2.019,1.643-3.661,3.662-3.661c2.019,0,3.662,1.643,3.662,3.661
		C19.507,14.974,17.865,16.617,15.846,16.617z M15.846,10.293c-1.468,0-2.662,1.193-2.662,2.661s1.194,2.662,2.662,2.662
		s2.662-1.194,2.662-2.662S17.313,10.293,15.846,10.293z"/>
	<path d="M20.316,17.925c-0.128,0-0.256-0.049-0.354-0.146l-2.191-2.191c-0.195-0.195-0.195-0.512,0-0.707s0.512-0.195,0.707,0
		l2.191,2.191c0.195,0.195,0.195,0.512,0,0.707C20.572,17.876,20.444,17.925,20.316,17.925z"/>
	<path d="M16.5,30.89c-0.276,0-0.5-0.224-0.5-0.5v-4.781c0-0.276,0.224-0.5,0.5-0.5s0.5,0.224,0.5,0.5v4.781
		C17,30.667,16.776,30.89,16.5,30.89z"/>
</g>
<g>
</g>
<g>
</g>
<g>
</g>
<g>
</g>
<g>
</g>
<g>
</g>
<g>
</g>
<g>
</g>
<g>
</g>
<g>
</g>
<g>
</g>
<g>
</g>
<g>
</g>
<g>
</g>
<g>
</g>
</svg>
