<?xml version="1.0" encoding="iso-8859-1"?>
<!-- Generator: Adobe Illustrator 19.0.0, SVG Export Plug-In . SVG Version: 6.00 Build 0)  -->
<svg version="1.1" id="Capa_1" xmlns="http://www.w3.org/2000/svg" xmlns:xlink="http://www.w3.org/1999/xlink" x="0px" y="0px"
	 viewBox="0 0 33 33" style="enable-background:new 0 0 33 33;" xml:space="preserve">
<g>
	<circle cx="11.438" cy="11.93" r="2.125"/>
	<circle cx="21.563" cy="11.93" r="2.125"/>
	<g>
		<path d="M16.5,0.5c-8.836,0-16,7.164-16,16c0,8.838,7.164,16,16,16s16-7.162,16-16C32.5,7.665,25.336,0.5,16.5,0.5z M23.75,17.351
			H9.25c-2.761,0-5-2.239-5-5c0-2.761,2.239-5,5-5h14.5c2.761,0,5,2.239,5,5C28.75,15.113,26.511,17.351,23.75,17.351z"/>
		<path d="M16.5,33C7.402,33,0,25.598,0,16.5S7.402,0,16.5,0S33,7.402,33,16.5S25.598,33,16.5,33z M16.5,1C7.953,1,1,7.953,1,16.5
			S7.953,32,16.5,32S32,25.047,32,16.5S25.047,1,16.5,1z M23.75,17.852H9.25c-3.033,0-5.5-2.468-5.5-5.5s2.467-5.5,5.5-5.5h14.5
			c3.033,0,5.5,2.468,5.5,5.5S26.783,17.852,23.75,17.852z M9.25,7.852c-2.481,0-4.5,2.019-4.5,4.5s2.019,4.5,4.5,4.5h14.5
			c2.481,0,4.5-2.019,4.5-4.5s-2.019-4.5-4.5-4.5H9.25z"/>
	</g>
</g>
<g>
</g>
<g>
</g>
<g>
</g>
<g>
</g>
<g>
</g>
<g>
</g>
<g>
</g>
<g>
</g>
<g>
</g>
<g>
</g>
<g>
</g>
<g>
</g>
<g>
</g>
<g>
</g>
<g>
</g>
</svg>
