<?xml version="1.0" encoding="iso-8859-1"?>
<!-- Generator: Adobe Illustrator 19.0.0, SVG Export Plug-In . SVG Version: 6.00 Build 0)  -->
<svg version="1.1" id="Capa_1" xmlns="http://www.w3.org/2000/svg" xmlns:xlink="http://www.w3.org/1999/xlink" x="0px" y="0px"
	 viewBox="0 0 28.627 28.627" style="enable-background:new 0 0 28.627 28.627;" xml:space="preserve">
<g>
	<g>
		<path d="M23.778,28.627H4.851c-1.14,0-2.066-0.926-2.066-2.064V10.766c0-1.14,0.927-2.066,2.066-2.066h18.928
			c1.139,0,2.064,0.927,2.064,2.066v15.797C25.843,27.701,24.917,28.627,23.778,28.627z M4.851,9.699
			c-0.588,0-1.066,0.479-1.066,1.066v15.797c0,0.587,0.479,1.064,1.066,1.064h18.928c0.587,0,1.064-0.478,1.064-1.064V10.766
			c0-0.588-0.478-1.066-1.064-1.066H4.851z"/>
	</g>
	<path d="M21.644,9.699c-0.276,0-0.5-0.224-0.5-0.5V7.83c0-3.766-3.063-6.83-6.83-6.83s-6.83,3.064-6.83,6.83v1.369
		c0,0.276-0.224,0.5-0.5,0.5s-0.5-0.224-0.5-0.5V7.83c0-4.317,3.513-7.83,7.83-7.83s7.83,3.513,7.83,7.83v1.369
		C22.144,9.476,21.92,9.699,21.644,9.699z"/>
	<path d="M14.312,23.762c-0.85,0-1.541-0.691-1.541-1.541v-2.57c-1.04-0.563-1.695-1.646-1.695-2.848
		c0-1.786,1.453-3.238,3.238-3.238c1.788,0,3.242,1.453,3.242,3.238c0,1.201-0.656,2.285-1.697,2.847v2.571
		C15.858,23.07,15.164,23.762,14.312,23.762z M14.313,14.564c-1.234,0-2.238,1.004-2.238,2.238c0,0.91,0.544,1.723,1.386,2.07
		c0.188,0.078,0.31,0.26,0.31,0.462v2.886c0,0.298,0.243,0.541,0.541,0.541c0.302,0,0.547-0.243,0.547-0.541v-2.886
		c0-0.203,0.122-0.385,0.31-0.462c0.843-0.348,1.388-1.16,1.388-2.069C16.556,15.568,15.55,14.564,14.313,14.564z"/>
</g>
<g>
</g>
<g>
</g>
<g>
</g>
<g>
</g>
<g>
</g>
<g>
</g>
<g>
</g>
<g>
</g>
<g>
</g>
<g>
</g>
<g>
</g>
<g>
</g>
<g>
</g>
<g>
</g>
<g>
</g>
</svg>
