<?xml version="1.0" encoding="iso-8859-1"?>
<!-- Generator: Adobe Illustrator 19.0.0, SVG Export Plug-In . SVG Version: 6.00 Build 0)  -->
<svg version="1.1" id="Capa_1" xmlns="http://www.w3.org/2000/svg" xmlns:xlink="http://www.w3.org/1999/xlink" x="0px" y="0px"
	 viewBox="0 0 32.092 32.092" style="enable-background:new 0 0 32.092 32.092;" xml:space="preserve">
<g>
	<g>
		<path d="M25.511,32.092H6.583c-1.14,0-2.066-0.926-2.066-2.064V14.23c0-1.14,0.927-2.066,2.066-2.066h18.928
			c1.139,0,2.064,0.927,2.064,2.066v15.797C27.575,31.166,26.649,32.092,25.511,32.092z M6.583,13.164
			c-0.588,0-1.066,0.479-1.066,1.066v15.797c0,0.587,0.479,1.064,1.066,1.064h18.928c0.587,0,1.064-0.478,1.064-1.064V14.23
			c0-0.588-0.478-1.066-1.064-1.066H6.583z"/>
	</g>
	<path d="M16.044,27.227c-0.85,0-1.541-0.691-1.541-1.541v-2.57c-1.04-0.563-1.695-1.646-1.695-2.848
		c0-1.786,1.453-3.238,3.238-3.238c1.788,0,3.242,1.453,3.242,3.238c0,1.201-0.656,2.285-1.697,2.847v2.571
		C17.591,26.535,16.896,27.227,16.044,27.227z M16.046,18.029c-1.234,0-2.238,1.004-2.238,2.238c0,0.91,0.544,1.723,1.386,2.07
		c0.188,0.078,0.31,0.26,0.31,0.462v2.886c0,0.298,0.243,0.541,0.541,0.541c0.302,0,0.547-0.243,0.547-0.541v-2.886
		c0-0.203,0.122-0.385,0.31-0.462c0.843-0.348,1.388-1.16,1.388-2.069C18.288,19.033,17.282,18.029,16.046,18.029z"/>
	<path d="M8.716,13.164c-0.276,0-0.5-0.224-0.5-0.5V7.83c0-4.317,3.513-7.83,7.83-7.83s7.83,3.513,7.83,7.83
		c0,0.276-0.224,0.5-0.5,0.5s-0.5-0.224-0.5-0.5c0-3.766-3.063-6.83-6.83-6.83s-6.83,3.064-6.83,6.83v4.834
		C9.216,12.94,8.992,13.164,8.716,13.164z"/>
</g>
<g>
</g>
<g>
</g>
<g>
</g>
<g>
</g>
<g>
</g>
<g>
</g>
<g>
</g>
<g>
</g>
<g>
</g>
<g>
</g>
<g>
</g>
<g>
</g>
<g>
</g>
<g>
</g>
<g>
</g>
</svg>
