<?xml version="1.0" encoding="iso-8859-1"?>
<!-- Generator: Adobe Illustrator 19.0.0, SVG Export Plug-In . SVG Version: 6.00 Build 0)  -->
<svg version="1.1" id="Capa_1" xmlns="http://www.w3.org/2000/svg" xmlns:xlink="http://www.w3.org/1999/xlink" x="0px" y="0px"
	 viewBox="0 0 29.732 29.732" style="enable-background:new 0 0 29.732 29.732;" xml:space="preserve">
<g>
	<g>
		<path d="M23.896,29.732c-1.237,0-2.731-0.31-4.373-0.93c-3.603-1.358-7.521-4.042-11.035-7.556
			C4.973,17.732,2.289,13.812,0.93,10.21C-0.307,6.934-0.31,4.246,0.92,3.016c0.177-0.178,0.358-0.368,0.544-0.563
			C2.587,1.272,3.886-0.08,5.538,0.004c1.16,0.048,2.283,0.768,3.434,2.198c3.396,4.226,1.866,5.732,0.094,7.478l-0.313,0.31
			c-0.29,0.29-0.84,1.634,4.26,6.731c1.665,1.664,3.084,2.882,4.217,3.619c0.714,0.464,1.987,1.167,2.514,0.642l0.315-0.318
			c1.744-1.77,3.251-3.296,7.474,0.099c1.431,1.15,2.149,2.272,2.198,3.433c0.069,1.681-1.271,2.953-2.452,4.075
			c-0.195,0.186-0.385,0.366-0.562,0.542C26.103,29.426,25.126,29.732,23.896,29.732z M5.419,1.002c-1.195,0-2.275,1.136-3.23,2.141
			C1.997,3.344,1.811,3.54,1.627,3.723C0.711,4.638,0.805,7.047,1.865,9.857c1.31,3.472,3.913,7.266,7.329,10.683
			c3.415,3.415,7.208,6.018,10.681,7.327c2.811,1.063,5.218,1.154,6.134,0.237c0.183-0.183,0.379-0.369,0.58-0.56
			c1.027-0.976,2.191-2.082,2.141-3.309c-0.034-0.843-0.648-1.75-1.825-2.695c-3.52-2.828-4.503-1.83-6.135-0.176l-0.32,0.323
			c-0.779,0.781-2.047,0.606-3.766-0.51c-1.191-0.775-2.665-2.037-4.379-3.751c-4.232-4.23-5.586-6.818-4.26-8.146l0.318-0.315
			c1.658-1.632,2.659-2.617-0.171-6.138C7.246,1.652,6.34,1.038,5.496,1.003C5.471,1.002,5.444,1.002,5.419,1.002z"/>
	</g>
	<g>
		<path d="M19.552,10.68c-0.128,0-0.256-0.049-0.354-0.146c-0.195-0.195-0.195-0.512,0-0.707l9.68-9.68
			c0.195-0.195,0.512-0.195,0.707,0s0.195,0.512,0,0.707l-9.68,9.68C19.808,10.632,19.68,10.68,19.552,10.68z"/>
		<path d="M26.954,10.68h-7.402c-0.276,0-0.5-0.224-0.5-0.5V2.779c0-0.276,0.224-0.5,0.5-0.5s0.5,0.224,0.5,0.5V9.68h6.902
			c0.276,0,0.5,0.224,0.5,0.5S27.23,10.68,26.954,10.68z"/>
	</g>
</g>
<g>
</g>
<g>
</g>
<g>
</g>
<g>
</g>
<g>
</g>
<g>
</g>
<g>
</g>
<g>
</g>
<g>
</g>
<g>
</g>
<g>
</g>
<g>
</g>
<g>
</g>
<g>
</g>
<g>
</g>
</svg>
