<?xml version="1.0" encoding="iso-8859-1"?>
<!-- Generator: Adobe Illustrator 19.0.0, SVG Export Plug-In . SVG Version: 6.00 Build 0)  -->
<svg version="1.1" id="Capa_1" xmlns="http://www.w3.org/2000/svg" xmlns:xlink="http://www.w3.org/1999/xlink" x="0px" y="0px"
	 viewBox="0 0 29.732 29.732" style="enable-background:new 0 0 29.732 29.732;" xml:space="preserve">
<g>
	<g>
		<path d="M23.896,29.732c-1.237,0-2.732-0.31-4.374-0.93c-3.603-1.358-7.521-4.042-11.036-7.556
			c-3.514-3.515-6.198-7.435-7.557-11.037C-0.306,6.934-0.309,4.246,0.92,3.016c0.177-0.178,0.358-0.368,0.544-0.563
			C2.587,1.272,3.868-0.08,5.538,0.004c1.16,0.048,2.283,0.768,3.434,2.198c3.396,4.226,1.866,5.732,0.094,7.478l-0.313,0.31
			c-0.29,0.29-0.84,1.634,4.26,6.731c1.665,1.664,3.084,2.882,4.217,3.619c0.713,0.465,1.99,1.165,2.513,0.642l0.316-0.318
			c1.744-1.769,3.25-3.296,7.474,0.099c1.431,1.15,2.15,2.272,2.198,3.433c0.069,1.681-1.27,2.953-2.452,4.075
			c-0.195,0.186-0.385,0.366-0.562,0.542C26.103,29.426,25.127,29.732,23.896,29.732z M5.419,1.002c-1.195,0-2.275,1.136-3.23,2.141
			C1.997,3.344,1.81,3.54,1.627,3.723C0.712,4.638,0.805,7.047,1.865,9.857c1.31,3.472,3.913,7.266,7.329,10.683
			c3.416,3.415,7.209,6.018,10.682,7.327c2.81,1.062,5.218,1.152,6.133,0.237c0.183-0.183,0.379-0.369,0.581-0.56
			c1.027-0.976,2.192-2.082,2.141-3.309c-0.035-0.843-0.649-1.75-1.825-2.695c-3.519-2.828-4.503-1.832-6.135-0.176l-0.321,0.323
			c-0.779,0.779-2.045,0.607-3.766-0.51c-1.191-0.775-2.665-2.037-4.379-3.751c-4.232-4.23-5.585-6.818-4.26-8.146l0.319-0.315
			c1.658-1.632,2.659-2.617-0.171-6.138C7.247,1.652,6.34,1.038,5.497,1.003C5.471,1.002,5.445,1.002,5.419,1.002z"/>
	</g>
	<g>
		<path d="M19.552,10.68c-0.128,0-0.256-0.049-0.354-0.146c-0.195-0.195-0.195-0.512,0-0.707l9.68-9.68
			c0.195-0.195,0.512-0.195,0.707,0s0.195,0.512,0,0.707l-9.68,9.68C19.808,10.632,19.68,10.68,19.552,10.68z"/>
		<path d="M29.232,8.403c-0.276,0-0.5-0.224-0.5-0.5V1.001H21.83c-0.276,0-0.5-0.224-0.5-0.5s0.224-0.5,0.5-0.5h7.401
			c0.276,0,0.5,0.224,0.5,0.5v7.402C29.732,8.18,29.508,8.403,29.232,8.403z"/>
	</g>
</g>
<g>
</g>
<g>
</g>
<g>
</g>
<g>
</g>
<g>
</g>
<g>
</g>
<g>
</g>
<g>
</g>
<g>
</g>
<g>
</g>
<g>
</g>
<g>
</g>
<g>
</g>
<g>
</g>
<g>
</g>
</svg>
