<?xml version="1.0" encoding="iso-8859-1"?>
<!-- Generator: Adobe Illustrator 19.0.0, SVG Export Plug-In . SVG Version: 6.00 Build 0)  -->
<svg version="1.1" id="Capa_1" xmlns="http://www.w3.org/2000/svg" xmlns:xlink="http://www.w3.org/1999/xlink" x="0px" y="0px"
	 viewBox="0 0 32.885 32.885" style="enable-background:new 0 0 32.885 32.885;" xml:space="preserve">
<g>
	<g>
		<path d="M30.799,29.966H2.088C0.937,29.966,0,29.029,0,27.878V8.69c0-1.15,0.937-2.086,2.088-2.086h28.711
			c1.15,0,2.086,0.936,2.086,2.086v19.188C32.885,29.029,31.949,29.966,30.799,29.966z M2.088,7.604C1.488,7.604,1,8.092,1,8.69
			v19.188c0,0.6,0.488,1.088,1.088,1.088h28.711c0.599,0,1.086-0.488,1.086-1.088V8.69c0-0.599-0.487-1.086-1.086-1.086H2.088z"/>
	</g>
	<path d="M21.628,25.007c-3.707,0-6.723-3.016-6.723-6.723c0-3.706,3.016-6.721,6.723-6.721c3.707,0,6.722,3.015,6.722,6.721
		C28.35,21.991,25.335,25.007,21.628,25.007z M21.628,12.563c-3.155,0-5.723,2.566-5.723,5.721c0,3.155,2.567,5.723,5.723,5.723
		c3.155,0,5.722-2.567,5.722-5.723C27.35,15.13,24.783,12.563,21.628,12.563z"/>
	<path d="M11.237,7.604H5.217c-0.276,0-0.5-0.224-0.5-0.5V3.419c0-0.276,0.224-0.5,0.5-0.5h6.021c0.276,0,0.5,0.224,0.5,0.5v3.686
		C11.737,7.381,11.514,7.604,11.237,7.604z M5.717,6.604h5.021V3.919H5.717V6.604z"/>
	<path d="M5.217,25.276c-0.276,0-0.5-0.224-0.5-0.5V12.063c0-0.276,0.224-0.5,0.5-0.5s0.5,0.224,0.5,0.5v12.713
		C5.717,25.053,5.493,25.276,5.217,25.276z"/>
	<path d="M21.628,19.943c-0.915,0-1.658-0.744-1.658-1.658c0-0.914,0.744-1.657,1.658-1.657c0.914,0,1.657,0.744,1.657,1.657
		C23.286,19.199,22.542,19.943,21.628,19.943z M21.628,17.627c-0.363,0-0.658,0.295-0.658,0.657c0,0.363,0.295,0.658,0.658,0.658
		c0.362,0,0.657-0.295,0.657-0.658C22.286,17.922,21.991,17.627,21.628,17.627z"/>
</g>
<g>
</g>
<g>
</g>
<g>
</g>
<g>
</g>
<g>
</g>
<g>
</g>
<g>
</g>
<g>
</g>
<g>
</g>
<g>
</g>
<g>
</g>
<g>
</g>
<g>
</g>
<g>
</g>
<g>
</g>
</svg>
