<?xml version="1.0" encoding="iso-8859-1"?>
<!-- Generator: Adobe Illustrator 19.0.0, SVG Export Plug-In . SVG Version: 6.00 Build 0)  -->
<svg version="1.1" id="Capa_1" xmlns="http://www.w3.org/2000/svg" xmlns:xlink="http://www.w3.org/1999/xlink" x="0px" y="0px"
	 viewBox="0 0 33 33" style="enable-background:new 0 0 33 33;" xml:space="preserve">
<g>
	<path d="M16.5,32.996c-4.225,0-8.45-1.608-11.667-4.825C1.716,25.054,0,20.911,0,16.504S1.716,7.953,4.833,4.837
		C7.949,1.72,12.093,0.004,16.5,0.004s8.551,1.716,11.667,4.833C31.284,7.953,33,12.096,33,16.504s-1.716,8.551-4.833,11.667
		C24.95,31.388,20.725,32.996,16.5,32.996z M16.5,1.004c-4.14,0-8.033,1.612-10.96,4.54C2.612,8.471,1,12.364,1,16.504
		s1.612,8.033,4.54,10.96c6.043,6.043,15.877,6.043,21.92,0c2.928-2.928,4.54-6.82,4.54-10.96s-1.612-8.033-4.54-10.96
		C24.533,2.616,20.64,1.004,16.5,1.004z"/>
	<path d="M27.813,28.318c-0.128,0-0.256-0.049-0.354-0.146L16.146,16.857C16.053,16.763,16,16.636,16,16.504v-16
		c0-0.276,0.224-0.5,0.5-0.5s0.5,0.224,0.5,0.5v15.793l11.167,11.167c0.195,0.195,0.195,0.512,0,0.707
		C28.069,28.269,27.941,28.318,27.813,28.318z"/>
	<path d="M16.5,17.004c-0.128,0-0.256-0.049-0.354-0.146c-0.195-0.195-0.195-0.512,0-0.707L27.457,4.84
		c0.195-0.195,0.512-0.195,0.707,0s0.195,0.512,0,0.707l-11.311,11.31C16.756,16.955,16.628,17.004,16.5,17.004z"/>
	<path d="M20.5,21.004c-0.128,0-0.256-0.049-0.354-0.146c-0.195-0.195-0.195-0.512,0-0.707L30.458,9.839
		c0.195-0.195,0.512-0.195,0.707,0s0.195,0.512,0,0.707L20.854,20.857C20.756,20.955,20.628,21.004,20.5,21.004z"/>
	<path d="M24.555,25.058c-0.128,0-0.256-0.049-0.354-0.146c-0.195-0.195-0.195-0.512,0-0.707l7.868-7.868
		c0.195-0.195,0.512-0.195,0.707,0s0.195,0.512,0,0.707l-7.868,7.868C24.811,25.01,24.683,25.058,24.555,25.058z"/>
	<path d="M16.5,9.016c-0.128,0-0.256-0.049-0.354-0.146c-0.195-0.195-0.195-0.512,0-0.707l6.544-6.544
		c0.195-0.195,0.512-0.195,0.707,0s0.195,0.512,0,0.707l-6.544,6.544C16.756,8.967,16.628,9.016,16.5,9.016z"/>
</g>
<g>
</g>
<g>
</g>
<g>
</g>
<g>
</g>
<g>
</g>
<g>
</g>
<g>
</g>
<g>
</g>
<g>
</g>
<g>
</g>
<g>
</g>
<g>
</g>
<g>
</g>
<g>
</g>
<g>
</g>
</svg>
