<?xml version="1.0" encoding="iso-8859-1"?>
<!-- Generator: Adobe Illustrator 19.0.0, SVG Export Plug-In . SVG Version: 6.00 Build 0)  -->
<svg version="1.1" id="Capa_1" xmlns="http://www.w3.org/2000/svg" xmlns:xlink="http://www.w3.org/1999/xlink" x="0px" y="0px"
	 viewBox="0 0 33 33" style="enable-background:new 0 0 33 33;" xml:space="preserve">
<g>
	<path d="M25.346,31.83h-5.594c-0.276,0-0.5-0.224-0.5-0.5v-2.232h-4.333v2.232c0,0.276-0.224,0.5-0.5,0.5H8.825
		c-0.276,0-0.5-0.224-0.5-0.5v-3.98c-4.257-0.652-8.035-4.869-8.2-5.055C0.045,22.204,0,22.085,0,21.963V16.89
		c0-0.276,0.224-0.5,0.5-0.5c2.198,0,4.236-2.335,4.931-3.221c-1.868-2.025-1.157-5.136-1.124-5.273
		c0.035-0.146,0.133-0.269,0.267-0.334c0.135-0.065,0.292-0.066,0.427-0.005c0.022,0.01,2.249,1.017,4.941,1.28
		c6.698-2.11,12.778-1.686,16.69,1.173c2.513,1.837,3.896,4.557,3.896,7.66c0,6.771-3.74,10.267-4.683,11.04v2.619
		C25.846,31.606,25.622,31.83,25.346,31.83z M20.252,30.83h4.594v-2.362c0-0.16,0.077-0.311,0.207-0.404
		c0.044-0.033,4.476-3.342,4.476-10.393c0-2.775-1.238-5.209-3.486-6.853c-3.67-2.682-9.464-3.046-15.894-0.996
		c-0.064,0.02-0.131,0.024-0.197,0.021C7.876,9.655,6.085,9.059,5.19,8.715c-0.099,0.958-0.097,2.862,1.233,4.026
		c0.191,0.167,0.227,0.451,0.083,0.66C6.399,13.556,3.99,17,1,17.36v4.408c0.703,0.746,4.236,4.31,7.871,4.641
		c0.257,0.023,0.455,0.239,0.455,0.498v3.923h4.594v-2.232c0-0.276,0.224-0.5,0.5-0.5h5.333c0.276,0,0.5,0.224,0.5,0.5V30.83z"/>
	<path d="M11.966,8.996c-0.234,0-0.444-0.166-0.49-0.404c-0.077-0.393-0.115-0.796-0.115-1.197c0-3.432,2.792-6.224,6.224-6.224
		s6.224,2.792,6.224,6.224c0,0.39-0.036,0.779-0.107,1.157c-0.05,0.271-0.305,0.451-0.584,0.398
		c-0.271-0.051-0.45-0.313-0.398-0.584c0.06-0.316,0.09-0.644,0.09-0.972c0-2.88-2.343-5.224-5.224-5.224S12.36,4.514,12.36,7.394
		c0,0.338,0.033,0.676,0.097,1.006c0.053,0.271-0.124,0.534-0.395,0.587C12.03,8.993,11.998,8.996,11.966,8.996z"/>
	<path d="M10.063,17.389c-0.13,0-0.26-0.05-0.35-0.14c-0.1-0.1-0.15-0.23-0.15-0.36s0.05-0.26,0.14-0.35
		c0.2-0.19,0.52-0.19,0.71-0.01c0.09,0.1,0.15,0.229,0.15,0.359s-0.06,0.261-0.15,0.351C10.313,17.339,10.193,17.389,10.063,17.389z
		"/>
	<path d="M4.302,25.669c-0.237,0-0.447-0.169-0.491-0.41c-0.05-0.271,0.13-0.532,0.402-0.582c0.023-0.004,2.359-0.454,2.969-2.227
		c0.09-0.261,0.373-0.399,0.635-0.31c0.261,0.09,0.4,0.374,0.31,0.636c-0.802,2.331-3.617,2.863-3.736,2.885
		C4.361,25.667,4.332,25.669,4.302,25.669z"/>
	<path d="M31.278,16.97c-0.796,0-1.543-0.433-1.648-0.495c-0.236-0.143-0.312-0.448-0.17-0.686c0.142-0.236,0.45-0.313,0.685-0.172
		c0.232,0.138,0.999,0.488,1.449,0.296c0.075-0.031,0.302-0.128,0.42-0.633c0.063-0.271,0.328-0.438,0.601-0.374
		c0.269,0.063,0.436,0.332,0.373,0.601c-0.193,0.828-0.653,1.18-1.005,1.328C31.753,16.932,31.513,16.97,31.278,16.97z"/>
</g>
<g>
</g>
<g>
</g>
<g>
</g>
<g>
</g>
<g>
</g>
<g>
</g>
<g>
</g>
<g>
</g>
<g>
</g>
<g>
</g>
<g>
</g>
<g>
</g>
<g>
</g>
<g>
</g>
<g>
</g>
</svg>
