<?xml version="1.0" encoding="iso-8859-1"?>
<!-- Generator: Adobe Illustrator 19.0.0, SVG Export Plug-In . SVG Version: 6.00 Build 0)  -->
<svg version="1.1" id="Capa_1" xmlns="http://www.w3.org/2000/svg" xmlns:xlink="http://www.w3.org/1999/xlink" x="0px" y="0px"
	 viewBox="0 0 34.166 34.166" style="enable-background:new 0 0 34.166 34.166;" xml:space="preserve">
<g>
	<g>
		<g>
			<path d="M17.083,19.109c-3.131,0-5.679-2.548-5.679-5.68s2.547-5.68,5.679-5.68s5.679,2.548,5.679,5.68
				S20.214,19.109,17.083,19.109z M17.083,8.75c-2.58,0-4.679,2.099-4.679,4.68s2.099,4.68,4.679,4.68s4.679-2.099,4.679-4.68
				S19.663,8.75,17.083,8.75z"/>
		</g>
	</g>
	<path d="M17.067,34.166c-0.185,0-0.355-0.102-0.442-0.266l-4.175-7.877c-5.269-1.938-8.794-6.974-8.794-12.594
		C3.656,6.024,9.679,0,17.083,0C24.487,0,30.51,6.024,30.51,13.43c0,5.638-3.542,10.68-8.833,12.608L17.509,33.9
		C17.422,34.064,17.252,34.166,17.067,34.166z M17.083,1C10.231,1,4.656,6.576,4.656,13.43c0,5.261,3.34,9.97,8.311,11.717
		c0.119,0.042,0.217,0.126,0.276,0.237l3.824,7.215l3.817-7.201c0.059-0.111,0.158-0.196,0.278-0.238
		c4.993-1.737,8.348-6.451,8.348-11.73C29.51,6.576,23.935,1,17.083,1z"/>
</g>
<g>
</g>
<g>
</g>
<g>
</g>
<g>
</g>
<g>
</g>
<g>
</g>
<g>
</g>
<g>
</g>
<g>
</g>
<g>
</g>
<g>
</g>
<g>
</g>
<g>
</g>
<g>
</g>
<g>
</g>
</svg>
