<?xml version="1.0" encoding="iso-8859-1"?>
<!-- Generator: Adobe Illustrator 19.0.0, SVG Export Plug-In . SVG Version: 6.00 Build 0)  -->
<svg version="1.1" id="Capa_1" xmlns="http://www.w3.org/2000/svg" xmlns:xlink="http://www.w3.org/1999/xlink" x="0px" y="0px"
	 viewBox="0 0 32.354 32.354" style="enable-background:new 0 0 32.354 32.354;" xml:space="preserve">
<g>
	<path d="M22.145,29.01H10.21c-3.873,0-7.024-3.15-7.024-7.023v-8.525c0-1.162,0.945-2.107,2.107-2.107h21.769
		c1.161,0,2.106,0.945,2.106,2.107v8.525C29.168,25.859,26.018,29.01,22.145,29.01z M5.293,12.354c-0.61,0-1.107,0.497-1.107,1.107
		v8.525c0,3.321,2.702,6.023,6.024,6.023h11.935c3.321,0,6.023-2.702,6.023-6.023v-8.525c0-0.61-0.496-1.107-1.106-1.107H5.293z"/>
	<path d="M10.394,12.354c-0.276,0-0.5-0.224-0.5-0.5V2.5c0-0.827-0.673-1.5-1.5-1.5H8.229c-0.827,0-1.5,0.673-1.5,1.5v9.354
		c0,0.276-0.224,0.5-0.5,0.5s-0.5-0.224-0.5-0.5V2.5c0-1.379,1.121-2.5,2.5-2.5h0.164c1.379,0,2.5,1.121,2.5,2.5v9.354
		C10.894,12.13,10.67,12.354,10.394,12.354z"/>
	<path d="M26.124,12.354c-0.276,0-0.5-0.224-0.5-0.5V2.5c0-0.827-0.673-1.5-1.5-1.5H23.96c-0.827,0-1.5,0.673-1.5,1.5v9.354
		c0,0.276-0.224,0.5-0.5,0.5s-0.5-0.224-0.5-0.5V2.5c0-1.379,1.121-2.5,2.5-2.5h0.164c1.379,0,2.5,1.121,2.5,2.5v9.354
		C26.624,12.13,26.4,12.354,26.124,12.354z"/>
	<path d="M16.177,24.127c-2.345,0-4.252-1.907-4.252-4.252s1.907-4.252,4.252-4.252s4.252,1.907,4.252,4.252
		S18.521,24.127,16.177,24.127z M16.177,16.623c-1.793,0-3.252,1.459-3.252,3.252s1.459,3.252,3.252,3.252s3.252-1.459,3.252-3.252
		S17.97,16.623,16.177,16.623z"/>
	<path d="M19.929,32.354h-7.504c-0.276,0-0.5-0.224-0.5-0.5V28.51c0-0.276,0.224-0.5,0.5-0.5h7.504c0.276,0,0.5,0.224,0.5,0.5v3.344
		C20.429,32.13,20.205,32.354,19.929,32.354z M12.925,31.354h6.504V29.01h-6.504V31.354z"/>
</g>
<g>
</g>
<g>
</g>
<g>
</g>
<g>
</g>
<g>
</g>
<g>
</g>
<g>
</g>
<g>
</g>
<g>
</g>
<g>
</g>
<g>
</g>
<g>
</g>
<g>
</g>
<g>
</g>
<g>
</g>
</svg>
