<?xml version="1.0" encoding="iso-8859-1"?>
<!-- Generator: Adobe Illustrator 19.0.0, SVG Export Plug-In . SVG Version: 6.00 Build 0)  -->
<svg version="1.1" id="Capa_1" xmlns="http://www.w3.org/2000/svg" xmlns:xlink="http://www.w3.org/1999/xlink" x="0px" y="0px"
	 viewBox="0 0 30.449 30.449" style="enable-background:new 0 0 30.449 30.449;" xml:space="preserve">
<g>
	<path d="M6.592,19.667c-0.272,0-0.495-0.217-0.5-0.49L5.783,3.313C5.783,1.481,7.264,0,9.086,0s3.303,1.481,3.303,3.303v10.834
		c0,0.276-0.224,0.5-0.5,0.5s-0.5-0.224-0.5-0.5V3.303C11.388,2.033,10.355,1,9.086,1S6.783,2.033,6.783,3.303l0.309,15.854
		c0.005,0.276-0.214,0.504-0.49,0.51C6.598,19.667,6.595,19.667,6.592,19.667z"/>
	<path d="M17.495,15.209c-0.276,0-0.5-0.224-0.5-0.5v-3.24c0-1.27-1.033-2.303-2.303-2.303s-2.303,1.033-2.303,2.303v3.24
		c0,0.276-0.224,0.5-0.5,0.5s-0.5-0.224-0.5-0.5v-3.24c0-1.821,1.482-3.303,3.303-3.303s3.303,1.482,3.303,3.303v3.24
		C17.995,14.985,17.771,15.209,17.495,15.209z"/>
	<path d="M23.099,15.209c-0.276,0-0.5-0.224-0.5-0.5v-2.407c0-1.27-1.033-2.302-2.302-2.302s-2.302,1.033-2.302,2.302v2.407
		c0,0.276-0.224,0.5-0.5,0.5s-0.5-0.224-0.5-0.5v-2.407c0-1.821,1.481-3.302,3.302-3.302s3.302,1.481,3.302,3.302v2.407
		C23.599,14.985,23.376,15.209,23.099,15.209z"/>
	<path d="M28.705,21.627c-0.276,0-0.5-0.224-0.5-0.5v-8.074c0-1.27-1.033-2.303-2.303-2.303s-2.303,1.033-2.303,2.303v1.656
		c0,0.276-0.224,0.5-0.5,0.5s-0.5-0.224-0.5-0.5v-1.656c0-1.821,1.481-3.303,3.303-3.303s3.303,1.481,3.303,3.303v8.074
		C29.205,21.403,28.981,21.627,28.705,21.627z"/>
	<path d="M24.705,30.449H8.487c-0.276,0-0.518-0.224-0.518-0.5s0.206-0.5,0.482-0.5h16.254c1.93,0,3.5-1.57,3.5-3.5v-5.396
		c0-0.276,0.224-0.5,0.5-0.5s0.5,0.224,0.5,0.5v5.396C29.205,28.431,27.186,30.449,24.705,30.449z"/>
	<path d="M8.451,30.449c-0.128,0-0.256-0.049-0.354-0.146l-5.524-5.52c-1.727-1.724-1.776-4.474-0.114-6.261l2.954-3.174
		c0.189-0.201,0.504-0.212,0.707-0.025c0.202,0.188,0.213,0.505,0.025,0.707l-2.954,3.174c-1.294,1.39-1.255,3.53,0.089,4.872
		l5.524,5.521C9,29.791,9,30.107,8.804,30.303C8.707,30.4,8.579,30.449,8.451,30.449z"/>
</g>
<g>
</g>
<g>
</g>
<g>
</g>
<g>
</g>
<g>
</g>
<g>
</g>
<g>
</g>
<g>
</g>
<g>
</g>
<g>
</g>
<g>
</g>
<g>
</g>
<g>
</g>
<g>
</g>
<g>
</g>
</svg>
