<svg height="511pt" viewBox="-33 0 511 511.999" width="511pt" xmlns="http://www.w3.org/2000/svg"><path d="m438.277344 381.726562c4.179687 0 7.570312-3.390624 7.570312-7.574218v-23.226563c0-46.949219-36.390625-47.960937-36.761718-47.964843-.0625-.003907-.128907-.003907-.195313 0-.339844.003906-31.6875.882812-36.214844 38.503906l-49.019531-28.242188v-95.597656c0-4.183594-3.390625-7.574219-7.574219-7.574219-4.183593 0-7.574219 3.390625-7.574219 7.574219v145.925781h-48.472656v-12.621093c0-46.953126-36.394531-47.964844-36.761718-47.96875-.066407 0-.128907 0-.195313 0-.367187.003906-36.761719 1.019531-36.761719 47.96875v12.621093h-48.472656v-194.398437c0-11.378906.703125-22.382813 2.074219-32.820313h166.515625c1.371094 10.441407 2.074218 21.445313 2.074218 32.820313v13.128906c0 4.183594 3.394532 7.574219 7.574219 7.574219 4.183594 0 7.574219-3.390625 7.574219-7.574219v-13.128906c0-14.445313-1.0625-28.371094-3.15625-41.40625h-.003906c-.011719-.0625-.011719-.128906-.023438-.195313-8.683594-53.796875-33.859375-85.449219-53.453125-102.527343-21.453125-18.703126-40.917969-24.488282-41.734375-24.722657-1.378906-.402343-2.839844-.402343-4.21875 0-.820312.234375-20.28125 6.019531-41.738281 24.722657-19.589844 17.078124-44.769531 48.730468-53.453125 102.527343-.007812.066407-.011719.132813-.019531.195313h-.007813c-2.089844 13.03125-3.15625 26.960937-3.15625 41.40625v144.070312l-49.019531 28.242188c-4.527344-37.621094-35.875-38.5-36.214844-38.503906-.066406-.003907-.128906-.003907-.195312 0-.367188.003906-36.761719 1.015624-36.761719 47.964843v23.226563c0 4.183594 3.390625 7.574218 7.574219 7.574218 4.183593 0 7.574219-3.390624 7.574219-7.574218v-23.226563c0-30.804687 19.230468-32.703125 21.734374-32.816406 1.917969.066406 21.6875 1.542969 21.6875 32.816406v145.925781h-43.421874v-88.363281c0-4.183593-3.390626-7.574219-7.574219-7.574219-4.183594 0-7.574219 3.390626-7.574219 7.574219v95.9375c0 4.183594 3.390625 7.574219 7.574219 7.574219h58.574219c4.183593 0 7.574218-3.390625 7.574218-7.574219v-51.878906l58.074219-33.453125h54.019531v85.332031c0 4.183594 3.390625 7.574219 7.574219 7.574219h58.570313c4.183593 0 7.574218-3.390625 7.574218-7.574219v-85.332031h54.023438l58.074218 33.453125v51.878906c0 4.183594 3.390626 7.574219 7.574219 7.574219h58.570313c4.179687 0 7.570312-3.390625 7.570312-7.574219v-95.9375c0-4.183593-3.390625-7.574219-7.570312-7.574219-4.183594 0-7.574219 3.390626-7.574219 7.574219v88.363281h-43.425781v-145.921874c0-30.808594 19.230468-32.707032 21.734375-32.820313 1.921875.070313 21.691406 1.546875 21.691406 32.820313v23.226562c0 4.179688 3.390625 7.570312 7.574219 7.570312zm-249.574219-344.773437c15.132813-13.351563 29.265625-19.425781 34.472656-21.371094 5.222657 1.949219 19.347657 8.027344 34.472657 21.371094 23.5 20.734375 39.035156 49.039063 46.261718 84.230469h-161.46875c7.222656-35.191406 22.761719-63.496094 46.261719-84.230469zm-114.480469 321.679687 48.472656-27.925781v76.433594l-48.472656 27.925781zm63.621094 45.3125v-25.246093h48.472656v25.246093zm107.042969 92.90625h-43.421875v-145.925781c0-30.621093 19.003906-32.679687 21.6875-32.816406 2.871094.152344 21.734375 2.308594 21.734375 32.816406zm15.148437-118.152343h48.472656v25.246093h-48.472656zm63.621094 28.441406v-76.4375l48.472656 27.925781v76.4375zm0 0"/><path d="m179.246094 224.695312c0 24.222657 19.707031 43.929688 43.929687 43.929688 24.222657 0 43.929688-19.707031 43.929688-43.929688 0-24.222656-19.707031-43.929687-43.929688-43.929687-24.222656 0-43.929687 19.707031-43.929687 43.929687zm72.710937 0c0 15.871094-12.910156 28.78125-28.78125 28.78125-15.871093 0-28.78125-12.910156-28.78125-28.78125 0-15.871093 12.910157-28.78125 28.78125-28.78125 15.871094 0 28.78125 12.910157 28.78125 28.78125zm0 0"/></svg>