<?xml version="1.0" encoding="iso-8859-1"?>
<!-- Generator: Adobe Illustrator 19.0.0, SVG Export Plug-In . SVG Version: 6.00 Build 0)  -->
<svg version="1.1" id="Capa_1" xmlns="http://www.w3.org/2000/svg" xmlns:xlink="http://www.w3.org/1999/xlink" x="0px" y="0px"
	 viewBox="0 0 512 512" style="enable-background:new 0 0 512 512;" xml:space="preserve">
<g>
	<g>
		<path d="M91.505,307.658H64.699c-6.428,0-11.658,5.229-11.658,11.657v17.072c0,6.427,5.23,11.657,11.658,11.657h26.805
			c6.428,0,11.658-5.229,11.658-11.657v-17.072C103.162,312.887,97.932,307.658,91.505,307.658z M88.393,333.274H67.81v-10.848
			h20.582V333.274z"/>
	</g>
</g>
<g>
	<g>
		<path d="M153.903,307.658h-26.805c-6.428,0-11.658,5.229-11.658,11.657v17.072c0,6.427,5.23,11.657,11.658,11.657h26.805
			c6.428,0,11.658-5.229,11.658-11.657v-17.072C165.56,312.887,160.33,307.658,153.903,307.658z M150.791,333.274h-20.582v-10.848
			h20.582V333.274z"/>
	</g>
</g>
<g>
	<g>
		<path d="M216.3,307.658h-26.805c-6.428,0-11.658,5.229-11.658,11.657v17.072c0.001,6.427,5.231,11.657,11.659,11.657H216.3
			c6.428,0,11.658-5.229,11.658-11.657v-17.072C227.958,312.887,222.729,307.658,216.3,307.658z M213.189,333.274h-20.582v-10.848
			h20.582V333.274z"/>
	</g>
</g>
<g>
	<g>
		<path d="M91.505,367.575H64.699c-6.428,0-11.658,5.23-11.658,11.658v17.072c0,6.428,5.23,11.658,11.658,11.658h26.805
			c6.428,0,11.658-5.23,11.658-11.658v-17.072C103.162,372.805,97.932,367.575,91.505,367.575z M88.393,393.194H67.81v-10.849
			h20.582V393.194z"/>
	</g>
</g>
<g>
	<g>
		<path d="M153.903,367.575h-26.805c-6.428,0-11.658,5.23-11.658,11.658v17.072c0,6.428,5.23,11.658,11.658,11.658h26.805
			c6.428,0,11.658-5.23,11.658-11.658v-17.072C165.56,372.805,160.33,367.575,153.903,367.575z M150.791,393.194h-20.582v-10.849
			h20.582V393.194z"/>
	</g>
</g>
<g>
	<g>
		<path d="M216.3,367.575h-26.805c-6.428,0-11.658,5.23-11.658,11.658v17.072h0.001c0,6.428,5.23,11.658,11.658,11.658H216.3
			c6.428,0,11.658-5.23,11.658-11.658v-17.072C227.958,372.805,222.729,367.575,216.3,367.575z M213.189,393.194h-20.582v-10.849
			h20.582V393.194z"/>
	</g>
</g>
<g>
	<g>
		<path d="M91.505,427.496H64.699c-6.428,0-11.658,5.229-11.658,11.657v17.072c0,6.428,5.23,11.657,11.658,11.657h26.805
			c6.428,0,11.658-5.229,11.658-11.657v-17.072C103.162,432.725,97.932,427.496,91.505,427.496z M88.393,453.112H67.81v-10.848
			h20.582V453.112z"/>
	</g>
</g>
<g>
	<g>
		<path d="M153.903,427.496h-26.805c-6.428,0-11.658,5.229-11.658,11.657v17.072c0,6.428,5.23,11.657,11.658,11.657h26.805
			c6.428,0,11.658-5.229,11.658-11.657v-17.072C165.56,432.725,160.33,427.496,153.903,427.496z M150.791,453.112h-20.582v-10.848
			h20.582V453.112z"/>
	</g>
</g>
<g>
	<g>
		<path d="M216.3,427.496h-26.805c-6.428,0-11.658,5.229-11.658,11.657v17.072h0.001c0,6.428,5.23,11.657,11.658,11.657H216.3
			c6.428,0,11.658-5.229,11.658-11.657v-17.072C227.958,432.725,222.729,427.496,216.3,427.496z M213.189,453.112h-20.582v-10.848
			h20.582V453.112z"/>
	</g>
</g>
<g>
	<g>
		<path d="M484.174,474.448V310.585c0-4.078-3.306-7.385-7.385-7.385c-4.079,0-7.385,3.306-7.385,7.385v163.834h-103.02v-11.644
			h79.23c7.448,0,13.508-6.059,13.508-13.507V435.11c0-7.448-6.06-13.508-13.508-13.508h-79.23V402.24h79.23
			c7.448,0,13.508-6.059,13.508-13.507v-14.158c0-7.448-6.06-13.507-13.508-13.507h-79.23v-19.362h79.23
			c7.448,0,13.508-6.059,13.508-13.507v-14.158c0-7.448-6.06-13.507-13.508-13.507h-79.23v-19.362h79.23
			c7.448,0,13.508-6.059,13.508-13.507v-14.158c0-7.448-6.06-13.507-13.508-13.507h-79.23v-31.068h103.022v55.623
			c0,4.078,3.306,7.385,7.385,7.385c4.079,0,7.385-3.306,7.385-7.385V205.64c0-6.329-5.149-11.478-11.479-11.478h-11.553v-20.617
			c0-8.15-6.631-14.78-14.781-14.78h-19.925v-19.779c0-8.353-6.795-15.148-15.148-15.148h-5.042V71.425
			c0-4.078-3.306-7.385-7.385-7.385c-4.079,0-7.385,3.306-7.385,7.385v52.413h-5.042c-8.353,0-15.148,6.795-15.148,15.148v19.779
			h-4.904V39.061h1.365c5.597,0,10.151-4.554,10.151-10.151V10.151C377.9,4.554,373.346,0,367.749,0H144.252
			c-5.597,0-10.151,4.554-10.151,10.151V28.91c0,5.597,4.554,10.151,10.151,10.151h3.713V271.73h-16.096v-20.978
			c0-5.929-4.823-10.752-10.752-10.752H61.851c-5.929,0-10.752,4.823-10.752,10.752v20.978H39.466
			c-6.419,0-11.641,5.222-11.641,11.641V387.77c0,4.078,3.306,7.385,7.385,7.385c4.079,0,7.385-3.306,7.385-7.385V286.5h198.553
			v187.918H42.596v-40.679c0-4.078-3.306-7.385-7.385-7.385c-4.079,0-7.385,3.306-7.385,7.385v40.709
			c-10.09,0.312-18.207,8.597-18.207,18.761c0,10.361,8.429,18.791,18.79,18.791h455.183c10.361,0,18.79-8.43,18.79-18.791
			C502.382,483.045,494.263,474.76,484.174,474.448z M386.057,138.986c0-0.209,0.17-0.379,0.379-0.379h24.854
			c0.209,0,0.379,0.17,0.379,0.379v19.779h-25.612V138.986z M366.384,173.535l79.99,0.01v20.617h-79.99V173.535z M117.1,271.73
			H65.869v-16.961H117.1V271.73z M366.384,254.769L366.384,254.769h77.968v11.634h-77.968V254.769z M366.384,315.303
			L366.384,315.303h77.968v11.634h-77.968V315.303z M366.384,375.837L366.384,375.837h77.968v11.634h-77.968V375.837z
			 M366.384,436.371L366.384,436.371h77.968v11.635h-77.968V436.371z M148.869,14.769h214.262v9.522H148.869V14.769z
			 M207.265,269.598h-19.222v-25.207h19.222V269.598z M232.794,240.46v31.27h-10.76v-31.27c0-5.976-4.862-10.838-10.838-10.838
			h-27.083c-5.976,0-10.839,4.862-10.839,10.838v31.27h-10.54V39.061h188.88v435.357h0h-95.697v-11.644h14.798
			c5.977,0,10.839-4.862,10.839-10.839v-33.068c0-5.976-4.862-10.839-10.839-10.839h-14.798v-34.457h14.798
			c5.977,0,10.839-4.863,10.839-10.839v-33.069c0-5.976-4.862-10.838-10.839-10.838h-14.798v-34.458h14.798
			c5.977,0,10.839-4.862,10.839-10.838V240.46c0-5.976-4.862-10.838-10.839-10.838h-27.082
			C237.658,229.622,232.794,234.484,232.794,240.46z M247.563,269.598v-25.207h19.222v25.207H247.563z M255.917,333.594h10.868
			v25.208h-10.868V333.594z M255.917,422.798h10.868v25.208h-10.868V422.798z M483.591,497.231H28.409
			c-2.217,0-4.021-1.804-4.021-4.022s1.804-4.021,4.021-4.021h455.183c2.217,0,4.021,1.804,4.021,4.021
			C487.613,495.426,485.809,497.231,483.591,497.231z"/>
	</g>
</g>
<g>
	<g>
		<path d="M211.196,51.215h-27.083c-5.976,0-10.839,4.862-10.839,10.838v33.069c0,5.976,4.863,10.838,10.839,10.838h27.083
			c5.976,0,10.838-4.862,10.838-10.838V62.053C222.036,56.077,217.174,51.215,211.196,51.215z M207.265,91.191h-19.222V65.984
			h19.222V91.191z"/>
	</g>
</g>
<g>
	<g>
		<path d="M270.715,51.215h-27.082c-5.976,0-10.839,4.862-10.839,10.838v33.069c0,5.977,4.863,10.839,10.839,10.839h27.082
			c5.977,0,10.839-4.862,10.839-10.838v-33.07C281.554,56.077,276.692,51.215,270.715,51.215z M266.785,91.191h-19.222V65.984
			h19.222V91.191z"/>
	</g>
</g>
<g>
	<g>
		<path d="M330.236,51.215h-27.083c-5.976,0-10.838,4.862-10.838,10.838v33.069c-0.001,5.977,4.862,10.839,10.838,10.839h27.083
			c5.976,0,10.838-4.862,10.838-10.838v-33.07C341.074,56.077,336.212,51.215,330.236,51.215z M326.306,91.191h-19.221V65.984
			h19.221V91.191z"/>
	</g>
</g>
<g>
	<g>
		<path d="M211.196,140.418h-27.083c-5.976,0-10.839,4.862-10.839,10.838v33.069c0,5.976,4.863,10.838,10.839,10.838h27.083
			c5.976,0,10.838-4.862,10.838-10.838v-33.069C222.036,145.28,217.174,140.418,211.196,140.418z M207.265,180.395h-19.222v-25.207
			h19.222V180.395z"/>
	</g>
</g>
<g>
	<g>
		<path d="M270.715,140.419h-27.082c-5.976,0-10.839,4.862-10.839,10.838v33.069c0,5.976,4.863,10.838,10.839,10.838h27.082
			c5.977,0,10.839-4.862,10.839-10.838v-33.069C281.554,145.281,276.692,140.419,270.715,140.419z M266.785,180.395h-19.222v-25.207
			h19.222V180.395z"/>
	</g>
</g>
<g>
	<g>
		<path d="M330.236,140.419h-27.083c-5.976,0-10.838,4.862-10.838,10.838v33.069c-0.001,5.976,4.862,10.838,10.838,10.838h27.083
			c5.976,0,10.838-4.862,10.838-10.838v-33.069C341.074,145.281,336.212,140.419,330.236,140.419z M326.306,180.395h-19.221v-25.207
			h19.221V180.395z"/>
	</g>
</g>
<g>
	<g>
		<path d="M330.236,229.622h-27.083c-5.976,0-10.838,4.862-10.838,10.838v33.069c-0.001,5.976,4.862,10.838,10.838,10.838h27.083
			c5.976,0,10.838-4.862,10.838-10.838V240.46C341.074,234.484,336.212,229.622,330.236,229.622z M326.306,269.598h-19.221v-25.207
			h19.221V269.598z"/>
	</g>
</g>
<g>
	<g>
		<path d="M330.236,318.825h-27.083c-5.976,0-10.838,4.862-10.838,10.838v33.069c-0.001,5.977,4.862,10.839,10.838,10.839h27.083
			c5.976,0,10.838-4.863,10.838-10.839v-33.069C341.074,323.687,336.212,318.825,330.236,318.825z M326.306,358.802h-19.221v-25.208
			h19.221V358.802z"/>
	</g>
</g>
<g>
	<g>
		<path d="M330.236,408.029h-27.083c-5.976,0-10.838,4.863-10.838,10.839v33.068c-0.001,5.976,4.862,10.839,10.838,10.839h27.083
			c5.976,0,10.838-4.862,10.838-10.839v-33.068C341.074,412.892,336.212,408.029,330.236,408.029z M326.306,448.006h-19.221v-25.208
			h19.221V448.006z"/>
	</g>
</g>
<g>
</g>
<g>
</g>
<g>
</g>
<g>
</g>
<g>
</g>
<g>
</g>
<g>
</g>
<g>
</g>
<g>
</g>
<g>
</g>
<g>
</g>
<g>
</g>
<g>
</g>
<g>
</g>
<g>
</g>
</svg>
