<?xml version="1.0" encoding="iso-8859-1"?>
<!-- Generator: Adobe Illustrator 19.0.0, SVG Export Plug-In . SVG Version: 6.00 Build 0)  -->
<svg version="1.1" id="Capa_1" xmlns="http://www.w3.org/2000/svg" xmlns:xlink="http://www.w3.org/1999/xlink" x="0px" y="0px"
	 viewBox="0 0 512.002 512.002" style="enable-background:new 0 0 512.002 512.002;" xml:space="preserve">
<g>
	<g>
		<path d="M475.641,471.001h-1.116c-3.8-16.357-15.33-28.783-30.352-33.36V247.367l10.988,11.078
			c4.359,4.396,10.169,6.828,16.359,6.851c0.028,0,0.057,0,0.085,0c6.158,0,11.952-2.389,16.322-6.732
			c9.049-8.992,9.102-23.678,0.117-32.734l-51.831-52.255c-2.918-2.941-7.667-2.96-10.606-0.044
			c-2.941,2.917-2.961,7.666-0.044,10.606l51.832,52.256c3.165,3.19,3.146,8.363-0.042,11.531c-1.539,1.529-3.58,2.371-5.749,2.371
			c-0.01,0-0.021,0-0.03,0c-2.181-0.008-4.228-0.865-5.763-2.413L267.749,48.202c-2.569-2.59-5.844-4.206-9.391-4.709
			c-0.776-0.11-1.56-0.186-2.358-0.186c-0.556,0-1.107,0.027-1.653,0.081c-3.82,0.376-7.357,2.052-10.096,4.814L46.188,247.883
			c-1.536,1.549-3.582,2.405-5.763,2.413c-0.01,0-0.02,0-0.03,0c-2.169,0-4.211-0.842-5.75-2.371
			c-3.188-3.168-3.207-8.341-0.042-11.532L252.936,16.276c0.816-0.823,1.904-1.276,3.063-1.276c1.159,0,2.247,0.453,3.063,1.276
			l133.67,134.762c2.918,2.941,7.666,2.96,10.606,0.044c2.941-2.917,2.961-7.666,0.044-10.606L269.714,5.714
			C266.059,2.029,261.189,0,256,0c-5.189,0-10.059,2.029-13.713,5.714l-93.551,94.315v-9.302h1.793c5.498,0,9.971-4.474,9.971-9.972
			v-20.27c0-5.498-4.473-9.972-9.971-9.972H75.114c-5.498,0-9.971,4.474-9.971,9.972v20.271c0,5.498,4.473,9.972,9.971,9.972h1.793
			v81.715L23.954,225.83c-8.984,9.058-8.932,23.741,0.117,32.736c4.371,4.343,10.164,6.731,16.322,6.731c0.028,0,0.057,0,0.085,0
			c6.19-0.022,12-2.454,16.359-6.85l10.988-11.078v92.929c0,4.143,3.358,7.5,7.5,7.5s7.5-3.357,7.5-7.5V232.246l172.075-173.48
			c0.375-0.378,0.805-0.458,1.099-0.458c0.294,0,0.724,0.08,1.099,0.458l172.074,173.48v202.05
			c-0.114-0.125-0.236-0.242-0.351-0.366c-0.301-0.326-0.61-0.643-0.919-0.96c-0.348-0.357-0.697-0.712-1.053-1.058
			c-0.319-0.31-0.644-0.612-0.97-0.913c-0.363-0.335-0.729-0.667-1.101-0.991c-0.335-0.293-0.675-0.579-1.018-0.862
			c-0.378-0.313-0.759-0.622-1.146-0.924c-0.351-0.274-0.704-0.543-1.062-0.809c-0.393-0.292-0.789-0.577-1.189-0.858
			c-0.364-0.255-0.73-0.506-1.101-0.752c-0.407-0.27-0.819-0.533-1.233-0.792c-0.376-0.235-0.753-0.467-1.135-0.692
			c-0.421-0.249-0.847-0.489-1.275-0.725c-0.387-0.214-0.774-0.427-1.166-0.631c-0.435-0.227-0.875-0.443-1.316-0.657
			c-0.396-0.192-0.791-0.385-1.191-0.567c-0.449-0.205-0.903-0.397-1.358-0.59c-0.403-0.17-0.805-0.342-1.213-0.503
			c-0.463-0.182-0.932-0.351-1.401-0.52c-0.407-0.147-0.813-0.298-1.225-0.435c-0.48-0.16-0.966-0.305-1.451-0.451
			c-0.408-0.123-0.814-0.251-1.226-0.365c-0.499-0.137-1.003-0.257-1.506-0.38c-0.406-0.099-0.809-0.205-1.217-0.294
			c-0.521-0.114-1.047-0.209-1.572-0.307c-0.397-0.075-0.792-0.158-1.192-0.223c-0.553-0.091-1.112-0.159-1.669-0.232
			c-0.377-0.049-0.751-0.109-1.129-0.151c-0.623-0.068-1.25-0.111-1.876-0.156c-0.318-0.023-0.633-0.059-0.952-0.076
			c-0.947-0.052-1.897-0.079-2.851-0.079c-4.693,0-9.275,0.617-13.653,1.787c-15.638,4.177-28.69,15.395-35.033,30.686
			c-0.713,0.283-1.406,0.588-2.087,0.905c-0.198,0.092-0.389,0.191-0.584,0.286c-0.476,0.232-0.947,0.469-1.407,0.718
			c-0.225,0.122-0.447,0.247-0.668,0.372c-0.426,0.242-0.845,0.491-1.256,0.747c-0.211,0.132-0.423,0.263-0.631,0.398
			c-0.438,0.286-0.864,0.583-1.284,0.885c-0.158,0.114-0.321,0.224-0.477,0.34c-0.57,0.426-1.125,0.865-1.66,1.322
			c-0.056,0.048-0.108,0.1-0.164,0.148c-0.473,0.409-0.932,0.83-1.377,1.263c-0.159,0.155-0.311,0.315-0.466,0.473
			c-0.335,0.34-0.664,0.685-0.983,1.039c-0.165,0.184-0.327,0.369-0.488,0.557c-0.302,0.352-0.596,0.712-0.882,1.077
			c-0.146,0.186-0.293,0.37-0.435,0.56c-0.315,0.421-0.617,0.853-0.911,1.291c-0.094,0.139-0.193,0.274-0.285,0.415
			c-0.38,0.585-0.743,1.184-1.086,1.797c-0.064,0.115-0.121,0.235-0.184,0.35c-0.272,0.5-0.535,1.008-0.782,1.526
			c-0.101,0.211-0.195,0.427-0.292,0.641c-0.198,0.438-0.389,0.881-0.57,1.331c-0.096,0.238-0.189,0.477-0.279,0.719
			c-0.171,0.455-0.332,0.917-0.485,1.384c-0.076,0.232-0.156,0.462-0.228,0.697c-0.033,0.106-0.071,0.208-0.103,0.315h-11.813
			v-144.66c0-10.364-8.432-18.796-18.796-18.796h-69.515c-10.364,0-18.796,8.432-18.796,18.796v144.655h-11.814
			c-0.03-0.102-0.067-0.199-0.098-0.301c-0.077-0.25-0.161-0.495-0.242-0.742c-0.148-0.448-0.303-0.893-0.467-1.331
			c-0.096-0.256-0.195-0.511-0.297-0.763c-0.173-0.43-0.356-0.853-0.545-1.271c-0.105-0.233-0.207-0.468-0.317-0.698
			c-0.232-0.483-0.477-0.957-0.73-1.424c-0.08-0.148-0.153-0.302-0.236-0.448c-0.338-0.603-0.694-1.191-1.068-1.766
			c-0.109-0.168-0.228-0.33-0.34-0.496c-0.276-0.408-0.558-0.813-0.852-1.207c-0.154-0.206-0.314-0.407-0.473-0.609
			c-0.273-0.347-0.552-0.69-0.84-1.025c-0.172-0.201-0.345-0.4-0.522-0.596c-0.303-0.336-0.616-0.664-0.935-0.988
			c-0.17-0.173-0.337-0.349-0.512-0.519c-0.416-0.404-0.846-0.796-1.286-1.18c-0.085-0.074-0.166-0.154-0.252-0.227
			c-0.528-0.45-1.075-0.883-1.636-1.303c-0.175-0.131-0.359-0.255-0.537-0.383c-0.4-0.287-0.804-0.569-1.22-0.841
			c-0.222-0.145-0.449-0.285-0.675-0.426c-0.395-0.246-0.797-0.485-1.206-0.717c-0.235-0.134-0.47-0.266-0.709-0.396
			c-0.441-0.238-0.891-0.465-1.347-0.687c-0.214-0.104-0.424-0.213-0.641-0.314c-0.676-0.314-1.364-0.616-2.072-0.898
			c-8.119-19.572-27.23-32.474-48.687-32.474c-0.954,0-1.904,0.028-2.851,0.079c-0.321,0.018-0.639,0.053-0.959,0.077
			c-0.624,0.045-1.248,0.088-1.868,0.156c-0.381,0.042-0.759,0.102-1.139,0.152c-0.554,0.073-1.109,0.141-1.66,0.231
			c-0.403,0.066-0.801,0.15-1.202,0.225c-0.521,0.098-1.043,0.192-1.561,0.305c-0.414,0.091-0.823,0.198-1.234,0.299
			c-0.497,0.122-0.995,0.24-1.488,0.376c-0.418,0.115-0.83,0.245-1.244,0.371c-0.479,0.145-0.958,0.287-1.432,0.446
			c-0.417,0.139-0.828,0.292-1.242,0.441c-0.463,0.167-0.925,0.333-1.383,0.513c-0.414,0.163-0.822,0.338-1.232,0.511
			c-0.448,0.189-0.895,0.379-1.337,0.58c-0.408,0.186-0.81,0.382-1.212,0.578c-0.434,0.211-0.867,0.424-1.295,0.647
			c-0.399,0.208-0.793,0.424-1.186,0.642c-0.421,0.233-0.841,0.469-1.255,0.714c-0.388,0.229-0.771,0.465-1.154,0.704
			c-0.408,0.255-0.812,0.513-1.213,0.779c-0.377,0.25-0.749,0.505-1.119,0.765c-0.394,0.276-0.784,0.557-1.17,0.844
			c-0.363,0.27-0.723,0.543-1.079,0.822c-0.38,0.298-0.756,0.602-1.128,0.91c-0.347,0.288-0.692,0.578-1.032,0.875
			c-0.367,0.32-0.728,0.648-1.087,0.979c-0.33,0.305-0.659,0.611-0.982,0.924c-0.353,0.343-0.698,0.693-1.042,1.046
			c-0.313,0.321-0.625,0.642-0.93,0.972c-0.114,0.123-0.234,0.239-0.347,0.363v-47.397c0-4.143-3.358-7.5-7.5-7.5
			c-4.142,0-7.5,3.357-7.5,7.5v50.711c-15.046,4.555-26.558,17.018-30.354,33.392H36.36c-11.303,0-20.499,9.195-20.499,20.499
			c0,11.304,9.196,20.499,20.499,20.499h439.282c11.304,0,20.499-9.195,20.499-20.499
			C496.141,480.198,486.944,471.001,475.641,471.001z M133.734,115.151l-41.827,42.17V90.728h41.827V115.151z M80.143,65.514h65.355
			v10.214H80.143V65.514z M337.656,470.976c0.277-0.458,0.576-0.897,0.892-1.323c0.092-0.125,0.192-0.243,0.288-0.365
			c0.235-0.3,0.478-0.594,0.732-0.877c0.123-0.137,0.25-0.272,0.377-0.405c0.256-0.268,0.523-0.526,0.798-0.779
			c0.126-0.116,0.25-0.234,0.38-0.347c0.375-0.325,0.765-0.638,1.173-0.936c0.035-0.026,0.067-0.054,0.102-0.08
			c0.446-0.321,0.915-0.623,1.4-0.912c0.145-0.086,0.297-0.167,0.445-0.25c0.354-0.199,0.715-0.392,1.088-0.576
			c0.18-0.089,0.363-0.175,0.548-0.26c0.378-0.174,0.767-0.338,1.163-0.496c0.174-0.069,0.345-0.141,0.523-0.208
			c0.575-0.214,1.164-0.417,1.777-0.598c2.348-0.696,4.208-2.495,4.982-4.818c5.14-15.416,19.52-25.773,35.784-25.773
			c12.172,0,23.662,5.928,30.737,15.856c1.592,2.232,4.271,3.421,6.997,3.095c0.614-0.073,1.228-0.124,1.842-0.157
			c0.169-0.009,0.336-0.009,0.505-0.015c0.432-0.016,0.864-0.026,1.295-0.023c0.395,0.003,0.792,0.023,1.189,0.043
			c0.255,0.013,0.51,0.018,0.765,0.038c0.632,0.049,1.265,0.116,1.9,0.208c0.016,0.002,0.032,0.003,0.048,0.006
			c9.716,1.417,19.582,7.839,23.614,19.978H337.642C337.647,470.993,337.651,470.985,337.656,470.976z M221.242,322.55h69.515
			c2.093,0,3.796,1.703,3.796,3.796v144.655h-77.106V326.346h-0.001C217.446,324.253,219.149,322.55,221.242,322.55z
			 M76.616,451.022c0.003,0,0.005,0,0.008-0.001c0.647-0.094,1.293-0.162,1.937-0.212c0.254-0.019,0.509-0.025,0.763-0.038
			c0.398-0.02,0.795-0.04,1.19-0.043c0.431-0.003,0.863,0.007,1.295,0.023c0.169,0.006,0.336,0.006,0.505,0.015
			c0.614,0.034,1.228,0.084,1.841,0.157c2.723,0.32,5.406-0.861,6.997-3.095c7.075-9.929,18.565-15.856,30.737-15.856
			c16.263,0,30.644,10.357,35.785,25.773c0.194,0.581,0.455,1.129,0.775,1.635c0.96,1.519,2.446,2.661,4.207,3.183
			c0.614,0.182,1.204,0.385,1.78,0.599c0.175,0.065,0.343,0.136,0.515,0.205c0.4,0.159,0.792,0.324,1.172,0.499
			c0.183,0.084,0.363,0.169,0.542,0.257c0.375,0.185,0.739,0.379,1.095,0.58c0.146,0.083,0.296,0.162,0.439,0.247
			c0.485,0.29,0.956,0.592,1.403,0.914c0.032,0.023,0.06,0.048,0.092,0.071c0.412,0.3,0.805,0.616,1.183,0.944
			c0.13,0.112,0.252,0.23,0.378,0.345c0.275,0.253,0.543,0.512,0.799,0.78c0.128,0.133,0.254,0.268,0.377,0.405
			c0.254,0.283,0.496,0.576,0.731,0.875c0.096,0.123,0.197,0.242,0.29,0.367c0.315,0.426,0.614,0.864,0.89,1.321
			c0.005,0.009,0.009,0.018,0.015,0.026H52.997C57.03,458.861,66.899,452.438,76.616,451.022z M475.641,497H36.359
			c-3.032,0-5.499-2.467-5.499-5.499s2.467-5.499,5.499-5.499h439.282c3.032,0,5.499,2.467,5.499,5.499S478.673,497,475.641,497z"/>
	</g>
</g>
<g>
	<g>
		<path d="M386.874,324.692h-44.666c-6.06,0-10.989,4.929-10.989,10.989v55.832c0,6.06,4.93,10.989,10.989,10.989h44.666
			c6.06,0,10.989-4.93,10.989-10.989v-55.832C397.863,329.621,392.933,324.692,386.874,324.692z M382.864,387.503h-36.645v-47.811
			h36.645V387.503z"/>
	</g>
</g>
<g>
	<g>
		<path d="M169.791,324.692h-44.666c-6.06,0-10.989,4.93-10.989,10.989v55.832c0,6.06,4.93,10.989,10.989,10.989h44.666
			c6.06,0,10.989-4.93,10.989-10.989v-55.832C180.78,329.621,175.85,324.692,169.791,324.692z M165.78,387.502h-36.645v-47.811
			h36.645V387.502z"/>
	</g>
</g>
<g>
	<g>
		<path d="M338.558,180.635l-75.96-76.58c-1.758-1.774-4.102-2.751-6.599-2.751c-2.497,0-4.841,0.977-6.596,2.749
			c-0.008,0.008-75.953,76.574-75.961,76.582c-2.65,2.671-3.427,6.641-1.98,10.114c1.447,3.473,4.813,5.719,8.577,5.719h151.922
			c3.764,0,7.13-2.245,8.576-5.719C341.984,187.275,341.207,183.305,338.558,180.635z M248.499,181.468h-54.757l15.017-15.14h39.74
			V181.468z M248.499,151.327h-24.86l24.86-25.064V151.327z M263.5,126.263l24.861,25.064H263.5V126.263z M263.5,181.468v-15.14
			h39.74l15.017,15.14H263.5z"/>
	</g>
</g>
<g>
	<g>
		<path d="M275.814,387.756c-4.006,0-7.252,3.246-7.252,7.252v14.988c0,4.006,3.246,7.252,7.252,7.252
			c4.006,0,7.252-3.246,7.252-7.252v-14.988C283.066,391.003,279.82,387.756,275.814,387.756z"/>
	</g>
</g>
<g>
</g>
<g>
</g>
<g>
</g>
<g>
</g>
<g>
</g>
<g>
</g>
<g>
</g>
<g>
</g>
<g>
</g>
<g>
</g>
<g>
</g>
<g>
</g>
<g>
</g>
<g>
</g>
<g>
</g>
</svg>
