<?xml version="1.0" encoding="iso-8859-1"?>
<!-- Generator: Adobe Illustrator 19.0.0, SVG Export Plug-In . SVG Version: 6.00 Build 0)  -->
<svg version="1.1" id="Capa_1" xmlns="http://www.w3.org/2000/svg" xmlns:xlink="http://www.w3.org/1999/xlink" x="0px" y="0px"
	 viewBox="0 0 512 512" style="enable-background:new 0 0 512 512;" xml:space="preserve">
<g>
	<g>
		<path d="M426.679,400.898c-4.238,0-7.673,3.435-7.673,7.673v10.231c0.001,4.238,3.436,7.673,7.673,7.673
			c4.238,0,7.673-3.435,7.673-7.673v-10.231C434.352,404.333,430.917,400.898,426.679,400.898z"/>
	</g>
</g>
<g>
	<g>
		<path d="M492.476,451.474h-12.578V210.382c0-4.238-3.435-7.673-7.673-7.673c-4.238,0-7.673,3.435-7.673,7.673v48.366h-33.064
			v-78.365c0-8.402-6.836-15.238-15.238-15.238H288.963c-8.402,0-15.238,6.836-15.238,15.238v78.365h-33.064V70.462l223.891,62.351
			v29.896c0,4.238,3.435,7.673,7.673,7.673c4.238,0,7.673-3.435,7.673-7.673v-25.623l10.551,2.938
			c0.929,0.259,1.871,0.386,2.804,0.386c2.226-0.001,4.403-0.724,6.235-2.116c2.6-1.975,4.091-4.979,4.091-8.244v-19.892
			c0-4.63-3.115-8.731-7.575-9.973l-281.24-78.322c-3.143-0.875-6.439-0.245-9.039,1.729c-2.6,1.975-4.091,4.98-4.091,8.244v19.892
			c0,4.63,3.115,8.731,7.575,9.973l16.106,4.485v27.883H76.844c-6.108,0-11.078,4.97-11.078,11.078v19.26
			c0,6.108,4.97,11.078,11.078,11.078h9.369v147.794H35.476c-10.969,0-19.894,8.924-19.894,19.894v148.699
			C6.7,453.702,0,461.582,0,470.998c0,10.766,8.758,19.524,19.524,19.524h472.952c10.766,0,19.524-8.758,19.524-19.524
			C512,460.232,503.242,451.474,492.476,451.474z M464.553,298.628v152.846h-12.317v-94.525
			c-0.001-6.467-5.262-11.728-11.728-11.728h-51.319c-6.467,0-11.727,5.261-11.727,11.727v94.525h-136.8V298.628H464.553z
			 M436.889,360.567v90.907h-44.082v-90.907H436.889z M289.071,180.491h127.07v78.257h-127.07V180.491z M464.552,274.094v9.188
			H101.558v-9.188H464.552z M149.93,258.748v-66.731h44.404v66.731H149.93z M216.981,47.938v-9.526l271.252,75.541v9.526
			L216.981,47.938z M225.316,135.488v123.26H209.68V189.32c0-6.975-5.675-12.649-12.65-12.649h-49.796
			c-6.975,0-12.65,5.674-12.65,12.649v69.428h-33.025v-123.26H225.316z M81.111,120.142v-10.725h144.204v10.725H81.111z
			 M30.928,303.175c0-2.508,2.04-4.548,4.548-4.548h189.839v152.846l-25.442,0v-95.385c0-6.395-5.203-11.598-11.598-11.598H66.848
			c-6.395,0-11.598,5.203-11.598,11.598v95.385l0.686,0.001H55.25H30.928V303.175z M84.038,373.163H70.596v-13.327h113.932v13.327
			H131.71c-4.238,0-7.673,3.435-7.673,7.673c0,4.238,3.435,7.673,7.673,7.673h52.818v13.327H70.596v-13.327h13.442
			c4.238,0,7.673-3.435,7.673-7.673C91.711,376.598,88.276,373.163,84.038,373.163z M184.528,417.181v13.327H70.596v-13.327H184.528
			z M184.527,445.854v5.619H70.596v-5.619H184.527z M492.476,475.177H19.524c-2.304,0-4.178-1.875-4.178-4.179
			c0-2.304,1.874-4.179,4.178-4.179h472.952c2.304,0,4.178,1.875,4.178,4.179C496.654,473.302,494.78,475.177,492.476,475.177z"/>
	</g>
</g>
<g>
	<g>
		<path d="M360.096,407.037h-4.209V359.83c0-6.467-5.262-11.73-11.73-11.73h-72.301c-6.468,0-11.73,5.262-11.73,11.73v47.207H256
			c-4.238,0-7.673,3.435-7.673,7.673c0,4.238,3.435,7.673,7.673,7.673h11.799h80.415h11.882c4.238,0,7.673-3.435,7.673-7.673
			C367.769,410.472,364.333,407.037,360.096,407.037z M340.541,407.037h-65.069v-43.591h65.069V407.037z"/>
	</g>
</g>
<g>
</g>
<g>
</g>
<g>
</g>
<g>
</g>
<g>
</g>
<g>
</g>
<g>
</g>
<g>
</g>
<g>
</g>
<g>
</g>
<g>
</g>
<g>
</g>
<g>
</g>
<g>
</g>
<g>
</g>
</svg>
