<?xml version="1.0" encoding="iso-8859-1"?>
<!-- Generator: Adobe Illustrator 19.0.0, SVG Export Plug-In . SVG Version: 6.00 Build 0)  -->
<svg version="1.1" id="Capa_1" xmlns="http://www.w3.org/2000/svg" xmlns:xlink="http://www.w3.org/1999/xlink" x="0px" y="0px"
	 viewBox="0 0 512 512" style="enable-background:new 0 0 512 512;" xml:space="preserve">
<g>
	<g>
		<path d="M477.642,470.998h-4.439c-1.964-18.773-15.407-34.172-33.163-39.052V180.303c0-4.028-3.265-7.293-7.293-7.293
			c-4.028,0-7.293,3.265-7.293,7.293v250.086c-0.027,0.001-0.054,0.005-0.081,0.007c-0.307,0.017-0.61,0.052-0.916,0.076
			c-0.569,0.044-1.138,0.086-1.702,0.15c-0.349,0.04-0.694,0.097-1.041,0.145c-0.515,0.071-1.031,0.14-1.542,0.228
			c-0.362,0.063-0.72,0.14-1.079,0.211c-0.49,0.097-0.98,0.193-1.465,0.306c-0.365,0.085-0.725,0.182-1.086,0.276
			c-0.472,0.122-0.944,0.245-1.411,0.382c-0.363,0.107-0.721,0.224-1.081,0.339c-0.458,0.147-0.914,0.296-1.366,0.457
			c-0.358,0.128-0.713,0.264-1.067,0.4c-0.444,0.171-0.886,0.346-1.323,0.531c-0.352,0.148-0.7,0.303-1.048,0.461
			c-0.361,0.164-0.722,0.328-1.079,0.501v-48.423c0-4.83-3.93-8.76-8.761-8.76h-35.254c-4.831,0-8.761,3.93-8.761,8.76v48.935
			c0,4.83,3.93,8.76,8.761,8.76h31.248c-0.219,0.227-0.445,0.447-0.66,0.68c-0.396,0.427-0.775,0.872-1.156,1.315
			c-0.186,0.217-0.38,0.425-0.562,0.646c-0.555,0.672-1.094,1.361-1.614,2.07c-0.821,0.167-1.63,0.367-2.43,0.588
			c-0.259,0.071-0.511,0.156-0.767,0.233c-0.54,0.162-1.076,0.329-1.605,0.515c-0.294,0.103-0.583,0.216-0.874,0.327
			c-0.484,0.184-0.963,0.375-1.437,0.579c-0.295,0.127-0.586,0.257-0.876,0.391c-0.467,0.216-0.927,0.442-1.383,0.677
			c-0.274,0.141-0.549,0.281-0.82,0.428c-0.481,0.263-0.952,0.541-1.419,0.825c-0.229,0.139-0.462,0.271-0.687,0.415
			c-0.614,0.391-1.215,0.801-1.803,1.227c-0.067,0.049-0.138,0.092-0.205,0.141c-0.656,0.483-1.294,0.989-1.916,1.514
			c-0.174,0.147-0.34,0.305-0.512,0.455c-0.438,0.384-0.872,0.774-1.291,1.179c-0.21,0.203-0.412,0.413-0.617,0.62
			c-0.368,0.373-0.73,0.751-1.082,1.139c-0.207,0.229-0.411,0.462-0.612,0.696c-0.336,0.391-0.663,0.789-0.982,1.193
			c-0.19,0.24-0.379,0.48-0.563,0.725c-0.324,0.433-0.635,0.876-0.94,1.324c-0.156,0.229-0.317,0.454-0.468,0.687
			c-0.361,0.557-0.704,1.127-1.035,1.705c-0.077,0.134-0.161,0.262-0.236,0.398c-0.401,0.719-0.777,1.454-1.13,2.204
			c-0.091,0.193-0.169,0.392-0.257,0.586c-0.206,0.459-0.418,0.915-0.606,1.384h-94.132V363.75l2.759,1.835
			c0.543,0.361,1.102,0.691,1.675,0.991c0.116,0.061,0.239,0.105,0.356,0.163c3.052,1.513,6.463,2.147,9.85,1.854
			c0.975-0.084,1.947-0.221,2.907-0.462c1.264-0.318,2.482-0.766,3.636-1.333c0.081-0.04,0.156-0.09,0.236-0.132
			c0.492-0.25,0.978-0.512,1.444-0.804c0.005-0.003,0.008-0.006,0.013-0.009c0.538-0.338,1.059-0.702,1.559-1.092
			c0.076-0.059,0.144-0.129,0.219-0.19c1.918-1.545,3.538-3.462,4.723-5.674c2.755-5.147,2.857-11.002,0.728-16.001h29.859
			c4.831,0,8.76-3.93,8.76-8.76v-48.935c0-4.83-3.929-8.76-8.76-8.76h-35.258c-4.831,0-8.76,3.93-8.76,8.76v44.617l-15.944-10.606
			V285.2c0-4.83-3.93-8.76-8.761-8.76H226.71c-4.475,0-8.17,3.374-8.691,7.71l-17.358-11.546V45.344h224.793v89.648
			c0,4.028,3.265,7.293,7.293,7.293c4.028,0,7.293-3.265,7.293-7.293V43.018c0-6.76-5.5-12.26-12.26-12.26h-11.187V10.496
			C416.592,4.709,411.884,0,406.096,0H220.018c-5.788,0-10.496,4.709-10.496,10.496v20.261h-11.187c-6.76,0-12.26,5.5-12.26,12.26
			v219.885l-8.948-5.952c-3.462-2.304-7.935-2.304-11.395-0.001l-29.81,19.83v-9.838c0-6.459-5.254-11.713-11.713-11.713H89.397
			c-6.459,0-11.713,5.255-11.713,11.713v11.617c0,4.467,2.515,8.355,6.202,10.33v22.505L48.84,334.708
			c-8,5.321-10.613,15.721-6.078,24.19c2.46,4.597,6.772,7.961,11.828,9.232c1.485,0.373,2.999,0.557,4.507,0.557
			c3.626,0,7.215-1.062,10.281-3.101h0.001l2.759-1.835v35.992c0,4.028,3.265,7.293,7.293,7.293c4.028,0,7.293-3.265,7.293-7.293
			v-45.695l84.706-56.347l84.706,56.347v116.951h-93.503v-78.361c0-5.756-4.683-10.439-10.439-10.439h-47.634
			c-5.757,0-10.439,4.683-10.439,10.439v78.361h-7.397v-25.944c0-4.028-3.265-7.293-7.293-7.293c-4.028,0-7.293,3.265-7.293,7.293
			v25.944h-37.78c-11.304,0-20.501,9.197-20.501,20.501s9.196,20.5,20.5,20.5h443.286c11.304,0,20.501-9.197,20.501-20.501
			S488.947,470.998,477.642,470.998z M393.579,429.545h-23.604v-37.283h23.604V429.545z M301.256,291.027h23.603v37.283h-23.603
			V291.027z M224.108,14.586h177.897v16.172H224.108V14.586z M381.709,470.795c0.071-0.088,0.144-0.174,0.216-0.26
			c0.298-0.356,0.605-0.704,0.924-1.04c0.029-0.03,0.056-0.062,0.085-0.092c0.342-0.356,0.7-0.696,1.065-1.028
			c0.086-0.078,0.173-0.156,0.26-0.232c0.371-0.326,0.749-0.643,1.141-0.944c0.032-0.025,0.066-0.047,0.098-0.072
			c0.37-0.281,0.752-0.547,1.14-0.804c0.093-0.061,0.186-0.124,0.28-0.184c0.413-0.264,0.834-0.517,1.266-0.753
			c0.073-0.04,0.148-0.077,0.222-0.116c0.39-0.208,0.787-0.404,1.191-0.589c0.088-0.04,0.175-0.083,0.264-0.122
			c0.452-0.2,0.913-0.384,1.38-0.553c0.099-0.036,0.199-0.069,0.298-0.103c0.432-0.15,0.87-0.288,1.314-0.411
			c0.063-0.017,0.125-0.038,0.189-0.055c0.488-0.13,0.984-0.241,1.484-0.338c0.115-0.022,0.23-0.043,0.345-0.063
			c0.512-0.091,1.027-0.171,1.55-0.226c2.231-0.235,4.23-1.483,5.418-3.384c5.69-9.093,15.475-14.522,26.173-14.522
			c0.6,0,1.205,0.021,1.821,0.06c0.045,0.003,0.09,0.006,0.135,0.009c0.612,0.041,1.235,0.099,1.881,0.179
			c0.027,0.003,0.054,0.003,0.081,0.006c13.604,1.732,24.472,12.352,26.57,25.84h-76.946
			C381.608,470.931,381.655,470.861,381.709,470.795z M232.535,291.027h23.604v18.483l-23.604-15.702V291.027z M92.27,269.813
			h29.066v5.872H92.27V269.813z M115.134,290.271L115.134,290.271v0.337L98.473,301.69v-11.419H115.134z M177.126,283.971
			c-1.197-0.796-2.518-1.297-3.873-1.543c-0.114-0.021-0.226-0.059-0.34-0.076c-0.029-0.004-0.059-0.002-0.088-0.006
			c-2.007-0.276-4.07,0.053-5.932,0.972c-0.395,0.195-0.786,0.404-1.16,0.653l-104.433,69.47c-1.267,0.844-2.521,0.702-3.156,0.543
			c-0.633-0.159-1.804-0.627-2.523-1.97c-0.968-1.807-0.41-4.026,1.297-5.162l114.512-76.174l114.511,76.174
			c1.706,1.135,2.264,3.354,1.296,5.162c-0.719,1.343-1.89,1.81-2.523,1.969c-0.634,0.159-1.887,0.301-3.156-0.543l-14.091-9.374
			L177.126,283.971z M108.707,396.783h39.339v74.215h-39.339V396.783z M477.642,497.414H34.356c-3.262,0-5.915-2.654-5.915-5.915
			c0-3.261,2.653-5.915,5.915-5.915h443.286c3.262,0,5.915,2.654,5.915,5.915C483.558,494.76,480.905,497.414,477.642,497.414z"/>
	</g>
</g>
<g>
	<g>
		<path d="M237.056,392.673h-57.162c-5.182,0-9.397,4.216-9.397,9.397v34.768c0,4.028,3.265,7.293,7.293,7.293h61.369
			c4.028,0,7.293-3.265,7.293-7.293V402.07C246.452,396.888,242.238,392.673,237.056,392.673z M231.866,429.545h-46.784v-22.287
			h46.784V429.545z"/>
	</g>
</g>
<g>
	<g>
		<path d="M261.965,73.97H226.71c-4.831,0-8.76,3.93-8.76,8.761v48.935c0,4.83,3.929,8.76,8.76,8.76h35.255
			c4.831,0,8.76-3.93,8.76-8.76V82.731h0.001C270.725,77.9,266.797,73.97,261.965,73.97z M256.139,125.839h-23.603V88.556h23.603
			V125.839z"/>
	</g>
</g>
<g>
	<g>
		<path d="M330.686,73.97h-35.256c-4.831,0-8.76,3.93-8.76,8.761v48.935c0,4.83,3.929,8.76,8.76,8.76h35.255
			c4.831,0,8.76-3.93,8.76-8.76V82.731h0.001C339.446,77.9,335.517,73.97,330.686,73.97z M324.859,125.839h-23.603V88.556h23.603
			V125.839z"/>
	</g>
</g>
<g>
	<g>
		<path d="M399.405,73.97H364.15c-4.831,0-8.761,3.93-8.761,8.761v48.935c0,4.83,3.93,8.76,8.761,8.76h35.254
			c4.831,0,8.761-3.93,8.761-8.76V82.731C408.165,77.9,404.236,73.97,399.405,73.97z M393.579,125.839h-23.604V88.556h23.604
			V125.839z"/>
	</g>
</g>
<g>
	<g>
		<path d="M261.965,175.206H226.71c-4.831,0-8.76,3.93-8.76,8.76V232.9c0,4.831,3.929,8.761,8.76,8.761h35.255
			c4.831,0,8.76-3.93,8.76-8.761v-48.935C270.725,179.136,266.796,175.206,261.965,175.206z M256.139,227.075h-23.603v-37.283
			h23.603V227.075z"/>
	</g>
</g>
<g>
	<g>
		<path d="M330.686,175.206h-35.256c-4.831,0-8.76,3.93-8.76,8.76V232.9c0,4.831,3.929,8.761,8.76,8.761h35.255
			c4.831,0,8.76-3.93,8.76-8.761v-48.935C339.446,179.136,335.515,175.206,330.686,175.206z M324.859,227.075h-23.603v-37.283
			h23.603V227.075z"/>
	</g>
</g>
<g>
	<g>
		<path d="M399.405,175.206H364.15c-4.831,0-8.761,3.93-8.761,8.76V232.9c0,4.831,3.93,8.761,8.761,8.761h35.254
			c4.831,0,8.761-3.93,8.761-8.761v-48.934C408.165,179.136,404.236,175.206,399.405,175.206z M393.579,227.075h-23.604v-37.283
			h23.604V227.075z"/>
	</g>
</g>
<g>
	<g>
		<path d="M399.405,276.441H364.15c-4.831,0-8.761,3.93-8.761,8.76v48.935c0,4.83,3.93,8.76,8.761,8.76h35.254
			c4.831,0,8.761-3.93,8.761-8.76v-48.935C408.165,280.371,404.234,276.441,399.405,276.441z M393.579,328.31h-23.604v-37.283
			h23.604V328.31z"/>
	</g>
</g>
<g>
	<g>
		<path d="M332.152,377.676h-38.189c-4.028,0-7.293,3.265-7.293,7.293v51.869c0,4.028,3.265,7.293,7.293,7.293h38.189
			c4.028,0,7.293-3.265,7.293-7.293v-51.869C339.444,380.941,336.179,377.676,332.152,377.676z M324.859,429.545h-23.603v-37.283
			h23.603V429.545z"/>
	</g>
</g>
<g>
</g>
<g>
</g>
<g>
</g>
<g>
</g>
<g>
</g>
<g>
</g>
<g>
</g>
<g>
</g>
<g>
</g>
<g>
</g>
<g>
</g>
<g>
</g>
<g>
</g>
<g>
</g>
<g>
</g>
</svg>
