<?xml version="1.0" encoding="iso-8859-1"?>
<!-- Generator: Adobe Illustrator 19.0.0, SVG Export Plug-In . SVG Version: 6.00 Build 0)  -->
<svg version="1.1" id="Capa_1" xmlns="http://www.w3.org/2000/svg" xmlns:xlink="http://www.w3.org/1999/xlink" x="0px" y="0px"
	 viewBox="0 0 33.001 33.001" style="enable-background:new 0 0 33.001 33.001;" xml:space="preserve">
<g>
	<path d="M10.58,29.68c-0.128,0-0.256-0.049-0.354-0.146l-6.759-6.759c-0.094-0.094-0.146-0.221-0.146-0.354s0.053-0.26,0.146-0.354
		L22.068,3.467c0.188-0.188,0.52-0.188,0.707,0l6.758,6.759c0.195,0.195,0.195,0.512,0,0.707L10.933,29.533
		C10.836,29.631,10.708,29.68,10.58,29.68z M4.528,22.421l6.052,6.052l17.894-17.894l-6.051-6.052L4.528,22.421z"/>
	<path d="M26.296,8.194c-0.129,0-0.257-0.05-0.354-0.146l-0.99-0.989c-0.161-0.16-0.193-0.409-0.078-0.605l2.97-5.082
		c0.436-0.746,1.178-1.238,2.035-1.349c0.856-0.108,1.7,0.177,2.311,0.788l0,0c0.611,0.611,0.898,1.453,0.788,2.311
		c-0.111,0.857-0.602,1.599-1.348,2.035l-5.081,2.97C26.47,8.172,26.382,8.194,26.296,8.194z M25.933,6.624l0.444,0.444l4.748-2.775
		c0.477-0.278,0.791-0.753,0.861-1.3c0.07-0.548-0.113-1.085-0.503-1.476c-0.391-0.39-0.931-0.572-1.476-0.503
		c-0.547,0.07-1.021,0.384-1.3,0.86L25.933,6.624z"/>
	<path d="M2.761,33.001c-0.729,0-1.425-0.286-1.95-0.812l0,0c-0.611-0.611-0.898-1.453-0.788-2.311
		c0.111-0.857,0.602-1.599,1.348-2.035l5.082-2.97c0.196-0.115,0.446-0.084,0.606,0.078l0.989,0.989
		c0.161,0.161,0.193,0.409,0.078,0.605l-2.97,5.082c-0.436,0.746-1.178,1.238-2.035,1.349C3.001,32.993,2.88,33.001,2.761,33.001z
		 M1.518,31.483c0.391,0.391,0.93,0.573,1.476,0.503c0.547-0.07,1.021-0.384,1.3-0.86l2.775-4.749l-0.443-0.444l-4.749,2.775
		c-0.477,0.278-0.791,0.753-0.861,1.3C0.945,30.555,1.128,31.092,1.518,31.483L1.518,31.483z"/>
</g>
<g>
</g>
<g>
</g>
<g>
</g>
<g>
</g>
<g>
</g>
<g>
</g>
<g>
</g>
<g>
</g>
<g>
</g>
<g>
</g>
<g>
</g>
<g>
</g>
<g>
</g>
<g>
</g>
<g>
</g>
</svg>
