<?xml version="1.0" encoding="iso-8859-1"?>
<!-- Generator: Adobe Illustrator 19.0.0, SVG Export Plug-In . SVG Version: 6.00 Build 0)  -->
<svg version="1.1" id="Capa_1" xmlns="http://www.w3.org/2000/svg" xmlns:xlink="http://www.w3.org/1999/xlink" x="0px" y="0px"
	 viewBox="0 0 29.201 29.201" style="enable-background:new 0 0 29.201 29.201;" xml:space="preserve">
<g>
	<path d="M3.726,25.284c-1.622,0-2.845-0.434-3.423-1.434c-0.987-1.711,0.463-4.539,3.978-7.76c0.204-0.187,0.521-0.173,0.707,0.031
		c0.187,0.204,0.173,0.52-0.031,0.707c-3.001,2.749-4.488,5.309-3.788,6.521c1.099,1.903,7.836,0.841,15.747-3.726
		c7.911-4.568,12.199-9.871,11.1-11.774c-0.699-1.211-3.659-1.204-7.538,0.017c-0.261,0.083-0.543-0.063-0.627-0.326
		c-0.083-0.264,0.063-0.544,0.327-0.627c4.546-1.432,7.718-1.272,8.704,0.437c1.833,3.176-4.539,9.141-11.466,13.14
		C12.67,23.23,7.255,25.284,3.726,25.284z"/>
	<path d="M7.272,19.488c-1.074,0-1.809-0.31-2.162-0.921c-0.138-0.239-0.056-0.545,0.183-0.683c0.238-0.141,0.545-0.057,0.683,0.183
		c0.21,0.363,1.073,0.614,2.859,0.229c1.745-0.376,3.859-1.25,5.955-2.46c4.695-2.711,6.857-5.623,6.34-6.519
		c-0.138-0.239-0.056-0.545,0.183-0.683c0.238-0.14,0.544-0.057,0.683,0.183c1.128,1.955-2.613,5.521-6.707,7.884
		c-2.183,1.261-4.401,2.175-6.244,2.572C8.38,19.417,7.787,19.488,7.272,19.488z"/>
	<path d="M5.451,18.871c-0.173,0-0.341-0.09-0.434-0.25C2.315,13.94,3.924,7.933,8.605,5.23c4.681-2.706,10.689-1.095,13.392,3.587
		c0.138,0.239,0.056,0.545-0.183,0.683c-0.239,0.139-0.545,0.056-0.683-0.183c-2.427-4.203-7.822-5.648-12.026-3.222
		c-4.203,2.428-5.648,7.822-3.222,12.025c0.138,0.239,0.056,0.545-0.183,0.683C5.621,18.849,5.536,18.871,5.451,18.871z"/>
	<path d="M14.251,24.81c-1.467,0-2.938-0.33-4.3-0.993c-0.249-0.12-0.352-0.42-0.231-0.668s0.42-0.351,0.668-0.23
		c2.637,1.282,5.727,1.175,8.263-0.289c2.541-1.467,4.179-4.091,4.381-7.02c0.019-0.275,0.265-0.482,0.534-0.465
		c0.275,0.02,0.483,0.258,0.464,0.533c-0.226,3.262-2.05,6.184-4.879,7.816C17.638,24.37,15.947,24.81,14.251,24.81z"/>
</g>
<g>
</g>
<g>
</g>
<g>
</g>
<g>
</g>
<g>
</g>
<g>
</g>
<g>
</g>
<g>
</g>
<g>
</g>
<g>
</g>
<g>
</g>
<g>
</g>
<g>
</g>
<g>
</g>
<g>
</g>
</svg>
