<?xml version="1.0" encoding="iso-8859-1"?>
<!-- Generator: Adobe Illustrator 19.0.0, SVG Export Plug-In . SVG Version: 6.00 Build 0)  -->
<svg version="1.1" id="Capa_1" xmlns="http://www.w3.org/2000/svg" xmlns:xlink="http://www.w3.org/1999/xlink" x="0px" y="0px"
	 viewBox="0 0 32.999 32.999" style="enable-background:new 0 0 32.999 32.999;" xml:space="preserve">
<g>
	<path d="M3.027,9.742c-0.126,0-0.252-0.019-0.377-0.06C1.829,9.409,0.478,8.379,0.171,7.662C-0.347,6.456,4.61,2.416,4.662,2.379
		L4.84,2.256c1.585-1.099,2.977-1.996,3.85-1.817c0.919,0.184,2.293,0.894,3.031,1.848c0.169,0.218,0.129,0.532-0.09,0.701
		c-0.218,0.168-0.532,0.13-0.701-0.09c-0.561-0.725-1.701-1.332-2.436-1.479C7.952,1.333,6.106,2.594,5.41,3.078L5.231,3.202
		C4.173,3.935,1.484,6.627,1.143,7.365c0.273,0.41,1.231,1.172,1.823,1.368c0.154,0.053,0.577-0.138,0.912-0.29
		c0.566-0.257,1.269-0.569,2.051-0.526c0.696,0.042,2.813,0.176,3.642-0.575C9.793,7.14,9.902,6.897,9.914,6.574
		c0.011-0.275,0.208-0.461,0.52-0.48c0.275,0.011,0.49,0.243,0.48,0.52c-0.023,0.593-0.249,1.088-0.673,1.47
		C9.227,8.999,7.372,9.008,5.867,8.915C5.332,8.88,4.804,9.122,4.292,9.354C3.855,9.552,3.436,9.742,3.027,9.742z"/>
	<path d="M12.788,5.638c-1.105,0-1.741-0.488-1.772-0.514c-0.217-0.171-0.254-0.485-0.083-0.702
		c0.172-0.217,0.485-0.253,0.702-0.083c0.02,0.015,0.614,0.446,1.7,0.247c0.685-0.125,1.173-0.532,1.248-0.853
		c0.015-0.062,0.049-0.206-0.191-0.386c-0.694-0.521-2.931-0.122-3.867,0.262c-0.256,0.104-0.548-0.018-0.652-0.273
		s0.018-0.548,0.273-0.652c0.834-0.342,3.646-1.035,4.847-0.136c0.484,0.364,0.69,0.88,0.564,1.415
		c-0.179,0.759-1.019,1.419-2.042,1.607C13.254,5.619,13.01,5.638,12.788,5.638z"/>
	<path d="M24.991,32.999h-1.783c-0.137,0-0.267-0.056-0.361-0.154c-0.094-0.099-0.145-0.231-0.139-0.367
		c0.002-0.027,0.119-2.777,0.119-4.098c0-0.646-0.306-1.613-0.602-2.548c-0.278-0.877-0.565-1.784-0.662-2.581
		c-0.206-1.688,0.034-2.472,0.062-2.556c0.088-0.263,0.371-0.403,0.633-0.316c0.262,0.088,0.403,0.371,0.316,0.633
		c-0.001,0.001-0.196,0.661-0.019,2.118c0.086,0.705,0.359,1.566,0.623,2.4c0.333,1.054,0.648,2.049,0.648,2.85
		c0,1.001-0.063,2.748-0.099,3.619h0.878c0.227-1.021,0.413-2.996,0.52-4.117l0.04-0.421c0.091-0.933,0.9-1.963,1.683-2.959
		c0.417-0.529,0.81-1.03,1.078-1.485c0.706-1.2,1.352-3.45,1.163-4.994c-0.033-0.27,0.155-0.516,0.423-0.556
		c0.275-0.031,0.521,0.143,0.566,0.41c0.051,0.297,0.204,0.501,0.455,0.606c0.316,0.134,0.676,0.071,0.867-0.062
		c0.353-0.288,0.666-2.569,0.317-3.81c-0.264-0.938-0.892-2.268-3.432-4.258c-2.451-1.92-6.354-1.77-7.634-1.716
		c-3.42,0.133-5.232,0.164-5.742-0.034c-0.437-0.169-0.79-0.766-1.331-1.725c-0.251-0.444-0.535-0.949-0.707-1.121
		c-0.195-0.195-0.195-0.513,0-0.707c0.195-0.195,0.512-0.195,0.707,0c0.269,0.27,0.548,0.764,0.871,1.337
		c0.248,0.439,0.663,1.177,0.845,1.295c0.445,0.147,3.712,0.02,5.283-0.043c3.768-0.156,6.482,0.482,8.325,1.927
		c2.159,1.692,3.324,3.164,3.777,4.773c0.352,1.25,0.246,4.244-0.714,4.905c-0.5,0.342-1.231,0.407-1.821,0.159
		c-0.021-0.009-0.041-0.018-0.061-0.026c-0.147,1.52-0.703,3.134-1.298,4.145c-0.302,0.514-0.734,1.064-1.153,1.597
		c-0.661,0.842-1.411,1.796-1.473,2.437l-0.04,0.42c-0.133,1.396-0.354,3.734-0.654,4.675
		C25.401,32.858,25.209,32.999,24.991,32.999z"/>
	<path d="M14.216,32.999h-2.1c-0.143,0-0.278-0.061-0.373-0.167s-0.14-0.249-0.124-0.391c0.004-0.03,0.354-3.074,0.354-4.26v-0.213
		c0.005-1.216,0.012-3.252-1.002-4.266c-0.47-0.47-1.311-1.142-2.201-1.854c-1.441-1.153-2.932-2.346-3.591-3.232
		c-1.022-1.376-1.683-3.545-1.683-5.526c0-1.24,0.736-2.555,1.328-3.61c0.269-0.48,0.522-0.935,0.59-1.189
		c0.069-0.266,0.338-0.435,0.609-0.357c0.268,0.069,0.428,0.342,0.357,0.609c-0.099,0.38-0.357,0.842-0.685,1.426
		c-0.534,0.955-1.2,2.143-1.2,3.122c0,1.753,0.597,3.734,1.485,4.931c0.582,0.782,2.086,1.986,3.413,3.048
		c0.913,0.729,1.774,1.419,2.283,1.928c1.308,1.308,1.3,3.604,1.295,4.977v0.209c0,0.934-0.194,2.862-0.298,3.817h1.141
		c0.113-0.715,0.217-2.224,0.297-3.38c0.081-1.173,0.157-2.28,0.244-2.814c0.115-0.716,0.593-1.583,1.055-2.422
		c0.384-0.697,0.781-1.418,0.846-1.85c0.04-0.272,0.301-0.46,0.567-0.421c0.273,0.04,0.462,0.294,0.421,0.567
		c-0.09,0.609-0.512,1.375-0.958,2.186c-0.421,0.765-0.856,1.555-0.944,2.1c-0.078,0.488-0.153,1.574-0.232,2.723
		c-0.145,2.085-0.251,3.487-0.423,3.977C14.618,32.865,14.429,32.999,14.216,32.999z"/>
	<path d="M4.591,3.261c-0.029,0-0.058-0.002-0.087-0.008c-2.128-0.37-2.317-1.429-2.301-1.866c0.028-0.695,0.625-1.315,1.33-1.382
		c1.069-0.095,2.896,1.088,3.25,1.327c0.229,0.154,0.288,0.465,0.134,0.694C6.764,2.254,6.454,2.318,6.223,2.161
		C5.465,1.648,4.153,0.95,3.628,1.001c-0.21,0.02-0.416,0.227-0.424,0.426C3.192,1.716,3.643,2.088,4.676,2.269
		c0.271,0.047,0.454,0.306,0.406,0.578C5.041,3.09,4.83,3.261,4.591,3.261z"/>
	<path d="M6.954,5.385c-0.417,0-0.757-0.34-0.757-0.758c0-0.417,0.34-0.757,0.757-0.757c0.418,0,0.758,0.34,0.758,0.757
		C7.712,5.045,7.372,5.385,6.954,5.385z M6.954,4.385c-0.134,0-0.242,0.108-0.242,0.242c0,0.268,0.485,0.268,0.485,0
		C7.197,4.494,7.088,4.385,6.954,4.385z"/>
	<path d="M15.568,24.64c-0.196,0-0.382-0.116-0.462-0.309c-0.105-0.255,0.015-0.547,0.271-0.653c1.821-0.756,5.98-0.273,6.992-0.023
		c0.269,0.066,0.432,0.338,0.365,0.605s-0.334,0.432-0.605,0.365c-1.196-0.298-4.936-0.62-6.369-0.023
		C15.697,24.627,15.633,24.64,15.568,24.64z"/>
</g>
<g>
</g>
<g>
</g>
<g>
</g>
<g>
</g>
<g>
</g>
<g>
</g>
<g>
</g>
<g>
</g>
<g>
</g>
<g>
</g>
<g>
</g>
<g>
</g>
<g>
</g>
<g>
</g>
<g>
</g>
</svg>
