<?xml version="1.0" encoding="iso-8859-1"?>
<!-- Generator: Adobe Illustrator 19.0.0, SVG Export Plug-In . SVG Version: 6.00 Build 0)  -->
<svg version="1.1" id="Capa_1" xmlns="http://www.w3.org/2000/svg" xmlns:xlink="http://www.w3.org/1999/xlink" x="0px" y="0px"
	 viewBox="0 0 33 33" style="enable-background:new 0 0 33 33;" xml:space="preserve">
<g>
	<path d="M16.5,33c-0.06,0-0.119-0.011-0.175-0.032C16.187,32.917,2.5,27.614,2.5,11.948V0.5C2.5,0.224,2.724,0,3,0h27
		c0.276,0,0.5,0.224,0.5,0.5v11.448c0,15.666-13.687,20.968-13.825,21.02C16.619,32.989,16.56,33,16.5,33z M3.5,1v10.948
		c0,14.026,11.436,19.351,13,20.012c1.563-0.663,13-6.005,13-20.012V1H3.5z"/>
</g>
<g>
</g>
<g>
</g>
<g>
</g>
<g>
</g>
<g>
</g>
<g>
</g>
<g>
</g>
<g>
</g>
<g>
</g>
<g>
</g>
<g>
</g>
<g>
</g>
<g>
</g>
<g>
</g>
<g>
</g>
</svg>
