<?xml version="1.0" encoding="iso-8859-1"?>
<!-- Generator: Adobe Illustrator 19.0.0, SVG Export Plug-In . SVG Version: 6.00 Build 0)  -->
<svg version="1.1" id="Capa_1" xmlns="http://www.w3.org/2000/svg" xmlns:xlink="http://www.w3.org/1999/xlink" x="0px" y="0px"
	 viewBox="0 0 33 33" style="enable-background:new 0 0 33 33;" xml:space="preserve">
<g>
	<path d="M30.626,33H2.375C1.065,33,0,31.935,0,30.626V2.375C0,1.065,1.065,0,2.375,0h28.251C31.935,0,33,1.065,33,2.375v28.251
		C33,31.935,31.935,33,30.626,33z M2.375,1C1.617,1,1,1.617,1,2.375v28.251C1,31.384,1.617,32,2.375,32h28.251
		C31.384,32,32,31.384,32,30.626V2.375C32,1.617,31.384,1,30.626,1H2.375z"/>
	<path d="M16.5,27.373c-5.995,0-10.872-4.878-10.872-10.873S10.505,5.628,16.5,5.628S27.373,10.505,27.373,16.5
		S22.495,27.373,16.5,27.373z M16.5,6.628c-5.443,0-9.872,4.429-9.872,9.872c0,5.444,4.429,9.873,9.872,9.873
		c5.444,0,9.873-4.429,9.873-9.873C26.373,11.057,21.944,6.628,16.5,6.628z"/>
	<g>
		<path d="M12.813,17.114c-0.276,0-0.5-0.224-0.5-0.5V12.75c0-0.276,0.224-0.5,0.5-0.5s0.5,0.224,0.5,0.5v3.864
			C13.313,16.891,13.089,17.114,12.813,17.114z"/>
		<path d="M20.188,17.114c-0.276,0-0.5-0.224-0.5-0.5V12.75c0-0.276,0.224-0.5,0.5-0.5s0.5,0.224,0.5,0.5v3.864
			C20.688,16.891,20.464,17.114,20.188,17.114z"/>
		<path d="M17.559,20.75h-1.871c-0.276,0-0.5-0.224-0.5-0.5s0.224-0.5,0.5-0.5h1.871c0.276,0,0.5,0.224,0.5,0.5
			S17.835,20.75,17.559,20.75z"/>
	</g>
</g>
<g>
</g>
<g>
</g>
<g>
</g>
<g>
</g>
<g>
</g>
<g>
</g>
<g>
</g>
<g>
</g>
<g>
</g>
<g>
</g>
<g>
</g>
<g>
</g>
<g>
</g>
<g>
</g>
<g>
</g>
</svg>
