<?xml version="1.0" encoding="iso-8859-1"?>
<!-- Generator: Adobe Illustrator 19.0.0, SVG Export Plug-In . SVG Version: 6.00 Build 0)  -->
<svg version="1.1" id="Capa_1" xmlns="http://www.w3.org/2000/svg" xmlns:xlink="http://www.w3.org/1999/xlink" x="0px" y="0px"
	 viewBox="0 0 33 33" style="enable-background:new 0 0 33 33;" xml:space="preserve">
<g>
	<path d="M7.282,32.706c-0.081,0-0.163-0.02-0.237-0.06c-0.162-0.087-0.263-0.257-0.263-0.44v-7.124C2.405,22.806,0,18.821,0,13.828
		C0,6.112,7.093,0.294,16.5,0.294S33,6.112,33,13.828c0,7.715-7.093,13.533-16.5,13.533c-0.309,0-0.612-0.017-0.916-0.033
		l-0.02-0.001l-8.007,5.296C7.474,32.678,7.378,32.706,7.282,32.706z M16.5,1.294C7.664,1.294,1,6.683,1,13.828
		c0,3.323,1.128,7.842,6.503,10.499c0.17,0.084,0.278,0.258,0.278,0.448v6.501l7.369-4.874c0.09-0.06,0.199-0.095,0.302-0.082
		l0.186,0.01c0.286,0.016,0.571,0.031,0.861,0.031c8.836,0,15.5-5.388,15.5-12.533S25.336,1.294,16.5,1.294z"/>
	<g>
		<g>
			<path d="M11.179,19.305c-0.131,0-0.259-0.052-0.354-0.146c-0.117-0.116-0.168-0.283-0.138-0.445
				c0.69-3.686,0.95-3.947,1.062-4.059l6.65-6.649c0.219-0.221,0.512-0.343,0.824-0.343c0,0,0.001,0,0.001,0
				c0.312,0,0.605,0.122,0.826,0.343l1.93,1.929c0.453,0.457,0.453,1.197,0.001,1.651l-6.651,6.65
				c-0.111,0.11-0.37,0.37-4.059,1.061C11.24,19.302,11.209,19.305,11.179,19.305z M12.492,15.325
				c-0.133,0.287-0.427,1.569-0.682,2.849c1.319-0.263,2.642-0.567,2.873-0.693l6.59-6.602c0.066-0.066,0.065-0.172-0.001-0.24
				l-1.929-1.927c-0.041-0.041-0.087-0.05-0.119-0.05l0,0c-0.031,0-0.077,0.009-0.117,0.049L12.492,15.325z"/>
		</g>
		<path d="M14.976,18.382c-0.128,0-0.256-0.049-0.354-0.146l-2.874-2.874c-0.195-0.195-0.195-0.512,0-0.707s0.512-0.195,0.707,0
			l2.874,2.874c0.195,0.195,0.195,0.512,0,0.707C15.232,18.333,15.104,18.382,14.976,18.382z"/>
	</g>
</g>
<g>
</g>
<g>
</g>
<g>
</g>
<g>
</g>
<g>
</g>
<g>
</g>
<g>
</g>
<g>
</g>
<g>
</g>
<g>
</g>
<g>
</g>
<g>
</g>
<g>
</g>
<g>
</g>
<g>
</g>
</svg>
