<?xml version="1.0" encoding="iso-8859-1"?>
<!-- Generator: Adobe Illustrator 19.0.0, SVG Export Plug-In . SVG Version: 6.00 Build 0)  -->
<svg version="1.1" id="Capa_1" xmlns="http://www.w3.org/2000/svg" xmlns:xlink="http://www.w3.org/1999/xlink" x="0px" y="0px"
	 viewBox="0 0 33 33" style="enable-background:new 0 0 33 33;" xml:space="preserve">
<g>
	<path d="M7.282,32.706c-0.081,0-0.163-0.02-0.237-0.06c-0.162-0.087-0.263-0.257-0.263-0.44v-7.124C2.405,22.806,0,18.821,0,13.828
		C0,6.112,7.093,0.294,16.5,0.294S33,6.112,33,13.828c0,7.715-7.093,13.533-16.5,13.533c-0.309,0-0.612-0.017-0.916-0.033
		l-0.02-0.001l-8.007,5.296C7.474,32.678,7.378,32.706,7.282,32.706z M16.5,1.294C7.664,1.294,1,6.683,1,13.828
		c0,3.323,1.128,7.842,6.503,10.499c0.17,0.084,0.278,0.258,0.278,0.448v6.501l7.369-4.874c0.09-0.06,0.199-0.095,0.302-0.082
		l0.186,0.01c0.286,0.016,0.571,0.031,0.861,0.031c8.836,0,15.5-5.388,15.5-12.533S25.336,1.294,16.5,1.294z"/>
	<g>
		<path d="M23.987,9.631H9.013c-0.276,0-0.5-0.224-0.5-0.5s0.224-0.5,0.5-0.5h14.974c0.276,0,0.5,0.224,0.5,0.5
			S24.263,9.631,23.987,9.631z"/>
		<path d="M23.987,14.497H9.013c-0.276,0-0.5-0.224-0.5-0.5s0.224-0.5,0.5-0.5h14.974c0.276,0,0.5,0.224,0.5,0.5
			S24.263,14.497,23.987,14.497z"/>
		<path d="M16.5,19.361H9.013c-0.276,0-0.5-0.224-0.5-0.5s0.224-0.5,0.5-0.5H16.5c0.276,0,0.5,0.224,0.5,0.5
			S16.776,19.361,16.5,19.361z"/>
	</g>
</g>
<g>
</g>
<g>
</g>
<g>
</g>
<g>
</g>
<g>
</g>
<g>
</g>
<g>
</g>
<g>
</g>
<g>
</g>
<g>
</g>
<g>
</g>
<g>
</g>
<g>
</g>
<g>
</g>
<g>
</g>
</svg>
