<?xml version="1.0" encoding="iso-8859-1"?>
<!-- Generator: Adobe Illustrator 19.0.0, SVG Export Plug-In . SVG Version: 6.00 Build 0)  -->
<svg version="1.1" id="Capa_1" xmlns="http://www.w3.org/2000/svg" xmlns:xlink="http://www.w3.org/1999/xlink" x="0px" y="0px"
	 viewBox="0 0 34.85 34.85" style="enable-background:new 0 0 34.85 34.85;" xml:space="preserve">
<g>
	<path d="M17.424,26.788c-5.163,0-9.363-4.2-9.363-9.363c0-5.164,4.2-9.364,9.363-9.364s9.363,4.201,9.363,9.364
		C26.788,22.588,22.587,26.788,17.424,26.788z M17.424,9.061c-4.611,0-8.363,3.752-8.363,8.364c0,4.611,3.752,8.363,8.363,8.363
		s8.363-3.752,8.363-8.363C25.788,12.813,22.036,9.061,17.424,9.061z"/>
	<g>
		<path d="M17.424,4.982c-0.276,0-0.5-0.224-0.5-0.5V0.5c0-0.276,0.224-0.5,0.5-0.5s0.5,0.224,0.5,0.5v3.982
			C17.924,4.759,17.701,4.982,17.424,4.982z"/>
		<path d="M17.424,34.85c-0.276,0-0.5-0.224-0.5-0.5v-3.982c0-0.276,0.224-0.5,0.5-0.5s0.5,0.224,0.5,0.5v3.982
			C17.924,34.626,17.701,34.85,17.424,34.85z"/>
	</g>
	<g>
		<path d="M4.482,17.925H0.5c-0.276,0-0.5-0.224-0.5-0.5s0.224-0.5,0.5-0.5h3.981c0.276,0,0.5,0.224,0.5,0.5
			S4.758,17.925,4.482,17.925z"/>
		<path d="M34.349,17.925h-3.982c-0.276,0-0.5-0.224-0.5-0.5s0.224-0.5,0.5-0.5h3.982c0.276,0,0.5,0.224,0.5,0.5
			S34.625,17.925,34.349,17.925z"/>
	</g>
	<g>
		<path d="M8.274,8.771c-0.128,0-0.256-0.049-0.354-0.146L5.104,5.811c-0.195-0.195-0.195-0.512,0-0.707s0.512-0.195,0.707,0
			l2.816,2.814c0.195,0.195,0.195,0.512,0,0.707C8.53,8.723,8.402,8.771,8.274,8.771z"/>
		<path d="M29.393,29.893c-0.128,0-0.256-0.049-0.354-0.146l-2.816-2.817c-0.195-0.195-0.195-0.512,0-0.707s0.512-0.195,0.707,0
			l2.816,2.817c0.195,0.195,0.195,0.512,0,0.707C29.649,29.844,29.521,29.893,29.393,29.893z"/>
	</g>
	<g>
		<path d="M5.458,29.893c-0.128,0-0.256-0.049-0.354-0.146c-0.195-0.195-0.195-0.512,0-0.707l2.816-2.817
			c0.195-0.195,0.512-0.195,0.707,0s0.195,0.512,0,0.707l-2.816,2.817C5.713,29.844,5.585,29.893,5.458,29.893z"/>
		<path d="M26.577,8.771c-0.128,0-0.256-0.049-0.354-0.146c-0.195-0.195-0.195-0.512,0-0.707l2.816-2.814
			c0.195-0.195,0.512-0.195,0.707,0s0.195,0.512,0,0.707L26.93,8.625C26.833,8.723,26.705,8.771,26.577,8.771z"/>
	</g>
</g>
<g>
</g>
<g>
</g>
<g>
</g>
<g>
</g>
<g>
</g>
<g>
</g>
<g>
</g>
<g>
</g>
<g>
</g>
<g>
</g>
<g>
</g>
<g>
</g>
<g>
</g>
<g>
</g>
<g>
</g>
</svg>
