<?xml version="1.0" encoding="iso-8859-1"?>
<!-- Generator: Adobe Illustrator 19.0.0, SVG Export Plug-In . SVG Version: 6.00 Build 0)  -->
<svg version="1.1" id="Capa_1" xmlns="http://www.w3.org/2000/svg" xmlns:xlink="http://www.w3.org/1999/xlink" x="0px" y="0px"
	 viewBox="0 0 33 33" style="enable-background:new 0 0 33 33;" xml:space="preserve">
<g>
	<path d="M20.548,24.71h-8.097c-0.276,0-0.5-0.224-0.5-0.5V7.932c0-2.508,2.041-4.548,4.548-4.548s4.548,2.041,4.548,4.548V24.21
		C21.048,24.487,20.825,24.71,20.548,24.71z M12.952,23.71h7.097V7.932c0-1.957-1.592-3.548-3.548-3.548s-3.548,1.592-3.548,3.548
		V23.71z"/>
	<path d="M22.24,24.71H10.76c-0.276,0-0.5-0.224-0.5-0.5s0.224-0.5,0.5-0.5h11.48c0.276,0,0.5,0.224,0.5,0.5
		S22.517,24.71,22.24,24.71z"/>
	<path d="M20.548,17.326h-8.097c-0.276,0-0.5-0.224-0.5-0.5s0.224-0.5,0.5-0.5h8.097c0.276,0,0.5,0.224,0.5,0.5
		S20.825,17.326,20.548,17.326z"/>
	<path d="M20.548,33h-8.097c-0.276,0-0.5-0.224-0.5-0.5s0.224-0.5,0.5-0.5h8.097c0.276,0,0.5,0.224,0.5,0.5S20.825,33,20.548,33z"/>
	<path d="M16.5,33c-0.276,0-0.5-0.224-0.5-0.5V16.826c0-0.276,0.224-0.5,0.5-0.5s0.5,0.224,0.5,0.5V32.5
		C17,32.776,16.776,33,16.5,33z"/>
	<path d="M16.5,4.383c-0.276,0-0.5-0.224-0.5-0.5V0.5C16,0.224,16.224,0,16.5,0S17,0.224,17,0.5v3.383
		C17,4.16,16.776,4.383,16.5,4.383z"/>
</g>
<g>
</g>
<g>
</g>
<g>
</g>
<g>
</g>
<g>
</g>
<g>
</g>
<g>
</g>
<g>
</g>
<g>
</g>
<g>
</g>
<g>
</g>
<g>
</g>
<g>
</g>
<g>
</g>
<g>
</g>
</svg>
