<?xml version="1.0" encoding="iso-8859-1"?>
<!-- Generator: Adobe Illustrator 19.0.0, SVG Export Plug-In . SVG Version: 6.00 Build 0)  -->
<svg version="1.1" id="Capa_1" xmlns="http://www.w3.org/2000/svg" xmlns:xlink="http://www.w3.org/1999/xlink" x="0px" y="0px"
	 viewBox="0 0 33.85 33.85" style="enable-background:new 0 0 33.85 33.85;" xml:space="preserve">
<g>
	<path d="M10.719,12.52c-0.08,0-0.16-0.019-0.235-0.059C8.329,11.308,6.99,9.074,6.99,6.631c0-3.644,2.964-6.609,6.608-6.609
		c1.724,0,3.356,0.66,4.596,1.859c1.298,1.257,2.013,2.944,2.013,4.75c0,2.424-1.324,4.65-3.456,5.81
		c-0.242,0.131-0.546,0.042-0.678-0.201s-0.042-0.546,0.201-0.678c1.81-0.984,2.934-2.873,2.934-4.931
		c0-1.533-0.607-2.965-1.708-4.031c-1.052-1.018-2.437-1.578-3.9-1.578c-3.092,0-5.608,2.516-5.608,5.609
		c0,2.073,1.136,3.969,2.965,4.948c0.244,0.13,0.335,0.434,0.205,0.677C11.07,12.424,10.898,12.52,10.719,12.52z"/>
	<g>
		<path d="M10.928,23.735c-0.276,0-0.5-0.224-0.5-0.5V6.874c0-1.93,1.481-3.5,3.303-3.5s3.303,1.57,3.303,3.5v10.637
			c0,0.276-0.224,0.5-0.5,0.5s-0.5-0.224-0.5-0.5V6.874c0-1.378-1.033-2.5-2.303-2.5s-2.303,1.122-2.303,2.5v16.361
			C11.428,23.512,11.204,23.735,10.928,23.735z"/>
		<path d="M13.093,33.827c-0.128,0-0.256-0.049-0.354-0.146l-7.413-7.412c-0.824-0.824-1.376-1.835-1.555-2.846
			c-0.189-1.077,0.062-2.025,0.708-2.67c1.288-1.289,3.416-1.255,4.745,0.074l2.056,2.056c0.195,0.195,0.195,0.512,0,0.707
			s-0.512,0.195-0.707,0l-2.056-2.056c-0.938-0.938-2.432-0.973-3.331-0.074c-0.409,0.409-0.562,1.044-0.43,1.79
			c0.143,0.811,0.596,1.632,1.277,2.313l7.413,7.412c0.195,0.195,0.195,0.512,0,0.707C13.349,33.778,13.221,33.827,13.093,33.827z"
			/>
		<path d="M22.14,18.583c-0.276,0-0.5-0.224-0.5-0.5V15.04c0-1.378-1.033-2.5-2.303-2.5s-2.303,1.122-2.303,2.5v3.043
			c0,0.276-0.224,0.5-0.5,0.5s-0.5-0.224-0.5-0.5V15.04c0-1.93,1.482-3.5,3.303-3.5s3.303,1.57,3.303,3.5v3.043
			C22.64,18.359,22.416,18.583,22.14,18.583z"/>
		<path d="M27.744,18.583c-0.276,0-0.5-0.224-0.5-0.5v-2.604c0-1.161-1.033-2.104-2.302-2.104s-2.302,0.944-2.302,2.104v2.604
			c0,0.276-0.224,0.5-0.5,0.5s-0.5-0.224-0.5-0.5v-2.604c0-1.712,1.481-3.104,3.302-3.104s3.302,1.393,3.302,3.104v2.604
			C28.244,18.359,28.021,18.583,27.744,18.583z"/>
		<path d="M33.35,25.001c-0.276,0-0.5-0.224-0.5-0.5v-7.877c0-1.378-1.033-2.5-2.303-2.5c-1.248,0-2.303,0.792-2.303,1.729v2.229
			c0,0.276-0.224,0.5-0.5,0.5s-0.5-0.224-0.5-0.5v-2.229c0-1.505,1.481-2.729,3.303-2.729s3.303,1.57,3.303,3.5v7.877
			C33.85,24.777,33.626,25.001,33.35,25.001z"/>
		<path d="M29.35,33.823H13.131c-0.276,0-0.518-0.224-0.518-0.5s0.206-0.5,0.482-0.5H29.35c1.93,0,3.5-1.57,3.5-3.5v-5.396
			c0-0.276,0.224-0.5,0.5-0.5s0.5,0.224,0.5,0.5v5.396C33.85,31.805,31.831,33.823,29.35,33.823z"/>
	</g>
	<path d="M6.609,29.411C2.965,29.411,0,26.446,0,22.802s2.965-6.608,6.609-6.608c1.711,0,3.334,0.652,4.57,1.835
		c0.2,0.191,0.207,0.508,0.016,0.707c-0.192,0.2-0.508,0.206-0.707,0.016c-1.049-1.004-2.426-1.558-3.878-1.558
		C3.516,17.194,1,19.71,1,22.802s2.516,5.608,5.609,5.608c0.488,0,0.971-0.063,1.436-0.185c0.267-0.068,0.541,0.088,0.611,0.355
		c0.07,0.267-0.089,0.541-0.355,0.611C7.752,29.337,7.183,29.411,6.609,29.411z"/>
</g>
<g>
</g>
<g>
</g>
<g>
</g>
<g>
</g>
<g>
</g>
<g>
</g>
<g>
</g>
<g>
</g>
<g>
</g>
<g>
</g>
<g>
</g>
<g>
</g>
<g>
</g>
<g>
</g>
<g>
</g>
</svg>
