<?xml version="1.0" encoding="iso-8859-1"?>
<!-- Generator: Adobe Illustrator 19.0.0, SVG Export Plug-In . SVG Version: 6.00 Build 0)  -->
<svg version="1.1" id="Capa_1" xmlns="http://www.w3.org/2000/svg" xmlns:xlink="http://www.w3.org/1999/xlink" x="0px" y="0px"
	 viewBox="0 0 32.634 32.634" style="enable-background:new 0 0 32.634 32.634;" xml:space="preserve">
<g>
	<path d="M16.317,32.634c-0.276,0-0.5-0.224-0.5-0.5V0.5c0-0.276,0.224-0.5,0.5-0.5s0.5,0.224,0.5,0.5v31.634
		C16.817,32.41,16.594,32.634,16.317,32.634z"/>
	<path d="M28.852,13.536c-0.128,0-0.256-0.049-0.354-0.146L16.319,1.207L4.135,13.39c-0.195,0.195-0.512,0.195-0.707,0
		s-0.195-0.512,0-0.707L15.966,0.146C16.059,0.053,16.186,0,16.319,0l0,0c0.133,0,0.26,0.053,0.354,0.146l12.533,12.536
		c0.195,0.195,0.195,0.512,0,0.707C29.108,13.487,28.98,13.536,28.852,13.536z"/>
</g>
<g>
</g>
<g>
</g>
<g>
</g>
<g>
</g>
<g>
</g>
<g>
</g>
<g>
</g>
<g>
</g>
<g>
</g>
<g>
</g>
<g>
</g>
<g>
</g>
<g>
</g>
<g>
</g>
<g>
</g>
</svg>
