<?xml version="1.0" encoding="iso-8859-1"?>
<!-- Generator: Adobe Illustrator 19.0.0, SVG Export Plug-In . SVG Version: 6.00 Build 0)  -->
<svg version="1.1" id="Capa_1" xmlns="http://www.w3.org/2000/svg" xmlns:xlink="http://www.w3.org/1999/xlink" x="0px" y="0px"
	 viewBox="0 0 31.224 31.224" style="enable-background:new 0 0 31.224 31.224;" xml:space="preserve">
<g>
	<g>
		<path d="M21.427,21.712h-11.38c-0.276,0-0.5-0.224-0.5-0.5s0.224-0.5,0.5-0.5h11.38c0.276,0,0.5,0.224,0.5,0.5
			S21.703,21.712,21.427,21.712z"/>
		<path d="M7.339,24.42c-1.77,0-3.209-1.439-3.209-3.208c0-1.77,1.439-3.209,3.209-3.209c1.769,0,3.208,1.439,3.208,3.209
			C10.547,22.98,9.107,24.42,7.339,24.42z M7.339,19.003c-1.218,0-2.209,0.991-2.209,2.209s0.991,2.208,2.209,2.208
			s2.208-0.99,2.208-2.208S8.557,19.003,7.339,19.003z"/>
		<path d="M24.135,24.42c-1.769,0-3.208-1.439-3.208-3.208c0-1.77,1.439-3.209,3.208-3.209c1.77,0,3.209,1.439,3.209,3.209
			C27.344,22.98,25.904,24.42,24.135,24.42z M24.135,19.003c-1.218,0-2.208,0.991-2.208,2.209s0.99,2.208,2.208,2.208
			s2.209-0.99,2.209-2.208S25.353,19.003,24.135,19.003z"/>
	</g>
	<path d="M21.431,21.712H10.048c-0.276,0-0.5-0.224-0.5-0.5s0.224-0.5,0.5-0.5h11.383c0.276,0,0.5,0.224,0.5,0.5
		S21.707,21.712,21.431,21.712z"/>
	<path d="M28.833,21.712h-1.992c-0.276,0-0.5-0.224-0.5-0.5s0.224-0.5,0.5-0.5h1.992c0.767,0,1.391-0.624,1.391-1.391v-1.931
		c0-0.712-0.29-1.408-0.796-1.911l-2.243-2.229c-0.042-0.042-0.076-0.091-0.102-0.145l-1.839-3.98
		c-0.371-0.803-1.182-1.321-2.065-1.321H2.584C1.711,7.804,1,8.515,1,9.388v9.934c0,0.767,0.623,1.391,1.39,1.391h2.236
		c0.276,0,0.5,0.224,0.5,0.5s-0.224,0.5-0.5,0.5H2.39C1.072,21.712,0,20.64,0,19.321V9.388c0-1.425,1.159-2.584,2.584-2.584h20.595
		c1.272,0,2.439,0.746,2.974,1.901l1.801,3.899l2.18,2.166c0.693,0.688,1.091,1.644,1.091,2.62v1.931
		C31.224,20.64,30.151,21.712,28.833,21.712z"/>
	<path d="M21.498,14.838H7.095c-0.276,0-0.5-0.224-0.5-0.5s0.224-0.5,0.5-0.5h14.403c0.276,0,0.5,0.224,0.5,0.5
		S21.774,14.838,21.498,14.838z"/>
</g>
<g>
</g>
<g>
</g>
<g>
</g>
<g>
</g>
<g>
</g>
<g>
</g>
<g>
</g>
<g>
</g>
<g>
</g>
<g>
</g>
<g>
</g>
<g>
</g>
<g>
</g>
<g>
</g>
<g>
</g>
</svg>
