<?xml version="1.0" encoding="iso-8859-1"?>
<!-- Generator: Adobe Illustrator 19.0.0, SVG Export Plug-In . SVG Version: 6.00 Build 0)  -->
<svg version="1.1" id="Capa_1" xmlns="http://www.w3.org/2000/svg" xmlns:xlink="http://www.w3.org/1999/xlink" x="0px" y="0px"
	 viewBox="0 0 32.283 32.283" style="enable-background:new 0 0 32.283 32.283;" xml:space="preserve">
<g>
	<path d="M7.509,21.5c-0.245,0-0.458-0.179-0.494-0.428L4.705,5.209C4.7,3.315,6.181,1.834,8.003,1.834s3.303,1.481,3.303,3.303
		l1.992,10.743c0.05,0.271-0.129,0.532-0.401,0.583c-0.273,0.05-0.533-0.129-0.583-0.401l-2-10.834
		c-0.008-1.36-1.042-2.394-2.311-2.394S5.7,3.867,5.7,5.137l2.304,15.792c0.04,0.273-0.149,0.527-0.422,0.566
		C7.556,21.499,7.532,21.5,7.509,21.5z"/>
	<path d="M18.412,17.043c-0.276,0-0.5-0.224-0.5-0.5V3.303c0-1.27-1.033-2.303-2.303-2.303s-2.303,1.033-2.303,2.303v13.24
		c0,0.276-0.224,0.5-0.5,0.5s-0.5-0.224-0.5-0.5V3.303C12.305,1.482,13.787,0,15.609,0s3.303,1.482,3.303,3.303v13.24
		C18.912,16.819,18.688,17.043,18.412,17.043z"/>
	<path d="M24.016,17.043c-0.276,0-0.5-0.224-0.5-0.5v-2.407c0-1.27-1.033-2.302-2.302-2.302s-2.302,1.033-2.302,2.302v2.407
		c0,0.276-0.224,0.5-0.5,0.5s-0.5-0.224-0.5-0.5v-2.407c0-1.821,1.481-3.302,3.302-3.302s3.302,1.481,3.302,3.302v2.407
		C24.516,16.819,24.293,17.043,24.016,17.043z"/>
	<path d="M29.622,23.461c-0.276,0-0.5-0.224-0.5-0.5v-8.074c0-1.27-1.033-2.303-2.303-2.303s-2.303,1.033-2.303,2.303v1.656
		c0,0.276-0.224,0.5-0.5,0.5s-0.5-0.224-0.5-0.5v-1.656c0-1.821,1.481-3.303,3.303-3.303s3.303,1.481,3.303,3.303v8.074
		C30.122,23.237,29.898,23.461,29.622,23.461z"/>
	<path d="M25.622,32.283H9.404c-0.276,0-0.518-0.224-0.518-0.5s0.206-0.5,0.482-0.5h16.254c1.93,0,3.5-1.57,3.5-3.5v-5.396
		c0-0.276,0.224-0.5,0.5-0.5s0.5,0.224,0.5,0.5v5.396C30.122,30.265,28.103,32.283,25.622,32.283z"/>
	<path d="M9.368,32.283c-0.128,0-0.256-0.049-0.354-0.146l-5.524-5.52c-1.727-1.724-1.776-4.474-0.114-6.261l2.954-3.174
		c0.189-0.201,0.504-0.212,0.707-0.025c0.202,0.188,0.213,0.505,0.025,0.707l-2.954,3.174c-1.294,1.39-1.255,3.53,0.089,4.872
		l5.524,5.521c0.195,0.195,0.195,0.512,0,0.707C9.624,32.234,9.496,32.283,9.368,32.283z"/>
</g>
<g>
</g>
<g>
</g>
<g>
</g>
<g>
</g>
<g>
</g>
<g>
</g>
<g>
</g>
<g>
</g>
<g>
</g>
<g>
</g>
<g>
</g>
<g>
</g>
<g>
</g>
<g>
</g>
<g>
</g>
</svg>
