<?xml version="1.0" encoding="iso-8859-1"?>
<!-- Generator: Adobe Illustrator 19.0.0, SVG Export Plug-In . SVG Version: 6.00 Build 0)  -->
<svg version="1.1" id="Capa_1" xmlns="http://www.w3.org/2000/svg" xmlns:xlink="http://www.w3.org/1999/xlink" x="0px" y="0px"
	 viewBox="0 0 37.374 37.374" style="enable-background:new 0 0 37.374 37.374;" xml:space="preserve">
<g>
	<g>
		<path d="M23.125,34.797H2.872C1.288,34.797,0,33.509,0,31.927V16.719c0-1.583,1.288-2.87,2.872-2.87h20.253
			c1.583,0,2.87,1.288,2.87,2.87v15.208C25.995,33.509,24.708,34.797,23.125,34.797z M2.872,14.849C1.84,14.849,1,15.688,1,16.719
			v15.208c0,1.031,0.84,1.87,1.872,1.87h20.253c1.031,0,1.87-0.839,1.87-1.87V16.719c0-1.031-0.839-1.87-1.87-1.87H2.872z"/>
		<path d="M36.874,33.086c-0.104,0-0.207-0.032-0.294-0.096l-11.379-8.266c-0.13-0.094-0.206-0.244-0.206-0.404
			s0.077-0.311,0.206-0.405l11.376-8.261c0.151-0.11,0.354-0.125,0.521-0.041c0.168,0.085,0.273,0.257,0.273,0.445l0.003,16.526
			c0,0.188-0.105,0.36-0.272,0.445C37.029,33.068,36.951,33.086,36.874,33.086z M26.346,24.32l10.028,7.284l-0.003-14.564
			L26.346,24.32z"/>
	</g>
	<path d="M6.135,14.849C2.752,14.849,0,12.096,0,8.713s2.752-6.136,6.135-6.136s6.136,2.752,6.136,6.136S9.518,14.849,6.135,14.849z
		 M6.135,3.577C3.304,3.577,1,5.881,1,8.713s2.304,5.136,5.135,5.136c2.832,0,5.136-2.304,5.136-5.136S8.967,3.577,6.135,3.577z"/>
	<path d="M19.859,14.849c-3.383,0-6.136-2.752-6.136-6.136s2.753-6.136,6.136-6.136s6.136,2.752,6.136,6.136
		S23.242,14.849,19.859,14.849z M19.859,3.577c-2.832,0-5.136,2.304-5.136,5.136s2.304,5.136,5.136,5.136s5.136-2.304,5.136-5.136
		S22.691,3.577,19.859,3.577z"/>
</g>
<g>
</g>
<g>
</g>
<g>
</g>
<g>
</g>
<g>
</g>
<g>
</g>
<g>
</g>
<g>
</g>
<g>
</g>
<g>
</g>
<g>
</g>
<g>
</g>
<g>
</g>
<g>
</g>
<g>
</g>
</svg>
