<?xml version="1.0" encoding="iso-8859-1"?>
<!-- Generator: Adobe Illustrator 19.0.0, SVG Export Plug-In . SVG Version: 6.00 Build 0)  -->
<svg version="1.1" id="Capa_1" xmlns="http://www.w3.org/2000/svg" xmlns:xlink="http://www.w3.org/1999/xlink" x="0px" y="0px"
	 viewBox="0 0 33 33" style="enable-background:new 0 0 33 33;" xml:space="preserve">
<g>
	<path d="M32.5,31.704h-32c-0.144,0-0.28-0.062-0.375-0.17c-0.095-0.107-0.139-0.251-0.121-0.394l2.592-20.337
		c0.032-0.249,0.245-0.437,0.496-0.437h26.816c0.251,0,0.464,0.188,0.496,0.437l2.592,20.337c0.018,0.143-0.026,0.286-0.121,0.394
		C32.78,31.643,32.644,31.704,32.5,31.704z M1.068,30.704h30.864l-2.464-19.337H3.532L1.068,30.704z"/>
	<path d="M16.5,11.367c-2.777,0-5.036-2.259-5.036-5.035c0-2.777,2.259-5.036,5.036-5.036s5.036,2.259,5.036,5.036
		C21.536,9.108,19.277,11.367,16.5,11.367z M16.5,2.296c-2.225,0-4.036,1.811-4.036,4.036c0,2.225,1.811,4.035,4.036,4.035
		s4.036-1.811,4.036-4.035C20.536,4.107,18.725,2.296,16.5,2.296z"/>
	<g>
		<path d="M14.577,18.914c-0.469,0.766-1.099,1.309-1.716,1.556c-0.086,0.037-0.099,0.111,0,0.148c0.716,0.309,1.321,0.9,1.802,1.69
			l1.543,2.531c0.062,0.086,0.013,0.16-0.099,0.16H14.86c-0.074,0-0.123-0.024-0.173-0.086l-1.222-1.976
			c-0.58-0.976-1.432-1.753-2.346-1.753h-0.284v3.679c0,0.086-0.049,0.136-0.136,0.136H9.577c-0.086,0-0.136-0.05-0.136-0.136
			v-8.357c0-0.086,0.05-0.136,0.136-0.136h1.124c0.086,0,0.136,0.05,0.136,0.136v3.444h0.271c0.889,0,1.728-0.74,2.271-1.63
			l1.148-1.863c0.049-0.063,0.099-0.087,0.173-0.087h1.234c0.099,0,0.148,0.074,0.086,0.161L14.577,18.914z"/>
		<path d="M23.709,24.309c0,0.087-0.037,0.136-0.111,0.16l-0.53,0.173l-0.605,0.21c-0.654,0.21-1.074,0.284-1.815,0.284
			c-2.357,0-3.777-1.716-3.777-4.444c0-2.728,1.42-4.443,3.777-4.443c0.691,0,1.161,0.086,1.815,0.296l0.568,0.197
			c0.086,0.037,0.123,0.1,0.086,0.173l-0.345,0.926c-0.037,0.087-0.099,0.111-0.173,0.087l-0.543-0.186
			c-0.481-0.16-0.852-0.222-1.407-0.222c-1.481,0-2.357,1.185-2.357,3.172c0,1.988,0.876,3.16,2.357,3.16
			c0.519,0,0.926-0.049,1.37-0.197l0.346-0.111V21.68H20.87c-0.099,0-0.148-0.063-0.124-0.148l0.272-0.987
			c0.025-0.074,0.074-0.111,0.161-0.111h2.395c0.086,0,0.136,0.05,0.136,0.136V24.309z"/>
	</g>
</g>
<g>
</g>
<g>
</g>
<g>
</g>
<g>
</g>
<g>
</g>
<g>
</g>
<g>
</g>
<g>
</g>
<g>
</g>
<g>
</g>
<g>
</g>
<g>
</g>
<g>
</g>
<g>
</g>
<g>
</g>
</svg>
