<?xml version="1.0" encoding="iso-8859-1"?>
<!-- Generator: Adobe Illustrator 19.0.0, SVG Export Plug-In . SVG Version: 6.00 Build 0)  -->
<svg version="1.1" id="Capa_1" xmlns="http://www.w3.org/2000/svg" xmlns:xlink="http://www.w3.org/1999/xlink" x="0px" y="0px"
	 viewBox="0 0 36.784 36.784" style="enable-background:new 0 0 36.784 36.784;" xml:space="preserve">
<g>
	<g>
		<g>
			<g>
				<path d="M18.392,18.672c-1.202,0-2.18-0.978-2.18-2.18s0.978-2.18,2.18-2.18s2.18,0.978,2.18,2.18S19.594,18.672,18.392,18.672z
					 M18.392,15.313c-0.65,0-1.18,0.529-1.18,1.18s0.529,1.18,1.18,1.18s1.18-0.529,1.18-1.18S19.042,15.313,18.392,15.313z"/>
			</g>
			<g>
				<path d="M13.722,12.321c-0.128,0-0.256-0.049-0.354-0.146c-0.195-0.195-0.195-0.512,0-0.707c2.771-2.77,7.278-2.77,10.048,0
					c0.195,0.195,0.195,0.512,0,0.707s-0.512,0.195-0.707,0c-2.381-2.381-6.254-2.381-8.634,0
					C13.978,12.272,13.85,12.321,13.722,12.321z"/>
				<path d="M26.384,9c-0.128,0-0.256-0.049-0.354-0.146c-4.212-4.211-11.065-4.211-15.277,0c-0.195,0.195-0.512,0.195-0.707,0
					s-0.195-0.512,0-0.707c4.602-4.602,12.09-4.602,16.691,0c0.195,0.195,0.195,0.512,0,0.707C26.64,8.951,26.512,9,26.384,9z"/>
				<path d="M7.079,5.679c-0.128,0-0.256-0.049-0.354-0.146c-0.195-0.195-0.195-0.512,0-0.707c6.433-6.434,16.901-6.434,23.334,0
					c0.195,0.195,0.195,0.512,0,0.707s-0.512,0.195-0.707,0c-6.044-6.043-15.877-6.043-21.92,0C7.334,5.63,7.207,5.679,7.079,5.679z
					"/>
			</g>
		</g>
		<path d="M18.392,32.557c-0.276,0-0.5-0.224-0.5-0.5V18.172c0-0.276,0.224-0.5,0.5-0.5s0.5,0.224,0.5,0.5v13.885
			C18.892,32.333,18.668,32.557,18.392,32.557z"/>
	</g>
	<path d="M31.392,36.784h-26c-0.163,0-0.315-0.079-0.409-0.212s-0.117-0.303-0.063-0.456l3.011-8.455
		c0.071-0.199,0.26-0.332,0.471-0.332h6.989c0.276,0,0.5,0.224,0.5,0.5s-0.224,0.5-0.5,0.5H8.755l-2.654,7.455h24.582l-2.654-7.455
		h-6.637c-0.276,0-0.5-0.224-0.5-0.5s0.224-0.5,0.5-0.5h6.989c0.211,0,0.4,0.133,0.471,0.332l3.011,8.455
		c0.054,0.153,0.031,0.323-0.063,0.456S31.555,36.784,31.392,36.784z"/>
</g>
<g>
</g>
<g>
</g>
<g>
</g>
<g>
</g>
<g>
</g>
<g>
</g>
<g>
</g>
<g>
</g>
<g>
</g>
<g>
</g>
<g>
</g>
<g>
</g>
<g>
</g>
<g>
</g>
<g>
</g>
</svg>
