<?xml version="1.0" encoding="iso-8859-1"?>
<!-- Generator: Adobe Illustrator 19.0.0, SVG Export Plug-In . SVG Version: 6.00 Build 0)  -->
<svg version="1.1" id="Capa_1" xmlns="http://www.w3.org/2000/svg" xmlns:xlink="http://www.w3.org/1999/xlink" x="0px" y="0px"
	 viewBox="0 0 33 33" style="enable-background:new 0 0 33 33;" xml:space="preserve">
<g>
	<path d="M16.5,29.496c-1.585,0-2.875-1.29-2.875-2.876c0-1.585,1.29-2.875,2.875-2.875s2.875,1.29,2.875,2.875
		C19.375,28.206,18.085,29.496,16.5,29.496z M16.5,24.745c-1.034,0-1.875,0.841-1.875,1.875s0.841,1.876,1.875,1.876
		s1.875-0.842,1.875-1.876S17.534,24.745,16.5,24.745z"/>
	<path d="M23.105,20.516c-0.128,0-0.256-0.049-0.354-0.146c-1.67-1.67-3.89-2.59-6.252-2.59c-2.361,0-4.582,0.92-6.251,2.59
		c-0.195,0.195-0.512,0.195-0.707,0s-0.195-0.512,0-0.707c1.859-1.859,4.33-2.883,6.958-2.883c2.629,0,5.1,1.023,6.959,2.883
		c0.195,0.195,0.195,0.512,0,0.707C23.361,20.467,23.233,20.516,23.105,20.516z"/>
	<path d="M27.803,15.817c-0.128,0-0.256-0.049-0.354-0.146c-6.037-6.038-15.861-6.037-21.898,0c-0.195,0.195-0.512,0.195-0.707,0
		s-0.195-0.512,0-0.707c6.427-6.428,16.885-6.427,23.313,0c0.195,0.195,0.195,0.512,0,0.707
		C28.059,15.768,27.931,15.817,27.803,15.817z"/>
	<path d="M32.5,11.12c-0.128,0-0.256-0.049-0.354-0.146c-8.626-8.625-22.665-8.627-31.293,0c-0.195,0.195-0.512,0.195-0.707,0
		s-0.195-0.512,0-0.707c9.018-9.018,23.69-9.016,32.707,0c0.195,0.195,0.195,0.512,0,0.707C32.756,11.071,32.628,11.12,32.5,11.12z"
		/>
</g>
<g>
</g>
<g>
</g>
<g>
</g>
<g>
</g>
<g>
</g>
<g>
</g>
<g>
</g>
<g>
</g>
<g>
</g>
<g>
</g>
<g>
</g>
<g>
</g>
<g>
</g>
<g>
</g>
<g>
</g>
</svg>
