<svg xmlns="http://www.w3.org/2000/svg" viewBox="191 68.5 883 883" role="img" aria-label="Pomi icon"><title>Pomi icon</title><path fill="#FFFFFF" fill-rule="evenodd" d="M733 144L771 145L770 182L769 182L769 191L768 191L768 198L767 198L767 205L766 205L765 214L764 214L764 219L763 219L763 223L762 223L760 235L759 235L758 241L757 241L757 245L756 245L755 251L754 251L754 253L753 253L752 259L751 259L750 264L749 264L749 266L748 266L748 268L747 268L747 271L746 271L746 273L745 273L743 279L742 279L742 281L741 281L740 286L738 287L738 289L737 289L736 293L734 294L732 300L731 300L730 303L728 304L728 306L726 307L725 311L723 312L723 314L722 314L722 315L719 317L719 319L716 321L716 323L711 327L711 329L710 329L688 352L686 352L686 353L685 353L684 355L682 355L680 358L678 358L675 362L673 362L673 363L670 364L669 366L667 366L666 368L662 369L661 371L657 372L657 373L651 375L650 377L645 378L645 379L639 381L639 382L636 382L636 383L634 383L634 384L629 385L629 386L623 387L623 388L620 388L620 389L616 389L616 390L610 391L610 392L601 393L601 394L597 394L597 395L591 395L591 396L585 396L585 397L565 398L565 399L542 399L542 398L533 398L533 396L534 396L534 391L535 391L535 387L536 387L537 381L538 381L538 377L539 377L540 371L541 371L541 369L542 369L543 363L544 363L544 361L545 361L545 358L546 358L546 356L547 356L547 354L548 354L548 351L549 351L551 345L552 345L552 342L554 341L554 339L555 339L555 337L556 337L556 335L557 335L559 329L560 329L560 327L562 326L563 322L565 321L566 317L567 317L568 314L570 313L570 311L571 311L572 308L574 307L574 305L577 303L577 301L578 301L579 298L581 297L581 295L584 293L584 291L589 287L589 285L590 285L590 284L593 282L593 280L597 277L597 275L608 265L608 263L609 263L627 244L624 245L622 248L618 249L618 250L617 250L616 252L614 252L613 254L611 254L609 257L607 257L605 260L603 260L600 264L598 264L594 269L592 269L588 274L586 274L586 275L562 298L562 300L555 306L555 308L551 311L551 313L550 313L550 314L548 315L548 317L545 319L545 321L542 323L542 325L541 325L540 328L538 329L538 331L536 332L535 336L533 337L532 341L530 342L530 344L529 344L529 346L528 346L528 348L527 348L527 350L526 350L526 352L525 352L523 358L522 358L522 360L521 360L521 362L520 362L520 365L519 365L519 367L518 367L518 370L517 370L516 375L515 375L515 378L514 378L514 382L513 382L512 388L511 388L511 391L510 391L509 400L508 400L508 404L507 404L507 409L506 409L506 416L505 416L505 423L504 423L504 432L502 432L502 431L485 415L484 396L483 396L483 382L482 382L482 363L481 363L482 322L483 322L483 312L484 312L484 304L485 304L486 293L487 293L488 285L489 285L490 279L491 279L491 276L492 276L493 270L494 270L494 268L495 268L495 265L496 265L496 263L497 263L499 257L500 257L500 254L502 253L502 251L503 251L505 245L507 244L507 242L508 242L509 239L511 238L511 236L514 234L514 232L516 231L516 229L522 224L522 222L523 222L535 209L537 209L541 204L543 204L545 201L547 201L550 197L552 197L552 196L555 195L556 193L560 192L560 191L563 190L564 188L566 188L567 186L571 185L571 184L573 184L573 183L575 183L575 182L577 182L577 181L579 181L579 180L585 178L585 177L587 177L587 176L589 176L589 175L592 175L592 174L598 172L598 171L601 171L601 170L603 170L603 169L606 169L606 168L608 168L608 167L614 166L614 165L619 164L619 163L622 163L622 162L626 162L626 161L629 161L629 160L633 160L633 159L636 159L636 158L640 158L640 157L644 157L644 156L647 156L647 155L652 155L652 154L657 154L657 153L662 153L662 152L666 152L666 151L678 150L678 149L684 149L684 148L692 148L692 147L701 147L701 146L733 145ZM340 300L354 301L354 302L360 303L360 304L362 304L362 305L365 305L365 306L368 307L369 309L371 309L371 310L389 327L389 329L390 329L391 331L393 331L393 333L395 333L396 336L437 376L437 378L468 408L468 410L469 410L518 460L519 460L519 462L520 462L525 468L527 468L527 469L534 475L534 477L535 477L535 478L536 478L536 479L537 479L537 480L538 480L538 481L539 481L539 482L540 482L540 483L541 483L541 484L542 484L542 485L543 485L543 486L544 486L544 487L545 487L545 488L595 537L595 538L596 538L596 539L597 539L597 540L598 540L598 542L599 542L606 550L608 550L608 551L614 556L614 558L615 558L615 559L627 570L627 572L629 573L629 575L630 575L630 577L631 577L631 580L632 580L632 583L633 583L633 587L634 587L634 600L633 600L633 605L632 605L631 611L630 611L629 615L627 616L627 618L626 618L590 655L588 655L558 686L556 686L523 720L521 720L479 763L477 763L432 809L430 809L382 858L380 858L371 868L369 868L368 870L366 870L366 871L364 871L364 872L361 873L355 874L355 875L351 875L351 876L338 876L338 875L332 875L332 874L326 873L326 872L322 871L321 869L319 869L318 867L316 867L316 866L315 866L315 865L314 865L265 815L264 815L264 813L262 812L262 810L261 810L261 808L260 808L260 806L259 806L258 800L257 800L257 791L256 791L258 777L259 777L259 774L260 774L262 768L264 767L264 765L265 765L302 727L304 727L304 726L311 720L311 718L313 718L349 681L351 681L351 680L355 677L355 675L356 675L358 672L360 672L400 631L402 631L402 630L406 627L406 625L407 625L408 623L410 623L410 622L444 589L444 587L432 577L432 575L431 575L431 574L430 574L430 573L429 573L429 572L428 572L428 571L427 571L427 570L426 570L426 569L425 569L425 568L424 568L424 567L423 567L423 566L373 517L373 516L372 516L372 515L371 515L371 514L370 514L370 512L369 512L366 508L364 508L364 506L363 506L359 501L357 501L357 500L354 498L354 496L353 496L353 495L352 495L352 494L351 494L351 493L350 493L350 492L349 492L349 491L348 491L348 490L347 490L347 489L346 489L346 488L345 488L345 487L344 487L344 486L343 486L343 485L342 485L342 484L341 484L341 483L340 483L340 482L339 482L339 481L338 481L338 480L288 431L288 430L287 430L287 429L286 429L286 428L285 428L285 427L284 427L284 426L283 426L283 425L282 425L282 423L279 422L279 421L267 410L267 408L265 407L265 405L263 404L263 402L262 402L262 400L261 400L261 398L260 398L259 390L258 390L258 376L259 376L260 369L261 369L263 363L265 362L265 360L266 360L302 323L304 323L318 308L322 307L323 305L325 305L325 304L327 304L327 303L334 302L334 301L340 301ZM587 741L967 741L967 742L976 743L976 744L978 744L978 745L983 746L983 747L986 748L987 750L989 750L990 752L992 752L992 753L999 759L999 761L1002 763L1002 765L1004 766L1005 771L1006 771L1006 773L1007 773L1007 776L1008 776L1008 780L1009 780L1009 801L1008 801L1008 806L1007 806L1007 808L1006 808L1006 811L1005 811L1003 817L1001 818L1001 820L997 823L997 825L996 825L994 828L992 828L989 832L987 832L986 834L984 834L984 835L978 837L978 838L965 841L585 841L585 840L580 840L580 839L574 838L574 837L572 837L572 836L566 834L565 832L563 832L563 831L551 820L551 818L550 818L548 812L547 812L547 809L546 809L546 807L545 807L545 803L544 803L543 786L544 786L544 781L545 781L545 777L546 777L547 771L548 771L550 765L552 764L552 762L554 761L554 759L555 759L560 753L562 753L564 750L566 750L567 748L569 748L569 747L575 745L575 744L582 743L582 742L587 742Z"/></svg>