<?xml version="1.0" encoding="UTF-8" standalone="no"?>
<svg
   version="1.1"
   id="Réteg_1"
   x="0px"
   y="0px"
   viewBox="0 0 150 150"
   xml:space="preserve"
   xmlns="http://www.w3.org/2000/svg"
   xmlns:svg="http://www.w3.org/2000/svg">
<style
   type="text/css"
   id="style2">
	.st1{fill:#fff;}
</style>
<g
   id="g14"
   transform="matrix(0.87833402,0,0,0.90478314,-53.053344,-192.96095)">
	<g
   id="g12">
		<path
   class="st1"
   d="m 143.28,223.2 c -41.11,0 -74.44,33.33 -74.44,74.44 0,41.11 33.33,74.44 74.44,74.44 41.11,0 74.44,-33.33 74.44,-74.44 0,-41.11 -33.32,-74.44 -74.44,-74.44 z m 0,134.55 c -33.2,0 -60.12,-26.91 -60.12,-60.12 0,-33.2 26.91,-60.12 60.12,-60.12 33.2,0 60.12,26.91 60.12,60.12 0,33.21 -26.92,60.12 -60.12,60.12 z"
   id="path4" />
		<path
   class="st1"
   d="m 179.12,333.16 v 0 0 c -19.36,-19.36 -19.36,-50.76 0,-70.13 v 0 0 c 19.36,19.37 19.36,50.77 0,70.13 z"
   id="path6" />
		<path
   class="st1"
   d="m 159.2,313.24 v 0 0 c -27.39,0 -49.59,-22.2 -49.59,-49.59 v 0 0 c 27.39,0.01 49.59,22.21 49.59,49.59 z"
   id="path8" />
		<path
   class="st1"
   d="m 108.77,333.35 v 0 0 c 19.36,-19.36 50.76,-19.36 70.13,0 v 0 0 c -19.37,19.36 -50.77,19.36 -70.13,0 z"
   id="path10" />
	</g>
</g>
</svg>
