<svg id="Calque_1" data-name="Calque 1" xmlns="http://www.w3.org/2000/svg" viewBox="0 0 141.35 141"><defs><style>.cls-1{fill:#fff;}</style></defs><title>Plan de travail 1</title><g id="Stitched"><path class="cls-1" d="M70.69,2A68.36,68.36,0,1,0,89.41,136.11c.86,2,2.64,3.87,6.34,3,5.84-1.41,8.88-6.09,10.45-10.33A68.36,68.36,0,0,0,70.64,2Zm37.59,107.24c-2.16-17.82-16.7-29.83-32.76-32.12,8.34,8.33,22.89,20.79,22,35.82a13.7,13.7,0,0,1-1.37,5.27,57.37,57.37,0,1,1,12.07-9ZM28,94.36C47.12,105.84,70,96.12,72.7,78.52,55.6,64.64,32.47,76.42,28,94.38ZM71.39,68.88C74.15,42.24,62.54,30,38.32,30.31,33.59,56.13,49.57,67.24,71.39,68.88Zm37.2-31.69C87.55,38.66,74,47.52,76.89,73,100.06,73.68,111.21,62.35,108.58,37.19Z"/></g></svg>