<?xml version="1.0" encoding="UTF-8" standalone="no"?>
<svg version="1.1" xmlns="http://www.w3.org/2000/svg" xmlns:xlink="http://www.w3.org/1999/xlink" width="300" height="300">
	<defs>
		<clipPath id="clip_dp_001" clipPathUnits="userSpaceOnUse">
			<path d="M 2.53867,3 L 301.461,3 L 301.461,303.001 L 2.53867,303.001 Z "/>
		</clipPath>
		<linearGradient id="grad_dp_001" gradientUnits="userSpaceOnUse" x1="20.1413" y1="150.391" x2="278.627" y2="150.391">
			<stop offset="0" stop-color="#f7fae7"/>
			<stop offset="1" stop-color="#e7e7e5"/>
		</linearGradient>
	</defs>
	<g id="dp_dp001">
		<path id="dp_path002" fill="#f2f8f1" d="M 149.385,6.824 L 149.385,8.50667 C 188.569,8.50667 224.028,24.384 249.711,50.0613 C 275.388,75.744 291.265,111.207 291.265,150.392 C 291.265,189.573 275.388,225.035 249.711,250.717 C 224.028,276.395 188.569,292.272 149.385,292.272 C 110.199,292.272 74.736,276.395 49.0587,250.717 C 23.3773,225.035 7.49867,189.573 7.49867,150.392 C 7.49867,111.207 23.3773,75.744 49.0587,50.0613 C 74.736,24.384 110.199,8.50667 149.385,8.50667 L 149.385,6.824 L 149.385,5.13733 C 69.164,5.14267 4.13467,70.172 4.13467,150.392 C 4.13467,230.612 69.164,295.641 149.385,295.641 C 229.604,295.641 294.635,230.612 294.635,150.392 C 294.635,70.172 229.604,5.14267 149.385,5.13733 Z "/>
		<path id="dp_path003" fill="#697260" d="M 149.385,292.272 C 110.199,292.272 74.736,276.395 49.0587,250.717 C 23.3773,225.035 7.49867,189.573 7.49867,150.392 C 7.49867,111.207 23.3773,75.744 49.0587,50.0613 C 74.736,24.384 110.199,8.50667 149.385,8.50667 L 149.385,6.824 L 149.385,6.824 L 149.385,8.50667 C 188.569,8.50667 224.028,24.384 249.711,50.0613 C 275.388,75.744 291.265,111.207 291.265,150.392 C 291.265,189.573 275.388,225.035 249.711,250.717 C 224.028,276.395 188.569,292.272 149.385,292.272 Z "/>
		<path id="dp_path004" clip-path="url(#clip_dp_001)" fill="url(#grad_dp_001)" d="M 68.648,195.192 C 85.5147,205.132 111.62,209.897 133.523,195.28 C 142.615,189.212 149.855,179.84 152.543,169.064 C 152.695,168.455 153.657,165.699 153.311,165.235 C 150.765,161.828 144.28,159.024 139.892,157.248 C 111.532,145.769 76.72,164.535 68.7493,194.795 C 68.7133,194.927 68.6813,195.059 68.648,195.192 Z M 150.705,147 C 150.715,146.901 150.724,146.803 150.735,146.705 C 150.86,145.56 150.959,144.397 151.051,143.215 C 151.247,140.701 151.388,138.111 151.441,135.417 C 151.555,129.676 151.42,126.609 150.804,121.501 C 147.295,92.3987 129.121,77.4733 101.397,74.6053 C 99.4827,74.4067 89.6053,73.132 88.1853,74.06 C 87.9547,74.2107 87.8947,75.732 87.8427,76.0507 C 87.208,79.94 86.7893,85.0427 86.7333,86.06 C 85.096,115.797 100.985,136.987 133.167,144.409 C 136.689,145.221 140.16,145.821 143.577,146.269 C 145.488,146.52 147.385,146.723 149.261,146.884 C 149.744,146.925 150.225,146.963 150.705,147 Z M 161.127,154.815 C 205.471,155.915 225.885,133.107 221.041,87.0853 C 178.367,90.1427 156.037,110.076 161.127,154.815 Z M 220.472,223.376 C 216.677,193.072 191.103,167.268 158.52,162.631 C 178.509,182.46 201.379,201.515 200.232,229.693 C 200.147,231.803 200.012,238.228 197.645,240.312 C 190.149,246.913 175.657,249.928 166.496,251.756 C 86.9173,267.635 3.01067,182.271 49.8067,94.7067 C 57.8373,79.68 69.6027,66.4907 83.676,56.7333 C 191.879,-18.2853 313.769,132.175 220.472,223.376 Z M 149.384,20.6027 C 110.369,20.7267 84.84,34.6413 64.512,52.3733 C -9.46,116.899 15.8693,232.753 97.992,268.465 C 118.632,277.441 153.009,283.121 184.816,274.171 C 185.861,276.489 188.269,280.543 194.213,280.152 C 209.413,279.153 213.645,263.232 216.575,260.269 C 220.953,255.841 227.791,252.793 232.675,248.671 C 248.616,235.215 261.199,217.891 269,198.877 C 298.04,128.101 252.657,20.6027 149.384,20.6027 Z "/>
	</g>
</svg>
