<?xml version="1.0" standalone="no"?>
<!DOCTYPE svg PUBLIC "-//W3C//DTD SVG 20010904//EN"
 "http://www.w3.org/TR/2001/REC-SVG-20010904/DTD/svg10.dtd">
<svg version="1.0" xmlns="http://www.w3.org/2000/svg"
 width="598.000000pt" height="598.000000pt" viewBox="0 0 598.000000 598.000000"
 preserveAspectRatio="xMidYMid meet">
<metadata>
Created by potrace 1.11, written by Peter Selinger 2001-2013
</metadata>
<g transform="translate(0.000000,598.000000) scale(0.100000,-0.100000)"
fill="#000000" stroke="none">
<path d="M2905 5973 c-103 -5 -315 -34 -442 -59 -619 -125 -1257 -485 -1670
-944 -621 -689 -865 -1544 -722 -2535 51 -356 139 -644 289 -950 226 -462 554
-813 1006 -1080 183 -109 474 -225 714 -285 262 -66 457 -94 773 -112 497 -28
934 49 1467 258 160 63 542 246 587 282 l22 17 -375 655 c-207 360 -377 656
-378 658 -2 1 -48 -25 -102 -59 -205 -130 -449 -229 -673 -276 -106 -22 -152
-26 -291 -26 -408 0 -715 117 -970 371 l-95 95 1957 650 1957 651 -6 30 c-64
365 -182 759 -309 1036 -104 229 -257 481 -400 660 -145 181 -394 410 -584
537 -476 318 -1068 461 -1755 426z m311 -1398 c166 -27 290 -74 419 -160 90
-60 202 -170 262 -260 72 -107 177 -335 161 -350 -5 -6 -339 -124 -1871 -664
-252 -88 -460 -161 -462 -161 -3 0 -5 64 -5 143 0 480 139 865 409 1137 170
171 361 270 606 314 107 19 365 20 481 1z"/>
</g>
</svg>
