<svg xmlns="http://www.w3.org/2000/svg" viewBox="0 0 72 72">
    <path d="M10.3 33.5c.4 0 .9-.1 1.5-.2s1.2-.3 1.8-.7c.6-.3 1.1-.8 1.5-1.3.4-.5.6-1.3.6-2.1V17.1c0-1.4.3-2.6.8-3.6s1.2-1.9 2-2.5c.8-.7 1.6-1.2 2.5-1.5.9-.3 1.6-.5 2.2-.5h5.3v5.3h-3.2c-.7 0-1.3.1-1.8.4-.4.3-.8.6-1 1-.2.4-.4.9-.4 1.3-.1.5-.1.9-.1 1.4v11.4c0 1.2-.2 2.1-.7 2.9-.5.8-1 1.4-1.7 1.8-.6.4-1.3.8-2 1-.7.2-1.3.3-1.7.4v.1c.5 0 1 .1 1.7.3.7.2 1.3.5 2 .9.6.5 1.2 1.1 1.7 1.9.5.8.7 2 .7 3.4v11.1c0 .4 0 .9.1 1.4.1.5.2.9.4 1.3s.6.7 1 1c.4.3 1 .4 1.8.4h3.2V63h-5.3c-.6 0-1.4-.2-2.2-.5-.9-.3-1.7-.8-2.5-1.5s-1.4-1.5-2-2.5c-.5-1-.8-2.2-.8-3.6V43.5c0-.9-.2-1.7-.6-2.3-.4-.6-.9-1.1-1.5-1.5-.6-.4-1.2-.6-1.8-.7-.6-.1-1.1-.2-1.5-.2v-5.3zM61.8 38.7c-.4 0-1 .1-1.6.2-.6.1-1.2.4-1.8.7-.6.3-1.1.7-1.5 1.3-.4.5-.6 1.3-.6 2.1v12.1c0 1.4-.3 2.6-.8 3.6s-1.2 1.9-2 2.5c-.8.7-1.6 1.2-2.5 1.5-.9.3-1.6.5-2.2.5h-5.3v-5.3h3.2c.7 0 1.3-.1 1.8-.4.4-.3.8-.6 1-1 .2-.4.4-.9.4-1.3.1-.5.1-.9.1-1.4V42.3c0-1.2.2-2.1.7-2.9.5-.8 1-1.4 1.7-1.8.6-.4 1.3-.8 2-1 .7-.2 1.3-.3 1.7-.4v-.1c-.5 0-1-.1-1.7-.3-.7-.2-1.3-.5-2-.9-.6-.4-1.2-1.1-1.7-1.9-.5-.8-.7-2-.7-3.4V18.5c0-.4 0-.9-.1-1.4-.1-.5-.2-.9-.4-1.3s-.6-.7-1-1c-.4-.3-1-.4-1.8-.4h-3.2V9.1h5.3c.6 0 1.4.2 2.2.5.9.3 1.7.8 2.5 1.5s1.4 1.5 2 2.5c.5 1 .8 2.2.8 3.6v11.6c0 .9.2 1.7.6 2.3.4.6.9 1.1 1.5 1.5.6.4 1.2.6 1.8.7.6.1 1.2.2 1.6.2v5.2z"/>
</svg>
