<?xml version="1.0" encoding="utf-8"?>
<!-- Generator: Adobe Illustrator 18.0.0, SVG Export Plug-In . SVG Version: 6.00 Build 0)  -->
<!DOCTYPE svg PUBLIC "-//W3C//DTD SVG 1.1//EN" "http://www.w3.org/Graphics/SVG/1.1/DTD/svg11.dtd">
<svg version="1.1" id="Calque_1" xmlns="http://www.w3.org/2000/svg" xmlns:xlink="http://www.w3.org/1999/xlink" x="0px" y="0px"
	 viewBox="0 0 72 72" enable-background="new 0 0 72 72" xml:space="preserve">
<g>
	<path d="M10.3,33.5c0.4,0,0.9-0.1,1.5-0.2c0.6-0.1,1.2-0.3,1.8-0.7c0.6-0.3,1.1-0.8,1.5-1.3c0.4-0.5,0.6-1.3,0.6-2.1V17.1
		c0-1.4,0.3-2.6,0.8-3.6c0.5-1,1.2-1.9,2-2.5c0.8-0.7,1.6-1.2,2.5-1.5c0.9-0.3,1.6-0.5,2.2-0.5h5.3v5.3h-3.2c-0.7,0-1.3,0.1-1.8,0.4
		c-0.4,0.3-0.8,0.6-1,1c-0.2,0.4-0.4,0.9-0.4,1.3c-0.1,0.5-0.1,0.9-0.1,1.4v11.4c0,1.2-0.2,2.1-0.7,2.9c-0.5,0.8-1,1.4-1.7,1.8
		c-0.6,0.4-1.3,0.8-2,1c-0.7,0.2-1.3,0.3-1.7,0.4v0.1c0.5,0,1,0.1,1.7,0.3c0.7,0.2,1.3,0.5,2,0.9c0.6,0.5,1.2,1.1,1.7,1.9
		c0.5,0.8,0.7,2,0.7,3.4v11.1c0,0.4,0,0.9,0.1,1.4c0.1,0.5,0.2,0.9,0.4,1.3c0.2,0.4,0.6,0.7,1,1c0.4,0.3,1,0.4,1.8,0.4h3.2v5.3h-5.3
		c-0.6,0-1.4-0.2-2.2-0.5c-0.9-0.3-1.7-0.8-2.5-1.5c-0.8-0.7-1.4-1.5-2-2.5c-0.5-1-0.8-2.2-0.8-3.6V43.5c0-0.9-0.2-1.7-0.6-2.3
		c-0.4-0.6-0.9-1.1-1.5-1.5c-0.6-0.4-1.2-0.6-1.8-0.7c-0.6-0.1-1.1-0.2-1.5-0.2V33.5z"/>
	<path d="M61.8,38.7c-0.4,0-1,0.1-1.6,0.2c-0.6,0.1-1.2,0.4-1.8,0.7c-0.6,0.3-1.1,0.7-1.5,1.3c-0.4,0.5-0.6,1.3-0.6,2.1v12.1
		c0,1.4-0.3,2.6-0.8,3.6c-0.5,1-1.2,1.9-2,2.5c-0.8,0.7-1.6,1.2-2.5,1.5c-0.9,0.3-1.6,0.5-2.2,0.5h-5.3v-5.3h3.2
		c0.7,0,1.3-0.1,1.8-0.4c0.4-0.3,0.8-0.6,1-1c0.2-0.4,0.4-0.9,0.4-1.3c0.1-0.5,0.1-0.9,0.1-1.4V42.3c0-1.2,0.2-2.1,0.7-2.9
		c0.5-0.8,1-1.4,1.7-1.8c0.6-0.4,1.3-0.8,2-1c0.7-0.2,1.3-0.3,1.7-0.4v-0.1c-0.5,0-1-0.1-1.7-0.3c-0.7-0.2-1.3-0.5-2-0.9
		c-0.6-0.4-1.2-1.1-1.7-1.9c-0.5-0.8-0.7-2-0.7-3.4V18.5c0-0.4,0-0.9-0.1-1.4c-0.1-0.5-0.2-0.9-0.4-1.3c-0.2-0.4-0.6-0.7-1-1
		c-0.4-0.3-1-0.4-1.8-0.4h-3.2V9.1h5.3c0.6,0,1.4,0.2,2.2,0.5c0.9,0.3,1.7,0.8,2.5,1.5c0.8,0.7,1.4,1.5,2,2.5c0.5,1,0.8,2.2,0.8,3.6
		v11.6c0,0.9,0.2,1.7,0.6,2.3c0.4,0.6,0.9,1.1,1.5,1.5c0.6,0.4,1.2,0.6,1.8,0.7c0.6,0.1,1.2,0.2,1.6,0.2V38.7z"/>
</g>
</svg>
