<svg xmlns="http://www.w3.org/2000/svg" viewBox="0 0 72 72" fill-rule="evenodd">
    <path d="M36 3c18.213 0 33 14.787 33 33S54.213 69 36 69 3 54.213 3 36 17.787 3 36 3zm0 6.735c14.496 0 26.265 11.769 26.265 26.265S50.496 62.265 36 62.265 9.735 50.496 9.735 36 21.504 9.735 36 9.735z"/>
    <path d="M45.248 40.04h8.816C52.23 48.325 44.833 54.52 36 54.52c-10.222 0-18.52-8.298-18.52-18.52S25.778 17.48 36 17.48c8.712 0 16.027 6.028 17.977 14.142h-8.912A10.009 10.009 0 0036 25.898c-5.575 0-10.102 4.527-10.102 10.102S30.425 46.102 36 46.102a10.08 10.08 0 009.248-6.061z"/>
</svg>
