<?xml version="1.0" encoding="iso-8859-1"?>
<!-- Generator: Adobe Illustrator 19.0.0, SVG Export Plug-In . SVG Version: 6.00 Build 0)  -->
<svg xmlns="http://www.w3.org/2000/svg" xmlns:xlink="http://www.w3.org/1999/xlink" version="1.1" id="Capa_1" x="0px" y="0px" viewBox="0 0 33 33" style="enable-background:new 0 0 33 33;" xml:space="preserve" width="512px" height="512px">
<g>
	<g>
		<path d="M24.5,33h-16C7.122,33,6,31.879,6,30.5v-24C6,5.121,7.122,4,8.5,4h16C25.878,4,27,5.121,27,6.5v24    C27,31.879,25.878,33,24.5,33z M8.5,5C7.673,5,7,5.673,7,6.5v24C7,31.327,7.673,32,8.5,32h16c0.827,0,1.5-0.673,1.5-1.5v-24    C26,5.673,25.327,5,24.5,5H8.5z" fill="#FFFFFF"/>
		<path d="M19.75,5h-6.5c-0.276,0-0.5-0.224-0.5-0.5v-4c0-0.276,0.224-0.5,0.5-0.5h6.5c0.276,0,0.5,0.224,0.5,0.5v4    C20.25,4.776,20.026,5,19.75,5z M13.75,4h5.5V1h-5.5V4z" fill="#FFFFFF"/>
	</g>
	<g>
		<path d="M13.437,26.568c-0.086,0-0.173-0.022-0.251-0.068c-0.209-0.122-0.3-0.375-0.218-0.603l2.371-6.522l-2.712-0.773    c-0.163-0.046-0.292-0.172-0.341-0.334c-0.05-0.162-0.014-0.339,0.096-0.469l6.053-7.189c0.152-0.181,0.41-0.229,0.618-0.119    c0.208,0.111,0.311,0.354,0.245,0.58l-1.672,5.799l2.747,0.783c0.164,0.046,0.292,0.173,0.342,0.336    c0.049,0.163,0.012,0.341-0.099,0.47l-6.797,7.936C13.719,26.508,13.58,26.568,13.437,26.568z M13.644,17.852l2.485,0.709    c0.133,0.038,0.245,0.13,0.308,0.253c0.063,0.124,0.072,0.268,0.024,0.398l-1.615,4.441l4.5-5.253l-2.479-0.707    c-0.127-0.036-0.236-0.122-0.3-0.238c-0.064-0.116-0.08-0.253-0.043-0.381l1.16-4.022L13.644,17.852z" fill="#FFFFFF"/>
	</g>
</g>
<g>
</g>
<g>
</g>
<g>
</g>
<g>
</g>
<g>
</g>
<g>
</g>
<g>
</g>
<g>
</g>
<g>
</g>
<g>
</g>
<g>
</g>
<g>
</g>
<g>
</g>
<g>
</g>
<g>
</g>
</svg>
