<svg xmlns="http://www.w3.org/2000/svg" viewBox="0 0 72 72">
    <path d="M36.05 9C21.09 9 8.949 21.141 8.949 36.101c0 14.96 12.141 27.101 27.101 27.101 14.96 0 27.101-12.141 27.101-27.101S51.01 9 36.05 9zm9.757 15.095c2.651 0 4.418 1.767 4.418 4.418s-1.767 4.418-4.418 4.418-4.418-1.767-4.418-4.418 1.767-4.418 4.418-4.418zm-19.479 0c2.651 0 4.418 1.767 4.418 4.418s-1.767 4.418-4.418 4.418-4.418-1.767-4.418-4.418 1.767-4.418 4.418-4.418zm9.722 30.436c-14.093 0-16.261-13.009-16.261-13.009h32.522S50.143 54.531 36.05 54.531z"/>
</svg>
