<?xml version="1.0" encoding="utf-8"?>
<!-- Generator: Adobe Illustrator 17.0.0, SVG Export Plug-In . SVG Version: 6.00 Build 0)  -->
<!DOCTYPE svg PUBLIC "-//W3C//DTD SVG 1.1//EN" "http://www.w3.org/Graphics/SVG/1.1/DTD/svg11.dtd">
<svg version="1.1" id="Calque_1" xmlns="http://www.w3.org/2000/svg" xmlns:xlink="http://www.w3.org/1999/xlink" x="0px" y="0px"
	 viewBox="0 0 72 72" enable-background="new 0 0 72 72" xml:space="preserve">
	<path d="M36.05,9C21.09,9,8.949,21.141,8.949,36.101c0,14.96,12.141,27.101,27.101,27.101c14.96,0,27.101-12.141,27.101-27.101
	S51.01,9,36.05,9z M45.807,24.095c2.651,0,4.418,1.767,4.418,4.418s-1.767,4.418-4.418,4.418s-4.418-1.767-4.418-4.418
	S43.156,24.095,45.807,24.095z M26.328,24.095c2.651,0,4.418,1.767,4.418,4.418s-1.767,4.418-4.418,4.418s-4.418-1.767-4.418-4.418
	S23.677,24.095,26.328,24.095z M36.05,54.531c-14.093,0-16.261-13.009-16.261-13.009h32.522
	C52.311,41.522,50.143,54.531,36.05,54.531z"/>
</svg>
