<?xml version="1.0" encoding="utf-8"?>
<!-- Generator: Adobe Illustrator 24.2.0, SVG Export Plug-In . SVG Version: 6.00 Build 0)  -->
<svg version="1.1" id="Réteg_1" xmlns="http://www.w3.org/2000/svg" xmlns:xlink="http://www.w3.org/1999/xlink" x="0px" y="0px"
	 viewBox="0 0 841.89 595.28" style="enable-background:new 0 0 841.89 595.28;" xml:space="preserve">
<style type="text/css">
	.st0{fill:#404041;}
</style>
<g>
	<path class="st0" d="M420.94,223.2c-41.11,0-74.44,33.33-74.44,74.44s33.33,74.44,74.44,74.44c41.11,0,74.44-33.33,74.44-74.44
		S462.06,223.2,420.94,223.2z M420.94,357.75c-33.2,0-60.12-26.91-60.12-60.12c0-33.2,26.91-60.12,60.12-60.12
		c33.2,0,60.12,26.91,60.12,60.12C481.06,330.84,454.15,357.75,420.94,357.75z"/>
	<path class="st0" d="M456.78,333.16L456.78,333.16L456.78,333.16c-19.36-19.36-19.36-50.76,0-70.13l0,0l0,0
		C476.15,282.4,476.15,313.8,456.78,333.16z"/>
	<path class="st0" d="M436.86,313.24L436.86,313.24L436.86,313.24c-27.39,0-49.59-22.2-49.59-49.59v0h0
		C414.66,263.66,436.86,285.86,436.86,313.24z"/>
	<path class="st0" d="M386.43,333.35L386.43,333.35L386.43,333.35c19.36-19.36,50.76-19.36,70.13,0l0,0l0,0
		C437.19,352.71,405.8,352.71,386.43,333.35z"/>
</g>
</svg>
