<svg xmlns="http://www.w3.org/2000/svg" viewBox="0 0 24 24"><g transform="translate(-326-532.36)"><rect width="6" height="15" x="329" y="537.36" fill="#1ab394" stroke="#000" stroke-linejoin="round" stroke-linecap="round" stroke-width=".837" rx=".646"/><path d="m507.95 46.02c-1.367-16.368-14.588-30.13-31.21-30.13h-444.96c-16.622 0-29.844 13.762-31.24 30.13h-.54v414.82c0 17.544 14.239 31.782 31.782 31.782h444.95c17.544 0 31.782-14.239 31.782-31.782v-414.82h-.571m-349.04 414.82h-127.13v-95.35h127.13v95.35m0-124.49h-127.13v-97.99h127.13v97.99m0-129.77h-127.13v-95.35h127.13v95.35m158.91 254.26h-127.13v-95.35h127.13v95.35m0-124.49h-127.13v-97.99h127.13v97.99m0-129.77h-127.13v-95.35h127.13v95.35m158.91 254.26h-127.13v-95.35h127.13v95.35m0-124.49h-127.13v-97.99h127.13v97.99m0-129.77h-127.13v-95.35h127.13v95.35" transform="matrix(.03776 0 0 .03776 328.4 534.76)" fill="#000"/></g></svg>
