<svg xmlns="http://www.w3.org/2000/svg" viewBox="0 0 24 24"><rect y="-347" x="537.06" height="18" width="6" transform="matrix(0 1 1 0 350-532.36)" fill="#1ab394" stroke="#000" stroke-linejoin="round" stroke-linecap="round" stroke-width=".917" rx=".776"/><path d="m507.95 46.02c-1.367-16.368-14.588-30.13-31.21-30.13h-444.96c-16.622 0-29.844 13.762-31.24 30.13h-.54v414.82c0 17.544 14.239 31.782 31.782 31.782h444.95c17.544 0 31.782-14.239 31.782-31.782v-414.82h-.571m-349.04 414.82h-127.13v-95.35h127.13v95.35m0-124.49h-127.13v-97.99h127.13v97.99m0-129.77h-127.13v-95.35h127.13v95.35m158.91 254.26h-127.13v-95.35h127.13v95.35m0-124.49h-127.13v-97.99h127.13v97.99m0-129.77h-127.13v-95.35h127.13v95.35m158.91 254.26h-127.13v-95.35h127.13v95.35m0-124.49h-127.13v-97.99h127.13v97.99m0-129.77h-127.13v-95.35h127.13v95.35" transform="matrix(-.03776 0 0 .03776 21.6 2.4)" fill="#000"/></svg>
