<?xml version="1.0" encoding="UTF-8" standalone="no"?>
<svg
   xmlns:dc="http://purl.org/dc/elements/1.1/"
   xmlns:cc="http://creativecommons.org/ns#"
   xmlns:rdf="http://www.w3.org/1999/02/22-rdf-syntax-ns#"
   xmlns:svg="http://www.w3.org/2000/svg"
   xmlns="http://www.w3.org/2000/svg"
   preserveAspectRatio="xMaxYMax meet"
   xml:space="preserve"
   enable-background="new 0 0 72 72"
   viewBox="0 0 72 72"
   y="0px"
   x="0px"
   id="Calque_1"
   version="1.1"><metadata
     id="metadata3343"><rdf:RDF><cc:Work
         rdf:about=""><dc:format>image/svg+xml</dc:format><dc:type
           rdf:resource="http://purl.org/dc/dcmitype/StillImage" /><dc:title></dc:title></cc:Work></rdf:RDF></metadata><defs
     id="defs3341" /><path
     id="path3337"
     d="m 25.686338,51.379201 0,-6.345732 q 0,-0.462708 -0.29778,-0.760164 -0.29778,-0.297456 -0.760992,-0.297456 l -10.587671,0 q -0.463212,0 -0.76098,0.297456 -0.29778,0.297456 -0.29778,0.760164 l 0,6.345732 q 0,0.462708 0.29778,0.760164 0.297768,0.297456 0.76098,0.297456 l 10.587671,0 q 0.463212,0 0.760992,-0.297456 0.29778,-0.297456 0.29778,-0.760164 z m 0,-12.691464 0,-6.345732 q 0,-0.46272 -0.29778,-0.760176 -0.29778,-0.297456 -0.760992,-0.297456 l -10.587671,0 q -0.463212,0 -0.76098,0.297456 -0.29778,0.297456 -0.29778,0.760176 l 0,6.345732 q 0,0.462708 0.29778,0.760164 0.297768,0.297456 0.76098,0.297456 l 10.587671,0 q 0.463212,0 0.760992,-0.297456 0.29778,-0.297456 0.29778,-0.760164 z m 16.940268,12.691464 0,-6.345732 q 0,-0.462708 -0.29778,-0.760164 -0.29778,-0.297456 -0.760992,-0.297456 l -10.58766,0 q -0.463212,0 -0.760992,0.297456 -0.29778,0.297456 -0.29778,0.760164 l 0,6.345732 q 0,0.462708 0.29778,0.760164 0.29778,0.297456 0.760992,0.297456 l 10.58766,0 q 0.463212,0 0.760992,-0.297456 0.29778,-0.297456 0.29778,-0.760164 z m -16.940268,-25.38294 0,-6.34572 q 0,-0.46272 -0.29778,-0.760164 -0.29778,-0.297456 -0.760992,-0.297456 l -10.587671,0 q -0.463212,0 -0.76098,0.297456 -0.29778,0.297456 -0.29778,0.760164 l 0,6.34572 q 0,0.46272 0.29778,0.760176 0.297768,0.297456 0.76098,0.297456 l 10.587671,0 q 0.463212,0 0.760992,-0.297456 0.29778,-0.297456 0.29778,-0.760176 z m 16.940268,12.691476 0,-6.345732 q 0,-0.46272 -0.29778,-0.760176 -0.29778,-0.297456 -0.760992,-0.297456 l -10.58766,0 q -0.463212,0 -0.760992,0.297456 -0.29778,0.297456 -0.29778,0.760176 l 0,6.345732 q 0,0.462708 0.29778,0.760164 0.29778,0.297456 0.760992,0.297456 l 10.58766,0 q 0.463212,0 0.760992,-0.297456 0.29778,-0.297456 0.29778,-0.760164 z m 16.940268,12.691464 0,-6.345732 q 0,-0.462708 -0.297768,-0.760164 -0.29778,-0.297456 -0.760992,-0.297456 l -10.587672,0 q -0.463212,0 -0.760992,0.297456 -0.29778,0.297456 -0.29778,0.760164 l 0,6.345732 q 0,0.462708 0.29778,0.760164 0.29778,0.297456 0.760992,0.297456 l 10.587672,0 q 0.463212,0 0.760992,-0.297456 0.297768,-0.297456 0.297768,-0.760164 z m -16.940268,-25.38294 0,-6.34572 q 0,-0.46272 -0.29778,-0.760164 -0.29778,-0.297456 -0.760992,-0.297456 l -10.58766,0 q -0.463212,0 -0.760992,0.297456 -0.29778,0.297456 -0.29778,0.760164 l 0,6.34572 q 0,0.46272 0.29778,0.760176 0.29778,0.297456 0.760992,0.297456 l 10.58766,0 q 0.463212,0 0.760992,-0.297456 0.29778,-0.297456 0.29778,-0.760176 z m 16.940268,12.691476 0,-6.345732 q 0,-0.46272 -0.297768,-0.760176 -0.29778,-0.297456 -0.760992,-0.297456 l -10.587672,0 q -0.463212,0 -0.760992,0.297456 -0.29778,0.297456 -0.29778,0.760176 l 0,6.345732 q 0,0.462708 0.29778,0.760164 0.29778,0.297456 0.760992,0.297456 l 10.587672,0 q 0.463212,0 0.760992,-0.297456 0.297768,-0.297456 0.297768,-0.760164 z m 0,-12.691476 0,-6.34572 q 0,-0.46272 -0.297768,-0.760164 -0.29778,-0.297456 -0.760992,-0.297456 l -10.587672,0 q -0.463212,0 -0.760992,0.297456 -0.29778,0.297456 -0.29778,0.760164 l 0,6.34572 q 0,0.46272 0.29778,0.760176 0.29778,0.297456 0.760992,0.297456 l 10.587672,0 q 0.463212,0 0.760992,-0.297456 0.297768,-0.297456 0.297768,-0.760176 z m 4.235076,-10.576212 0,35.959152 q 0,2.181348 -1.555068,3.734724 -1.555068,1.553388 -3.738768,1.553388 l -44.468219,0 q -2.1837,0 -3.738772,-1.553388 -1.5550676,-1.553376 -1.5550676,-3.734724 l 0,-35.959152 q 0,-2.181348 1.5550676,-3.734736 1.555072,-1.553376 3.738772,-1.553376 l 44.468219,0 q 2.1837,0 3.738768,1.553376 1.555068,1.553388 1.555068,3.734736 z" /></svg>