<svg xmlns="http://www.w3.org/2000/svg" viewBox="0 0 60 60">
    <path d="M11 7c0-2.206-1.794-4-4-4S3 4.794 3 7s1.794 4 4 4 4-1.794 4-4zM7 9c-1.103 0-2-.897-2-2s.897-2 2-2 2 .897 2 2-.897 2-2 2zM16 11c2.206 0 4-1.794 4-4s-1.794-4-4-4-4 1.794-4 4 1.794 4 4 4zm0-6c1.103 0 2 .897 2 2s-.897 2-2 2-2-.897-2-2 .897-2 2-2zM25 11c2.206 0 4-1.794 4-4s-1.794-4-4-4-4 1.794-4 4 1.794 4 4 4zm0-6c1.103 0 2 .897 2 2s-.897 2-2 2-2-.897-2-2 .897-2 2-2z"/>
    <path d="M0 0v60h60V0H0zm2 2h56v10H2V2zm0 56V14h5v44H2zm56 0H9V14h49v44z"/>
    <path d="M5 17H4a1 1 0 100 2h1a1 1 0 100-2zM5 21H4a1 1 0 100 2h1a1 1 0 100-2zM5 25H4a1 1 0 100 2h1a1 1 0 100-2zM5 29H4a1 1 0 100 2h1a1 1 0 100-2zM5 33H4a1 1 0 100 2h1a1 1 0 100-2zM5 37H4a1 1 0 100 2h1a1 1 0 100-2zM5 41H4a1 1 0 100 2h1a1 1 0 100-2zM5 45H4a1 1 0 100 2h1a1 1 0 100-2zM5 49H4a1 1 0 100 2h1a1 1 0 100-2zM5 53H4a1 1 0 100 2h1a1 1 0 100-2zM13 19h13a1 1 0 100-2H13a1 1 0 100 2zM30 19h10a1 1 0 100-2H30a1 1 0 100 2zM44 19h2a1 1 0 100-2h-2a1 1 0 100 2zM35 22a1 1 0 001 1h15a1 1 0 100-2H36a1 1 0 00-1 1zM32 21H18a1 1 0 100 2h14a1 1 0 100-2zM13 23h1a1 1 0 100-2h-1a1 1 0 100 2zM13 27h9a1 1 0 100-2h-9a1 1 0 100 2zM26 27h2a1 1 0 100-2h-2a1 1 0 100 2zM46 25H32a1 1 0 100 2h14a1 1 0 100-2zM13 31h13a1 1 0 100-2H13a1 1 0 100 2zM41 30a1 1 0 00-1-1H30a1 1 0 100 2h10a1 1 0 001-1zM36 35h8a1 1 0 100-2h-8a1 1 0 100 2zM17 34a1 1 0 001 1h14a1 1 0 100-2H18a1 1 0 00-1 1zM13 35h1a1 1 0 100-2h-1a1 1 0 100 2zM13 39h9a1 1 0 100-2h-9a1 1 0 100 2zM26 39h2a1 1 0 100-2h-2a1 1 0 100 2zM31 38a1 1 0 001 1h15a1 1 0 100-2H32a1 1 0 00-1 1zM13 43h13a1 1 0 100-2H13a1 1 0 100 2zM40 41H30a1 1 0 100 2h10a1 1 0 100-2zM51 41h-7a1 1 0 100 2h7a1 1 0 100-2zM40 45h-4a1 1 0 100 2h4a1 1 0 100-2zM17 46a1 1 0 001 1h14a1 1 0 100-2H18a1 1 0 00-1 1zM13 47h1a1 1 0 100-2h-1a1 1 0 100 2zM22 49h-9a1 1 0 100 2h9a1 1 0 100-2zM28 49h-2a1 1 0 100 2h2a1 1 0 100-2zM39 49h-7a1 1 0 100 2h7a1 1 0 100-2zM44 49h-1a1 1 0 100 2h1a1 1 0 100-2z"/>
</svg>
