<?xml version="1.0" encoding="iso-8859-1"?>
<!-- Generator: Adobe Illustrator 19.0.0, SVG Export Plug-In . SVG Version: 6.00 Build 0)  -->
<svg version="1.1" id="Capa_1" xmlns="http://www.w3.org/2000/svg" xmlns:xlink="http://www.w3.org/1999/xlink" x="0px" y="0px"
	 viewBox="0 0 60 60" style="enable-background:new 0 0 60 60;" xml:space="preserve">
<g>
	<path d="M11,7c0-2.206-1.794-4-4-4S3,4.794,3,7s1.794,4,4,4S11,9.206,11,7z M7,9C5.897,9,5,8.103,5,7s0.897-2,2-2s2,0.897,2,2
		S8.103,9,7,9z"/>
	<path d="M16,11c2.206,0,4-1.794,4-4s-1.794-4-4-4s-4,1.794-4,4S13.794,11,16,11z M16,5c1.103,0,2,0.897,2,2s-0.897,2-2,2
		s-2-0.897-2-2S14.897,5,16,5z"/>
	<path d="M25,11c2.206,0,4-1.794,4-4s-1.794-4-4-4s-4,1.794-4,4S22.794,11,25,11z M25,5c1.103,0,2,0.897,2,2s-0.897,2-2,2
		s-2-0.897-2-2S23.897,5,25,5z"/>
	<path d="M0,0v12v2v46h9h51V14V0H0z M2,2h56v10H9H2V2z M2,58V14h5v44H2z M58,58H9V14h49V58z"/>
	<path d="M5,17H4c-0.553,0-1,0.447-1,1s0.447,1,1,1h1c0.553,0,1-0.447,1-1S5.553,17,5,17z"/>
	<path d="M5,21H4c-0.553,0-1,0.447-1,1s0.447,1,1,1h1c0.553,0,1-0.447,1-1S5.553,21,5,21z"/>
	<path d="M5,25H4c-0.553,0-1,0.447-1,1s0.447,1,1,1h1c0.553,0,1-0.447,1-1S5.553,25,5,25z"/>
	<path d="M5,29H4c-0.553,0-1,0.447-1,1s0.447,1,1,1h1c0.553,0,1-0.447,1-1S5.553,29,5,29z"/>
	<path d="M5,33H4c-0.553,0-1,0.447-1,1s0.447,1,1,1h1c0.553,0,1-0.447,1-1S5.553,33,5,33z"/>
	<path d="M5,37H4c-0.553,0-1,0.447-1,1s0.447,1,1,1h1c0.553,0,1-0.447,1-1S5.553,37,5,37z"/>
	<path d="M5,41H4c-0.553,0-1,0.447-1,1s0.447,1,1,1h1c0.553,0,1-0.447,1-1S5.553,41,5,41z"/>
	<path d="M5,45H4c-0.553,0-1,0.447-1,1s0.447,1,1,1h1c0.553,0,1-0.447,1-1S5.553,45,5,45z"/>
	<path d="M5,49H4c-0.553,0-1,0.447-1,1s0.447,1,1,1h1c0.553,0,1-0.447,1-1S5.553,49,5,49z"/>
	<path d="M5,53H4c-0.553,0-1,0.447-1,1s0.447,1,1,1h1c0.553,0,1-0.447,1-1S5.553,53,5,53z"/>
	<path d="M13,19h13c0.553,0,1-0.447,1-1s-0.447-1-1-1H13c-0.553,0-1,0.447-1,1S12.447,19,13,19z"/>
	<path d="M30,19h10c0.553,0,1-0.447,1-1s-0.447-1-1-1H30c-0.553,0-1,0.447-1,1S29.447,19,30,19z"/>
	<path d="M44,19h2c0.553,0,1-0.447,1-1s-0.447-1-1-1h-2c-0.553,0-1,0.447-1,1S43.447,19,44,19z"/>
	<path d="M35,22c0,0.553,0.447,1,1,1h15c0.553,0,1-0.447,1-1s-0.447-1-1-1H36C35.447,21,35,21.447,35,22z"/>
	<path d="M32,21H18c-0.553,0-1,0.447-1,1s0.447,1,1,1h14c0.553,0,1-0.447,1-1S32.553,21,32,21z"/>
	<path d="M13,23h1c0.553,0,1-0.447,1-1s-0.447-1-1-1h-1c-0.553,0-1,0.447-1,1S12.447,23,13,23z"/>
	<path d="M13,27h9c0.553,0,1-0.447,1-1s-0.447-1-1-1h-9c-0.553,0-1,0.447-1,1S12.447,27,13,27z"/>
	<path d="M26,27h2c0.553,0,1-0.447,1-1s-0.447-1-1-1h-2c-0.553,0-1,0.447-1,1S25.447,27,26,27z"/>
	<path d="M46,25H32c-0.553,0-1,0.447-1,1s0.447,1,1,1h14c0.553,0,1-0.447,1-1S46.553,25,46,25z"/>
	<path d="M13,31h13c0.553,0,1-0.447,1-1s-0.447-1-1-1H13c-0.553,0-1,0.447-1,1S12.447,31,13,31z"/>
	<path d="M41,30c0-0.553-0.447-1-1-1H30c-0.553,0-1,0.447-1,1s0.447,1,1,1h10C40.553,31,41,30.553,41,30z"/>
	<path d="M36,35h8c0.553,0,1-0.447,1-1s-0.447-1-1-1h-8c-0.553,0-1,0.447-1,1S35.447,35,36,35z"/>
	<path d="M17,34c0,0.553,0.447,1,1,1h14c0.553,0,1-0.447,1-1s-0.447-1-1-1H18C17.447,33,17,33.447,17,34z"/>
	<path d="M13,35h1c0.553,0,1-0.447,1-1s-0.447-1-1-1h-1c-0.553,0-1,0.447-1,1S12.447,35,13,35z"/>
	<path d="M13,39h9c0.553,0,1-0.447,1-1s-0.447-1-1-1h-9c-0.553,0-1,0.447-1,1S12.447,39,13,39z"/>
	<path d="M26,39h2c0.553,0,1-0.447,1-1s-0.447-1-1-1h-2c-0.553,0-1,0.447-1,1S25.447,39,26,39z"/>
	<path d="M31,38c0,0.553,0.447,1,1,1h15c0.553,0,1-0.447,1-1s-0.447-1-1-1H32C31.447,37,31,37.447,31,38z"/>
	<path d="M13,43h13c0.553,0,1-0.447,1-1s-0.447-1-1-1H13c-0.553,0-1,0.447-1,1S12.447,43,13,43z"/>
	<path d="M40,41H30c-0.553,0-1,0.447-1,1s0.447,1,1,1h10c0.553,0,1-0.447,1-1S40.553,41,40,41z"/>
	<path d="M51,41h-7c-0.553,0-1,0.447-1,1s0.447,1,1,1h7c0.553,0,1-0.447,1-1S51.553,41,51,41z"/>
	<path d="M40,45h-4c-0.553,0-1,0.447-1,1s0.447,1,1,1h4c0.553,0,1-0.447,1-1S40.553,45,40,45z"/>
	<path d="M17,46c0,0.553,0.447,1,1,1h14c0.553,0,1-0.447,1-1s-0.447-1-1-1H18C17.447,45,17,45.447,17,46z"/>
	<path d="M13,47h1c0.553,0,1-0.447,1-1s-0.447-1-1-1h-1c-0.553,0-1,0.447-1,1S12.447,47,13,47z"/>
	<path d="M22,49h-9c-0.553,0-1,0.447-1,1s0.447,1,1,1h9c0.553,0,1-0.447,1-1S22.553,49,22,49z"/>
	<path d="M28,49h-2c-0.553,0-1,0.447-1,1s0.447,1,1,1h2c0.553,0,1-0.447,1-1S28.553,49,28,49z"/>
	<path d="M39,49h-7c-0.553,0-1,0.447-1,1s0.447,1,1,1h7c0.553,0,1-0.447,1-1S39.553,49,39,49z"/>
	<path d="M44,49h-1c-0.553,0-1,0.447-1,1s0.447,1,1,1h1c0.553,0,1-0.447,1-1S44.553,49,44,49z"/>
</g>
</svg>
