<?xml version="1.0" encoding="UTF-8" standalone="no"?>
<!DOCTYPE svg PUBLIC "-//W3C//DTD SVG 20010904//EN"
              "http://www.w3.org/TR/2001/REC-SVG-20010904/DTD/svg10.dtd">

<svg xmlns="http://www.w3.org/2000/svg"
     width="0.24in" height="0.24in"
     viewBox="0 0 72 72">
  <path id="Path"
        fill="black" stroke="black" stroke-width="1"
        d="M 24.76,61.92
           C 24.76,61.92 6.91,61.92 6.91,61.92
             6.91,61.92 6.91,9.79 6.91,9.79
             6.91,9.79 24.76,9.79 24.76,9.79
             24.76,9.79 24.76,16.27 24.76,16.27
             24.76,16.27 15.28,16.27 15.28,16.27
             15.28,16.27 15.28,55.44 15.28,55.44
             15.28,55.44 24.76,55.44 24.76,55.44
             24.76,55.44 24.76,61.92 24.76,61.92 Z
           M 65.47,61.92
           C 65.47,61.92 47.63,61.92 47.63,61.92
             47.63,61.92 47.63,55.44 47.63,55.44
             47.63,55.44 57.11,55.44 57.11,55.44
             57.11,55.44 57.11,16.27 57.11,16.27
             57.11,16.27 47.63,16.27 47.63,16.27
             47.63,16.27 47.63,9.79 47.63,9.79
             47.63,9.79 65.47,9.79 65.47,9.79
             65.47,9.79 65.47,61.92 65.47,61.92 Z" />
</svg>
